/* XPM */
static char *_b478b24794c4137dfc6263879cab416[] = {
/* columns rows colors chars-per-pixel */
"64 64 158 2 ",
"   c #010105",
".  c #01020C",
"X  c #020414",
"o  c #080715",
"O  c #050915",
"+  c #090A14",
"@  c #02051B",
"#  c #08061B",
"$  c #05091C",
"%  c #090B1C",
"&  c #06101F",
"*  c #0C111E",
"=  c #020623",
"-  c #050A23",
";  c #0A0D24",
":  c #010529",
">  c #050B2B",
",  c #0A0E2B",
"<  c #061325",
"1  c #0C1124",
"2  c #0D1925",
"3  c #07112C",
"4  c #0C122C",
"5  c #0E1B2D",
"6  c #121525",
"7  c #151926",
"8  c #11152B",
"9  c #131A2C",
"0  c #181E2C",
"q  c #000631",
"w  c #050D32",
"e  c #090D33",
"r  c #060F3B",
"t  c #0A0F3A",
"y  c #051133",
"u  c #0C1333",
"i  c #0E1935",
"p  c #06123B",
"a  c #0C143B",
"s  c #0D193C",
"d  c #111633",
"f  c #131A34",
"g  c #181E35",
"h  c #11163B",
"j  c #131B3B",
"k  c #181E3D",
"l  c #152334",
"z  c #1C2536",
"x  c #15213C",
"c  c #1B233C",
"v  c #1D2939",
"b  c #202737",
"n  c #2C353E",
"m  c #050E45",
"M  c #071440",
"N  c #0B1542",
"B  c #0D1A43",
"V  c #07124A",
"C  c #0C144A",
"Z  c #0E1B4B",
"A  c #111644",
"S  c #131C43",
"D  c #181E43",
"F  c #131D4A",
"G  c #1B1F4C",
"H  c #0E1750",
"J  c #0D1B51",
"K  c #0B1E59",
"L  c #121D52",
"P  c #101B59",
"I  c #0F204B",
"U  c #142143",
"Y  c #1A2343",
"T  c #172846",
"R  c #1D2A44",
"E  c #14234C",
"W  c #1A254C",
"Q  c #17294D",
"!  c #1C2B4B",
"~  c #162352",
"^  c #1A2453",
"/  c #162951",
"(  c #1D2A53",
")  c #17255B",
"_  c #1A265A",
"`  c #15295B",
"'  c #1D2C5B",
"]  c #1D325C",
"[  c #222B45",
"{  c #222C4C",
"}  c #263042",
"|  c #2D3542",
" . c #26304B",
".. c #29344C",
"X. c #323E4C",
"o. c #212C53",
"O. c #212E5C",
"+. c #233254",
"@. c #2A3454",
"#. c #2B3B55",
"$. c #24335C",
"%. c #2B375C",
"&. c #263B5D",
"*. c #2B3A5B",
"=. c #343F5F",
"-. c #162361",
";. c #1B2560",
":. c #152B62",
">. c #1C2C62",
",. c #1A2F6E",
"<. c #163466",
"1. c #1E3264",
"2. c #1C3369",
"3. c #1C2F74",
"4. c #212D62",
"5. c #242F6D",
"6. c #243464",
"7. c #283561",
"8. c #273B62",
"9. c #2A3B62",
"0. c #24346A",
"q. c #283569",
"w. c #243A6B",
"e. c #2A3C6A",
"r. c #313E6B",
"t. c #233373",
"y. c #243B71",
"u. c #223E7F",
"i. c #293F78",
"p. c #35425F",
"a. c #2F4167",
"s. c #2C4269",
"d. c #344164",
"f. c #384660",
"g. c #334269",
"h. c #3A4B69",
"j. c #2F4576",
"k. c #2D4B7F",
"l. c #364A75",
"z. c #33477A",
"x. c #334F7F",
"c. c #325175",
"v. c #3E5076",
"b. c #33507A",
"n. c #465678",
"m. c #43597E",
"M. c #213E84",
"N. c #2B4381",
"B. c #2D4A8E",
"V. c #3F5586",
"C. c #385984",
"Z. c #3E5893",
"A. c #405487",
"S. c #435B8A",
"D. c #425F99",
"F. c #4D6490",
"G. c #647B9B",
"H. c #6381B5",
/* pixels */
"O + . O - e e e @ D S q =  .x @ .     + X . 6 = +.*.= 4 d - , = r r.w > i > - # @ @ = ^ F F F a S t ; X i Z <.H.1.s A j % . X X ",
"O % . X X . @ + @ 1 . . . O ; & & .   . O . X & @ & X O , u , = C 4.F r F h > # @ X @ k - $ < # . X % @ t _ 2.S.B @ = d 4 @ = , ",
"$ % O .     . o o + . o O O & @ v O .     . . O o X . X . 6 % @ < 4 @ O O . o . . . @ ; # X # ; @ ; % @ e D q h f @ = f , @ # = ",
"u k ; @ O . f x X O . X O 4 4 > { 2 O   * & v 4 = d ; X @ , # @ u d @ @ ; X . . . . X 8 = - d = X @ = h e h q A F q m ' ~ r L C ",
"E S = , 8 > y $.s.p w R ! +.U s &.+.Q Q &.+.+.S M S > @ A L q Y $.$.B F E h @ X 6 X @ , h t A e u = ; > N G q A L m L ~ S = e e ",
"& $ # ; X X @ ; f > < 6 < & & $ 5 < < 2 * 1 < ; ; , # @ , , - u U B w w t < X . o % X - d r Z _ B > , @ @ d = t 4.V _ w O X , w ",
", ; @ % .   $ % . . .   O . X $ g O .   X . . X Y h % X . . O = s S r S d - X . . . . @ , t A h = @ % X . @ - d 7.q h > X X e e ",
"@ $ @ + .   o % O       . . . & Y 3 O O O   . o k f # . . . o # 3 u i i : , 6 X . o X ; , : > , X X + X . @ = d [ : h - . o % % ",
"O @ . o X X . 1 0 @ . .     . ; j i = ; % X e e e t - X ; @ X O O @ y o.#.= x = X + @ @ O @ h > = X 1 @ X = : D h : A u # X . . ",
"; X . . o O O 4 f $ < @ $ & 4 > 3 = = % O X ; : A A , @ # @ ; - i i i U $.p f # # X . . @ , , d , @ 1 X . o X ; # @ e > # $ ; 5 ",
"; @ # @ % @ $ 9 z @ 3 i p %.j @ - @ @ $ X X , e e e - = ; X , i ! +.+.B F ^ o.> j = @ 4 u S I W S i 4 @ O X X ; ; X @ @ < @.( $.",
"# # 1 X     . 0 R y U w > ..f = ; 5 x U ( Z L N e = @ @ ; - % X O O @ $ , , , @ @ % @ ; @ O @ - @ X o o ; : > { d @ $ X ; u = u ",
".             2 R u 3 - - ..2 X % $ + $ S t h : @ # @ @ ; - ; X O $ @ # # = d = X .   . o X X % o . o X ; > w x @ X # % O @ = d ",
"            X l +.U O X X b 7 . X X O & ; d j , : # X . 4 O + . . X > F S q - @ O + O & $ @ @ ; O X @ # X X - c O X X . . . . @ ",
"            @ R +.i - @ @ 9 1 X . X . . 4 4 : , , , $ X 1 @ $ @ $ X = D U q @ - < d @ $ O O O O X = N ^ = @ ; 0 . . .   . O , - ",
"  O O % 1 & @ 1 l O . . O [ ! y u f O X 6 @ . O - - $ > 9.&.> # $ O X , 4 @ - - Y +.#.p.#.R U U f ; @ 0 O O > x j < $ 4 X o % X ",
"- 5 = f [ < > x x ; $ X X j ( ` _ O.r a A S > = e h : = a.9.w 4 d = > f u = U Z 0.j.9.v.8.s.] ] ] p = Y u e t i W y = d > i A m ",
"$ 6   . + . O 4 g @ .       X O . X # > e u @ X - # X @ O . X X X X ; ; 6 @ < 5 x = X $ @ 4 u = $ @ X g - $ O O O . X # @ - @ # ",
"; 4 X       . ; 4 $ .         . . ; w S A , @ @ : j t , d @ @ X @ < i e ; - u t ' m q u p ( W : @ O @ 6 $ ; O @ ; @ q D A t w a ",
"$ % o .   . . $ 6 $ .   O O . % @ 4 = 4 d - X X a ^ , = 6 X O O X @ = f 4 - j : W a q S r E O.B : - @ d O @ - d $ @ @ ; , > h t ",
"* * X     .   * 9 @   . O @ j S F S = ; . . X X Z q.e > 4 ; . o $ , w S f X . X 8 = : , = j d - X $ - 8 O X = [ - # ; X . X % # ",
"O O * X       O x j O . O @ - j d > > [ X . . X 1.A.@ X @ O   . = h 5.-.G @ X X S W > h i Y u - @ O @ @.i = q o.h : , = = - e w ",
".     .       . - f @ X o . X @ j : > @.> $ X X s ! @ - X O - e L 5._ q $ O .   O # @ ; X @ @ ; O O X c 4 - w { d @ # # X = h t ",
"O *   O + O O $ # 6 % X + @ @ @ x > = 0 X .   . ; f e , , 4 , w C 5.> X . . . o . X @ 1 X +     . o X 6 ; @ = +.u : e , ; % @ X ",
". + ; 4 U W U U x 3 $ O = k , > 4 @ @ 6 .     X 3 o.a A O.N h q t W : X . . o @ - u = ; X + X   o X $ j U B q 7.E r F t > 4 - X ",
"< $ X X ; 8 @ % . . + . # @ X ; + # X 7 . .   . < D = - j > O X h S = ; d @ - X O ; X ; - = - e , - > k 4 > Z _ u = j : - , , , ",
"4 @ X . ; , = ; X X # O o X o % . O @ k ; X . . ; h : d W = @ X : W > a D e e , - 4 X - > h N A = @ @ @ @ > M r.U y U u f d t p ",
"O . X @ d S - # O . . o . X X 1 X $ @ j W j X @ % - : t h > = @ , S u d S m A r = @ @ 4 : 4.t.P r @ @ O X - N A.' ( c.e.&.&.$.U ",
"+ . O 1 u < .           . o . . . .   + O @ # $ o X = e ; , $ O @ ; ; p _ ` / Z T ( Q 8.~ L P ) ) H > , = > a F B s Y 3 $ O O O ",
". .   . % X     . O @ @ O o         . . O + @ + X ; : j , @ O O & = 3 s S S ; @ O O $ 2 ; - , - - , = = 4 3 > h v @ @ O     .   ",
"X O * & & $ O O     . o X + + .   . o @ # @ O O X O @ d u f l l 5 5 & O < O   . X O $ @ $ O O O . . X 9 $ O ; j R i 4 3 4 & .   ",
"4 i h.U i u s d = 4 d , @ - ; X . % e ~ _ / S q = f O X ^ A.c.c.C.c.U y u i j : > u @ g ; 4 6 . X @ s l.] Z M 1.x.k.i.:.` / : 4 ",
"  O | $ & X X + % , # .     o .   . @ ; ; ; ; = @ $ . X x Q X O - 5 j e > u S : = 8 X + @ 1 * . . X + X ; 4 y W i < < O = d ; ; ",
"  O n O + . O # @ 1 - X o . . . . o o X @ 4 - , $ O O X s ! $ @ > s f u = u S q w j @ = X % % . O # , : e p ~ ( - O @ > u f @ @ ",
". O X.$ O . o @ = o.B w # X X 6 @ $ X @ @ d S : @ X . X U ( q f ; d @ ; X ; j = F G = > > k d = S t ; = s ~ 0.( - O X . 1 4 @ O ",
"  & @.t 4 > e h M @.d @ X % . X X + X @ @ h G r t u ; @ U +.w , - 4 @ O X # 4 = e , X # - j d : u > ; = t ~ Z O.3 O . . + X X . ",
"  O l - @ @ $ - = k d 4 u u u u t j - @ ; # X @ B 7.= u ( 8.> X @ 8 X @ X @ d t A j X X u 7.s > j t : n.6.J :.e.( = ; . o X > , ",
"O & v @   . $ 4 @ f % $ $ $ < d u u @ @ 4 - $ @ ; Y @ - _ 6.q # , u = d $ @ ; = Y j @ . ; x e w j t > d.Q B I $.+.@ . . X O = e ",
"O . l - X X S ^ = 4 .       # ; ; - # = d j u @ @ ; $ = ^ O.e @ = ; - , ; ; @ , *.: - ; - , X # O @ , , - x I ] f @ o . . @ , > ",
"    % o . O , h : f - @ . o # ; X X o X ; , = e h s = @ S d , = = # X o . . @ , W > # = $ ; , - > u , - - - < p.u = # @ @ - D t ",
"    + . .   # ; = D - $ X . # % . . . o 1 - > e E i @ O ; X % # $ @ .     . $ - R t @ O ; - @ - , - - X O < - @.4 @ @ $ $ @ > t ",
"    . .     o - w +., = 1 X   + . + . . % % . X f s @ X % = , = O . o o X 4 f y e.' y > 4 > X X O . . . X @ = o.S r > ; *   @ 6 ",
"X $ 9 O .   . 1 i i - X     1 4 X . @ 1 S u @ = w.V.- X . . o X . .   X $ $ @ u F.<.>.:.B B E G U j Y f @ @ : d.j @ O % % . X o ",
". O .   .     7 @.i $ . . 7 * .     . @ v x 3 t ( s @ X . . $ O o . X d u u - f A.] E j - # ; 4 $ ; < @ O @ : r.] w > , % . .   ",
"    o .     . 0 #.u - $ X 0 * . X 7 . O 1 f 3 y E o.> @ % = h e 4 - , , e d > B &.( ~ ~ t > > ; @ @ > S > > w $.' C H F u @ .   ",
"        . . O 9 b @ $ X           . . o X X X O > { u - - d e : , @ @ @ = = O ; u - @ ; < = > u > - @ d @ @ t $.B : > , j 4 X . ",
"    . . . . . 7 z O & O O .   .       . . o O X - 5 @ # - 4 X . X X X , , , ; @ 6 $ X . . X = ; X . . O @ > B O.h = - = X X o . ",
"% + ; % O . . 9 *.s p p ! < - 9 5 $ . o o @ % @ , S @ j h e X @ k m H ;.F S j @ c $ X . O # , d ; = @ , y ) N.N.L q C A = ; ; X ",
"; % % @ O . . + { U y B +.B i u j 4 X     .   . < k = > C W @ X , - > , , = ; @ o . .     . . X # $ X @ X > y g.U @ - = . . ; ; ",
"    . + + X X @ ; - . O 4 @ $ $ O X X .   . X @ u W q h d : @ @ @ , # @ , e h e - % . .     . O # > ; = - < y @.d = , d X . @ ; ",
"    . o + . O % @ f 4 i U Y < - O O X = Y e d : p ^ q F 4.H Z F a h , @ X @ ; ; O O . . $ 4 a B s s e h > j s =.j = : h i t h h ",
"            . . X [ f s W *.4 . . @ # - [ - X . 4 R = h S i > = 4 Y - # . . .   X O . X 4 e i U S u q D > > 3 =.f @ X @ , 3 3 4 ",
"            o . X d X @ 3 R 4 O X = , - ; - ; X 5 ..= d # . .   X 6 - , 4 X . . X 4 X @ u y t > 1 - @ g $ ; j *.< X O $ - , - - ",
"+   1 X     . . . % O X O c g = - h d e , : s d x { O @ u > @ # @ ; : , , = @ O d h w ( B I ( ~ / W y ! - - i *.x 4 ; @ , u e e ",
"% $ 4 @ . . O . . % . . . 6 6 @ @ $ X O X O ; 6 < - # = , : = ; @ # # , - # O O ; $ - f 4 s j u U s S s y u $ 6 4 & $ X @ , > U ",
"u R u 1 ; $ o X @ 6 ; = f f - X . . X o X O o @ + # X # O X 8 - - X @ % X X # $ X O . . . . O @ < - > : E / > $       X u ~ ~ q.",
"< 2       . O O . X * X $ $ ; X o . O 1 @ @ ; @ ; = @ , d u = @ @ @ X o O @ @ # # % . o @ # , h S i S w w d , @ $ O O X - - = u ",
"< 5 v R  .u S f .     . # d ; . .       . o 4 : , - X @ S ^ w d = , G r u # X O ; h = , t t A F ( F B j w , h q i d u e S u > - ",
"< v #.5 5 $ O O .       . o o .         . X ; > h h ; = i +.: @ ; # , @ , @ X ; > d = 4 O @ , , @ # @ d ; @ , - , @ X @ 4 , t d ",
"3 l } $ O               . . .   O o   . . X D r ~ 7.M F _ O.> X @ O . o 6 @ X X X ; = , @ @ = ; X @ - c - = , @ X X X . . X t A ",
"B ! *.s u : $ % o   . . o o     X 4 u E B S U > @ O O - S S u @ O . ; d e = h t N a : j e e : d 4 : y R > < ; X X O - u t a q h ",
"; 4 } $ $ X X O       . + o .   X $ O $ X X . . X . O @ $ 8 @ X X X # @ d e , = @ - = h , = X @ # X X } 5 O X       . X # , @ @ ",
"O & } > 4 = u u O 4 < = x t 4 > > y w , > - @ - s y - s E e > > , > w F >.H N t ( ( t e @ @ O O @ - 3 f.l $ & $ % O @ - ; = = , ",
"  O ( Z F r w j u g $ - ' 0.:.:.u.B.N.,.M > = s y.D.` w.z.B = # @ ; : F t.3.-.P Z.` : ; o X @ # < > y G.#.> @ u W M B j i - @ ; "
};
