/* XPM */
static char *_ed145d686504738e37eb7b3f8f17d59[] = {
/* columns rows colors chars-per-pixel */
"64 64 225 2 ",
"   c #2B1624",
".  c #2C1F2E",
"X  c #251F31",
"o  c #2C222F",
"O  c #272233",
"+  c #2D2434",
"@  c #2F2A36",
"#  c #2E2639",
"$  c #27283C",
"%  c #2E2C3B",
"&  c #302C37",
"*  c #302D3A",
"=  c #2F303E",
"-  c #30313E",
";  c #232E44",
":  c #2C2E41",
">  c #302F40",
",  c #263247",
"<  c #2E3344",
"1  c #26344B",
"2  c #2D364A",
"3  c #2E394D",
"4  c #303443",
"5  c #313847",
"6  c #303649",
"7  c #313A4C",
"8  c #273B56",
"9  c #2D3C53",
"0  c #253D5A",
"q  c #2B3E59",
"w  c #303D52",
"e  c #2E4156",
"r  c #2D435B",
"t  c #2E485F",
"y  c #314155",
"u  c #30455B",
"i  c #31495D",
"p  c #254463",
"a  c #2C4662",
"s  c #264A66",
"d  c #2D4A64",
"f  c #23456B",
"g  c #2A4669",
"h  c #254B6C",
"j  c #2C4D6B",
"k  c #304761",
"l  c #314B63",
"z  c #304E69",
"x  c #2E536B",
"c  c #325265",
"v  c #33566C",
"b  c #39566D",
"n  c #35596F",
"m  c #395B6B",
"M  c #244F70",
"N  c #2B4E71",
"B  c #264D79",
"V  c #265376",
"C  c #2C5473",
"Z  c #2D5A75",
"A  c #26557A",
"S  c #2A567A",
"D  c #255B7D",
"F  c #2C5B7B",
"G  c #315672",
"H  c #385770",
"J  c #335A73",
"K  c #3A5C73",
"L  c #325E7B",
"P  c #2F627C",
"I  c #336176",
"U  c #396277",
"Y  c #33627C",
"T  c #3A627A",
"R  c #35697E",
"E  c #3A6A7F",
"W  c #466A7F",
"Q  c #275781",
"!  c #275B80",
"~  c #2A5C81",
"^  c #235D8B",
"/  c #345F83",
"(  c #276381",
")  c #2D6383",
"_  c #2E6A85",
"`  c #24638D",
"'  c #2B6589",
"]  c #266A8D",
"[  c #2B6A8C",
"{  c #326484",
"}  c #396682",
"|  c #356C83",
" . c #3B6D83",
".. c #316589",
"X. c #336D8C",
"o. c #3A6E89",
"O. c #367185",
"+. c #3A7385",
"@. c #3D7887",
"#. c #36748C",
"$. c #39758B",
"%. c #37788E",
"&. c #3A798D",
"*. c #236992",
"=. c #2B6E93",
"-. c #276B98",
";. c #2C6F9C",
":. c #346E91",
">. c #396D92",
",. c #2F7495",
"<. c #2F7897",
"1. c #29759B",
"2. c #2E7A9A",
"3. c #357592",
"4. c #3A7492",
"5. c #367A92",
"6. c #3B7B93",
"7. c #357D9B",
"8. c #3C7D9B",
"9. c #2779A3",
"0. c #2978AB",
"q. c #3577A1",
"w. c #3979A1",
"e. c #357EAF",
"r. c #417385",
"t. c #43748D",
"y. c #447D8D",
"u. c #427791",
"i. c #437B95",
"p. c #4A7C94",
"a. c #427FA0",
"s. c #3B8094",
"d. c #34829D",
"f. c #3C829C",
"g. c #3F899E",
"h. c #2E84A5",
"j. c #3483A3",
"k. c #3A85A3",
"l. c #378AA6",
"z. c #3D8BA4",
"x. c #3682A8",
"c. c #3887A9",
"v. c #378CAB",
"b. c #3B8DAA",
"n. c #3E90A5",
"m. c #3791AA",
"M. c #3D91AC",
"N. c #338FB1",
"B. c #2896BF",
"V. c #3690B1",
"C. c #3C95B2",
"Z. c #3E9AB5",
"A. c #3B9CB9",
"S. c #3AA0B9",
"D. c #408195",
"F. c #42849C",
"G. c #48859A",
"H. c #428B9D",
"J. c #48899D",
"K. c #4386A4",
"L. c #438CA2",
"P. c #4A8BA3",
"I. c #448EA9",
"U. c #4D8DA9",
"Y. c #5288A3",
"T. c #5C8FAD",
"R. c #4392A5",
"E. c #4C90A4",
"W. c #4294AB",
"Q. c #4996AA",
"!. c #459AAD",
"~. c #4899AA",
"^. c #5592A9",
"/. c #5098AF",
"(. c #4094B2",
"). c #4A95B1",
"_. c #439BB2",
"`. c #489EB5",
"'. c #409EB8",
"]. c #489DB9",
"[. c #539FB4",
"{. c #5A9BB3",
"}. c #44A2B7",
"|. c #48A3B5",
" X c #42A3BC",
".X c #4CA3BB",
"XX c #4DAABF",
"oX c #55A0B1",
"OX c #58A4B6",
"+X c #51A7BB",
"@X c #5BA5BA",
"#X c #5FAABD",
"$X c #5EB0BF",
"%X c #64A7B9",
"&X c #65A8BA",
"*X c #3E9CC0",
"=X c #4DABC4",
"-X c #54A5C0",
";X c #53ACC1",
":X c #5BACC2",
">X c #4FB1C6",
",X c #56B5C6",
"<X c #5CB4C6",
"1X c #5FB9C6",
"2X c #54B6CA",
"3X c #5AB2C8",
"4X c #5CB8CA",
"5X c #61AFC2",
"6X c #63B4C5",
"7X c #69B6C5",
"8X c #64BBCD",
"9X c #6CBCCD",
"0X c #71BDCE",
"qX c #6CBFD4",
"wX c #5EC3D4",
"eX c #62C1CF",
"rX c #67C1D4",
"tX c #6CC3D1",
"yX c #75C5D3",
"uX c #75C9D6",
"iX c #70CBDC",
"pX c #7CCEDD",
"aX c #7CD3DE",
"sX c #83D2DF",
"dX c #A1E9F0",
/* pixels */
"6 # < 6 2 E t 5 * * & * 9 R I e * & & & & & % 6 < K E = % % : = < i O.1 7 7 +.k = & & & & & & & = w y.k = @ & * > 7 r.l 2 2 < + ",
"< + + % % R t y & @ % < 9 I R e * & = * @ 6 4 < 2 T  .1 % % = > 2 c | 2 5 r 5.k = & & * % = & & * y s.l = % % @ > w &.G y 7 5 5 ",
"7 y # . 9 %.C 6 & 5 5 3 r O.P r - 3 6 * & & % 6 5 U O.3 = % < > 2 J &.r < y 5.d = % & & * * * & - y s.i = % & % 3 r 6.n - @ = * ",
"6 6 < + r %.G 4 @ & % < 3 R Y 9 * < * & & & 4 > 2 U R $ > = < < 8 K &.3 < y 5.z 4 & & & & & & & - u s.t 6 % & & 5 r 6.c > & * * ",
": : w 3 l $.k = % & = > 3 R L 6 & & & & = > & = 9 { I : < = = % w F 5.9 6 y %.z 4 & & & & & & & 5 u &.d > & & & - 3 6.x > % & % ",
"7 w * 6 r &.i < % & * * <  .6.9 < & & & & & = 4 e ^.a.p < & % 6 0 Y.L.9 < r 5.l - & & & & & & & 5 u F.x - & & % - y @.v > * - 3 ",
"6 & % 4 y %.k 4 & & * & < x z.| 9 - & % & & = 2 %._.|.I 3 = = : { rXL.3 7 a &.a 4 & & & & & - = 3 6.f.e & & & 6 5 e &.c 4 & & - ",
"4 > % > y &.l < & & & & = 7 C L.} 3 = & = = 6 o.k.V ..!.I e 3 } l.[ 7.y > r &.z - & % - & & = 2 6.j.d % - * & & - 3 &.c < & & - ",
"5 - % 4 i ,.z 4 & & & & & & 5 C L.{ 3 5 = 3 o.g.N 4 9 ..|.( { Z.~ Y &.3 - u %.g < * > * % = , 8.j.j = & % & & & = e 6.v 4 & % 7 ",
"- & % 6 z oXC w % & % * & & * 7 N W.O.r 8 +.k.a = * = r -.yX=X` r J &.3 = e %.z = & * * > 3 u.8.9 < > 6 & & % - < y &.v - & % 6 ",
"- - < q f..Xz.d 6 = * & & & & & 5 C _.X. .M.N > * * = 2 :.=X|.F g Y &.3 = e &.N 3 < - > 8 i.c.a = - - > & < - * - w &.v < % & < ",
"- - 9 K.7.h 8.R.r 5 & & & * & & % e ! ,X(.N = % 7 - <  ._.D C ~.Z G 5.9 4 i %.d 5 % 4 9 P.v.z > * & & + * - & & - 9 &.c < = > 5 ",
"< 3 K.7.e 3 q m H.a 5 - & & & * 5 ; 4.M.C < = % > < E b.C 2 9 { !.f.7.p - i 5.j 2 - 9 8.2X7.q 5 & & % 6 % @ & & < 3 +.Z e = e 5 ",
"2 i.7.r - > r e &.Z.A 3 * & * > q p.M.A < * * & < H (.C > % < e s yXP.r > w H...g e 6.k.A M.5.9 4 & = * % 4 * & * 3 R W.9 2 7 - ",
"6.k.a % * & * y M {.7Xh 7 * - 2 4.+XM.j 7 = & - 3 T O.3 * * % = a 3.f.e - 5 { !.~ &.j.j 7 z k.+.9 < = = 6 4 & & * 5 r +.H.a y < ",
"].B 7 & & * & & r 4.XXn.z 9 3 4.b.M 6.L.d 5 * * < T O.3 * & # = 3 J %.9 * * 9 =.<Xg.g 7 % 6 l k.O.9 7 & & @ & & * * 4 9 O.!.j o.",
"6.8.q > > 4 & - 9 #.[ 7.W.s 4.v.C 7 d &.L.t 5 & 6 Y O.6 & & * * < J &.3 = & * r :.W.x < > & 6 z L.| 9 = = 6 & & & & & 4 3 4.6X7.",
"r H.6.9 7 - & & 3  .R j j.6XC.S > & > d 8.L.t 3 6 T O.< % & & & < b &.3 & & & = r L W.l 7 > & 6 N I. .8 7 & & & & & & & = k b.S ",
"5 d k.8.r 4 & - 2  .R 7 j ).4.3 = * & > r #.L.C 9 T O.3 - * & % 6 b $.2 = = > & = 9 ..W.d w - & 6 N z.6.q 6 & % > % = & = i +.r ",
"* 6 d z.s.r 5 & 2  .R 2 3 _ { 6 & & & & 5 e +.R.p | #.3 * & % % 4 J &.7 * & % & & * 3 { W.x w = & 5 d n.&.9 > & = - = @ 4 z &.q ",
"- & 4 a g.8.e 5 3 E R < 6 R Y 6 * * < 6 - 4 a 8.z.[ %.3 & & & * < m &.3 * * = & & & = 3 L _.F r - & 5 N L.%.9 6 & & & @ 4 l &.q ",
"7 & & < g f.6.q 9 E R < < E L 6 & * < 5 @ & = z x.uX8.3 * & & % < J &.3 & & & & & & = 3 a ;.8X..e - & 5 d z.#.9 < & & % 4 i #.r ",
"- & * < 5 g 6.&.f 4.R 2 < | Y , * + - & & & & 4 C W.5.2 * & * % < H &.3 = & & & & = > 6 e { pX XL 3 6 & 5 d z.+.9 4 & < 6 k $.g ",
"6 % % - * 6 o +.k.=.O.3 9 #.L 8 - 6 % & & + < % 3 Y X.r < & & & 6 n #.3 * & & & & * = 9 d @X:X^ !.x w = % 6 d z.+.9 4 & 6 l &.y ",
"u % 6 - = : w N b.yX3.r 2 | I 2 6 % & & # 6 7 4 3 T | q > - & & < n @.3 % & % 5 & * < G Q.] 7.A ..R.G 3 > : 6 z z.O.9 < - i &.q ",
"& y 4 4 y > w 7 S -Xo.3 < { I 1 < & > < 4 4 & 7 3 K O.r - & & * < b &.3 % * % * = < y G.Z C 7.d e { W.G 3 = = 5 N b.&.9 4 i &.q ",
"5 7 & * = 6 * = r #.#.a 6 } J O 7 > > 3 w 4 = 7 < T H.j u % * & < m $.3 * * & * < k J.P 2 r &.q 5 9 { !.J 3 = & 5 z L.r < i #.3 ",
"7 & & & & @ & * 3  .P 9 3  .G , y * % & 4 > 7 - - k j.l.a 3 = - 2 J $.3 * & - 4 l J.X.9 , z %.a < < 9 { W.J 7 - - q @.z : e %.r ",
"4 & & & & & > < q E R 9 6 R F i % o 6 < + 7 5 + 7 w s <X`.r 9 6 < n #.3 * - 2 c J.{ 9 & 6 i %.k 6 5 - 9 L !.G 3 9 s @.t ; d  .2 ",
"6 - & & 6 : 6 = 2  .R , ; +.8.8 $ % % % 6 7 = 7 e 3 L.,.k.k.d 2 < n &.3 * < x G.P 3 % = > i 5.r < & & * 9 Y W.v 7 u +.u e z &.O ",
"> * & & > 6 < 4 3 $.| q L /.`.) 9 9 = 5 3 % = 5 2 i.7.g r f.f.3 2 J #.9 < e L.P 1 5 - * < x &.r - & * & * 9 { R.I e &.l 5 i &.r ",
"6 & - & & & & > 3 +.[ x P.' C H.L 9 7 > & = < 9 f.n O r 9 l 6.r r b O.r y e %.z y 7 * * < r &.r - & & & & = e { (.! 5.c 2 u #.t ",
"< 5 - & % & & = q 5.j.K.X.q 9 L R.Y 3 = > < 3 8.5.9 o o y d %.j y b O.$ 3 t %.i 4 & & & 6 x &.r = & & & & & = e X..X#XC 2 i $.r ",
"# 5 > & & & & > p T.iX*.9 & = w L W.G 2 < 3 F.7.r y 6   3 r o.% q c O.9 = 9 O.C 4 & % & 2 z %.r > % & & & & % - a 7.7Xc 2 u %.e ",
"2 > 6 @ & & = 8 ~ qX*XB 7 & & - 3 o.| q 3 i...q = & y * 3 i o.1 3 i @.9 e l %.l 3 = & # 7 z 5.y = % = & % & & & 4 g %.c 6 y $.9 ",
"6 % + = = % 6 K U.] C.&.9 6 & * q +.#.p J._ 9 4 = & % y = 2 %.z , y &.3 9 3 %.d 6 = & & < r %.t = = * & - & & & > w @.k < i &.r ",
"- % # < % 3 b J.C r N n.&.9 < * y 3.[ F.7.q 6 & % & & > i 9 5.d 9 c %.2 y 9 O.x , % - @ < z %.a < & & & & & & & - e O.l 6 i $.r ",
"6 % % & < H L.A 6 = 5 N z.&.r 4 8 p.8Xh.a 3 & & & & & & 6 H 3.a i R #.9 : t.9Xs w > & 4 r d D.r > % & & & * & % 2 z E.G 3 a &.r ",
"6 % % * 3 H._ 8 > * & 5 j (.L 6 9 p.].N > = & % * & & & 4 k 5.q 2 m 6.r n }.!.d < % = 2 e u.5.3 & % & & & & & > e F.tX_ r z %.q ",
"6 % % = t #.r 3 6 * & = 2 | E 6 3 o._ 3 & & & % * & & * 4 i 3.a 2 v | J C.C ,.r < < 4 3 p.&.q = & & & & & = = 3 6.j.-.}._ j &.r ",
"6 & % 2 i #.r = > * * * 6 | L 5 3 o.R 2 & & & & & & & & = i 5.y 9 K OXC.F t &.k 4 7 e t.6.r % & & % % & % = 9 i.c.C g K.8X*.q.j ",
"6 - & = r #.z 1 6 & & & 5 Y L 3 9 | | 2 * & & & % & & & > r 3.y 9 m 8XD 6 u %.a 6 3 u.6.g = * % % & & - = 3 u.c.N , } K.9.4X3Xh ",
"5 - % 5 r &.i 6 - % > * 5 | { 9 r OXg.q 5 & & & & & & & 6 e %.t 2 b O.2 - y 5.l 7 c L.N % % & = - & & - 3 4.c.N < T K.F B e.sX[ ",
"l 6 < > y &.k % @ = - & 2 | :.a i.k.C.X.3 4 & & & & & & 5 x 5.r 2 b &.3 - e &.k 5 l &.9 = & & & % & 2 q u.k.g < T J.Z 4 7 Z +X.X",
"L.I 9 - y %.l < * & & * 3 X.*.i.w.N Z W.O.9 - & & & & % 6 a 3.r 3 n &.2 - y &.a 5 z 6.y = & & > - < q 8.c.g , T J.F 1 < 6 k <.C ",
"J !.J q r &.d 4 * & & * 9 p.9Xx.C > 7 C !.R 3 4 & & & & > i &.r 3 b &.3 - y %.k 6 c 6.9 * & = = > r P.V.C 3 T P.Z 6 5 4 7 d &.a ",
"9 Y !.R p 5.z > & & & * 8 y..XA - & * 7 x (.R 9 - & & & 4 u 3.k 2 n &.3 - y %.k 3 c &.w * * - % 3 6.3Xm.f } I.F < & * * 4 v %.r ",
"> e G Q.~ ,.Z 2 * & & * 3 | [ 7 * & & & 7 x n.R 9 - & % 4 i 3.r 3 n &.2 - u %.d 6 c +.3 > * < 9 $.k.^ A.@X(.' 2 & = % & = r O.2 ",
"6 < 3 ' -X6Xj 6 = & & * 6 Y Y 7 & & & & * 6 N L.R 9 > & 5 i 7.i 2 b &.3 - y 5.z 6 c $.e - 6 e @.8.z p q.aXk.a 5 & & & & = i &.r ",
"< % - t 4.5XM 2 * & & * 6 | I 6 & & & & & * 7 C n.R 9 4 3 A k.d 2 v &.2 - i 2.N 9 c s.t < 2 8.k.r , K K.` (.s.e 5 & & & < l #.e ",
"* & @ - r :.P 9 % * & * 5 | Y < * % = & & & % 5 z z.| t p {.9Xr 9 v &.3 4 a &Xf.g b s.r : +.c.j 2 K K.~ y N I.6.e < < 6 6 } s.9 ",
"> & & - y 5.z - & & & * 5 Y L 6 % & > & & & & = 7 C _.X.6.A.b.g e I O.3 = e oX>X[ j l.p t.3., 8 } K.Z 4 & 4 N L.&.e 7 8 L M.' 3 ",
"7 & & - u &.z < & & & * 2 R Y < & & & & & * $ = 4 9 ~ 8XC.! 7.k 3 J $.7 2 t d.A Z.V.N.f.l.N , b p.a 3 & % & 6 z L.s.0 { wX2.r w ",
"4 & & - i 5.j 5 & & & & 2 R L 3 & = & & & & - - - 9 8.l.N C 7.r 2 n &.2 7 c s.h *.tXdXB.C g  .p., , > & % & & 5 N M.~.M.<.M.J , ",
"7 * & 4 p {.X.r - & & * 6 R Y 4 < > & * * & * & 4 U l.g 7 k 5.y 7 m &.2 % y ,.e q h ,X0.f T L.M 2 > & = & % & & 7 C .X:.g I W.r ",
"i 5 * > r %X=XZ w % & * 6 } L 2 = & & & & & & * < T O.6 4 i 5.r 6 c &.3 - y %.q o = M L.a.I.F 6 - & & & & & & & > q %.x r q Z L.",
"H.Z 5 6 i 2.,.n.v 3 - - 6 R I < & & & & & & & & 4 U O.6 = z 5.r 2 H &.2 - y %.e > < < L 1X,.r = & & & & & & & & > y 6.v 9 7 9 9 ",
"v W.v w r 6.M { n.v 7 - 6 R L 6 4 & & & & & & % 2 U X.6 2 z f.d 9 H &.3 - y #.V q 3 3 w ~ !.J 3 - @ % * & & & & = w &.G 5 - 5 9 ",
"3 L (.F r 5.v 9 Y n.J 3 w | I 6 - & & & & & & & 2 U O.9 3 i.8XF e L &.3 - u %.N 3 3 = < w L !.G e , 6 * & * * + < w 6.v < & - 5 ",
"7 3 I }.A 2.l < 9 Y W.Z 9 | L 6 % & & & % & & % < U %.8  .v.=._.C Z s.3 - t %.a < 4 4 < 6 7 { ~.x r = & & & + & < 3 &.v 4 % 2 @ ",
"7 - 7 [ =X:Xj < = w { _.Z { ..2 & & & & & & & - 3 | ( E b.j j :._.5.7.q - i 5.N q 7 6 6 - & 9 L ~.v 3 - & % > % 5 r &.c = = e < ",
"= & & 6 >.6XM 5 & * 3 { A.I._ 3 * & & * & & & & 3 4.6X7.g 6 < r 1.uXP.9 - u %.l 6 = & = & % = 3 L W.J 3 = < 6 < 9 3 6.Z 2 % & & ",
"% % & & 9 X.x < & = - i ' aX6.2 % & & & & & & - 1 W :X0 3 6 # < j 8.g.9 - y &.r = & & & % & & % e J H.i 6 = = < 6 : @.G > = 5 4 ",
"6 > % & 5 4.l > & 6 * 6 8 ,.{ 9 * & & & & * & 3 1 n _ 9 < < > < 3 v $.3 * y $.k - & % & * & % & 4 e @.z > 6 3 2 < r @.l < # 5 < "
};
