/* XPM */
static char *_8531dd55c3f4e48d2aa2d83357ea098[] = {
/* columns rows colors chars-per-pixel */
"64 64 109 2 ",
"   c #000105",
".  c #00030C",
"X  c #03090E",
"o  c #090A0D",
"O  c #000512",
"+  c #010B14",
"@  c #090E14",
"#  c #00061A",
"$  c #010C1A",
"%  c #0A0F18",
"&  c #061117",
"*  c #0B1116",
"=  c #04121C",
"-  c #0A141C",
";  c #0E181F",
":  c #10171E",
">  c #12181E",
",  c #000E22",
"<  c #021423",
"1  c #0A1721",
"2  c #061926",
"3  c #0C1924",
"4  c #011529",
"5  c #041A2B",
"6  c #0B1D2B",
"7  c #121C24",
"8  c #121E29",
"9  c #031D31",
"0  c #091F30",
"q  c #001F3A",
"w  c #06202F",
"e  c #0D212F",
"r  c #14222C",
"t  c #19242D",
"y  c #052134",
"u  c #0C2334",
"i  c #002039",
"p  c #0C263A",
"a  c #0E293C",
"s  c #132533",
"d  c #192732",
"f  c #162836",
"g  c #1B2A35",
"h  c #122738",
"j  c #142B3B",
"k  c #1B2D3B",
"l  c #1D303E",
"z  c #212F3B",
"x  c #22323E",
"c  c #0B2B41",
"v  c #0D2F48",
"b  c #132E42",
"n  c #192F41",
"m  c #153144",
"M  c #1C3243",
"N  c #1E3845",
"B  c #163449",
"V  c #1C364A",
"C  c #1D394C",
"Z  c #1C3C52",
"A  c #223543",
"S  c #293742",
"D  c #253945",
"F  c #293A45",
"G  c #223748",
"H  c #243B4C",
"J  c #2A3D4B",
"K  c #243E52",
"L  c #2A3F50",
"P  c #2C404E",
"I  c #31434D",
"U  c #254155",
"Y  c #2C4353",
"T  c #2E4855",
"R  c #254459",
"E  c #2B4659",
"W  c #2D495C",
"Q  c #324553",
"!  c #354956",
"~  c #3A4B54",
"^  c #304659",
"/  c #334B5C",
"(  c #3B4D5C",
")  c #3D515E",
"_  c #2E4D62",
"`  c #324E62",
"'  c #394F61",
"]  c #355063",
"[  c #3B5263",
"{  c #3B556A",
"}  c #3D5A6E",
"|  c #40525E",
" . c #425565",
".. c #425967",
"X. c #445C6C",
"o. c #495D6B",
"O. c #445E70",
"+. c #4D626F",
"@. c #466174",
"#. c #4C6372",
"$. c #4A6679",
"%. c #586C77",
"&. c #546C7B",
"*. c #5B6E7D",
"=. c #516D82",
"-. c #537080",
";. c #57768A",
":. c #617C8D",
">. c #6E8692",
/* pixels */
"    3 1     d $ . * X   @     o r . & % . * 8 . . 7 -   .     o >         o     . *     t X     X   @ X     ; + . r - . .       ",
"    6 2 . . d + . * o   X .   + 8 O $ + . = 8 . . 7 * O .       :   .       . . O &     s O   . X . = & .   - O . t - . O       ",
". . 1 < + O r O   * o   = 1 1 6 W b H 4 . - s < = A Y j s O . o > O + M Y T A h j s X + k < = % + O $ $ + O < O . r - . $ 1 7 - ",
"; 1 < ) [ +.D .   - &   s 2 - < f p a j O r x $ = 6 j p m 6 . X ; . j E m N M y p u & O A = % 6 J e 6 P ^ ' k + + g r = D < 6 - ",
". . O s O e k O . = o O k O . . . . O M . 8 D . .     . e p . X * . Y m .   e + O ; + O A $ . - A O O 1 O < 8 O . g 1 O P $ .   ",
"- 1 < e X 1 k $ + r 7 $ D $ O . . . $ l O 8 A O .   . . p H $ - ; O U m .   8 +   7 3 + Y O . 1 L $ = d 2 g d . . t - . J +     ",
"g k h K O 8 D = 6 8 r 7 z < - 7 D s 6 s O 3 l k x l A M U B s d x O C M r g 8 X . * ; ; d = - - g 3 3 g k l n 6 1 t % . J = X X ",
"O O $ / O r J O . + O . 7 + . < K # $ 2 O = 5 $ = 4 < 4 C $ O < Q + v a + = + O .     O $ + X O O . O . . O j 4 O = O O G # .   ",
"X O $ } < M Q . . ; = O d O O < U , 4 p , 9 e # $ O O O n , # 3 Q O m p . . O . . X = = 6 O . O % O O . . O v 5 # 6 < # L # .   ",
"@ - + ) C ( x .   * 7 = s k e k W C M Y Y / D k l d - = G 9 7 r ! O v e . O g x A x g M G M s l 1 - = d 8 s H M j k h 8 D $ O o ",
"  . O r . X X           = k < M & . O X . . . . . 7 * . D $ . 7 | O p 6   . T a C #.. . j ` < P - . + Q 4 k f O . 7 $ . 3 O . ; ",
"  . O g . X =   .       = < O 8 &     &   . o   . 8 % . J # . 6 o.O n 0   . N 4 y o.    m Z # l = . $ M O < t O . t - . r O . > ",
"l l m m w u a a j e + + - 1 . 3 3 < 2 3 - > * O . 8 : $ M y 9 b :.' &.f * + ! ] } o.. X n :.X.&.1 = < H < s g + & s 1 + g $ $ 7 ",
"T T E M b b V C W [ O * = = O - 8 2 C u . . @ O . z s # u p b Y 4 # $ 6 X O + $ = + X = f = $ = 3 . $ n O 2 8 O O D f $ P $ . . ",
". . X O O O . O < M .   O + O + O O 5 6 .   X O O g 2 O 1 + O g = . O 8     X   O -   O g O O & r O $ V O < e . O A 5 $ C $ .   ",
"* - ; r d g 7 = e H   . = l g z r - A r O X % = # l z 1 d $ $ z - . + 8 $ & + . . & ; 1 s = + ; 8 . # ( l J z . O F J s W = $ % ",
"X X + - & @ - + = r . o d < % * = X + 7 7 * k k f r + X + . . 3 % = = ' k H g + O A [ ^ &.5 s 8 - X + - - - 8 - + - - + 6 m p T ",
"    = &     7 O O r   . g + . O X . . O . . 2 O O =     .   . - O O $ K O < 8 O . s 4 # ` # O O O   . O     1 O   & X . = < + m ",
"    & + . . - O + e O + f , $ $ $ O O $ + O < + + = .   . X + 1 $ $ , K $ 6 r O . k n 9 } , $ $ = O X O .   3 + . @ X . = 1 O k ",
"o X & ; 7 7 3 + 4 A X O j $./  .g k g x g d r 3 3 r X * 7 X X - ( H Y 0 $ = - $ % < 6 4 B { ! ! X.) *.d & * 7 ; & ; X   = 3 O + ",
"  . . .   . X O 4 G . . y V O r + . O - .   X X O 7 . . 8 O . * A O = + . O O . . O   . < e O X < O C f .   * O   @ o . = =     ",
"3 - 1 O     - e m W . . e j . 3 X .   O     X . O 2 = ; f O . $ k O + = - 7 7 * - +     < < . O l 6 } j .   + . . X O . = 6 X X ",
"g g f l = 3 J N Z W n s j u . * r r r 8 7 7 * . < G e r G } U T 3 . u j r g d d s g * . 6 h $ D ^ J / k - ; 3 2 = g G M G < & X ",
". . $ U O s K O O j h $ 4 5 . O + + $ + O $ + . < Y O O B _ , w O . M p O O O . O s 3 . 0 p # ' 2 O O s + O 1 = O k 9 4 M $ O + ",
"  . + ` 5 C T O O f 2 O < y $ $ O O O O $ $ < O 9 W O O m _ , w O . j u O O O . O r 1 O 5 u # ( 2 O + r . . + O . h i 4 B # O O ",
"* - 5 @.O.&.F & - M d O e H A l r 3 7 r d g t 6 n K - 1 l #./ ( t + n f 6 t > + O d s = 6 e $ P 8 1 6 r o X > - + M Y H W j 6 l ",
"o O M p X   . X . I k O k O . O -   . .       . O $ % * r O . 1 ) O b y = d t O . x g O + . O e - * - - .   7 = = d . . p U , / ",
"  . n f     . O O J k O f O . X 7 . & X     . . O * . . 8 X   7 ) + p 9 O = 8 O O k 3 . X O O d $ . O O     1 O $ 8   . h v # Z ",
"7 7 J s   . e M p W G 6 G s k d g = = 6 < 6 1 1 8 7 X & 8 - & 3 o.m ` Y Y  .k . O z 7 . 6 T ^  .l A A e O . s 0 < e + + h H 4 Y ",
"X O = = . . X._ K V O $ k 4 # 6 M O O G u Y I O O * o o - - 7 - $ , b c $ $ 6 = O x r O W 4 $ 2 < $ 5 P + . J j u A 1 7 = $ # O ",
"    - =   . Q < O 6 O $ n # O < N # $ k # 0 J O + &   . .     @ + O n j O . r = O z 8 O ` < O 3 X . $ H + O M , $ s . . + # O O ",
"o + < = X + T 4 $ s 8 x Y 2 7 8 ^ 9 e G 2 D J O ; ; - 7 * X * * * $ j u - ; 8 1 O z g $ ] < + 7 r 2 9 Y z 6 L a 8 d   X r I D D ",
"8 8 l s 8 2 l 4 < G + 7 s = + 3 M $ < e O e d X X ~ { H ! - r 7 Q j } C k D 8 1 + t ; X / = . 7 >.W ;.M X O G 5 $ *   . x u 3 7 ",
". . < < . . f # < P O O s O . < D O = 8 O 1 g . O Q p # p O O $ 5 # B a O O O O . t 1 O ' < O r { $ B j . . Y 5 O -   O J $ . X ",
". . , , . O V p p E # < e < O 2 k O , E m W S . O Q W a J $ - 7 k O K j . o X - + r < O E < + s #., W j O . K 4 X & O + M 4 O = ",
"* * 8 r 8 g f 4 4 K X.] O.X.+.+.r $ u H m M r & X t k y s + + 3 d < B h . o @ + O S A < E b M k l < a e - = J e + r x A W u l r ",
". . + O O O < O O f 5 O 6 $ O r + . f e .   @ . . 8 = O O   . + 2 O 0 0   o @   . S e O n $ O + $ O $ = .   M < . + O O k + O . ",
"% % 3 2 - 8 r % $ n k < 0 O . + X . 5 5 .   . . O r ;   X - - 3 A 4 C 0 X .     . F A < G O . O r < k <   . G < . ; r r Q O X   ",
"7 7 s d d g 8 7 1 g x 0 j f < 7 k f W j 2 8 f h e s - O f h d r A f B E m L g X O 8 x s M u 5 M l g l r O . g < + k S F F + * . ",
". O , $ O O O O O 6 $ O 9 h O O , $ Z m + + e = O ; = O Y + O + = O , E 4 j M . . O . . < 9 # K < O O s O   e + = j O O + +     ",
", $ 0 4 O . O O O s 1 O 0 m $ , $ # Z c O O = X . + O O G # O O - O $ H O 2 g O . X % O < y , Y 1 . + g O O j 5 9 C O O O + . . ",
"D G K L k k g k l n - + 5 Y l A A k R R m D r O . 7 d 2 G Q Q Q 1 = 4 G O 8 k . + - ; - 6 N h Y +   . t 7 - M K Z R j d d = * : ",
". . O +.e 8 r 8 s x .   O O .     . O Y e D x O . x k $ 2 l k ' 1 + $ M O 8 l . = -       .   & X   . .       X O n M 2 g O $ g ",
"  . $ [ O . O O # 6 . . X X       . O n O 2 g O O k 6 O O O # j $ . $ n O 8 k . O *     . . . - X     .     .   . k 6 O - O O e ",
"6 6 6 ' s r 8 < 5 C k G l e ; > t r 6 H 6 k l < , A A 6 m W ` @.6 $ 4 ^ N ^ x O + 1 - = 2 6 2 e e w e j a j ; . O g g < r + $ r ",
"s h e = O O * O < U + O < 1 O O + O , k $ O < 6 6 2 O $ a < $ < G < h < O O % = & - 7 3 s f w f f a p ` Z } I   O 1 = O + + O X ",
". . X + .   % O < Y O   1 6 . . O . $ M O O O . . $ O O n $ O = n O 4 = . . O .       . + + O . O O $ 9 $ w x .   3 $ O $ O O O ",
"- - - + .   ; = 5 Y - 1 6 1 O X - 7 2 ! g e - + + 2 d x T + . - D O 8 1 . . * = + * + & - < + ; r r e ! M ) I . . 8 g 8 k l x r ",
"D G ' s & > > O X f ( Y Y < < S 1 O $ d - + Q y p ^ $ - 1 - O & t . + - * X A M d t d k J $ X 3 - & + 3 - 3 @     X * + r - 1 * ",
"# O 9 4 O O - . O = $ O 2 + O l 1 . O d . . Y 4 4 / . . O + . + 8 O O O . O u $ O . O O h $ . 3 + O O +   . X     .     e O . O ",
"Z C _ q . O < O + 2 $ . 8 = $ D 2 O $ s O O ^ 4 4 / O # # + . $ U m V e 3 = H B p u 2 6 N $ O 2 = + O - & = $ O O + O O 5 $ + O ",
"k m V K 2 % x L P G . O 6 $ $ 1 A A l d 7 + l 4 # k ! ( | , 2 M M a j h < - e h e s 2 < h M g k Y P #.f O O A l k g 7 r k Y L ( ",
". . # K O . - O $ k . . 8 O . . - . O * . . s $ O O . + k + O A = . O r     O . . = O O < 6   . X . H j .   l $ + 1 . . O $ O r ",
"  . # T 3 + 1 O $ f 2 8 M O .   X . . O   . g 2 O X   O f < , J = O + 3 .   X O . - ; O 2 6       . C h     8 $ O % + * = O . 1 ",
"J H W K r 8 l $ 4 ^ k G K j 1 7 7 3 < k d k d 1 - > X X Y y e l L C B K G l N N C U ; = u s         D j .   P a a H 1 8 s s $ k ",
"4 , v q O O G < 4 X.O O y n O + $ O # g $ 4 2 . . 3 - O [ = O 4 C 4 4 n 4 4 4 < i K O O u f         K j O . [ 9 q [ . O p v O k ",
"4 , v a = + C < 5 X.O . e p . O $ $ $ 6 . O < O O 8 = O { $ O = 0 # O 6 . . 4 4 i R $ $ p j .       K c O . ^ 4 4 W O O 9 y # 6 ",
"/ ^ } N l s / < $ / ~ ~ Q e < s f g e M O - 7 2 < r ; X D K J F d 1 1 7 + = A K _ _ M D U C         s Y G S L $ $ Q D J J s 4 Y ",
". . O O   . o.w . = z x D = $ P - O $ ( O 8 k . . d 3 . + g g z - % + - O s A # $ s . . D (         . 7 g g + . . % d g r = , -.",
"    * *     o.w . . . O < O $ G < . # ` O 6 k O O g 3 . O X O O . . . + O h A O < x .   D ) . . .   . . . O . . . . . . O O # $.",
"o . ; @ X   +.w O s J Y Q h j ^ s 4 9 $./ X.Q n n K A 6 3 & . & - ; < ( ..&.` < y m 5 < F %.G Q I T Y M l k A A A s O . 6 V V =.",
"    + X     +.w $ J $ + O + $ $ s 5 n 9 # 4 < $ O M e O 2 6 . 7 + O a p O + E c a U 2 d - O $ $ $ $ $ 5 + + $ $ # k 1 . V < $ $ ",
"    @ X     #.w , J .       . O % . 8 5 O % 7 . O D s . 2 6 . 7 X . l a . O U < $ f     . .   X .   O 7 . . X . . k 3 . G # . . ",
"    X *     +.w , J             * . 6 2 . + 7 . O S r O 1 e . 8 o . m h     U < = z     o .         O 8     @   . g 7 . G O . . "
};
