/* XPM */
static char *c1b9cfbda81a4aacc00d31732c615093[] = {
/* columns rows colors chars-per-pixel */
"64 64 234 2 ",
"   c #000101",
".  c #010609",
"X  c #090709",
"o  c #010A0D",
"O  c #0A0A0C",
"+  c #100708",
"@  c #120E0F",
"#  c #11100E",
"$  c #010611",
"%  c #010D13",
"&  c #0B0E12",
"*  c #000C18",
"=  c #0E0E1E",
"-  c #100F1F",
";  c #011016",
":  c #0C1215",
">  c #01141C",
",  c #0C131C",
"<  c #01181E",
"1  c #0E181E",
"2  c #131315",
"3  c #13161A",
"4  c #19171A",
"5  c #141A1E",
"6  c #1A1A1C",
"7  c #011622",
"8  c #0F1221",
"9  c #011A23",
"0  c #0A1C23",
"q  c #021D2A",
"w  c #0B1E28",
"e  c #111322",
"r  c #131D22",
"t  c #1A1D22",
"y  c #181E2A",
"u  c #201F24",
"i  c #072027",
"p  c #0D2027",
"a  c #02212C",
"s  c #0B222C",
"d  c #132026",
"f  c #1C2126",
"g  c #14242C",
"h  c #1B242A",
"j  c #14282F",
"k  c #19282F",
"l  c #032433",
"z  c #0C2633",
"x  c #052A36",
"c  c #0D2A35",
"v  c #022639",
"b  c #022B3C",
"n  c #0D2E3A",
"m  c #132B34",
"M  c #1B2C34",
"N  c #142F38",
"B  c #0B303E",
"V  c #15323D",
"C  c #1A323C",
"Z  c #202125",
"A  c #23262A",
"S  c #252A2E",
"D  c #242C33",
"F  c #2B2E33",
"G  c #242F38",
"H  c #2A3036",
"J  c #24333B",
"K  c #2A343C",
"L  c #32353C",
"P  c #393A3F",
"I  c #032E42",
"U  c #033244",
"Y  c #093447",
"T  c #04354B",
"R  c #0B3448",
"E  c #02394E",
"W  c #0C3B4D",
"Q  c #133241",
"!  c #1A3543",
"~  c #163B47",
"^  c #1D3A45",
"/  c #123648",
"(  c #123C4B",
")  c #033C54",
"_  c #043D58",
"`  c #243641",
"'  c #2B3641",
"]  c #243A44",
"[  c #293941",
"{  c #243C4B",
"}  c #293E49",
"|  c #333B43",
" . c #3B3F48",
".. c #074155",
"X. c #0F4255",
"o. c #03425E",
"O. c #0C445B",
"+. c #06485E",
"@. c #144455",
"#. c #1C4657",
"$. c #1F4957",
"%. c #154859",
"&. c #1D4B5A",
"*. c #27414E",
"=. c #2B424C",
"-. c #31434C",
";. c #3B424B",
":. c #254653",
">. c #2C4552",
",. c #2D4954",
"<. c #23465A",
"1. c #29455B",
"2. c #264D5E",
"3. c #29485A",
"4. c #344653",
"5. c #3A4652",
"6. c #344A55",
"7. c #3B4955",
"8. c #354B59",
"9. c #3B4E5B",
"0. c #37535F",
"q. c #3E515F",
"w. c #044564",
"e. c #024C65",
"r. c #044668",
"t. c #044A6C",
"y. c #134C67",
"u. c #104D69",
"i. c #0A5167",
"p. c #04526E",
"a. c #1C5D6F",
"s. c #045573",
"d. c #0F5473",
"f. c #015876",
"g. c #05557A",
"h. c #055B7A",
"j. c #0A5D7B",
"k. c #175F77",
"l. c #1A5B71",
"z. c #204F6B",
"x. c #2E5566",
"c. c #29596D",
"v. c #355463",
"b. c #3C5462",
"n. c #375867",
"m. c #385769",
"M. c #365C6F",
"N. c #3E5B6B",
"B. c #255877",
"V. c #09607E",
"C. c #23657B",
"Z. c #376477",
"A. c #43464F",
"S. c #444851",
"D. c #404C58",
"F. c #40525C",
"G. c #425461",
"H. c #4B5561",
"J. c #4D5967",
"K. c #435C6B",
"L. c #4B5E6C",
"P. c #515B65",
"I. c #515E6E",
"U. c #476172",
"Y. c #4B6475",
"T. c #42687F",
"R. c #4E6A7F",
"E. c #526475",
"W. c #526778",
"Q. c #526B7B",
"!. c #596E7F",
"~. c #626E7C",
"^. c #045D83",
"/. c #045F8B",
"(. c #135F83",
"). c #046182",
"_. c #04648C",
"`. c #09628E",
"'. c #1D6782",
"]. c #056492",
"[. c #056A95",
"{. c #046D9A",
"}. c #04709F",
"|. c #1F7691",
" X c #276D86",
".X c #34728B",
"XX c #046EA0",
"oX c #0570A4",
"OX c #0374AC",
"+X c #037AB3",
"@X c #526E80",
"#X c #5A6F80",
"$X c #4B7689",
"%X c #567186",
"&X c #5C7182",
"*X c #53748B",
"=X c #5A7488",
"-X c #5F7A8E",
";X c #5B7C93",
":X c #657688",
">X c #62788D",
",X c #627D92",
"<X c #0480B6",
"1X c #0B81B3",
"2X c #0785B8",
"3X c #3689A7",
"4X c #3888A9",
"5X c #4A8098",
"6X c #678297",
"7X c #6A8596",
"8X c #648098",
"9X c #6D869A",
"0X c #5A88A0",
"qX c #5C95B2",
"wX c #618AA6",
"eX c #7A8FA2",
"rX c #6D93AD",
"tX c #7B94AA",
"yX c #7F98AC",
"uX c #709CB9",
"iX c #33ACD7",
"pX c #7AA6C3",
"aX c #79A8C6",
"sX c #6DADD0",
"dX c #71B6DD",
"fX c #88A2B1",
"gX c #99AFC4",
"hX c #87B1CA",
"jX c #94B3C7",
"kX c #9AB3C9",
"lX c #89BCDB",
"zX c #A3BACC",
"xX c #C4D9EC",
"cX c #CBE4F8",
/* pixels */
"                        <                     < q >     ; o                                             <         9             ",
".                       >                       9 >     ; o                                             9 o       9             ",
"                        >                     . 9 >     > .                             % q < < 7 < 9 > _.T > < l [.a < q       ",
"                      . w $                     < <     ; o                             > o             9 o       l     > o     ",
"                    & 5 C f &                   < >     > o                             > o             > .       <     > o     ",
"X                 & h | v.| A :                 9 >     w o                             ; &             9         9     < .     ",
"                . 2 H J.8XL.L 5 .             . 7 9     j :     > % % ; ; % % ; ; % > 0 B c 0 > ; &     < .       9 9 > ^.E ; 9 ",
"  & < > > > > > 9 m 6.*XdX;X6.N 9 9             7 9 t   ` r X j 9 % ; % % ; % % % > p G :.:.J g > a o   < .             l >     ",
"  < o     .     . , K D.$XG.K 3 . > O           9 > & A 4.K 4 % %                 O t L G.G.P A + > o   9 .             < .     ",
"  > .             X 5 S } H r O   % %         . q s , -.kXyX[ 2.$.S G J K [ K J [ -.F.E.rXrXY.-.h ..a   q               < .     ",
"  > .               X & m , X     % o         . q ; < M jX7Xh l.a.K >.6.q.G.q.q.9.F.L.&XaXpX!.6.j h.U % >               > o     ",
"  < o                   <         % %         o l     4 L.H   ; %                 2 A ;.Y.E.;.F # > .               % . E a   % ",
"  p o                   <         % *         * U & &   W.D   < ;                 O r S 4.-.F t O 9 o             9 9 o s.I o > ",
"  M &                   >     . . 7 >         q O.g & $ %XG   * %                   O 2 N g 2 O   > O             9 .   > o     ",
"  C :                   7 .   $ 7 I v > $ . . n d.! y e %X'   7 7                       > x 9 q > ).E * 9 7 9 9 > _.T > l       ",
"  } 1                   >     7 I t.w.v > % = / (.1.' h @X{ > I I > $                         .   b <   . .       W 0           ",
"  9.r                   9 % > b r.+XXX) v q w y.+XB.1.] @X~ v r.r.I 7                             > o             k O           ",
"  G.t                   o % * v _ XX].T a 7 w u.2Xz.{ ! m.#._ oXOXr.v > % % % % % o % % % % % % . +.l o % % % o & k.n o % % % % ",
"  K.h                         * q T I 7 $ . $ R `.! t 5 1.X.T XXXX_ v > % ; % ; ; ; % > % % % > o V.b o ; ; ; % > |.( o ; ; ; % ",
"  K.h                           $ q 7 $ .     I [.z o $ ^ z 7 T T q %                             M &           . 7.Z           ",
"  b.f                             * %         b ].9     s > . a a $ .                             *.1           O Y.G           ",
"  6.5                             % o         l `.*     > %   ; >                                 6.5           O @XK           ",
"  } 1                             ; %         q ^.*     > O   ; *                                 K.5           O >X[           ",
"  C :                             % o         q g.o     > o   ; %                                 W.h           O -XL           ",
"  m &     9 < 9 9 9 9 9 9 9 9 9 > w.) >       7 t.$     > o   % %                                 &Xh           O @XK           ",
"  w o   > q o % % % % % % % % ; . U l l o     7 w..     < o   ; %                                 !.h           O L.D           ",
"  7 o   > >                       ; . a %     > ) .     > o   ; %                       X X       !.f     . X     v.f           ",
"  > .   < <                       >   c %     % T       > o   ; %                         3 &     !.f   & 3     . >.r           ",
"  >     > >                       > . V ;     % v . X   > o   % %                           H 3   &X5 2 H         ] 3           ",
"  > < o E ) o ; ; ; ; > > d w % % 9 o ^ ,       / r     < o   ; %                           O ;.f W.| | .         N %           ",
"    % . U E   ; o % o o o % M g o O   :.5     r 2.&     > o   ; ;                         O O h :XgXeXG 3 2 O . . m %           ",
"X       > >                   L y     n.g   3 4.Q       > o   o 9 < 9 9 9 < 9 9 9 9 < 9 q s m c Y.xX~.S S 6 2 X . 0 a < 7 < 7 9 ",
"9 < 9 ; p.V.< 9 < 9 9 9 9 9 < i N.:.% 3XX.m K.Q >       > o                                   O H P.[ O                         ",
"      2 =.,.6 X                 X J.| L.7.H.5           > o                                 O f X S & 3 X                       ",
"& o ; G *XwX5.p o o . o o & , 0 r -.tXzXkXE.J J M d 1 & U a   % o o o o o o o o o o 1 d 3 3 t     t .   X                       ",
"> ; 9 J 5XqX6.j > > > > < 9 s g N C #XcXfX4.4.} ! M s , s.E % > > > > > > ; > > > s ] x.-.F &     2                             ",
"      # K =.6 X                   & A.-XP.3             > o                       Z A.6X>X;.t & . &                             ",
"X       q s                     & H 2 *.M S 3           ; a < < l w.9 a q q a l ~ n.-XlXhX9X,X=XQ.W.Z.C.{ V z s 9 9 9 9 9 9 < 9 ",
"        o b a l a l a q l a a l ~ x 9 #.&   r O                 o b             & f | Y.K.| S t 5 3 p B X O                     ",
".                             & X     5 O     O                 . 9                 # M g O         % 7                   % % % ",
"                                      & .                         9                   < %       . $ a I > $             l 9 < 9 ",
"                                      O .                       ; l .                 > o       $ q ) r.v 7 .           i       ",
"X                                                             : j ( 3 O               > o       7 T `.+Xt.I 7 % % % ; o o.9 o ; ",
"                        . O O : 3 , 5 r 3 : & O O . . .   o , C x. X] w               ; o     . v T ].+Xt.I 7 * ; ; ; ; f.a % > ",
"                    X & 5 S >.v.K.E.Q.Q.K.0.*.! N w 9 9 0 9 n $.3XiXc.( >             > o     . q 7 T w.v 7             9 .     ",
"                            w & . .   .                     & M M..X[ z >             > o     . 7 $ l R * o             a       ",
".                         O s , X                           X 1 C @.5 0 %             ; o       <   = v                 a       ",
"                      X , t ^ D t 2 X                         . > c   ; >             > %     . >   7 w                 i .     ",
"                      & f L b.5.P f &                           o 9   % ;             > o     . 7   0 m                 9       ",
"X   o o o o o o o o & d [ G.0X-XG.` 5 .                         o 9   ; ;             ; o     . 7   k ^                 9 .     ",
"  > 0 > > > > < > > 7 m =.Y.sXuXL.>.t                             9   % >             > %     . <   K ,.                a       ",
"  > .                 2 F S.*X*XF.'.i.> < > > > > > > > > < > ; x ^.% q %             > o       <   4.K.                i .     ",
"  < o                 & h K ;.5.L %.U   o o o o o o o o o o o . < ) . o               > o     . <   7.U.                9       ",
"  > .                   O 6 Z f 3 1 &                           . 9                   > o     . <   =.b.                i       ",
"> j.Y ; 9 < 7 9 7 9 9 < 9 s l s > p.e.> 9 9 9 9 7 9 7 9 7 9 7 7 9 U < < 9 < < 7 < 9 < q .     . <   G >.                a       ",
"  b >     .         .   .   .     a q         .   .   .   . .   o q   . .   . .   o           . >   d Q                 i .     ",
"  >                               % %                           . 9                             <   , s                 9       ",
"  < o                             > %             % 7 < < < < < b _.< 9 7 < < < 9 7 < <       . <   % 9                 a % o o ",
"  > .                             % %             < o     .     % U     o     .   .   q       o <   % 9                 > 9 9 9 ",
"  > .                             > %             > .           . 9                   <       . 7   o 0                         ",
"  > .                             % %             < .             l 9 9 9 9 9 9 9 9 q _.l 9 < U ^.< l <                         ",
"  > .                             > %             > .               . . . . . .   . . U o     > b                               ",
"  > X                             % %             < .   .                             9       . >                               ",
"= e 8 = - - - - - - - - - - , 8 - e e - - e = - - e 8 - , - - 8 = e , - - - - = 8 - = 8 8 - - - e = 8 8 - - - - e - - - - - e , "
};
