/* XPM */
static char *_546812651201[] = {
/* columns rows colors chars-per-pixel */
"64 64 240 2 ",
"   c #382119",
".  c #593A37",
"X  c #4B2F2B",
"o  c #5E413E",
"O  c #674948",
"+  c #734B4B",
"@  c #6C504D",
"#  c #78554A",
"$  c #6E5251",
"%  c #745354",
"&  c #775B5A",
"*  c #714B53",
"=  c #7D5E62",
"-  c #7E6165",
";  c #825A5A",
":  c #884D55",
">  c #89645B",
",  c #8F6F46",
"<  c #885E68",
"1  c #965762",
"2  c #954E60",
"3  c #846364",
"4  c #8B656B",
"5  c #85696A",
"6  c #8C6D6C",
"7  c #886767",
"8  c #926D6D",
"9  c #996A69",
"0  c #8E716C",
"q  c #93716E",
"w  c #9D7469",
"e  c #8B6D72",
"r  c #876C71",
"t  c #946C73",
"y  c #996974",
"u  c #8E7373",
"i  c #8C7677",
"p  c #947374",
"a  c #9C7574",
"s  c #92757A",
"d  c #9B737C",
"f  c #947A7B",
"g  c #9C7C7C",
"h  c #9A7B75",
"j  c #A26B6C",
"k  c #A3796C",
"l  c #AA6C7D",
"z  c #A46A75",
"x  c #A47373",
"c  c #A47B73",
"v  c #AB747B",
"b  c #A47C7C",
"n  c #AB7C7C",
"m  c #A67579",
"M  c #A15A6A",
"N  c #9B807C",
"B  c #A5817D",
"V  c #AC837D",
"C  c #AB897D",
"Z  c #A78375",
"A  c #9D7C84",
"S  c #997A81",
"D  c #A96D83",
"F  c #AD7482",
"G  c #A37C84",
"H  c #AC7D83",
"J  c #AB7C8B",
"K  c #A67585",
"L  c #B17583",
"P  c #B17D85",
"I  c #B47C8D",
"U  c #B4778A",
"Y  c #B57C92",
"T  c #BA7E94",
"R  c #B26E83",
"E  c #9D8686",
"W  c #A38385",
"Q  c #AC8483",
"!  c #AD8B82",
"~  c #A4848B",
"^  c #AC848B",
"/  c #A58B8C",
"(  c #AB8B8C",
")  c #A48A84",
"_  c #B28384",
"`  c #B28B85",
"'  c #B5838B",
"]  c #B9848C",
"[  c #B48B8C",
"{  c #B98B8E",
"}  c #AD928E",
"|  c #A99286",
" . c #B49384",
".. c #B3918C",
"X. c #BA948D",
"o. c #BA9A8A",
"O. c #AE8392",
"+. c #A68C91",
"@. c #AB8B91",
"#. c #A58590",
"$. c #B58493",
"%. c #BA8493",
"&. c #B48C93",
"*. c #BA8C95",
"=. c #BC8599",
"-. c #B68D9B",
";. c #BC8C9A",
":. c #AD9395",
">. c #AA9597",
",. c #B49394",
"<. c #BB9494",
"1. c #BC9B95",
"2. c #B4949A",
"3. c #BC949B",
"4. c #B59B9D",
"5. c #BC9B9C",
"6. c #BEA19C",
"7. c #B7A09C",
"8. c #BD8DA2",
"9. c #BD95A2",
"0. c #B59AA1",
"q. c #BC9CA3",
"w. c #BA9AA7",
"e. c #B5A4A4",
"r. c #BDA3A4",
"t. c #BDA5AA",
"y. c #BCACAC",
"u. c #BEA8B2",
"i. c #C18E9C",
"p. c #C2849C",
"a. c #C19195",
"s. c #C1949D",
"d. c #C29C9D",
"f. c #C59A9B",
"g. c #C2A39D",
"h. c #C9A79C",
"j. c #C28DA1",
"k. c #C295A2",
"l. c #C39CA4",
"z. c #C99EA4",
"x. c #C396A9",
"c. c #C59CAB",
"v. c #CA9CAC",
"b. c #C995A5",
"n. c #C89EB1",
"m. c #D19EB3",
"M. c #D19FA8",
"N. c #C3A3A4",
"B. c #CAA3A5",
"V. c #C4ABA5",
"C. c #CAAAA6",
"Z. c #C4A4AB",
"A. c #CBA4AC",
"S. c #C5AAAB",
"D. c #CAABAD",
"F. c #D0A3AD",
"G. c #D1ABAB",
"H. c #CBB2AE",
"J. c #C8B1A9",
"K. c #C5A4B2",
"L. c #CCA5B2",
"P. c #C5ABB2",
"I. c #CCACB3",
"U. c #CEADBA",
"Y. c #CAAAB8",
"T. c #D1A5B3",
"R. c #D2ADB4",
"E. c #D2ADBA",
"W. c #D6A8BA",
"Q. c #CCB2B4",
"!. c #CDB4BA",
"~. c #CDBABB",
"^. c #C8B6B4",
"/. c #D1B3B5",
"(. c #D3BAB5",
"). c #D3B4BB",
"_. c #DAB5BB",
"`. c #D4BABC",
"'. c #DABBBD",
"]. c #D9BEB7",
"[. c #D3B8AD",
"{. c #D3C1BD",
"}. c #DAC1BD",
"|. c #D8C8BB",
" X c #CEBBC3",
".X c #D3B4C2",
"XX c #DAB5C2",
"oX c #D5BCC2",
"OX c #DBBCC3",
"+X c #DBBCCA",
"@X c #D6BECA",
"#X c #DABFD2",
"$X c #E1BEC5",
"%X c #E1BCCA",
"&X c #D5C2C4",
"*X c #DBC3C5",
"=X c #D6C3CB",
"-X c #DBC4CA",
";X c #DDCBCC",
":X c #D8CAC8",
">X c #DDD1CE",
",X c #DEC5D1",
"<X c #DDCBD2",
"1X c #DDD1D3",
"2X c #DDD6D6",
"3X c #CFC1C1",
"4X c #E1C5CC",
"5X c #E2CBCD",
"6X c #E4C8C6",
"7X c #E4D1CD",
"8X c #E6D5C3",
"9X c #E1C5D2",
"0X c #E2CBD3",
"qX c #E9CDD2",
"wX c #E3CED8",
"eX c #E3D3D4",
"rX c #E9D5D6",
"tX c #E4D5DA",
"yX c #EAD5DA",
"uX c #E6DADC",
"iX c #EADBDB",
"pX c #E7D9D4",
"aX c #F0DDDF",
"sX c #EDE1DF",
"dX c #F4E0D9",
"fX c #EBDDE2",
"gX c #E7DAE2",
"hX c #F0DDE1",
"jX c #EDE3E4",
"kX c #EEEAED",
"lX c #ECE6E7",
"zX c #F2E2E4",
"xX c #F2E5EA",
"cX c #F3ECEC",
"vX c #F6ECEA",
"bX c #F5F1ED",
"nX c #F3ECF1",
"mX c #F5F3F4",
"MX c #FBFBFB",
"NX c #FAF6F6",
/* pixels */
"4XjX8X4XcXbXtX-XxXgXMXt.u.0.q.nX0Xg.D.OXlXxXE &.4XmXtXK.iXjXlXdX7X:XjXrXrX`.`./.Q./.` n a # ! o. .` ).'.XXOXs.$.w.z.n 5 < B.A.B.",
"xXMXbXcXMXkXtX0XfXkXkXmX>.2./ jXOXD.<.I.fX2.~ 5X0XxXnXlXeX0X7X:X;XC.<XxXqX`.fX_.s.&.c.,.Z C Q.Z H N.:.$..X$.F K.T.$.H k.t d I L.",
"nXMXMXMXNX;X;X0X<X<X0X,X2Xe < ^.eXZ.B.).w.+.yX`.eX9XOX4XeX).(.iX1X5.V.;XS.iX*X6.q.d k.l.C.C.V.V s.d.9.c.x.J M v.8.9.XXv.=.T W d.",
"jXNXNXmXlX`.'.0X<X9XqXM.yXN.O / pXl.' K.5 I./.A.OX`.).+XeX`.oXoXoXfX;Xk 5.5X5.f 2.$.l.s.l.X.l.N.3.` C l.i.R D S 8.x.I @X9.O.t * ",
";XmXbXnXP.l.l.*XeXiXaX0X`.-X+.3 OXB.;Xt.r.(.a.c N. .P.).6X0XK.I.:X&XV.! r.<.d.:.( C.D./.3.l.l.F n Z [ 3.s.l Y Y.f I.,.+.@.K..X^ ",
",XcXMXnXE.k.s.+X+X0X_.).B..XfXr t.R.q.oXyX!.f.1.`.A.@XtX9XlX;X&XN.1.C 5.[ ..6.I.q <.F.A.l.`.l.Y 3.o.' %.T 1 %.9XoX$.e E `.b.E.+.",
"fXzXNXgXx.s.A.l.U.Z.[ *.l.f.+XZ.q.g A *X).E.I.<.d.L./.-XgXeX.XQ.! u.^ 1.<.N.2.b ; w d.d.` A.l.).l.`.).I R D n.T.&.0.D J 9.8.+Xe.",
"hXlXMXMXoX=.;.5.~.i.z j k.f.v.{ a c._.W./.`.!.C.s.I.B.P.I.P.I.2.J b ,. .X.4.! C ! t c c ` ` 3.I.).0XXXL.j.j.9X:.<.L.$.Y T K._.t.",
"iX<XlX1X-XE.I.5.C.k.%.p.L.c.I.b.c s.XXD.B.+X&X<.@Xl.5.B.n b q.J I ;.B.S.N.g.X.<.` ; a Q 1 [ 3.R.zXrX+XF.'.&XV.`.(./.fX0XT.F.0X0X",
"~.Z.L._.zX;XN. .g.A.9.I..Xl.).3.W l.m.{ Z.v.Q.!.N.2.&.j Q 9.l.oX XZ.A..XOXC.d.N.b 9 9 m z c 3.' ,XiX}.9XoX`.uXyX_.W.zXgXj.x 7.>.",
"=XoXz.a.I.!.Q.N.A.L.2.2.( :.,.' y y # y &.&.N r.Q.4.[  .<.Q.).-X9.Q [ x.W.P.l.b D.N._ x x.3.l.c.*X*XiX:X3.'.`.oXI.XXjX2Xx.1.(.t.",
"A.Z.l.k.L.*XU.I.OX9X-XS.Q.fX,X;.=.C.f.Y.yXZ.!.Y.).6.V H.[.3.d.P.9.d <.*.R.XXl.2.9.r.Z.=.;.3.d.R.Z.qXsX*XD.N.[ (.B.Q.wX@XY A..XI.",
"<...I.A.c.@X&X*XtX7XN.pXxXcXNXyXQ.,.-XW.gXmXeXtX[.|.q.d.H.d.OXOX-.d v././.5.) Z.q.I.`.^ ~ r.c A.P.5XS.uXC.Q.oX5.I.l.@XnXx.=.qX).",
"l.C.A.l.L.-XtX+XI.!._.pXyXzXmXMX:X; @XA.R.lXNXeX&X~.{.D.N.Q.e.O.I.5.&X5Xq.! h.B.B.5.y.5.q a l.I.'.9.[ l.' [ K.c.%.l.9X`.tXgX$X`.",
"A.D.R.A.T.oX-XI.B.OX-XrXbXvXlXnXnX5 P.M.XXtXnXvX`.`.{.).I./.!.r.pX`.*X<.<.h.a.d.Z.!.`.-XI.7 3.C.J P.C.B.o.<.q..XU I x.(.5XOXd.l.",
"/.I././.P.R..X0X9XOX_.rXjXtX_.0XMX5 e.gXoX_.tXuXOXOXD.N.A.] l.)./.X.N.Q.D.yXX.2.iX:XL._.B.v 3 Q ,.G.qXg.w [ H _.c.@Xd.Z.hXiX/.k.",
"K.@X.X.XE.p.A.-XuXoX4XOX@XiX*XtXMX| 4 4X(.H.XX-X8X).).!.B.v %.A.<.N.(.! }.&XD._.*X;X_./.,.` ; q o.*.a.N.*.m I OXv.L.-X).5XzXeX$X",
"<X9.+.A J x.B.XX*X`.;X_.oXmXzXeXMXe.+ oX*XC. .`.}.B.A.*X/.I.;Xq.~.`.-...1.C.`.[ ~.yX-XD.C.d.x # ; a.P R.OXl v.eXOXOXmX-X^ Z.4.3.",
"uXE.u.y.+.J d -.E.g.d._.OXtX_.`.+XS.* -X4Xa.g./.'.7XeXuXQ.C.7.q._.K.B.`.R.`.A.c.2.G .X*X).d.N.> . 9 F T T Y E.A.<.Z.I.!.3.w 3.Q.",
"XXn.#XMXkX0XY.@.4 l.E.Y.I./.Z.*X9X/.# w.*XU./.R.*X&XjX;Xg.1.` /.P.-X;XuXcX(.A.c.P g f W ,.4.).5.C.; : 2 1 =.9.N.D.).iX*Xf.1.A.I.",
"n.x.,XNXgX+X+XT.$.J ( :.r.OXW.OXfXgX; y E.Y./.B.q.4.7 Q.Z.q.l...B d.eXkXcXlXP.q.` n G <.d &X X' <.9 + : j M Z.tXpXuX*X7XR.s.' ;.",
"8.K..XwX=XU.x.' n.+X*XZ.e.:.~.tX3.I.8 @._.A.U.D.3.q.N OXZ.S.<.9 w X.l.-X&XjX<XZ.s.n i.A.9.I.oX*.x ' c 4 l.L =.A.@XlX`.zXcX&X_ n ",
"x.x.;.9.-XK.9.j.W.).-XcXzX Xu ( v.k.W I.B.L.I.I.A.I.}.:XiX!.` n  .{ 5.l.B.iXoX@.v.j 9 { A.{ <.r.{ ' P m < 3.@Xk.P 0XlXxXmXqX;.` ",
"B.E.l.=.+XiXL.3.v.j.b.+XeXnX*Xt G L.^ W -X).{ <.V./.*X5X!.[ ( 3.n V l.l./.E.0X:.9._ 9 a._ k !.A._ Z l.b.2.* `.*.F 9.gXlXiX=XZ.l.",
"a.E.wX~ d ,XXXE.wX0X#X%X-XtX+Xm./ 6 d @.7.Z.<.Z.V.l.3.B.*X7.1.5.a.f.l.Y.&X*X&Xr.l.P z P C n k n n k <.L.W.y a eX*.k.OXiXcX-XP.k.",
"$.4.^.N ; e K O.:.Y.<X-XL.,XT.%XE.O.+.!.S.1.C.Z.c.N.<.-.Q.J.C.Z.5.1.Q.-X~.^.N.L.%.` ] *.L P k f.%.a.D &.Q.R.z e &.$.!.eX-X/.XXT ",
":.2.!.3X5 w.p 3 ,.p 5 < 7 4 < t ~ V.4.W & 4.N.5.<.` a g <X<X`./._.Z.oX(.r._.0X`.H k _ R.a.z./.*X`.' './ d I.v.f O y 8.A.*XM.'.<X",
"fXzX0XNX^.d 9XG >.eXtX)..XoX3.e.g p f :.> } I.r.C ,.Z <.D.2XiXL..XB.g.X.I.*.`.`._ U L z.T.6X4XxX>.q 5X=Xk.H =.qXE O I.A.R._.).).",
"p.W.;XwXzXw.' v.K.w.K.W.@X-XW.l.-.%XwXY.N.N.D.1.{ ' $.$.P I.jXB.d.l.N. .' *.).0X).*.=.l..X_.v./.) `.tXl.3.[ ,.Q.5XW e *X(.Z.n.).",
"OXl.oXQ.<XoXP.L.R.3.U.K K.4X-Xc.P.yXOX XP.V.} V 5.<.<.;.F l.fXQ.D.<.v B.>X<.3.*X'.+XA.oXqX3.V V l.I.).s.%.5.N.>.Z.N.y - ` b s.L.",
"Q.Z.!.H.).D.Z.E..XZ.I.c.S ~ zX X,XiXjX!.J. .C <.Q.N.<.V.<.L./.N.E.9.' z.(.OXOXuXyXB.{ 6.b 3.C.5.i.L.A.l.L N.k.A.2.&._ H x x =.l ",
"J.1.Q.V.C <.` Z <.Q &.L.W.< J I.P.).).U.N 7.Q.5.<.5.X.f.P.L.).l.Z.j.x.9.L.tX*X;XsX}._ d.[ 3.;.d.8.R.L.=.I v j ;.*X{ P C ^ v l l ",
"!.!.g.V...d.J. ., ! l.3.<X0Xg h (.P.x..XB ( Y.l.I.d.P s.I.`.OX-X9.A.C.D.oXN.x.H.G.0X/.P U I x.l.o.v.B.s._ ' <.l.3.f.[ 3.<.n : l ",
",.(.C.Z.kX|. .4.H.h Z./.I.I.H.C 4.' =.I.c.v.L.).c.x.c.3.3.I.*X!.=.z.l.A.4XW.I.4X*XeXeXl.] l.L.a.n I x.Z.A.B.OX5XZ.).5.;._ $.@.t ",
"N.[ ).;XuXC.g.N.R.b & +XI.l.3.I.I.3.=.l.3.d K.+Xx.F 9.' v I U.S.*X5X*XOXiX_.oXjXzX5X}.qX`.2.K.;.Y %.s.l.9X-XA./.B._.5.v.l.R.OX( ",
"=X`.-X:XI.wX!.`.V.P.2.~ 9XH.Z.9.D.,.@.n.w.= S U.s.y L k.i.T.A.3.S.`.OX*XeX`.OX*XzX:Xl.yX1XO G Q.8.n.3.k.'.I.<.<.l.OXR._.4X4.( 5X",
"-X-XOX(.`.<X=XeXtX X<XW s +.Y.9.9.9.L.!.^ A s ^ v.9.A 0.K.!.5.9.I.7XjX0XyXjXvXpX-X!.%.%X7.O >X4X9XOXq.&.Q.<.{ s.l.'.4XuXOX(.6 i ",
"=X-X*X6.V.!.=X~.gXpX3.r.@.q.L.!.I.R.OXq.H s.r.`.x.-X&Xt.t.f i +.y.lXjXlXbXMXNXjXP.0._.P.O / eXeXiX/.N.<.D.Q.[ A.E.A.4XpXT.qX0X@ ",
"=XV.S.1.V.H.OX).oX-.K t.Z.s.Z.I.H.{.I.&.v.( 6 /.P.t.2./ 9.z.Z.P.S.^.:XnXMXmXlXy.+.0.2.S f bXiX9XyXoXpX-Xl.*XR.'.iX4XeX7XT.G.iXr ",
"=X^...h r.V.oXl.E F s.-.( ).D.r.J.' 3.L.v.h q K.l.O.<.4.&.R.l._.&X~.2XMXMXMXsX!.P.#.e 5 f e.:X~.v.8.zXNXH./.`.N.(.5XjXeX6X7X4X@ ",
"u.&.h | 5.D.!.@.^.O.0.!.-X<XV.b ' *.b.3.9.c.L.4.I.$.$.s.k._.'.*X{.`.:XjXbXcX=X@X9XOXq.2.5.W W t r A oXkX*XI %.*.5.*.jX'.f.vX~.. ",
"2X~.S.J.6.` S.~.&X}.oX-X{.g.g.h.a.Y ;.g / A % Z.1.[ s.j.9.T./.Z.&XI.^.>XzXpX).I.-XQ.w.).N.` }.;.q.O.>.~ J I ' ] a.A.OXa.s.A.p X ",
"1X2XP.N.N.I.@X;X;X;X!.OXQ.(./.l.B.l.L.I.4 @ O r.N.g c.v.).E &.N.OXZ.S.`.|.&X).OXpXQ.P.v.B.(.d.T &.%.v.L ^ J H l I B.B.3.3.a.# X ",
",X).N.` [ 5.<.U.(.&XK.Y.D.K.Z.S.@X0XeX).I.5 . W /.W r I._.2.E uXI.5.`.S.Q.*X/.,XV...H.D.$.=.$.z.;.I U X.1.[ k.;.S ;.f.v.D._.$ . ",
"S.l.[ S.@X..H 3.OXI.Z.-X`.V.V 5.C.{.2XN.4XZ.W ,.! r.r Z.-./.y.i r.!.~.V.V.;X!.oXg.Z o.Z.I.d.R.l.s.5.=.v <.d.] .XZ.4 4 R.'.'.,.5 ",
",.Z.Z.1X^.V Q 2.{.S.q.oX!.g.<. .Z ~.:X*XOX2.h  .I.5.2.2.l.4.4.>.!.=XI.S.H.&X).c.5.6.5./.F.A.i.{ *.d.3._ L L ;.).v.v.,.s s.}.(.. ",
"*X-Xl.1.8 N.Q 1 2.tX^.l.N.d. .C V.J.>XlX>X4.( ..Z 1.A.3.3.S +.=XV.k.A.R.*X@Xl.Q H L.).F.d.d.{ $X).k.q.B.*.P.v.5Xi.5XcX[ B f O f ",
"&X!.Z.tXlXV.} 3.9.}.-XQ.N...Z.o.B.|.lXMX>X`.1.! <.N.` H 3.A.-.,.B.q.l.Z.H.9.<.V *.i.A.s.z.f.<.$X_.Z.3.q._.4X`.xX`.5X0XA.R.$ @ (.",
"A.oX!.;X`.n t.=X&.9..XP.S.t.S.&XrXpXvXcX0XiX!.1.5.B.h a x.c.W ,.U.Q.I.( ' 9.B.N.l.;.s.B.f.z.F._.G.f.N.@.).x.!.MXuXoXs.A.' . ,.6X",
"lXmXI.t.~..XZ.w.~.I.oX9.=X2X-XMXmXpXpXiX`.pXoXN.r.Z.l.*.I.Z.:.j.*.A.V.V J *.Z.9.;.z.I./.m.B.R.:X/.3.[ ,.$.<.b _.).;.T P 8 ; A.:X",
"cXtXoXU.;.Z.Y.;XI.w.0.^ oXjXxX0X}.4X*XD./.*X~.3.K.N.*.I.iX0.~ ;.*.1.:.-.&.'.`.<.R.0XN.Q.'.$XS.~.H._.4X5X0.[ ' A.d.<.A.d 9 U <.V.",
"-Xw.P.1.! <.l.-XP.t.Q.5.7.zXiX;.k.*X*XD.-X/.;XV.6 3.3.eX<X$.*.5.N.9.,.A.Y.`.`.J.`.`.5.C.OX:XN.G.G.).)./.).K K &.;.n % d U t ) r.",
"<Xx.E.r.uXN.<.t.r.g.S.<.!.5XlX4X.X5X!.:X=X[.>Xr.<.N.g.w.~.Q.:.,.,.s.K.oXr.4.>X7XpX5X/.&.5.xXiX].'.h.[.B.C.W.Z.^ 6 O . y * O ,.5.",
"&XoX' K.=X9.Z.r.X.7.V.5.g.*XOXF.V.oXQ.`.Z.&X/.^.^ ( -X5.q.oXp m I.-.x.t.O } }.Q.pX/.,.A.T.OX}.G.4X4X}./._.`.I.C.3 o oX@.  g _.).",
"=X.X9.Y -.3.!.~.V.!.oXfXjX/.wX:X5.S.l.!.r.h.lXtX,.S.OXfXH.N.q.9.2.&.&Xy.f | N.iX*X5.pXjX5X_.).4XrXlXC.X.D.Z.D.B.% ..zX<.X Q T.l.",
"1XtX!.Z.!.Q.V.I.1.N./ :. XS.N.-X!.<.C.P.D.|.MXMXt.!.I.`.5.B.9.q.t (.{.7.&X. & r.S.'.NXlXrXyXT.L.OX).1.C <.3.R.& 4 A.f.7 @ $Xl.a.",
"P.2.3 P.5X!.N.~ r.6.y.<.Q.=Xc.@.w.} g Z.0.3 i f s 8.a. .1.9.I.2.A !.'.oX2XE o u 6XeXtXcX5XeXiX*XV.Z.*Xd.d.v.S O _ ] i.-.^ S.7.^.",
"l.I.N.P.V.6..X[ q.J.P.7.P.e.~ W p a 3 q.O.f i & 3 0.k.B h l.:.e.P.!.H.H.`.7.@ O N./.I.*X6X`.uX*X).0./ `.&X`.O 3 d { { l H ^.w. X",
"5.Z.~.l.D.L.n.9.` !.P.S.~ S +.3.9.Y s.l.$.4XfXXXS.>.#.-.g v.4 & u r.&X^.P.pXh . g R.*.' *X/.iX6X'.; >.y.P.& = B._ x j R b ;.K.lX",
"`.,.~ 5.9.L 8.K./ S.S.`.L.5Xl.L.Z.=.*.I 9.P.w.4 s 0.Z.Z.c.9.2.2.@ % i = p 5XbX0 p h.V.l.A.v./.*Xr.@.oXXXe.. ^ ` ] P l R L %.Z.2X",
"I.n q G H G J w.^ ,.N.I L.;X!.P.!.x.$.$.O.=.F ;.A.t.5.l.[ I A.`.0 O pX:.g f E f p d.B.P.` g.l.T.B.)..X'.& % /..._ { %.l.k.k.pX{.",
"s ^ m &.K D 8.x.l.r.3.x.cXNXfXpXZ.3.;.B./.I.U *.l.3.Z.I.C./.`./ 1.0 7 R.-X-X^ d % W i.=.X.f.v.;.s.c.m.y o z.s.I.C.@ % $X'.eXNXI.",
"t.I.l.x.8.x.Z.5.-X4X-XOXpXuXq.f / Z.Z.A.@X~.x.$.5.3.S.).r.W `.^.Q.}.# ^ b.%.OXOXV.% @ 5 = 4 t ' A.k.m.% 6 b.^ ).OX+.G /.7XeXvX) ",
"tXj.j.n.!.P.!.A.OXOXiXOX!.i & ,.*X&X/.-XQ.d.Z.I.I.V.).P.o . !.Q.(.dXI.W l.l s.4X4X@.O 4.D.d * $ l p.l.o &.,._.OXl.l.P.R.OXqX<.o "
};
