/* XPM */
static char *_546812684998[] = {
/* columns rows colors chars-per-pixel */
"64 64 256 2 ",
"   c #AE9CBB",
".  c #B19DBA",
"X  c #BEABA7",
"o  c #BCAABD",
"O  c #BAA6B9",
"+  c #B5ABBD",
"@  c #CD9E9B",
"#  c #D69E97",
"$  c #C8A89E",
"%  c #D5A49B",
"&  c #DBA99D",
"*  c #D9A599",
"=  c #E4AB9D",
"-  c #E1A69A",
";  c #C9A7A9",
":  c #DCADA5",
">  c #DBADAB",
",  c #D6A9A6",
"<  c #CCBCAD",
"1  c #CBB3A8",
"2  c #D4B3AD",
"3  c #DCB4AC",
"4  c #D9B5A7",
"5  c #CDABB3",
"6  c #C4ABBE",
"7  c #CAA9B8",
"8  c #D6ADBA",
"9  c #CAB6B8",
"0  c #DBB4B2",
"q  c #DCBBB3",
"w  c #D3B3BC",
"e  c #DCB4BB",
"r  c #D5BDBB",
"t  c #DDBCBB",
"y  c #D4BAB3",
"u  c #E4ACA3",
"i  c #EAAEA4",
"p  c #E3AFAB",
"a  c #E3B2A4",
"s  c #E4B3AB",
"d  c #EBB3AC",
"f  c #E3BAAE",
"g  c #EBBBAD",
"h  c #EBB2A3",
"j  c #F4B6AB",
"k  c #E4B5B3",
"l  c #EAB5B3",
"z  c #E5BCB3",
"x  c #EBBBB4",
"c  c #E5B4BA",
"v  c #E4BCBC",
"b  c #ECBCBB",
"n  c #E8B0BB",
"m  c #F3B6B2",
"M  c #F5BBB5",
"N  c #F9BDB6",
"B  c #F2BEBA",
"V  c #F9BEBB",
"C  c #CDC2BB",
"Z  c #CBC0B2",
"A  c #DBC2B6",
"S  c #D4C4BD",
"D  c #DCC3BC",
"F  c #DBCABC",
"G  c #D4C6B7",
"H  c #D9D1BD",
"J  c #D0C1AC",
"K  c #E3C3B4",
"L  c #EBC2B7",
"P  c #E3C3BB",
"I  c #ECC3BB",
"U  c #E3CABE",
"Y  c #ECC9BC",
"T  c #F4C3BD",
"R  c #F9C2BB",
"E  c #F5C5B9",
"W  c #B3A3C3",
"Q  c #BAA4C3",
"!  c #BBABC3",
"~  c #B4A4CB",
"^  c #BBABCC",
"/  c #B8A9C9",
"(  c #BEB3C9",
")  c #BCACD3",
"_  c #BAA8D5",
"`  c #BEB0D5",
"'  c #ADA4C1",
"]  c #BFB3E3",
"[  c #C3ACC4",
"{  c #C2ADCD",
"}  c #C9ABC6",
"|  c #C4B4C5",
" . c #CCB5C4",
".. c #C4B4CC",
"X. c #CBB4CC",
"o. c #C3BBCD",
"O. c #CBBBCC",
"+. c #C9BBC3",
"@. c #D4B4C4",
"#. c #D4BAC4",
"$. c #DBBBC3",
"%. c #D4B5CB",
"&. c #D2BCCB",
"*. c #DCBCCB",
"=. c #DBB4C6",
"-. c #C4ADD5",
";. c #C4B4D3",
":. c #CBB3D3",
">. c #C5B9D3",
",. c #CBBCD4",
"<. c #C4B3DB",
"1. c #CAB5DC",
"2. c #C5BADD",
"3. c #CBBCDC",
"4. c #D3BBD4",
"5. c #DBBCD2",
"6. c #D3BDDB",
"7. c #D6B9D6",
"8. c #D1ADCB",
"9. c #E4BCC5",
"0. c #EDBCC3",
"q. c #E3BCCC",
"w. c #E7B7C3",
"e. c #E6BED1",
"r. c #E0ACC3",
"t. c #C5B4E3",
"y. c #CBBCE2",
"u. c #C6BAE2",
"i. c #D3BDE1",
"p. c #CEC3CD",
"a. c #CAC2C7",
"s. c #DCC4C2",
"d. c #D4CAC3",
"f. c #DCCCC4",
"g. c #D2C3CB",
"h. c #DCCDCB",
"j. c #D7C6CA",
"k. c #DCD3C4",
"l. c #DCD3CC",
"z. c #DCD6CA",
"x. c #CCC3D4",
"c. c #CDC1DC",
"v. c #CFCADE",
"b. c #D2C4D4",
"n. c #DCC5D4",
"m. c #D5CBD4",
"M. c #DBCBD4",
"N. c #D3C3DC",
"B. c #DCC4DA",
"V. c #D5CBDD",
"C. c #DBCCDC",
"Z. c #DDD4D3",
"A. c #DEDAD4",
"S. c #DCD3DC",
"D. c #DEDADC",
"F. c #D7D4DD",
"G. c #E4C4C4",
"H. c #EBC5C3",
"J. c #E5CAC4",
"K. c #ECCBC4",
"L. c #E3CCCB",
"P. c #ECCCCB",
"I. c #E8C4CA",
"U. c #F4C5C3",
"Y. c #F9C5C2",
"T. c #F4CBC5",
"R. c #F9CAC4",
"E. c #F4CCCB",
"W. c #F9CDCA",
"Q. c #F1C6C9",
"!. c #E3D4C5",
"~. c #E4D4CC",
"^. c #ECD4CC",
"/. c #E3DACD",
"(. c #EBDBCE",
"). c #EAD4C6",
"_. c #F4D2CC",
"`. c #F9D3CD",
"'. c #F5D6CC",
"]. c #E2CDD4",
"[. c #E3CBDC",
"{. c #E7C9D4",
"}. c #E3D4D2",
"|. c #ECD5D3",
" X c #E3DBD3",
".X c #EBDCD4",
"XX c #E3D4DC",
"oX c #EBD5DB",
"OX c #E4DBDB",
"+X c #EDDDDB",
"@X c #F3D5D2",
"#X c #F9D5D2",
"$X c #F4DBD5",
"%X c #FADAD3",
"&X c #F3DDDA",
"*X c #F9DDD9",
"=X c #F2D6DB",
"-X c #E5E1D4",
";X c #EBE3D5",
":X c #E5E2DB",
">X c #ECE4DC",
",X c #EDE9DC",
"<X c #EFE8D6",
"1X c #F3E2D5",
"2X c #F4E3DC",
"3X c #F9E3DC",
"4X c #F3EADE",
"5X c #F9EADE",
"6X c #F7E3D6",
"7X c #E8E2CF",
"8X c #CFC1E3",
"9X c #CEC5E9",
"0X c #D3C4E4",
"qX c #D5CAE3",
"wX c #DBCDE3",
"eX c #D5CBEA",
"rX c #DACEEA",
"tX c #D4C5E6",
"yX c #DCD3E3",
"uX c #DED9E5",
"iX c #DCD3EA",
"pX c #DEDAEB",
"aX c #D6D2E9",
"sX c #D7D2F0",
"dX c #E3CDE0",
"fX c #E2D5E4",
"gX c #E4DBE4",
"hX c #EADDE3",
"jX c #E4DBEB",
"kX c #EADEE9",
"lX c #E5D6E7",
"zX c #E1DCF1",
"xX c #E6E1E5",
"cX c #ECE4E2",
"vX c #EDEAE3",
"bX c #E7E2EC",
"nX c #EBE4EB",
"mX c #EEEAEC",
"MX c #F3E5E3",
"NX c #F9E5E2",
"BX c #F4ECE4",
"VX c #F9ECE4",
"CX c #F0E6E9",
"ZX c #F3EDEA",
"AX c #F9EEE9",
"SX c #F4F1E5",
"DX c #FAF2E6",
"FX c #F6F2EB",
"GX c #FAF4EC",
"HX c #FCF9ED",
"JX c #EBE7F2",
"KX c #F2EDF1",
"LX c #F5F4F2",
"PX c #FAF5F1",
"IX c #FCFAF3",
"UX c #F9F9F7",
/* pixels */
"FXb.b.P.> $XV.&.[.H.{.eXjXqX7.&XJXGXIX`.R.`.*X,X$Xt o. XqX8XH.V OXgXlXDXGX#XAXnXtXF.3X*XLXGXlXrX5XDX*X_.BX9.h.r @ L.D.8 %.=.@.;.",
"bXN.qXFX.XcXqX9XoXR &XVX[.tXaXPXHXIXIX`.Y 9.b.>XL g M.mXqXuXVX&XeXMX3XFXHXHXIXAXjXl.GXHXHXIXPX X-XMXg '.LX3.>..Xl ^.qX;.[.B 0.lX",
";XjXcX3XT.dXeXLXAXVXIXPXR.hXVX4XuXlXDX4X/.b.( yXT.7.uXAXlXGXHXIXpXlXW.Y.5XHXAXN.2.Z.Y.NXmXD.).L $ a Y ;X>XtXqXBX.X].eXsXMXY.VXHX",
"K (.FXBXW.VXgXSXbXeXhX,X3X2XM v >.y.K.1X4XP.yXFXDXbXFXIXHXHXSXBXFXBXDX4XM./.C.( V.U & 0 9 ` e L q = s S F }.DXBXT =XeXFXAXJXLXPX",
"a J.SXgXx.A.K v O.;.OX/.vX<Xv #.p.&.s ).;X%XBXHXDXHXHXAXuXS.g.H /.S.;XyX7 g 6 qX,X!.| >.6 ) 6.BX-X).f.1 * A ,X;XL.,X).^.M.` b.!.",
"E..X:X3./ a.3 2 g.gX X XZX4XZX9.U (.A ^.,X=XR %X3XE Y Z.o O : q ,.>.uXHX@XT _.MX3Xz > F S l.VXPX<XH <X_.= v -XwX+ p.> $ [ ;.A.k.",
"FXHX|.*.eXh.!..XBXSXBXFXUXZX@XE NXvXBXGXGX.XL .X).2 c f.o m.z _.C.y.[.DXFX3XZXg a 9 z G k.4XBX@XL K.;XDX$X4X}.;.) | 4 3 m.vX}. X",
"4XZX@XT.>XvXPXHXUXhXuXBX+Xc.c..X>X*XW.FXVX;XA z.:Xx.X.z g.Z.>XBXUXP.Y.BXAX,X( ; w 2.A.SX7Xa e %.h k 3.iXGXFX_.c S.~.;X4XSX,XmXDX",
"k.BXFXT.M.2.nXAX.Xp.;.v x 6.gXBXAXE.`.VXDX-X$.J.d.| y.b =XZXaXLXGX3XFX.Xh D o V.cXxXSXrX| < F ,.AXlXN.jXd.,XNXR.|.yXZXIXUXyX<.L.",
"cXrXiXY.[.v.cXz a t yXQ.%X%XY.VXFXAXbXxX4X! / > z OXKX3XVXPXFXVXAX4XS.&.5 O.A.BXZXBXAXqX8X/.cXhXFXLXZXSXz.fXCXT *._ gX^.4 ; { c ",
"bX0Xi.@X:X:XBX$X@XAXAXPXAX[.H.*XDX3X*.b.vX&.g.f &XIXGXDX`.W.$XuXvXz.l.g.[ ..vXA...!.F k./.k. X4XBXvX~.<XhX3.1.Q.M.V.A.f u L +X*X",
"+XV.t s hXPXFXIXIX5XT DXrXy.tXMXT.K j }.4Xg R ~.FXDX2X].@.j w ! v.z.4X4XqXsX5XxX9 a u J H 1 & L OXk. X(.gXy.7.z l.vXDXFXAXAX#XUX",
"K./.~.MXHXGXVXAXNX*XT.%XkXi.iXvX).~.A k.!.L Y.,.gX2XL 3 | OXOXpX:X:XgXAXcX>XAXBX@XI ^.(.Z 2 u 0 | z.~.N K.C 5 d 2XIXBXIXIX*Xm `.",
"!.PXSXgXeXnXDX@XT BXZX,X.Xf.x (./.(.U ).U .X1Xl.S.c.C.5XOXbX2X;X4X+XO.>XFXf.>.m.,XMXAX>XAX1X@Xr + ) > h A ;X,XCXnXBXAX*XE.$X%X%X",
"3 Y <XyX2.OXGX,XT.@X$X;Xz.<XK.y vX^.x I M NXFXGXhXy.bXHXFX$XB z s.u I <X;X( ..%.2XIXZX2XAXFX,X<XC.S.a.5 3 1X/.C.<.yXDX@XB NXvX:X",
"Q.G.ZXcX9.|.BXAXT j J.7Xz.,Xm.` hX+X+X$X`.2X+X5XcXcXAXFXBXAX_.5 ! G..XT F d.C., P.DXuXqXZXSXfXV.FXIX8X~ : ,  XuXX.].SXAXL l I <X",
"GXSXKXlXT W.cXN.X.^.4X.Xf f.3.i.aXZXqXwXMX}.x Y.BX3X.XSXOXOXg.8XA.VX4Xx K.SXGX .t m.! <.VXoX3.t.hX`.{.nX3X~.vX>Xm I ;XcXe d H.F ",
"IXHXuXy.CXIXhX3.2.+XLXT.#XZXhXiXHXUXV.m.N.uX`.E.ZXR I vXU $.<.2.{.T E.R `.FXGXjX%.l x.C Y d 4.V.DX$X%XAXFXAXyXy.E.*XOX^ ~ }.ZX^.",
"wXZXMX0.2XBXZXmXZXY.%XBXIX<XI C.gX<X/.<Xm.BXFX,.J 4 ).;XT l dXmXMXV $XVX+X9XwXFXE.Y.VX X5 *.cX:XcXcXZXcXjXDXfX8.nXIXcXqXrXP.3X_.",
",.C.5XAX2X@X3X3XBXMXMXFXLXbX4.&. .,.C k.G |. Xl.J G r ;X$XR 3XIXPX&XBX5XS.<.3.$X'.AXFX.X! ( J.! ) OXFXbX1.M.VXT.`.E.*XGXDXW.'.SX",
",.@.b GXVXVXVXm %XvXC.`.@XrXgXcX3 w 6 ..g.g v K.FX+Xk T.GXnX2XAX4XIXSXZ.>.V.h.c I.FXBXR v Q =.#.m.vX@X#./ X.U.FXAX*XVXT _.MXXX3X",
"(.I K..Xz oXwX3XfXjXLX&X*X(.4XHXY a O.>.+.BXSXI 4XpXX.4.mXyXGX>XB.xXVX+.Q j.d ^ c.4X|.q 8 ;.W * K.<X~.s n.0 , 4X).$XkXB E.cXS.`.",
"~.,X<X(.x 4.6.LXb.8XN.@XUXq.5.yXs.K vXKXP.SXGXt :XSXyXXX@XJ.,XC./ | L 3 m.K.b b.C._.B s.z n.S a w d.:XP.A ).~.L.& 5.<.mXN.0XpXvX",
"qX~.;XC.z K.uXf. .2.c x MXO.,.^ :XF.mXGX$XwXqXl *XFX4X1XY. X/.0 j.OXf g T.vXMXW.AXH.H.PX*XAXvXp./ <.:Xk.+.OX7X}.x =.,.vXX.;.} p ",
"MXs *.! } '.-X$ p t OX Xb H.cXcXgX1.eX>XcXeX<.{.C.lXBXMX1XFX$Xu .XSX.XB M &X2XN @X3 .XFX4XmXDXnX` } : A.C.9 S ;.; m -XX ; [ =.P ",
"VXP.4.x.yXKX;X!.T.;X,XFXD 0 bX%XQ.jXbXBXFXkXe.Q.MX+XuX4XA.:XG z  XOX$XT Y.*XCX4.OX+XkXGXqXy.LXMXgXH.T FX3Xs } O <.*XA.$ : K  XcX",
"GXbX0XZXhXN.rXSXFXvXAXuXF.qXqXU.T ZXBXmX*XOXb T C.0X,. X0 z 6.uXZXtXq.Y.W.M %.;.JXZXrXGX8X<.eXFXHXNX3XFXVXlX{ V.Z.iXfX~.3X X,XFX",
"W.@XbXHXJX0X9XyXgX`.|.x.<.MXcXi.OXvXFXtX0.N.6.oXgX>.S l.J.l -.zXIXrXM.1X|.T =XXX$X>XT._.hXyX[.W.VX3X`.3X3XhX9XBXbX>.y.hXcX2X>X,.",
"R.`.AXSXZXkXvXjXCXs t UXlXDXiX-.yXUX%XW.FX+XL.,XSX_.3 vXAXBXgXH.E.y.<.v K.D.^.j c n.T M AXDX@Xd q.C.3X2XB B MXHXCX9XqX9XiXE z jX",
"PXcXSX>XBXDX_.5XAX4.dXFXGXPX&X5 9.BX_.2X Xz j  X;XL D :XFXPXIX`.q.t.:.d ).<Xf.L j.uX$X4 P B x w.o 3.A.>X$X`.ZX.XcXBX3XBXDX8 @.GX",
"yXb.N._.$X X> T.zXy.eXMXFXFX$Xf ).f.Z.-XA.!.@.O./.C.>XZXqXKXPXAX(.c 9.s.O.@.z ZXZ.h.l.o D d z 1 ! o.h.;XmXuX}..X.X<Xk ^.xX1.eXAX",
"X.>.S.K x >X$X=XMXe.Q.2X2Xb +XcXs...2.;X).}.{ { m.,.JXnX<.tXzXPXBXR.3XbX` n.K.P g > ~ 5 J. Xf.k.A.+.v z X.) <.z L l.2 T kXu.5.+X",
"F l.1Xs.X.yXZX9X[.`.$XvXC.: )./.: , ..Z.g 3 uXXXf.[.`.+XrX9X=X3XFXVXBXMXdXDXFXP.B E.s.c [ 4.a J.D.Q > : 5 ( l.J ; oX4XdXkXT Y.$X",
";X1XW.@XyXdXfX6.9XcXZXIXc.6.#.< K.T H.-X$X4XDXBXV.P.M *XIXVXE b MXBXBXT.R.NX2XT W.FXBX;Xx.hX^.L.D +.^.>X< f.'.v ;.y.xX1.1.oX2XAX",
"hXFXVXBXGXFXY.C.ZX X:XvXgX1.t.wXHXPX;XgXUXL E qXN.FX$X@X*X`.T 4.y.OXBX%XM 2XE.m *XGXBXZXMXwXyX%XB 1XBXvX X.XP.%XkXkXI.1.9XcX>XZX",
"eXLXIXdXcXIX^.U _.> S &XcXqXy.fXIXGXN.~ gXJ.$.O x.ZXxX>XT m r ..^ 9 k.4XL..X~.#.cX$XP.AXOX{ S.VX@XFX`.{.y.AXIX2XVXIXY.G.4XS l.:X",
").@XS...yXf.s S q Y G.M E.DXLXcXBXBXwXqXfX[.) c.cX>.} #XMX&X.Xl.b.~.T.M.;.>.S 6 -.> s ~.3 1  X.X;XvXE %XS.nXZX3.N.BXP ; t * 2 H.",
"v d %.c.D.q x 3XvXFX%XV @XIXAXY.T.*X2XmX3X@.) q.~.m.0.q.fXE._.vX9Xw.j e / o.P d h.~.+X;X_.s s B >X XN.l.K l %.  V.2 * J.A /.Q.j ",
"~.z l.mX,XBXZXSXvXjXKXVXNXnXdXR.`.f I AX;X XI.m 2 :X2XN.yX_.=XcXyXQ.*X+XZ.MX@X%.wXSX+XFXMXP : s f.m.O >.t * 7 aXA.G J.BXvXFXNXW.",
"GX4XFX<XXXvX/.F m.tXeXFXPXMXjXFXBXz k L.~.SXT.i j.mXBX@.,.3.uX4X2XFXSXMX@XU.E.6.1.*XT e ;.=X Xl.1 } { 3.<XA l..X XFXvXz.Z.9XjXGX",
"hXPXIXxX| @.L _.kXi.B.LXAXGX>Xx.g.U ! <.$.)..XL.3.0XL.& %.;.f.H.}.<XgX^.B b FXVX0.Y.B 9.1.l 3XSXH.i 9.BXZXZXGXcX>.g.I G O.1.y.KX",
"iXBXI 3 ,.*.N 3XHXhXY.*XvXSXnX/ } s / + %.L gXMXdXV.P n ^.H q i H.fX<.[.R E.PXFX%XJX6.B.MXT I.hXVX@X$X0XN.AXNX#.Q 7 j E.FX6.q.VX",
"xX.Xd Q.cXAX`.AXIXHXE.fXrX6X@XO.e d {.o.~.].) 3.FX*XQ.6.C.-X XY $X3.1.cXNXZXBXE.^.4X9.B 2XGX>.` PXZX X<.yX.Xi u &.].N NXPXAXR *X",
",XcX&.tXPXHXyX{.nX[.Y.8.>.c g  X.Xh.<Xz.k.yX3.S.HXI d #XBX2XSX X3 v MXDXDXDX$Xa p Z 4 b ^.BX>.yX4XMXf.Z.A..X8 wXGXGXoX+XAXAXQ.3.",
"H..XqX0XCXBXi.B Q.C.x oXmX3XOXvXSXAXAXz .XSX2XcXgX{.#XVXDXCXcX|.u a X.nXVXY.E.Q.2X Xy & l l.X p.-Xq z  X~.~.>.` KXFX1.9.n.7.m %.",
"T $XFXGX@X$XUXY.%X,XqX>X^.G.>.1.vXGXXX|.ZXxX XwXt.fXDXHXKX3.rXFXE.0.^ ` I.N T AXFXZXNXI ).m.Q g.C G 2X+Xb H.lXjX$XMXlXB Y. X$.MX",
"*XBXBXFXy.B.=XK.K. X>.1 h % [ -.r cX3.y.n.{ p w qX3.y.Z.9.X.&.m I 2XbXp.! w.*XFX&XiX#XR 2Xc [.SXvX&XAXFX#X%XGXHXB.q.SXE.|.-Xu.9 ",
"DX>XI $.4.aX$XH.K !.!./.t I r f L mX>.:.p v I `.ZX;.o.z.& J.}.w %.x.m.].>.S.cXNXL 2X<X .h..Xr x.3.z M +X>X;X(.].-.y.P.P 3 f.9 1 ",
"D.p.: d Z.mXBXR Q.C.+XC.<.D.;Xv K.-XXXcX%X>XZXvXV.0XnX1XK. X:X>.u.V.~ =.k m.vXN.[ ~.m.~ l.,X,.  ~ @ % ;XcXZ.& , 6.lX<XY.v f.z.A.",
"Q   s.$XH >X).N q.y.y.q.*.lXBXFXH..XFXGXPXAXIXcX1.BX.Xf & L. XB.=.+XP.M j r.'   _ 9 2 e h.N.nX5.@.5 $ e ..  , b G vX2XM 0.1.b.b.",
"n.x.S.SX:Xl.4.F XXy.9Xb `.FXBXVXNXR.`.UXlXhX`.@X2XyXm.P.^.).BX`.W.BXAX@XE.NXm.+.OXb T _.b.XXSX_.T  X: , W ' &.4Xl.d.r s B.<.t.w.",
"3XY.+XcX,XcXuX>XY.P.4X*XPXUX`.V ].x E.AXtXh.M `.ZX,.) pXFXyXXX$XFXUXHXMX4X2XVXSXl.N VXGXJXfXwXAXIXMX!..X|.*.b.vXA.OX3.l.@X6.fXY.",
"NXY.hX0XJXBX1XK.s B XX$X2XyX@.$.Q Q f.;Xh.6 %.<XxX3.{ OXZ.-.B.T NXZXjXwXfXY.E.AXh.9 kXFXK.[ ~ cX;X+XBXPXNXV |.M.,X;XxX+Xd M 3X3X",
"+X3XyX1.9X*XR $.e.MX=.j L.;.  ! | g.G 2 d :.2.L._.P m B ~.wXVX{.M.;X3.1.gX$XK.b T F.V.3 - 6 ,.3.! r @XBX3XE.C.t.rXMXT.0 p I.4.U.",
"#.1XJXqXhX3X_.L.XXDXU k ;Xm.m.A.>Xl.| X.=.wXZXH.T.>XU.f F 2XA.! >.}.%.{  XZ.>.|.^.:X-XX 7 G >Xn.[ : - @.O.@XuXt.qX%XV *.C.FXv - ",
"l $XSX!.(.~.x a r d.6 ;.k.^.4Xb.N.XXN.3.N.wX>X4XBXvXvXa./ +.k. .  #.% > S % t OXp.y q Q / k.cXZXZXK p [ 5 K.vXZ./.&XK.q S -X9 7 ",
"Y.|.:X, 0 cX@.> -.w { -.1.$.m 4.tXPXAXE.&X&XAXZX3Xb.l.3.~ Q j 0 a.^ l %X~.d _.,._ e u X.+XZXy.hXAXUX+X+Xg _.<X< q h., % 6 O Q ) ",
"jX>.C.H.k hX>.7.I.M {.fXqX1.6.MXZXGXMXN B U.+X>Xz 7 x.+Xc.B.R I.gXXXnXIXMXMXIXXXwXA.$XMXGXUXwXgX,XVXM %XoX} p., % +X..r.8.k :.2.",
"wXy.uX2X~.wXqXiXY.E.VX@Xq.i.hXBXMXFXVXK.P } o.|.i e OXkX1.mX5XkXu.$XE.3XVXDXMXlXx.~.AXFXGXFX;XS f.H.0 BXqX-.qX.Xt XX<.3.Y.m |.oX",
"(.hXZXW.R rXpXGXCXKXLXNXY.4X_.[.y.C.$X,Xl.:.<.cXG.y.cXhXMXDXGXFXrX*XR.W.cXDXXX-.y.I j |.c.O.g , % - P.;XS.tX+X$XK.y.eXJX$X3XIX*X",
"s 2XFX$X|.>X|.>Xc.y. X/.BXH.= w ` :.T ;X$XK.mXVXBXAXGXGXZX>XM.4X,XBXAX0X%.s./ >.Z.2 ; o o _ k !.3 k 1 < 2 .X,X@XR bXlXGXjXrXcXcX",
"p ~.mX>.( s.* 8 Q 3.~.h.cX(.*.@.+.3 : ^.1X`.*XBX3XNX,XXX;.6 5 Z 3.b.:Xb.s s :.nX1X$.;.a.[ ..hXAXA.k.l.% # f.,XC.g./.a j.^ _ f.S ",
"*XBXyX^ <.2 f r XXvXz.vXAXDX=Xx /.;XJ.>X>XH.M &XI i D 6 . O = #.{ >.cXGXE.W.*X_.D & : Z h.;XBX3X~.d.BXK.M ~.uX~ W y % ; ..V.d. X",
"IXAXI e.XX/.>XZXSX>XFXDXmXuXf Y.AX2XMXFXAXY J. Xs.5 t C | h.Y 3XrX7.^.BX3X<XL.* > X.U ~.k.@X].c d G.XX&XBXSX*.-.2.X 0 f.>X,XA.FX"
};
