/* XPM */
static char *_546812702889[] = {
/* columns rows colors chars-per-pixel */
"64 64 248 2 ",
"   c #331B18",
".  c #281311",
"X  c #32221A",
"o  c #3C2823",
"O  c #3F1926",
"+  c #44272D",
"@  c #4C2935",
"#  c #4C3635",
"$  c #54383D",
"%  c #48352E",
"&  c #5B433B",
"*  c #654B3E",
"=  c #5A3A43",
"-  c #582D40",
";  c #673C4F",
":  c #5C4844",
">  c #5D554A",
",  c #64444D",
"<  c #6A4A55",
"1  c #75475A",
"2  c #765759",
"3  c #70504E",
"4  c #74625B",
"5  c #794E63",
"6  c #7A5463",
"7  c #7B5967",
"8  c #796467",
"9  c #805859",
"0  c #8A655A",
"q  c #835D6C",
"w  c #855968",
"e  c #895C73",
"r  c #885C74",
"t  c #925D78",
"y  c #83636B",
"u  c #88696B",
"i  c #856373",
"p  c #8B6473",
"a  c #8C647B",
"s  c #8D6C7C",
"d  c #886A74",
"f  c #93657C",
"g  c #936D7B",
"h  c #956878",
"j  c #8B7275",
"k  c #9A747D",
"l  c #96777D",
"z  c #966F6C",
"x  c #A37579",
"c  c #9B5A81",
"v  c #956B83",
"b  c #9A6C84",
"n  c #9B6D89",
"m  c #9A6783",
"M  c #947383",
"N  c #9B7485",
"B  c #9D748A",
"V  c #9D7B8B",
"C  c #9A7787",
"Z  c #957789",
"A  c #A46C8B",
"S  c #A46786",
"D  c #A3748D",
"F  c #AA748C",
"G  c #A27B8C",
"H  c #A57987",
"J  c #A47691",
"K  c #AB7492",
"L  c #A57C93",
"P  c #AB7C94",
"I  c #AC7D99",
"U  c #AA7999",
"Y  c #B37C9C",
"T  c #B57699",
"R  c #B0728E",
"E  c #BC7DA2",
"W  c #B05D89",
"Q  c #CE78A6",
"!  c #9C818C",
"~  c #9E8384",
"^  c #A4838C",
"/  c #AA818D",
"(  c #A88B8C",
")  c #A48394",
"_  c #AB8394",
"`  c #AB8A96",
"'  c #AC839B",
"]  c #AC8B9B",
"[  c #A48796",
"{  c #B28395",
"}  c #B3849C",
"|  c #B9849D",
" . c #B48B9C",
".. c #B68999",
"X. c #AC939A",
"o. c #B2949C",
"O. c #B6969B",
"+. c #AC908C",
"@. c #AE8BA1",
"#. c #B485A1",
"$. c #BB84A3",
"%. c #B48BA3",
"&. c #BB8CA4",
"*. c #BC8DAA",
"=. c #B88BA9",
"-. c #AF96A2",
";. c #B492A3",
":. c #BB92A5",
">. c #BC9AA5",
",. c #BC93AC",
"<. c #BC9BAC",
"1. c #B498A8",
"2. c #BE94B0",
"3. c #BE9BB2",
"4. c #BCA1AC",
"5. c #B6A1A5",
"6. c #BFA4B3",
"7. c #C28DA4",
"8. c #C38DAB",
"9. c #C787AB",
"0. c #C295A5",
"q. c #C294AC",
"w. c #C994AE",
"e. c #C49BAD",
"r. c #C99BAC",
"t. c #C98CB1",
"y. c #C494B2",
"u. c #CB95B3",
"i. c #C49BB3",
"p. c #CB9BB4",
"a. c #C79CB9",
"s. c #CD9CBA",
"d. c #CB94BB",
"f. c #D29CB5",
"g. c #D29CBC",
"h. c #D697BA",
"j. c #D28FAE",
"k. c #E29BBD",
"l. c #C5A4AD",
"z. c #C8A4AC",
"x. c #C4A3B4",
"c. c #CBA3B6",
"v. c #C4ABB6",
"b. c #C5A3B9",
"n. c #CCA3BB",
"m. c #C5ABBA",
"M. c #CCABBC",
"N. c #CBAAB3",
"B. c #D2A4BD",
"V. c #D3ABBD",
"C. c #DAABBD",
"Z. c #D5A5B8",
"A. c #CCB2BE",
"S. c #C5B2BB",
"D. c #D5B4BA",
"F. c #D0AEAF",
"G. c #D89DC1",
"H. c #E69BC7",
"J. c #CEA4C0",
"K. c #CDABC2",
"L. c #D4A5C2",
"P. c #DCA5C4",
"I. c #D4ABC4",
"U. c #DBABC5",
"Y. c #D6ADC9",
"T. c #DCACCA",
"R. c #DDA4CA",
"E. c #CDB4C2",
"W. c #CEB9C6",
"Q. c #D4B3C4",
"!. c #DAB3C5",
"~. c #D3BBC5",
"^. c #D5B4C9",
"/. c #DBB3CC",
"(. c #D5BBCB",
"). c #DBBBCD",
"_. c #DCBBC5",
"`. c #DDB6D1",
"'. c #DDBCD2",
"]. c #E3ADCC",
"[. c #E2A6C6",
"{. c #E2B4CC",
"}. c #E2BCCD",
"|. c #E5B7C8",
" X c #E3B5D2",
".X c #EBB3D4",
"XX c #E3BBD3",
"oX c #EABBD5",
"OX c #E6BEDA",
"+X c #EABCDA",
"@X c #EDB7D9",
"#X c #F2BBDC",
"$X c #F6B5DC",
"%X c #F5BFE2",
"&X c #DBC3CE",
"*X c #D7C4CA",
"=X c #DDC3D3",
"-X c #DDC9D4",
";X c #DEC9D8",
":X c #DFD2DC",
">X c #E2C1CE",
",X c #E3C3D5",
"<X c #EAC4D5",
"1X c #E5CAD6",
"2X c #E5C4DA",
"3X c #EBC4DC",
"4X c #E5CBDB",
"5X c #EBCBDC",
"6X c #EAC8D5",
"7X c #F1C4DD",
"8X c #F2C8DA",
"9X c #E6D2DC",
"0X c #E9D3DE",
"qX c #EAD6D8",
"wX c #F3D4DE",
"eX c #EDC5E1",
"rX c #ECCCE2",
"tX c #E7CDE1",
"yX c #F3C5E3",
"uX c #FBC4E5",
"iX c #F3CCE4",
"pX c #F9CAE5",
"aX c #F6CEE9",
"sX c #FACCEA",
"dX c #EDD3E4",
"fX c #EED9E5",
"gX c #EFD4E9",
"hX c #EFDCE8",
"jX c #F2D3E5",
"kX c #F3DBE6",
"lX c #F4D4EA",
"zX c #FBD4EC",
"xX c #F4DBEB",
"cX c #FBDBED",
"vX c #FBD6E6",
"bX c #FED4F1",
"nX c #FCDCF2",
"mX c #FBDCF5",
"MX c #FAE2EE",
"NX c #F6E2EB",
"BX c #FBE3F3",
"VX c #FDE9F5",
"CX c #FFE3FA",
"ZX c #FFECFC",
"AX c #F6E4F1",
"SX c #FFF3FE",
"DX c #FFF8FF",
"FX c #EEE0E3",
/* pixels */
"> # V 1Xi X.=X8 & : 8 < W.ZXkX9XK.E.SXAXgXAXmXdXW.W. Xh.H.$XbXmXaXlX-X-X*XkXX.4 4 j >XzXcXM.XXeX'.6XcX&Xm.fXcXdX9X( 1.4X(.'.tXmX",
"FXqX>XjX6XkX=X[ 6.-XqX1X:XdXdXcXtX=XtXgXBXxXhXdX6.[ mX XQ T T.eX2XtXVXAX*X~.! $ 3 N.,XB.jX(.6X X=XdXxX,XAXVXcX;XW.*X9XxX6.tXlXgX",
"zXcXjXcXmXiX5XdXqXDXFX~.v.6XzX X^.xXXXrXlXAXZXBXZXBXmXZXyXy.@.(.xX-XdXxXlX,XS.~.o.<X' ' cX2X,X4X).1X5XlXlXxXb.4.xXBXBX(.K.tXtXrX",
"n.^.rX,XY.Y.lXfXFXVXFXNXkXjXoXs.^.`. XY.gXmXgXAXMXdXgXnXbXmXE.&XBXdXgX4XxXn.E.MXnX,X@ g 3XzXnX4X~.6.M 2XtX;X(.! ~.SXBX1XtXY.=XmX",
"iX2XmX2X2XxXZXAXAXxXBXxXvXvXvX>.(.).J.2XQ.dXrX,XK.=X^.eXyX XjX4X-X*X&XwX1Xv.jX=XdX1X! <.iXeXcXcXdX,XX.&XmXtXW.kX~.l X.kXgXtXAXgX",
"XX`.'.CXZXBXAXhXhXxX=X1XkX6X6X0XjX4XOX4XdXdXlXCXbXiXsXsXT.L.dXdXhXqX*XqX&X9XdX=XtX4XkXrXXXaXrXdXdXMXdX5XxXdXxXkXD.+.5.VXCXdXhXdX",
"L.a.eXlXxX=X=XhXBXrXrXrXtXrX1X2X5XeX3X'.E.6XY.CXmXXX3X`.tXmXgX9X9XhXFXFX&XkXVXMX-XQ.3XU.yXiXdXmXlXdXxX).tXlXcXxXFXNXxX6XxX4XhX*X",
"uXuXzXgXtXCXZX;XK.2XnXdXgX'.I.Q.^.OX2X'.6X5XrXjX5XlXpX XdX1XdXhX0XMXDXNX-X4X,X4X4Xm.T.T.Y.eXdXgXBXBXdXxX^.lXhXAX).qX5X,XtXxXAX9X",
"@X@XaX+XaXlXrXtX'.mXCXhXgXeX`.;XeX`.tXtX&X6.OXXXpXiXiXeXdXhX9XdX9XE.).] E.'.K.=XdXtXaX3X/.2X4X=XxXtXAXNX4XdXdXVXNX9X5XcX2XtXrXdX",
" X$.T.+XOX3.'.xXlXdXtXxXaX;XlXmX=XJ.AXfX9X=X[ 3XL.J.yXnX2X-XdX4XE.3.@.;.aX`.aXiXcXZXyXa.`.K.^.hXBXdX-XxXAXVXAX5XfXfX1XiXY.3.'.5X",
"u.y.L./.tXmXmXtX4XtX4XrXK.'.gX'.tXrXgXxXfXtX@.#.].*.g. X^.tXxX2X).nX).3.`.J.XXbXmX].J.@Xd.L.BXVXZXVX9XdX,X=X(.M.,XjXrXn.y.L.XXXX",
"B.a.3.I.tXdXtXtXxXCXxXlXY.lXmXlXCXdXgXdXfXfX'.J.@XR.#X X/.jX2X1.^.M.M.B =.].J. XR.2.OXbX XaXxXxXAXfXBXxX,X,XiX5X0XjXiX3.a.3XpX2X",
"zX2XxXtXK.(.'.gXxXmXbXaXmX%XeXCXbXtX2XeX2X).^.rXI.%.K L.`.rX`.n.,.&.<.B {./.bXoXT.sXU.Y.uXbXeXgXtXaXlX=X2X).OX3XrX2X).K.rXrXjXcX",
"eXlXmXrXeX'.tXgXmXlXOXT.J.J.Y.XXzX2XtX2X2X`.eXmX3XXXD %.2X`. X3Xc.V.&.G `.n.L.T.n.OXaXoXd.Y.`.6.`.^.dXdXdXrXm.1.(.cXjXrXrX4XdX=X",
"sXsX%XbXmXmXmXgXxXbXOX XJ.Y.+XeX3X2XrX2XY.rX XL.I.J./.Y.`.@X].E q.b.f q.a.3XXX`.y.y.s.s.s.`.3X<.Q.1XBXxX4XgX;X^.(.(.Y.3XiX0XxXfX",
"J.Y J.G.aXOXtXeXeXlXeXJ.2.a.%X%X3XzX'.OXbXOXi.L. X`.3X^.*.y.G.m D B e n.XXOXOXJ.J.`.oXR.L.U.=X(.=XkXjXjXdXlXtXxXCX3.L 7XXX).6XMX",
"=.2.eX2.*.d. X+XyXbXtX,X2XaX`.a.T.aXpX Xn.%.G q.aX3X'.2X/.a A g.L s V x.J.K.`.'.a.i.^.J.@.-XxX5XlX,Xn.B.m.^.3.(.mXJ.2.y.T./.3X8X",
"=.`.aXL.G.%X@XL.L.eXlXnXjX2XsX%X2.*.I.I.n.&.} /.a.Y.iXaXB.oXb.,.x.x.s iXlXCXCX3X' b.xX1XlXcXAXxXQ.B U.T.b.2XK.`.K.n.' L K.1.I.T.",
"'.OXJ.aXmXsXOXd.Y.mXOXaX1X,X3XY.gX3.I I./.6X).,X,XrXoXT./.3XlXdXMXfX=XlXK.a.b.n.J.Y.eXrXCXxXcXjXxX5 @.BX2XK.3.L %.K.x.6.6.] b.*.",
"Y.`.`.Y.Y.2. X`.OXmXyXbX3XaXI./.xXW.B J <X@.).'.).1.=.R..XI.XXVXMXAXlXrXmXU.J ' ' a.'.=XxXBX2Xb.^.%.b.BX^.3.=.I J.XXM.;.W.jXiX X",
"mXbXeXJ.=.y.+X+XT.sXR..X+XyXyXOXK.^.).M.M o.4.l.A.[ a.g.f.uX<XM./.Y.,.&.p.C.H C 1.,.jXrXM.(.).V.8.g.aXiXY.,.Y. XJ.R.T. XmXrXaXeX",
"`.`.J.J.sX`.2.*.Y.uX.X@Xt.d.Y.K.rXmX^.nXM.M.1X).Q.=XT.oX$.i.V.M.)./.B.0.{ O.g h i.{.lX{.i ' ,XXXg.t n L. XL *.8.E $.u.*.T.Y.^.zX",
"J.=..XJ.Y.a.^.^.@X$XG.t.R.J 3X2X=XrX3.Y.oX+XzXnX3X2X/.b.H :.m.kX3X,.e.1 x.vXD.k <XvXU.#X|.{.cX<Xq.J D b.a.q.g.B.=.G.G.{.=.n.lX2X",
"2.'.yX*.R.uXgX=Xy.g.R.*.2.Y.jXiX+XzXOX/.s.L.I.J.6.a./.%.] ` Q.jX).i.M.I.c.5X>Xz.<X{.g.].|.U.cXc.%.i.L.B.n.U.8X].R.G..X XL. XgXY.",
"tXgXlXeX.Xg.2XkXb.'.ZX9X;XxXb.a.R.#XbXsXoXp.} a p.zXpXb.i.M.5XwXY.;.=XdX5Xi.V ] ` q.U.g.t.C.C.{.c.&.7XpXI.f c.p.y.8.u.[.$.T } $.",
"SX:X(.lXg.#.'.nXOXfXDXDXDXSXI.s.8.g.+X,.b 5 v G G *. X X2.V V.5XXX<.1.).Y.%.i v i.M. X@X9.R T P.U.XXoX/.I.n ' i.t t u.C.| T s.u.",
"hX*X(.OXXX X2XlXdXVXDXSXAXVXtXXX].L.eXrXb.;.2 q *.U.I.I.Z a <.).2XkX(.A.K.%.y.a.iX X X#X].R.].w.p.f.u.[.P./.v J ' t D |.h.[.].].",
"*Xo.) 1.XXlXrXiX4X4X4X-XE.W.(.K.L. XoX%XzXcX^ ` B. X3XOXa.c.5X<X4XkX5XA.;.Z %.' a  .v K E $.Y 5 e | P.8.q./.B < %.L :.} $.w.s.s.",
"tXm.y i.` b.).zXOXJ.'.2XOX=X`.y.a r I P.n.!.c.iX/.B /.I.%.i.n.^.jXxX,X;.7 M @.d # s L &.g.].p.} S p.{.} 2 7 V &X-.-.<.) P p.B.1.",
"dX` C B.{.V.) r b.,.n /.lXnX,.U 3.J P } J XXpX1XcXb.%.n.#.yXzXjXaXXXOXQ.4.E.Q.b.c.M 8X/.p.B.|.|.z.q.r.e., C x.jX5.< 1.x.L.I.) @.",
"1.y N i.{.i.y + i n.5 i.3Xy.I `.jX2Xi._ 3XsX#XpXzXmX3XpXpXpXpXoX@XG. X XI.).pX3X.XyX7X&.A f.[.j.f.F H 9 u y d N &XM 7 e.].Y.a ;.",
",.V B U.8.b y j 8 7 ) J.a.q.Y.+X3XCXXXU.3XY.s.T.<XM. .n.$.t n.].t.G. X2X'.Y.+XB.A 8.T.7Xf.k.|.|.7.P R P $ @ ; d I.c.G c.i.T.] s ",
"2.aXs.a.J.`._.<.5.S.n.g.I  X2.XXXXs..XsX#Xg.Y h N )  .{.q.b , q S h.L.XXeXT.v #.D p.#Xg.w.u.[..X| | h f < 8 a 0.&.i.&.r.B.i.U n ",
"L.G.#.s.OX@.V m.9X9Xn.Y.XXpX=.a.T.B f *.B.L.7.A J  .i.<X.X].2 O Y K B.7XL.,.D I.V.N ,.} 1 F Z.u.u.i.} i.Q.<.) V b a e !.n.P ,.i.",
"g.i.<.xXCXdX1X(.W.E.^.L.].OXJ t ) i.2.L.n D f.#.%.e.c.p.f p.:.r $ 8.{.@X.Xy.q.U._ V ` 6.@.V G | q.v w <.%.3.n.2.L.^.n.jX).x.-.M ",
"A y.zXxXAXhX).~.v.BXrXL B U J *.,.%.=.s.n.8.I $.q.c.:.i.7.C.i.V.f Z.0.f *.b %.8X_.*X4.A.ZXcXH _ P v ' zXeXaXsX3X2XOX/.).jXBX1XM ",
"G.*. X^.lX2XB.B.c.r.L ,.$.S T E *.L n I n I $.F m t F $.B.f.q.s.I.c.5 w V B [ G !.).] ,X).<.N <.` { <X3X#XoX+Xa.Y.^.Y.i.T.I.<X|.",
"+XL.G.Y. X{.{.r.c.} &.I Y A S R d.K #.L.L.B.8.S S ..9.h p.B.a.g.p.&.5 B.).).i y c.oX!.:.L a ) l y = f s.U.=.Y.#.' a.L.q.y.3XV.;.",
"S t.R.Y S A #XC.| 9.{ 7.g.w.7.t.t.d.[.`.}.N.z 0.f.x F f.<XwX^.{.U.a.i._ n.}.) C XX8X0.J <.3.c.] O.j I.I.K.2.=.J B P L.#XL.{.B.I.",
"9.h..XE R [.P.u.$.f.].| u..X8.A R Q y.+XzX8XD.f.{ | { O.5XcXV.e._ ,.yX_ C O.z.C v :.K | #.i.5XVXNXwXVXn.J.eXi.#.I.i.q.T.L.a.*.P ",
"R.R.$.I .X9.t.H.j.T %X$X+XnX3X/.s.L.rXzXrX).2Xc.q.B.:.!.5X5XV.e.3./.<X{.w 7 B C 2 g %.c._.<X3X3X .c.zXb.L 8.*.I $.U 8.u.t.#.P v ",
"I.y.*.s.[.T c T h.E h.h.L.bXxX2XaXmXlX5Xb.m.2Xi.B.V.!.2X>XcX0X8XBX<Xp.r.<XD.:.<Xc.! e.}.:.!.7XP ; v cX2X#.b D b r *.{.8.8.I J %.",
"q.p.x.M.$.h.S $.g.*.K E G. X7XT.G.G.T.(.v.E.x.Q.!.5XNXCXvX,X^.6X|.z.c.oX{.h i ;.:.] I.nXU.$.8.f @ _ 5X<XB.q.P q.,.aX#X&.Y y.' y.",
"J n M s 5 A c r L r K A s.L.oXsX.XY a.5X9XqXV.(.).6X4XkXvX,X8X6XF.r.|.{.g.} 6 7 g p >.zX@XY F 1 ; L G M.:.&.i.J ' Y.{.:.q.b.*.=.",
"8.=.a #.Y T R.].u.$.*.7 w _ G  .;.p.wXdX4XdX*X1XW.).Q. X|.C.|.<X<Xq.F E .XU.2 u d V %.i.%.B.c.6 N n.h O.x w < h r.,XT.v n v L a.",
"R.G.L.2.Y 9.U *.oXL.;.n.I G 2 u G d G 6XjXkXS.1X&X(.).{.C.F.Z.7.|.Z.w.[.g.Z.( u l ^.nXoX&.;.` 7 7 %./ H g M i :.!.b.i.Z v @.-.3.",
"t.t.I n J E E =.{.wX3Xi.v L i g / d + N +XbX_.m.E.1X>X0.f.0.8XZ.| 0.C.|.T._ O.c.n.zXyX.Xi.}.D.<.< ;.` G !.<X>XM._  .,.@.@.) @.'.",
"c U J.J.G.$.*.n V.^.2X' f q &._ i y y ..g.g. X;._.6X_.|.<X|.|.....!.<XwXI.L V.VXi.n 8.g.U.V.V.<XQ.>.w k }.jXx.;.0.V.T.,.K.m./.2X",
"m J *.a.iX2X' #.`.^.XXI U I M a ` ` _.<XI.oXn.q.q.H s zX[.h.Y _ Z.!.oX!./.<XB.r.N.1 m 7.8.0.5X8XcX_.H 3 B e.5X<X../ P b D N .Xp.",
"=.#.| c.).BX) v B OXtX@.n J q h V !.6X<.OXjXT.q.P $.c.oXh.[.w.:.>XM.&.a.CXjXP.f._ ; p F w.|.!.}.<X{.|.C.p.*.b.^.!.k H { } f F F ",
"v  X#XyXlXmX] B V M.1.a.4XdX>X&Xm.x.Q.Q.^. XnXrX}./.B.h.Q Q uXbX1.v.6XlXCX>.x P y < w { A r.j.[.7.8.C.P.p..X!.}._.N./ _ :.P G l ",
"=./.3X2.3.lXjX).gXZXxX=X(.=XqX&X1Xx.). X2X1.V 3.b.0.f.9.Q W 9. X!.BXxX1X&.e P w.>.^ w 3 w 7.7.7.f.C.Y 8.g.u.c.5X6XwX>X|.{./.D.o.",
",.Y.=.3.b.gXtXnXjXdXBX5XE.0XVXSXCXrX+X8.a.%.@.m.;.;.0.P k.W w K XX/.y.%.U.{.oX7Xp._ $ , u H @ , |.8XG v 8Xp.0.;.!.D.0.p.&. .).A.",
"I.I.I.rX2XgX(.,.1XkX2XBXMX4XVXdX(.6Xa.J %.1.dXmXjX[ g p F T e 6 D y.L.zX{.y.{.Z.w.r.# # u +.  u 6X8XC V r.!.:.e.;.c.p.i.B.p.A.-X",
"8XU.J.3.rX'.'.2Xi.i.T.XX,XxXdXm.4X,X/.b.3XzXiX XY.c.V , ; F $.' G a I.%XuX$.H Z.| ..$   2 +.  l D.|.2 G ` r. .r.,.V.6XQ.<.dXNX-X",
"/.i.I.eXbXJ.,.eXU.n ' I.6X).'.jX4XvXMXvX,XI.oXT.u. .[ y M q./.#.g M 8.d.G.B.w.r.r.&._ . & u o ( z.H H !.!.O. . ._ e.c.,X1.4.:X6.",
" XT.6XpX@X Xs.b.#.i.J x.^.'.eXxX=X2XiXzXXXyXd.S 9. .1.s ) ' ' l.[ ] ' y.L.B.f.q.:./ M.# # : + >.e...e.r.u.u.F Z.>.z.:.:.;.X.(.:X",
"y.q. X Xt.a.^.'.,.i.6.OX@.,.K.J.pXlXQ.n.U. XQ T B.e.b.x./.M.;.^.N.;.) zXpXB.| 0.V , ` 2   % > -.j U.l.N Y 8.0. .c.D.&._ x.>XS.hX",
"K s. X XXX'.x.) J.2X4X3.n.I.#.%.L.g.s.%.D B *.s.*.,.;XxX3X8X@.' /.Q.jXlXpX<XcX:.G + = o . X 4 5.` |.i.s q.| &.P n.!.v.o.6.*Xm.6.",
"/.pX2.U.nXeXA.D.K.).'.b.V.P.{.P. XL.B.0.= q 1.I.<.M.cXmX,.1.7 4.jX<X_.M.n.I.3X<XQ.s o X o o 4 ~ N.:.%.&.{ &.{ _ e.!.Q.~.4.A.E.W.",
"!.N.XX{.oXc.^ F.z.~.{./.a.g.R.#XsXuXH H 2 @ H k V wXiXzXn.;.d [ z.5.l.( H ..0.Z.Z.wX>.# # o > +.^ h H r.z H C.0.b H ^ ] ` @.1.m.",
"c.6X7X}.j.z 3 & 4 >.!.L.=.t D 7.0.b 1 H u H ..p e.V.U.B.`.V ` 8 ~ O.( ~ l C 7.7.<X5X>Xo.D.u $ l g u u h ( F.|.P a.p.2 2 <.[ Z @.",
"f.|.| 7.z 9 4 * u N._ i.^.L 6 k p w P Z.C.8Xk.j..Xh.t.K p 6 8 u ~ X.o.4.O.[ Z.7XiX}.:.|.Z.D.x l l ..D./ D.+.9 H Z.Z.9 2 N ] C ] ",
"7.1 t R z 0 0 z O.p M pXnX/._ c.r.z.Z.0.r.w.Y W E E T [.<.8 : j 7 [ ) ! ` r.U.n.XX3XN./ h Z.|.D.D.F._.O.0 3 9 9 h 9 3 l ` i.y < "
};
