/* XPM */
static char *_546812720143[] = {
/* columns rows colors chars-per-pixel */
"64 64 256 2 ",
"   c #271B23",
".  c #271917",
"X  c #541134",
"o  c #512B31",
"O  c #6D312E",
"+  c #5B1823",
"@  c #67413A",
"#  c #591948",
"$  c #531646",
"%  c #631B4A",
"&  c #6A1553",
"*  c #572D4F",
"=  c #672559",
"-  c #742A5C",
";  c #6C334D",
":  c #791A64",
">  c #772966",
",  c #683867",
"<  c #763869",
"1  c #7A3B75",
"2  c #6F2D66",
"3  c #734E4D",
"4  c #794779",
"5  c #714B6C",
"6  c #55405F",
"7  c #850C33",
"8  c #832E3C",
"9  c #8A3258",
"0  c #8A1B6F",
"q  c #84286C",
"w  c #862B75",
"e  c #873779",
"r  c #93387C",
"t  c #903271",
"y  c #A13564",
"u  c #904B54",
"i  c #88457B",
"p  c #95497A",
"a  c #924D6F",
"s  c #AD496F",
"d  c #A55D6B",
"f  c #C78666",
"g  c #7A4E85",
"h  c #8B3D82",
"j  c #943B84",
"k  c #963986",
"l  c #9B2C85",
"z  c #A33B8C",
"x  c #A83D94",
"c  c #B33B9A",
"v  c #B73FA0",
"b  c #8A4786",
"n  c #944C8C",
"m  c #97458A",
"M  c #895488",
"N  c #93538A",
"B  c #9C4A93",
"V  c #984894",
"C  c #8A5795",
"Z  c #9C5394",
"A  c #9C5C9B",
"S  c #975795",
"D  c #8D4E95",
"F  c #A4478C",
"G  c #A34C94",
"H  c #A64799",
"J  c #A4539C",
"K  c #A35C9C",
"L  c #A7569A",
"P  c #B65A9B",
"I  c #A9548B",
"U  c #98649B",
"Y  c #926993",
"T  c #A4629A",
"R  c #B5669A",
"E  c #AA6D91",
"W  c #9E5EA5",
"Q  c #AC4CA4",
"!  c #B54BA5",
"~  c #AC55A3",
"^  c #A45CA2",
"/  c #AB5BA4",
"(  c #AD5DAA",
")  c #A857A6",
"_  c #B154A5",
"`  c #B455AB",
"'  c #B35CAC",
"]  c #B959AA",
"[  c #BB5CB3",
"{  c #B55CB2",
"}  c #AD57B0",
"|  c #9C68A5",
" . c #9B79A9",
".. c #A563A3",
"X. c #AA63A5",
"o. c #AC62AB",
"O. c #AD6AAC",
"+. c #A469A8",
"@. c #B263AD",
"#. c #B26BAD",
"$. c #B766A9",
"%. c #AA73A9",
"&. c #B676AA",
"*. c #AC6CB2",
"=. c #AB66B1",
"-. c #B465B2",
";. c #BA64B4",
":. c #B36CB4",
">. c #BA6BB5",
",. c #BD65BA",
"<. c #B56DBA",
"1. c #BC6CBA",
"2. c #B763B8",
"3. c #AC74B3",
"4. c #AA79B7",
"5. c #B373B4",
"6. c #B47BB4",
"7. c #B474BA",
"8. c #BB74BC",
"9. c #B47BBC",
"0. c #BB7BBD",
"q. c #BB76B4",
"w. c #C76893",
"e. c #C55CB7",
"r. c #C054AA",
"t. c #C465BB",
"y. c #C36CBC",
"u. c #C766BB",
"i. c #C274BD",
"p. c #C479BB",
"a. c #C675AA",
"s. c #BD74C1",
"d. c #BC7CC2",
"f. c #B87CC4",
"g. c #BD6EC1",
"h. c #C36DC1",
"j. c #CA69C2",
"k. c #C474C3",
"l. c #CB74C5",
"z. c #C37BC4",
"x. c #CB7BC5",
"c. c #CC75CA",
"v. c #C47DCA",
"b. c #CB7CCB",
"n. c #C276C8",
"m. c #D379CC",
"M. c #D57BD2",
"N. c #D174CC",
"B. c #AC83B9",
"V. c #BB83BD",
"C. c #B786B9",
"Z. c #B588AC",
"A. c #B48484",
"S. c #CD938C",
"D. c #C585BB",
"F. c #CB90B0",
"G. c #D1ACB7",
"H. c #E1A7A5",
"J. c #BC83C4",
"K. c #BB8BC4",
"L. c #BC8BCA",
"P. c #B885C6",
"I. c #BB95C7",
"U. c #BC93D2",
"Y. c #B189CB",
"T. c #C383C5",
"R. c #C38CC4",
"E. c #C484CA",
"W. c #CB84CC",
"Q. c #C48BCC",
"!. c #CA8CCD",
"~. c #CB87C5",
"^. c #D38BCE",
"/. c #D385CA",
"(. c #C593CC",
"). c #CB93CD",
"_. c #C698CA",
"`. c #CC84D2",
"'. c #C58DD1",
"]. c #CC8CD3",
"[. c #C986D4",
"{. c #D384D3",
"}. c #D38CD5",
"|. c #D48CD9",
" X c #D987D8",
".X c #C593D3",
"XX c #CC93D4",
"oX c #C49BD3",
"OX c #CB9BD4",
"+X c #CD94DA",
"@X c #CD9BDA",
"#X c #C699D9",
"$X c #D293D5",
"%X c #D29BD6",
"&X c #D394DB",
"*X c #DA93DB",
"=X c #D39BDB",
"-X c #D99BDE",
";X c #D999D7",
":X c #D197CC",
">X c #C6A3CC",
",X c #CCA3D5",
"<X c #CCA4DB",
"1X c #CDAADC",
"2X c #C7A7D6",
"3X c #D3A3DD",
"4X c #D3AADD",
"5X c #D7A6DA",
"6X c #CDB4DC",
"7X c #D3B3DC",
"8X c #D6ABCC",
"9X c #E3B0DD",
"0X c #D49DE1",
"qX c #DB9CE2",
"wX c #D695E0",
"eX c #E298E5",
"rX c #CCA7E1",
"tX c #D5A3E2",
"yX c #DBA4E3",
"uX c #D4ACE3",
"iX c #DBACE4",
"pX c #DCACE9",
"aX c #D8AAE9",
"sX c #CDB2E3",
"dX c #D4B3E4",
"fX c #DAB3E5",
"gX c #D5BBE5",
"hX c #DABAE5",
"jX c #DCB4E9",
"kX c #D5BCEA",
"lX c #DCBCEB",
"zX c #D2B6E9",
"xX c #DEB9F0",
"cX c #E2A9E7",
"vX c #E2B4EB",
"bX c #E2BBED",
"nX c #E2BBF1",
"mX c #E08FDC",
"MX c #D6C2EA",
"NX c #DCC3EC",
"BX c #DCCAED",
"VX c #D7C5E6",
"CX c #DDD2EE",
"ZX c #DDCAF2",
"AX c #DED1F3",
"SX c #CFC1E5",
"DX c #E2C3ED",
"FX c #E2CAEC",
"GX c #E2C5F2",
"HX c #E2CBF3",
"JX c #E9CAF3",
"KX c #E3D3F3",
"LX c #E7D9F6",
"PX c #E1D1EC",
"IX c #ECE3FD",
"UX c #D6C1A6",
/* pixels */
";X5XyXhXBXhX%XXXXX8.H F.u &.F.:XXX%X4X3X5X;X{.p.).CX7XR.3.#.M.W.;.Q ;.y.` i S 6.O.| J.E.J.+.5 Z 7.P.f.| 4.2XU.L.[.3.D ) M o     ",
"XXjXNXJXbXNXlXfXiX}.f H.G.UXD.*Xk.}.).8. X{.|.W.W.7X).8.L -.*Xl.` ;.@.{ ! ,.{.X.T *.[.[.+Xs.n 3.dXrXrX'.<.3.s.P..X2.2.g.| , o o ",
"3X+X7.O.8.fXDXjXiX|.I s G.Z.P &Xl.y.] x.b.b. X*Xb.T.~.E.*.<X].k.8.d.-.{ c.x L j.s.2.g.tXd.@.2XCXCXMXJ.b | W 1 g.#Xg.( [.| , g 4.",
".X:.J.3.B.P.Q.,X%XOXOXo.t G ~.l.u.x.y.x i.m.{.*X{.3XK.*.4.uX@XaX'.h ' k.W.G / ! {.E.L.qXB ..AXVXBXzX*.P.rX2XY.| f.{ D P.g g 4. .",
"oX3X4XlXzXU.3.:.lXlXdXdX!.NXNX~./.m.c z ~ k.].`.$XVXA b f.3XuX0.<.*.k G L.m L ! v *XT.F e S SXsXSXzX*.Y.kXMXMX2XJ.j 7.f.D g *   ",
"uXgX+X<X1X3X3XXX.X1X<X3XfXNXgXdX$Xj.l.x.$.@XOXJ.0.V.5.3.E.T.8.( ,.n.,.k Z r G W.] i.XXi # b I.1X6XNX, U  .B.sXsXOXI.<X{ h   . * ",
"PXLX7X<XE.W.*X*XOX!.iXtX4XzXK.>.W.^.3X3X' >.OXjXz.E.%X@X.XQ.E.,.{ H ~ H B n m [ k.f.b A A *.7.C.| oXY | * 4 rXY.D B.2Xf.6 g B.Y.",
"gXC.sXKXuXE.l.i.J.f.~.B.%.E 1 h ] ] y.].<.-.3XtXz.;.tX=X=X@X#XXX-.Q { E.( ( v.k.k..XU Y.0X#XL.Y.C.Y.6X4 1 =.4 , D 4.Y.=.f.f.U.Y.",
"U.* 4 uXpXvXy.%X(.v.V.>X>XU C L.4X3XT.1.tXT.f.:.^ 7.+X3XtXqX3Xc.M.0X+X[ k & E.&XXX(.9.f.7.oXrX#XsX.X4.* 4 ..1  .<X.XOX#Xf.B P..X",
"4.B.| D V -.` { >.8.d.ZXP.%.2X>X<XXX:.G 0.d.:.> 1 3X#XE.y.G b ;.&XqX0Xb.Q.K.oX].&XL.f.p.Z ^ *.K L.*.*.4.^ -.O.dX..6.#X| e b g 3.",
"Y.4.#X4.9.S 2 ^ +XNXD.E.n = J.].(.D.(.e X.6.@.4 3.%X.Xn._ L ) ( g.f.v.g.=X3X*Xv.3X1XOXy.<.=.x S $.0.A # 7.2.5.5.I.<X<.2 =.*.1 W ",
"S Y.U.(.=XwXY.C.1XHXuX@XOXI.J.!.dXdX,X#.<XK.) |.qX+Xk.8.Q.+X]._ =.Q > J &X].|.|.p.C.OXk.Q :.2.L 0.gX5.b L.P.h f.I.:.@.+Xf.C =.W ",
"U oX3.d.*.tXyXNXsXNXiX+X1XhXdX+XXXfXQ._.NX1XO.P.=X].-.^ o.f.J q o.W x t.&X*XM. X_ > %XZ e aXW / fXhX_.b I.B.1 +.4.(.#X2.= g #X#X",
"5.1 S h o.V.&.].4XlX$X+X4X<XqX.X-.3X$X@X6.+.4.f.'.[.e j 9.oX7.z t H v j.cXyXwX X>.z.$X' [ L.n l.jX4X|.<.I.C 1 f.U.U.%.h g +.f.#X",
"b.#XrXK G.G.G.0.) J..Xv.].E.c.-.n x.eXvXS * b ^ <.) m P.MX1XsXR.r ( / k c.}.{.{..X;.e.N.M.J j [ @.+XW.M.~ = b Q.K.* * | b 4.U.f.",
"fXxXW T C.I.gX,X0.L.sXf.{ { ` i.-Xm.H ].d.i % V =.X 1 xXgXBXlXNXuXz.E.F ( ! ! t.|.#X$.` t.k > -.E.;Xi.;.[ g h ( D C S 4...P.U.Y.",
"jX'.n gXgX,X&.U S 4.sXI.=.-.<.%XM.M.6.T z.O.X.6.lX+.b XXdX4XdX=X=X8.-.;.q.R.<X1.g.`.qX=XQ e q ].tXy.J 5.s.v.'.S C +.<.W O.:.J..X",
"=XE.E.=X4XhX%Xp % = 4.L..X3XvX X X}.DXS R.y.Q.NXNXZX~.-.dXV.-.E.A V r / <XZXdXj ( d.].N 1 e G }.b.;.5XgX.X*.f.D b D = . 4 f.( :.",
"z.-.XXlXlXD.E P j 2 +.xXNXGXmXN.u.y.+.b ].[ (.AXNXVXlX4X=X7XOXuX7.!.4X1XfXC.S k : V B k ` ! pXqX=X}.dX=X#XtXS g 4.*.g . X f.J ' ",
"7.O._.hXB I Z.D.,X7X7.q..X_ e.c.b.y.#.D.fX@X&X%XBXlXdXlX;X{.@X3XfXNXKXNX(.b m > e ) n.Q.P u.fX=X`.l.].=X'.sXZ.Z.B.4.Y.6 5 <.N 3.",
"uX4XVXI.U hXjX5XFXPXNX7X4XI.A lXKX4X3X%X).,XX.,.*XjXuXzX%Xu.!.^.=X5XOXhXKXoXB ^ .Xq.X.&.p q.pX{.c.l.b.wX[.uX2X6XI.P.B.6 I.S ..S ",
"%XVXFXhXIXLXLXCX7X}.cXbX3XkXNXKXhXuX>.b.&XL / @X=XN.W.kX_ H ).>XuX<X&.S ).T.N A s.&Xp.x.p L k.n #.+Xg.<.n.8.6XVXMXrX4 4 zXC h ..",
"=XlXDXFXLXPXBXVX6Xm.M.l.].sXNXK.+.!.,.|.0XyX&Xn.'.Q y.%Xz 0 z I a >XgX,X%X; M <XE./.i.>.Z 8.*Xr +.@Xb & V ^ oXlXMXC * rX+.1 *.E.",
"T.jXZXjXdXkX6X1X_.1.m.B P.OX@XO.#X].u. X X$XvX8.e ( [ L m % % X . U 3X6X5XN ; iXdX;._ 3XKX~.$.F #.3XK 2 J @.6.,XoX5 $ h.-.[.[.f.",
"7.3X.Xn 7.E.'.tX0X=XOXXXB X.E.XX}.l.j.M. XcXyX@XK 0.b.1.K - + o d E 0.7X(.O.O u $.x y.7X7X).E.O.$.:.h 1 O.E._ 8.Y.X.B Q XXdXuX3X",
"< - Y M 2 J.wXwX&X&X!.t.` T.hXXXy.].j.j.{.:X%X0.M O.0X-.0 & O 9 u o > $.7.R.9 y k G p %.hX!.`.{. X..# i .Xn.J ' >.<.l.x w z.kXsX",
"K.4.oXV.W d.M.mX|.N.j.j.y.8.fXQ.T.s.! ! $.$.V.A T O.e ~ y.:.%.9 e b e B 5.&.y.%X!.[.5.) :.~.%X$Xb.p K E.].i - @.d.E.>.k : Q.ZXdX",
"iXJXtX`.|.x [ cX Xr.r.W.n.[ 8.8.~.;.r r l.8./ 2 oXC.h ( }.OXBXj E.).4Xp q ;.*XK n ( H 1.y.D.R./.,.#.,X<X'.a U '.OX1XT.s.k L.BXMX",
"GXKX5X3X-XM.' ! e.wXk.' y.q._.fX3Xn > % t.T.s.{ XX<Xb.x ,.KXR.1.].|.3XR.9 ] ;Xz.G j b.W.y./ D.v.Q.iXjXfX(.L.2X3...*.M.n.Q oXAXMX",
"DXKX5XXXtXfXtXv.v e.b.b._ E.uX~.j r z.U H >.>.] {.tXs.x z.7XT.n./ %X=X-Xq P %X!.{ @.i.8.H s.@XXXjX5X!.~.f.1XMX3.) ( g.Q } kXBXsX",
"XX9Xp.n.qX*XjXjX<X! ] !._ !.J.H ! {.GX+Xk.tXtX|.M.{.OXQ.c.u.y.b.+XaXqX0.q K T.y.e.y.z.=X{.&XtXbXy.>.yX1.L.oXoXR.f...} Q v.xXsX+X",
"l.@.1 ].jXv.b.' k - > x._ / / z.&Xs.!.{ b.cXlXjXmX*X4XXXyXN.u.q.d.J.-.) h.h.Z j N. Xq.=XaXyXlX{.r >.z.m J J.Z J b V { +Xb.} [ } ",
"yXL.f.tX0XwXb.H G Z.&.P y.|.=XdX+X_ !.R.W.yXlXDX-X|.7X@X$.y.!.,X<X..^ _ c.v.( w G P e | [.v.@Xy.XXc.> m `.!.^ T h <.f.s.^ m Q ( ",
"pXaXb.0X7.d.8.8.tXOX$Xr i.*X5X^.].+X%XuX%Xk.=XdX!.=XgXW.l gXZXuXXXs.#Xs.b.<.~ (.N # > r V n Q.k.%Xr.c x.v.q.gXBXBXI.1 % h 2 V ( ",
"cXm.e.eXS # 8.uX4XOXq.e !.&X|.cXbX0XqX;X=Xb.%XAX:XQ.uXk._ iXdXkXd.s.'.+Xb.;.@XHXlX>.l.F #.D.1X8.k.*X/.z.1.aXfXNXfXz.n 3.v.1.s.Q ",
"k.c.*XH V J o.5X7XR.&.4XtX{./.b.W.yXcX5X].{.iXCXgX,XtX%X!.b.uXfXtX=Xh.0XXXk.dXlXlX=XG / z.Q.4XuX-XcXvXXX_ u.-.b A n.`.].s.d.sXo.",
"].&Xh.V s.+XE.B 3.C.BX!.n.k.y.! b.cXcX4X].1.3X4X<X<X].i.z.!.T.NXaX{.wX*XW.1.gXHXD.F F k 8.yXjXXX' >.{.g.) 8.n./ ^ Q H ( 2.=.zX@X",
"GXqXh.wXk.v.+X..!.!.( s.{.b.X.Q.-X XcXDXb.! {.4XOX.Xv.uX3X<X2X4X%X5X;.u.k.n.GXjXy.y.y.,.;XtX=.: h Q =.e =.0XtX=Xv..XL.1 +.W gXaX",
"pXN.[ +X+X4X=XXXL.%X].3XvX` >.=X).l.x.$X' v.b.h.[.v.H H / ,XMX<X$XlXi.mX`.2.T.z B -.y.{.v.'.V 1 ^ ;.@.W 2 k `.+Xs.[.4.C.fXJ.kXC.",
"+XM.j.bXDXbX$XZ J.).3XyX].` XX4X%X$X^.3Xk H [.+X'.dX6.z ,X_.gXSXdXp.qXeX+XE.z J 8.{.5XcX:.^ =.j =.$XjXf.b > n :.,.n = f.lXf.O.9.",
"X.$.t./.{. XN.9 6.%X].k.%X3XNXfXlXDXJX=Xn w { wXz.<X4X}.jXoX>.BXlX-XmXc.]...J @XiXnX=X~.*X5X8.G }.jXHXC.m ].:.( =.4.B.J.sX(.U k.",
"u y [ |.M.u.p.N H =.n.).$XyXHXPXDXjXHX Xu.c.] V d.E.!.E.T.-.Q K $.x l F O.m <.uXBXi.H ] ;XvXQ.;.qXfXBXl.c.qX].@XE.:.6..X<X'.aX&X",
"Z.6.vXcXcX5Xp.r G k.0X;X).m 1 I.NXuXXX] ) l 0 X l ' lXnX( ` w & #.6.H J ;.t.i.;XiX>.!.*XiX!.;X$XyXDXHXN.N.{.*XiXtXs.| q.].ZXkXuX",
"R.3XvXcXbXpXDX_.k.pXqXyXiX5.m Q.NX3.k XXZX@.: k 1.b.v.' d.` j *.!.).E.&Xc.m.l.$X5XiXiX`.H x M.*XvXBXi.0 i.pXqXpXxXtX@XuXtXZXdX+X",
"D.5XFXPXKX:Xh.x.3XwX}.h.%Xf.2 J.zX,XJ.dXdX].`.aX&X;.g.E.:.k 5.n.OXgX7XiX-XyXm.p.}.%XvXXXm u.t./.!.R ! H X.OXXX).B.dXiXtXB.%.+XrX",
"*XFXPXPXVXy.u.).dX&X`.=X}.@.V s.zXBXNXQ.4XNXlX=Xj.$XjX&XJ ^ 8.%XPXNXbXbXyX XX.R bXvXvXT.x.R ` %X5X%X3XnXJ.L.:Xb.i N tXtXg b aX'.",
"=XbXF.S.p w ! M.@XXX$X5XP _ h 7.Q.zXBX#XNXdXn.b.-.(./ p.OXuX].p.%X4X~.x.{.qX,X8X6.R.9XcX=X#.y.=X=X<Xx.e 2 Q.%XiX_.+.'.@X^ P.rXf.",
"y.~.G.A.:XT.q l.k.%X5Xu.a $.!.Q.) K 1XI.E T N b @.L >.7X7X!.!.NXE.XXy.x.%XT.q.p.z I $.z.7X&Xu.|.OXh.] 1 r -.s.%XOXK f.@X<.s.#X{ ",
"+XXXq.$.qXn.s.7.OXDXF.w.d a.`.].+Xe 5 ; + o @ @ E p.cXKXhXz.>.,XE.%XjXbX].k.}.l.yXFXVXE I _.t.].k.y.b.[.` Q >.tX0.%.NXMXZXuX'.&X",
"ZXNXbX*X X[.&XpXKXBXa.E a ^.u.c.tX%.1 ; @ o @ 3 &.T.).T 5 -.L F 0.,XdXM - a.a.mXcXfX8X@ 8 %.n.v.k.-X{.`.].XXX.z n.NXlX.X%.) 0..X",
"W.dXjXcXj.|.0XjXDXNX:X9X/.D.b.c.W.XXD.C 3 3 @ 3 n #.A U 0.u.L $.R.:X,XM Y 9X8 y v.fX1XI Z.%X&X+X9.h. X`.iXV.A ).T.NXNX@X} Z e D ",
"j.y.c.t.n.wX0XwXvXlX&.$.^.jXfXz.OX(.!.iX5 . 3 3 b T.p.E.s.i.c.|.~.:X,X4XiX:X7 + a <X4XaXxXlXfX+X(.$X' p.OXE.P.oXiXDXlXW.,.O.V zX",
"*X&Xh.y.!.c.h.[ yXXXJ.,X5XLX7X3XKX6XT O.i o ; W fX/.=X3X3XW.W.cX7X%XvX_.L.x.9 a a.>X8X5XjXlX+X:.<XXX8.=XiXXX(.S E.lXz.) ;.` s.kX",
"yXtXwXn.N.0X%Xd.=.J.MXAX5XX.,.FXZX1XZ.M n Y $ m W.N.W.].=XyX^. X-X5X~.Z 8.J %.BX6XVXVX_.zX<XV G s.J j.*X*XXX2XY.F ^.1.OXiX{.=XsX",
"GXvXyX,.{ aXHXlXp C.KX7X> 0 $.LXfXdXnX!.%.C.m uXs.b.}.*X;X0XjX*X{.!.6.C.A # p.5XZ.8X&.T 9.+.i / !.` b.qX' 5.sXK.- 0 i.nXpXyX<X6 ",
"O.3XZ e { +X$Xw.y F.IXZ.C.&.R.LX4XbX$Xh.PXt./ LXT ^ m ].vXqX].wXW.T.K.7XC.; m ; s V.p.$X-.( k.vXQ.y.&Xk.b I.lXf.~.}.-XJXbXvX2Xg ",
"& Z Z m eXbX^.I w.8XdXp.fXR ,XlXlXyX{.l.{.r +.KX(.Q.7.,.] l.-X/ #.R.R.R.$Xl.m 7 7 P $Xq._ ,.4X_.e ~ e.F :.4X,X%X-XR.5.iXlXJ.7.9.",
"b.>.q.a.=XcXp.F u.mX$XwX*X=XuXiXiX].t.z k 4 C.FXrX@XXX0.[ ] = = 5.O.o.] i.Z.d y y a G m X.:XR 9 n *Xb.e./.iX5X7X_.4X5.d.).%.B.#X",
"yXT e q _ #.D.s s qXjXQ.p P !.3XgXfX/ & 3.i.5X>Xs.#XJ.s.m V.M A uXGXlX!.K.E f S.L > ;.p.D._.$.e.*XcX9XvX3X5XdXjXjXgXrXrX<XiXxXrX",
"I &.F.p.b e M R t ;XaXA t I y.R D.iXz > %X$Xz.i.;.d.f.T.G k @.0.O.n.vXJXLX&.S.H.@X/.t./ a.p.^.;XW.;XbXDXPXcXJXNX_.NXZXBXgXP.@XoX",
"^ j y H.5Xq.$ % 0 ~ ,.1.@X4XbXLXrXE.fXnXvX=Xi.1.j *.aXZXvX~.$XJXZ w q.4X%.A.G.>X1Xk.( m w.G.~.J.~ .X@Xk.%X5XbXP.E.T.J.oX3.U oXU.",
"OX&.9 & w.%X>X6.[ y.^.cXiXlXV.7XQ.OXvX$XcXnX3Xr i ZXKXLXLXnXDXDXq.T.X.H t d a 3.8.p.G J.m.c.b.b.].XXoXU K.9.q.*.T.I.a - A 2X6X>X",
"JX:Xp.r.u.b.xXjXXX].%XuX{.qX%.U &X|.4XhX!.).jX#.:XIXKXKX5XvXLXiX*XJXvX$XyX< i >.;.e.c y.[ cXcX`.L b P.4.rXMX1XL.X.3X&.; M #X2X2X",
"G R DXmX` `.%Xx ;.iX3X>.[ i.*Xl. X/.,XDXBXB W.DX7XDXbXhX3XpXtXqXvXJXJX4X-Xj z./ x H y./.H _ 8.i + % f.@XL.<XMXB.%.>X< ; K d.<X<X"
};
