/* XPM */
static char *_1dcb56d44fa40d8a1d38bea60b72ecf[] = {
/* columns rows colors chars-per-pixel */
"64 64 40 1 ",
"  c #3F2107",
". c #3E220C",
"X c #432307",
"o c #43260D",
"O c #49270C",
"+ c #46280E",
"@ c #4B2A0E",
"# c #512E0F",
"$ c #442710",
"% c #462911",
"& c #4C2C13",
"* c #4F2F18",
"= c #512E13",
"- c #4F3014",
"; c #4E3018",
": c #533215",
"> c #593616",
", c #5D3916",
"< c #553419",
"1 c #59361A",
"2 c #57381C",
"3 c #5C3A1C",
"4 c #603D17",
"5 c #613E1D",
"6 c #5E3C20",
"7 c #613E21",
"8 c #65411E",
"9 c #69441F",
"0 c #654221",
"q c #6A4622",
"w c #6D4925",
"e c #6A4728",
"r c #6E4A29",
"t c #714C26",
"y c #724E29",
"u c #75512C",
"i c #79532D",
"p c #775532",
"a c #7A5630",
"s c #7C5933",
/* pixels */
"&%%+%%&*1133333>3331333333111>3355777571$%%%%$$o$$$@$$.o.$$$Xo&;",
"%$<*&*O17333133311:11333>1173777rr77337:$*%$$.$&&&&**&$$$.$%o.o$",
"$o11><:131113133116613733><13<>1><=&=*#&&&*%%%;&=%&%+=*&&-&**&$o",
"&&11>>111>>>1<<1111::::>=><11131>*O#==%%@oo@%*&%@=*<=@=@&&&==>:*",
"q7q5qq779e9q73777133323>>3333713111113633<1<,qwq5qrwewqqqqqqq0er",
"wweeewreeqer73116,633333333133777557536333327eiwqyyqewqqerrreqee",
"&@========&**&=&*&%&&&&&O&#<>371133<#=<*&+&&::>>>41>1:=:#@==--&#",
"+@@%@$@%=O&&&&&&--&%+&-+&$O6733>:*:<1==*==*<1,11,>1*%&&%&%&+++&&",
"<-&*&&;;*<***&&&%%157738q0333<1,5116065e3777371qq0:&&&&;;;%%--1<",
"<:@:&;&&=**&OO$$+&<15ew9388333333631:1,r7573707155=-;%$%&@+&--1<",
"&=%&&&&&=*=*&#*::;*=@##->33:;=:<=**=*>>1>=::1:=::&;&&&-&%&----&*",
"=#==@##&=OO=%%#:3#=:1373>=-->>:11==>,>1#===@@@@&#@@@@%@@&&--@%&-",
"wq9weqqqq9wtttwwyyweweyawwyyyrwwtqwtyyywqyuiyq00qwqqwqqqq88qeqeq",
"wwwy99ywyyuiiyuyupupt8quuwewuuywwwtttyyyywtyutttwqwwwwwqwwwwq9qw",
"8q998q05444587513,>,>3,>:,:>,5795544>51494585555434wwq9q0qqq8888",
"0808807335075115:::=--233=--13:15577133eq9q0tyttwwq8838380848894",
"-&:===:::13>#O=>==#=&*#1>O$$#::@177670731333533449q55853,5435555",
"1=##=@O+OOO:>>=:1==:::111==&$@&&:111,11111>113573-:21150q8753445",
"uaiuuuw53qttrryiywe79qtai7wy711111333353336637533>>::*<:,33>tsai",
"uyyiyyy55qtuyr9wrwyyytyyyyty1::13<<313111311136633236333<<<:tsat",
"5,,,50555555545,>>11,337775333*&-*-&*-&&=*=&&&&&&;;;&@%-&%%&@=,q",
"777630753555qe5777533311377536<O%&&*&%+&=&%@&&%&%&&%%%%%%%&%%%<e",
"-*&**&:==%&#:>#:<:<<<*:11111=#*=$&$&<3<62332<<<@&&&&;<;+$oo$%@$&",
"$$@&<&&@@&*+$@&*:*<*1133>=<<<*&=<*&$%%****::***o%&;;&-;&&&%%%&@$",
"%%&$$&%$$&%&%&%$$o&%&*=**%=&@&**&***:<<&&@$%&@O%@+-3>&*;<*---*1*",
"+&%$&$%$$O%&**<-o o+$$$@%%*=*==@*<:&&&&-&%&*&%&=&%&<<:*::<=*&&<<",
"*****<*>::**&=:=-<<&&::=*#17777767631*<1117775e5e<733,5330<<:;-:",
"==##O#=>31<11:1#+=3:==::>#>3333113313131133,557qe773733837*&@::&",
"q589809q7759w9w9qq9wttwwrww95#<<&=:*=<&<<:&*:#::=#::---=#;&=:ure",
"tww99q99wtttwtytttwwqq9wqwtyt>1331*%*<&*:&<3:=*:*=<<<<<=:;:-:e0q",
"9tytwttwww99tttttytttttwwttytttr1&&@;*&%%-::1:<&***-:=<:;@+%@@@@",
"wiiytytuytttttttwwtttwwwqtttttry1&&$$$&&-::*6<<:**-&&=&:1:@&@-;&",
"ytw94,,3wutytyuutiiii911,35411%=31*<<&<&=3&@%&2:&%&:2:q80qwwqqqr",
"9w9wwe93,9ywtwwtt99qt5@=&#=>:>=:*::-==&>23#@&@<2<&::::tutwqwwwwq",
"ttwwwwqq985899ww5,55>55353115573455337070755q53300ew009wtwwqwywy",
"ww8833368wq8,338777w755e0557557770763573535538730qqq0qq900wqwruw",
"@+ooo.o&@+-@&-#-OO@=>:=#:11<11:==&==*==::::==&*:;<;@oo+++&---@+@",
"@&o....o%oo&#;=-1OO=>=>557>>##===:===::=:::::<><<:;o....&&&&-&&-",
";@+++o%%%@;&100yi7qqqttt959yttt9q75455598380<+%&%+-&--&&+&&&-22:",
"#-<:><;--<=#,05355ti9t59qyqqtyuuuttw9wq99qqw5XX@;<-#@--@&@@----@",
",>332250q888035855tt545455t55uwyyyi59ytqwwttwwewwq455558880r8464",
"rrq84555,88qw9885549595575555qqw9tqqqqqqqqq48008qqqqqqqewur44rrt",
"qwytq08588889899tw999535>>133143555>113131>>:::3>133<-8q88888440",
"4888454488888859959495>>1111>11113336111<31362333733237746884888",
"ww9wtwwttwwwqtwtwttwttwyy5O%%&@$@&*&%o.o...o$ooo&**%&&&@+:twqqww",
"wwytwwwwqyyettytuaaiiiiis7O%&%%@%&&$$$$$$o.oo.o%@%%%&%%%o<utwrtw",
"4>>,333>>55#55514,1>>,>4q7=:*%*1&o$$@&*1*&--;;&&***%&&&;-;--::40",
"3312>2>213331>1311115774:>=*=>::&%&&&=::%&&-;::<*11<-&+o+@264422",
"#==*==*::::=:>3<1111533>333>5111<662111333322-;<1113<:<<<%::;=:;",
"%O%#@#=>31<<:>3,3453>3135555777711111133>:233--;:*=&==;:<:1<*==@",
"w77777755533558595413355575:1133>:111<:-@-=<3<<:==&=*=*1<<33333q",
"557wq955880e75qq597qqrqq9w5333:111621131>32,337333313,1333153355",
"5575595555qqq85088755750q577773361335,700533,3qq7etqq75188833q83",
"735777555557q5e055577365575335556673333330033,,,315597qq088883ew",
"5>>7755555141=&==&**&@$%#&=*>::=*><==:=#=&&&#23>4133341583<-2>>>",
"35>:>>>:34755#@+&@&%$@&<>11:%=*&&&=#<-@@o@==-33,353>>>,>>>>>>>1,",
"8qq5957wq99tt5>1:,26706333<<1111:<11<*:6370737ewwqww0q8q08830808",
"05qqwq758q5qe15755732<<3*&=:::**==1*=<215037<3qqqww908098qee0qq0",
"3>13155313,,>1>13>>2<>2::><<>11<>>:>*&*12><><<3<<<--@-=#-=3<>,22",
"::=>>13333334151,,3332<3<36<662266663&&&&@&--&&&&@&;:,,,35#,83>:",
"ww999q5q7y9tqqyauwtr3%&&&$$%%%&&*<1*<**&&@&%&&&-&&&&,uttutytytq0",
"uyuisut5559ttq9twwyp3-<&$$$$$.oo$$$$%*&&;-&%%o%&&+@O,twt9iywq49y",
"9998599qtw99555:@#==<%-<*&&$&&%*@%&&&&&*&;&;&;@2q,8999ww998899qq",
"88w99q55555557w>=&&;;&**& $$%**<*&&**-*&;;&%%;o3e88qww9ww9889888"
};
