/* XPM */
static char *f3bee58bc052461dcc4643ac32e2a666[] = {
/* columns rows colors chars-per-pixel */
"64 64 256 2 ",
"   c #010C00",
".  c #0D0E08",
"X  c #091607",
"o  c #121C0D",
"O  c #151A12",
"+  c #0E260B",
"@  c #12280E",
"#  c #142312",
"$  c #192916",
"%  c #1C321C",
"&  c #1A3615",
"*  c #152F0F",
"=  c #212C1C",
"-  c #252F17",
";  c #23381D",
":  c #1B2F21",
">  c #283A26",
",  c #262F25",
"<  c #221E1D",
"1  c #274C15",
"2  c #2A4627",
"3  c #34462A",
"4  c #2E5222",
"5  c #375929",
"6  c #2E4432",
"7  c #334C34",
"8  c #364837",
"9  c #3C5B35",
"0  c #3C543C",
"q  c #385537",
"w  c #3F6137",
"e  c #1E430F",
"r  c #415B3B",
"t  c #404F3C",
"y  c #487B2B",
"u  c #466639",
"i  c #487536",
"p  c #3C5443",
"a  c #3D5E41",
"s  c #3D6042",
"d  c #435B44",
"f  c #455C4B",
"g  c #485847",
"h  c #465D51",
"j  c #514F40",
"k  c #466444",
"l  c #4B644B",
"z  c #4A6A4C",
"x  c #496647",
"c  c #516B4D",
"v  c #54654C",
"b  c #4D7148",
"n  c #55774A",
"m  c #4C6453",
"M  c #4E6A52",
"N  c #536C54",
"B  c #556D5A",
"V  c #556856",
"C  c #4E7151",
"Z  c #547353",
"A  c #5B735B",
"S  c #5C7B5B",
"D  c #577656",
"F  c #617A5D",
"G  c #626658",
"H  c #5C7561",
"J  c #5D7A63",
"K  c #577562",
"L  c #5D6F61",
"P  c #637D64",
"I  c #657A69",
"U  c #677E73",
"Y  c #588D39",
"T  c #5C8645",
"R  c #5C8455",
"E  c #5F9243",
"W  c #669847",
"Q  c #66875D",
"!  c #6A9556",
"~  c #5E8163",
"^  c #648364",
"/  c #698465",
"(  c #6A8C65",
")  c #65836A",
"_  c #6B856C",
"`  c #66896B",
"'  c #6C8B6B",
"]  c #668B64",
"[  c #6E926A",
"{  c #759769",
"}  c #6C8572",
"|  c #6D8C73",
" . c #698775",
".. c #738C74",
"X. c #758D7A",
"o. c #6D9174",
"O. c #739374",
"+. c #75947C",
"@. c #7A957C",
"#. c #7B9B7C",
"$. c #799977",
"%. c #728E6A",
"&. c #7DA376",
"*. c #7BA665",
"=. c #819A7D",
"-. c #85A77B",
";. c #8AB379",
":. c #7B9383",
">. c #7C9C83",
",. c #7D9D89",
"<. c #779782",
"1. c #778F84",
"2. c #7DA284",
"3. c #7FA28B",
"4. c #819D84",
"5. c #839C8A",
"6. c #869A87",
"7. c #889E96",
"8. c #84A384",
"9. c #84A38B",
"0. c #8AA58D",
"q. c #86AA8B",
"w. c #8BAB8B",
"e. c #89A885",
"r. c #92AC8E",
"t. c #95AB87",
"y. c #8CB18B",
"u. c #96B58A",
"i. c #8CA593",
"p. c #8CAB94",
"a. c #8DAC9B",
"s. c #87A593",
"d. c #93AE94",
"f. c #94AA9A",
"g. c #8DB198",
"h. c #94B495",
"j. c #94B29B",
"k. c #9AB59C",
"l. c #9BBB9C",
"z. c #98B997",
"x. c #A1BC9A",
"c. c #A1BD8D",
"v. c #96ACA3",
"b. c #95B3A3",
"n. c #9BB5A4",
"m. c #9CBBA4",
"M. c #9BB6A9",
"N. c #9DBBAB",
"B. c #96BAA3",
"V. c #99B6AB",
"C. c #A2BCA5",
"Z. c #A3BDAC",
"A. c #A4BAA9",
"S. c #A5BDB2",
"D. c #B5BEAF",
"F. c #9CC19C",
"G. c #9DC799",
"H. c #9FC48C",
"J. c #A2C39C",
"K. c #A8C49C",
"L. c #A2C08C",
"P. c #9EC1A8",
"I. c #A4C3A4",
"U. c #A4C3AC",
"Y. c #AAC5AD",
"T. c #ABCAAB",
"R. c #A9C8A6",
"E. c #B1CDAD",
"W. c #B3D4AB",
"Q. c #A5C3B3",
"!. c #AAC5B4",
"~. c #ACCAB4",
"^. c #ABC5BA",
"/. c #ACCBBB",
"(. c #A6C7B6",
"). c #B3CDB5",
"_. c #B2CCBB",
"`. c #BBCEBD",
"'. c #B3C5B7",
"]. c #AFD1B8",
"[. c #B4D3B4",
"{. c #BDD3B4",
"}. c #B5D3BC",
"|. c #BBD4BC",
" X c #BCDABB",
".X c #B9DAB6",
"XX c #AED2AE",
"oX c #BCE2A5",
"OX c #C2D9BD",
"+X c #C5E5BB",
"@X c #AECAC1",
"#X c #B4CDC2",
"$X c #BACEC3",
"%X c #B0C5C0",
"&X c #B4D2C3",
"*X c #BBD4C4",
"=X c #BDDAC4",
"-X c #BCD5CA",
";X c #BDDACB",
":X c #B6D5C7",
">X c #BDDBD2",
",X c #BFE0C8",
"<X c #C3DCC4",
"1X c #C1D6CC",
"2X c #C3DCCC",
"3X c #CADDCD",
"4X c #C6D8C5",
"5X c #C5DDD2",
"6X c #CADED3",
"7X c #C9DBD6",
"8X c #D1DECD",
"9X c #C5E2C5",
"0X c #CAE4C5",
"qX c #C4E1CB",
"wX c #CBE3CC",
"eX c #CCEBCC",
"rX c #C8E9C5",
"tX c #D2EBCC",
"yX c #D2E6CB",
"uX c #D9F7CD",
"iX c #C5E1D3",
"pX c #CCE3D4",
"aX c #CDEAD4",
"sX c #CDE4DA",
"dX c #CDEADA",
"fX c #C7E6D8",
"gX c #D2E4D5",
"hX c #D3EBD5",
"jX c #D3E6DB",
"kX c #D4EBDC",
"lX c #D9ECDD",
"zX c #DAE7DA",
"xX c #DBF3DC",
"cX c #D9F5D7",
"vX c #CEF0CD",
"bX c #E1F8DC",
"nX c #D5EBE2",
"mX c #DBEDE3",
"MX c #DCEDEA",
"NX c #D5E7E2",
"BX c #DDF2E4",
"VX c #DDF3E9",
"CX c #DAF5E4",
"ZX c #CFE5E0",
"AX c #E1EEE4",
"SX c #E2EEE9",
"DX c #E2F3E5",
"FX c #E2FAE4",
"GX c #E4F4EB",
"HX c #E9F6ED",
"JX c #E5FAEC",
"KX c #EAFBED",
"LX c #E9FDE6",
"PX c #ECFBF2",
"IX c #E7F7F1",
"UX c #F1FDF3",
/* pixels */
"N.fX&X].kXCXnXiXaX X[ *.cXKXBXVX3XaXhXkXaX=XtXrXW.{ c ' | B ,.5.0...<.J K ) j.b.p.j.!.M.m O g i.8XbXAXKXGXPXMXlXbX9X=Xb.N.9.y.G.",
"N.@X:XU.qXpXdXpXaX+X{ u S >.lXBXlXT.R.uXFX9X' x 4 4 ; f } +.B.k.i.4.P +.) X.p...i.Y.S.!.0.:   X.UXDXDXHXBXVXBXVX[.` =XCXCX:XB.P.",
"].&X;Xg.=X;XkXCXrX] w C % I mXBXFX-.y ! H.uX.Xn D Q 7 h :.Q.*X`.!.`.N.:XaXFXJXhXrX).A.n.i.O.F cXHXFXDXJXDXBXaXaXq +.dXaXxXCXcXaX",
"dXdXaXg.j.CXFXwX` 5 [ D +.VXIXGXyX{ 5 e e b G.G.( F ).CXJXLXFXbXxXFXFXFXbXhXW.K.K.+XuXuX{.-.O.0XFXDXDXAXmXlX=X#.q ].=XqXCX<Xm.FX",
"fXqX,XF.Z 2. X2.D [ q.B.PXSXGXHXqX8.Z & & ; * -.Q q X.Y.4XtXtXuXbXuXuX+XH.*.E y y W ;.oXuXz.n R.bXcXaXlXlX<X=X_ z ~.,XvXbX#.2 C.",
"dXiX=X].&.* [ #.2.q.m.PX#Xn.MXBXj.q M l B ; * / ^ h.4Xk.t.W.u.-.;.;.*.! W W Y y y Y Y y K.%.n u.vXtXFXLXbXbXbXyX=XvXrXP.R.#.& ; ",
"fX:X.Xh.7 + 2 ' &.j.DXJX1X5.*XjX} X.1.} 5.i.'.4X XvXtXt.P <X0X{.u.{ ! ! E E y E &.! T T n S ( $.x.F.x.E.+XuXuXuX9Xu.R ] Y.'.0 $ ",
"aXvXG.{ ( l & 4.aXJXHXGXUXgXjXhXM.m.M.M.nXUXbXOXwXOX6.r F 4XgXwX+XH.E E E y y &.W.F.&.t.e.Q O.8.( Q 5 1 5 9 r 5 & * 5 #.aXqXI q ",
"=X.X! T -.k.3XKXGXlXDXHXDXDXlX4X'.).3XDXLXrX-.u D / A.2X!.C.`.`.OXx.5 n ! ! R G.W.R.F.XXvXq.$.O.o.` b R T b w 1 e 2 ] 2.XXkX9.g.",
"cXF.1 e 4.DXDXAXGXGXBXAXmXBXpX3XhXxXDXLXW.$.;.;.u x.bXhXlX2X).`.0XO.u n ! &.G.W.R.R.R.l.q.O.S ) 2.~ &.3.] ] &.C z ` g.].=XCX~.P.",
"vXD @ 4.FXBXDXBXVXlXgXAXAXAXDXDXDXLXbXe.4 n ;.+XW.x.9XwX~.).=Xh.v v n n ^ #.J. XXX Xy.h.Z c S ) x w F.F.y.XX2.q.2.<.].,XCXmXCXpX",
"s & } HXDXlXDXlXhXjXzXJXAXDXDXbXLXtX{ 4 i R { W.K.z.hXeXaX.XI.^ r Z x F w.m.h.9XrX XR.$.q * l Z D ` y.].R.g.XXP.g.B.fXiXnXdXVXBX",
"6 #.aXDXDXxXgXlXzXbXKXAXDXLXAXLXOXb 5 T ;.;.-.9 9 x.hXyXuXeXW.z.z.k.,.^.NXsXB.I.9XT.J.] 2 q 8.#.o.` ].vX].p.#.y.:Xb.N.iXMXsXlX2X",
"(.iXFXxXxXxXlXcXAXAXAXHXbXDXLXK.i w b R { -.u   * OXtXhXOX$.b n ].pXMXIXMXZXZ.>.rX+XK.( / 0.r.l.] o.XX&X].}.2.P.JX(.N./.nX*Xm.w.",
"aXhX<X' ' h.wXhXFXxXHXLXLX0Xt.=.h.J.q.{ Q 4   $ A E.{.4.z Z _ !.dXVXNXZXZXiXN.C XX+XE.=.t.r.-.9.q.U.&XkXnXaX(.B.dX@XfX@XaXfX^ 2 ",
"~.|.h.' ^ x O.E.gXFXLXbXx.Z { OX9XbXvX| ; * V f.C.p.3   ; d.iXMXmXNXNX>XS.@X5.2 w.W.[.0XE.K.I.[.9XnXJXVXGXJXqXP.dX>XiX,X}.B.[ ( ",
"S.:XP.#.S x J  .>.y.h.%.' / k.<XzXFXbX%.$ F k.Y.*XwX_ X $ '.GXNXMXMX-XiXN.o.S & n +XuXhXE.wXcXDXCXjXBXSXHXPXGXQ.P.p.g.g.` k G.+X",
"fX,XQ.3.s C j.,.>.#.+.O.I.9.Y.4XzXUXgX%.8.4.0.S.<XlX*X> 7.IXSXMXNXnXZX(.P.~ 2 * 5 u.OX{.9X3XAXgXGXPXSXHXPXJXJX2Xg.>.D / ' Z n &.",
";XQ.b.s.3.j.N.;X;XwXkXU.w.[.T.[.DXKXI.8.h.$.9.).2X2X=XS.MXMXMXMXMX>XiX:Xg.` e * j -.t.OXyX3XzXAXjXGXjXmXHXHXGX=X2.~ ~ w.w.O.O.[ ",
"/.(.N.s.a.N.5XCXlXqX;XwXr.I.F.I.lXDXr.$.8./ @.Y.)._.(.pXGXGXMX7X7XiX@X/.B.~ q 2 u.{.8XOXOX4X4XHXMXUXUXSXVXIXlX~.` s 8.h.e.4.d.k.",
"@XS.b./.Q.(.GXBXBXmXiX=X+X-.-.t.FXyX{ F ^ S >.0.j.Y.'.BXMXMXjX7XMXmXsXiX=X3.q  .jX6X`.D.D.D.D.UXHXDXAXHXHXHXJXN.a z j. X}.i.`.<X",
"(.N./.].b.:XnXmXCXkXBXhXE.-.i %.K.x.%.b 9 l $.9.i.U.5XBXMXGXGXnX$X5XiX5X(.<.o.P.5X6X8XAX8XD.k.t.|.LXHXAXzXAXaX>.@.d.m.).Y.C.3X3X",
"Q.(.@X/.Q.;XCXMXVXBXtXt.r 5 5 ! ( Q x ; @ P x.).C.C.kXVXMXMXnXnXNXVXnX>X&X&X7XsXNX7XjX7XGXpXR.r ( uXUXLXkXdXp.T.VXKXlX4XOX4XhXlX",
"@X@X@X/./.&XBXdXlXlXhXF - 9 { -.{ { b & > P >.k.l.C.5XMXjXnXMXMXIX&X#X5XfX5XMXMXNXIXMXNX6X*Xu.1 n L.{.bXgX`.2.aXJXJXPXlX3XgX8XbX",
"@X:X@X@X_.~.-XgXCXJXwXk u -.-.t.u.=.Q Q 7 #.C.T.I.i.*XgXpXmX7XsX;X#X:X2XkXdXnXIXNXIXIXMXNX!.{ 5 n c.K.vX9X5.3.xXlXJXPXPX8XyXyX8X",
">X>X@X@X&XB S.JXJX*X/ x { c.x.K.c.t.x.-.%...T.{. XY.`.dX4X*XZX7X5XCXiX#XsXPXNXNXIXSXMX7XsXj.i 4 ! c.K.FX[.a 8.xXgXHXPXHXlX3XbXzX",
">X@X(.:X..+ 8 X.@.z z ^ c.{.{.OXx.K.{.z.E.-.e.x.C.).B.qX-XsX`.1XnXqXpXMXmXIXSXSXSXPXMXjXgX$.5 u *.u.9XvX#.2 T.cXGXHXSXAXDX4XE.yX",
">X:X:Xa.% > % 0 K +.| ^ K.+XyXyXOXOXT.{.<Xx.4.<X9X).j.~.=X;X'.dXsX-XjXGXSXIXHXSXSXGXmXVXm.q w { =.h. X8.9 ' Y.wXjXmXPXHXDXpX3XyX",
"1.(.j.7 ; 0 o.(.].m.g.] -.vXyXyXyXyX{.0X0XE.C.z.=XwXU.j.~.].;XsX5XsXjXmXGXSXIXMXGXjXsXU.x ^ O.h.I.O.x x o.XXaXmXmXNXzXPXDXaXyXxX",
"h  .6 7 l ,./.Q.(.B.[ C S $.OXbXyX0X0XOX4X|.wXk.Y.).[.j.C.&X2X5X;XNXpXdXIXSXNXIXpX4XC.a b &.z.U.aXT.R G.R.9X_.pXGXHXGXSXGXjXyXcX",
"K h V  .s.2XqX=XT.U.#.C C ^ 8.C.yXyXhXyX0X0XzX`.}.=X[.C._ (.-X-X*XiXiXsXMXVXmX8X`.#.q u [ q. X*X=X=X~.w.hXJXGXdXjXVXGXHXmXBX1XcX",
"8 p ) N.5XfX>X}.U.P.P.].w.q A...F -.t.OXhXyX0XyX).`.<XA * U.&X=X&X].Q.*X=XA.6.V 7 2 ; c -.I.*XkXkX&XFXb.!.6XVXGXmXNXAXGXHXDX4XlX",
"h L s.qXpX;X/.=XiXVX2XhXBX4.S.~.o.y.z.y.E.cXcXxXyXT...  q m.U.~.&XB.J q 8 > # . . $ @ 5 k.|.pXJXgXjXmX~.#XsX).GXPXmXGXHXzXlX}.w.",
"h  .qXdX>X:XkXkXzXzXJXjXDXJXlX~.o.2.g.R.y.r.r.6.} ..d % 3 Z P +.2.~ x > X X X X O # - t I.wX6XgXmX2XzXkXM.mXnX*XjXjXBXDXmXlX!.q ",
"m a.nX&X;XnXnXGXGXmXmXHXJXzXxXT.x S y.P.l.{ +   ; | 3.9.% & = @ 7 [ 9.r.N 3 6 $ # o o t x.xXBXmXHXjXPXsX$X6XGXmXlXzXlXjXlXhXd.C ",
"A S.2X:XkXlXdXnXJXDXHXJXFXlXcXq.2 Z j.g.l.r.k + ; J 9.P.f   . O 8.Y.Y.I.l.=.@.L > # X = =.yXJXGXSXmXHX2XMX3XUXNXjXMXjXdXiXqX_ l ",
"H U.}.5XkXkXnXnXdXkXkXaX,XI.[ ; & <.].U.j.q.[ w 2 C <.b.4.%   > '.hXsX4X`.d...A r > - # z [.BXzXSXmXGXsXPX$X1XGX6XlXpXdXxXY.' / ",
"J a.!.=XaX>X,X&X}.&Xp.o.K C R z z 3.,X>X/.B.g.R o.~ | <.n.H   g `.lXBX6XpXwX).r.x 2 3 3 u q.3XJXSXzXzXmXDX6XgXjXjXsXgXaXQ.2./ A ",
"X.0.j.p.B.j.s.~ ` o.` o.y.2.R.` 2.U.:XnXiX;XXX#.g.3.<.3.}.B   j gXDXAXHXDXzXwXl.$.n q w / ` I.dXjXHXmXDXGX1XsX=X5X2X).m.@.=.O.l ",
"} 5.+.3.(.3.o.2.g.B.&X9X(.:XXX2.3.,XfXnXJXkX].q.p.Q.s.N.*Xm   6 4XGXHXHXAXAXOX X.X$.[ z B.g.>.}.mXzXmXmXHXgXjXgX*X=XU.9.d.8.O.A ",
"X.6.1.A.Q.<.M.iXpXVXnX2X-XCX~.m.:X>XmX7XnX;XP.&.a.N.V.a.].a   8 $XmXHXHXSX8X6XhXE.J.J.z o.P.U.g.}.aXCXsXjXdX2XpX=X~.j.T.T.e.l c ",
"X.6.v.%Xa.a.;X;XVXnXdX2XdXiX>XU.dXdX$XpXiX=XB.3.Q./.(.a.a.) = g `.BXHXHXHX8X8XjX}.T.I.' 2.B.g.].j.j.*XcXlXqX~.qX9Xm.T.|.=Xh.v x ",
"@.6.v.$XQ.N.&X*X7XnXCX-XGXdXdXN.dXVXdXGXHXDX<X9.S.-X(.B.p.0.*XGX4X'.AXHXSXHXUXAX*XhXR.I.+.}.C.M.&Xj.+.l.9X}.T.=X| 5.<XOX9X).A l ",
"X.1.V.%XN.,./.&X2XGXjX5X7X5X;X>XdXsXGXHXMXmXaXs.b./.=X3.+.m 6 I '.n.8XHXAXUXSXzXzXDX~.=Xj.X.*X#XC.~.~.#.8.z.l.2.@ d <X<X<XOX_ r ",
"X.1.b.(.b.,.B./.&XBXMXzXMXZX5XnXjX3XGXHXHXBX4XN.9.#.#.~  .~.i.3 % A.DXmXzXzXSXUXzXVX`.cX=X@.=XGXpX*XVXwX8.O.q.o.% o r.wXwXqX@.d ",
"B  .,.N.b.p.g.(.:XiXBXHXBXnX2XiX5X5XGXHXHXjX*X=XXX2.y.o.2.4XmXjX_ 6.dXmXSXSXPXHXzXzX*XFXwX9.S.pXBX-X-XmX<Xj.T.#.7 @ 0 OXyXyXr.A ",
"B H  .(.B.P.B.o.N.&X5XnXkX_.-XsX(.4XmXAXmXpXGXqXP.,XP.B.(.~.D.mXKXC.'.lXGXAXAXHXAXgX4XmXhX9.~._.6XGX3XmXJXwX<X` i.i.7 @.wX0Xd...",
"h : K Q.B.(.<.K K +.C.*XwXsX*X5X_.].GXGX6XpX-XQ.dX;X:XU.b.pXsXAXBXpXk.4XjXBXHXAXPXDX3XzXBX} d.xX*XsXmX$XBXlX}.#.~.9XZ.B k.4Xx.8.",
"6 # B g.].s.q h s.s.H s.~.}.=XQ.Q.Y.3XjX1X4X5X5XdX!.5Xb.a.>XVXGXMX6XP k.wX5X8XAXKXAXzXHXgXhX~.'.dX_.4XpX3XBXI.>.&X=X2X^...C.E.w.",
"6 d o.<.` q : K iX,.J K o.q.T.B.X.`.jXiXdXGX1XnX$X6X>XQ.V.iXMXMXpXC.7 P I.4XpX3XzXKXgXFXlXlX3Xn.hXlX5XmXjXaXh.w.`.S._.$Xv.A k.R.",
"6 m D q s 7 6 v.^.s.s.K <.a.<.<.K Y.dXGXHXsX1XMX7XjXfX(.Q.iXGXMX5X4.d 7 P ).wXqX8XKXhXzXhXDXKXY.A.aXaX*XdXaX2.h.C.f.Z.5.i.} 7 X.",
"p K K z B h h %X;X^.<.V.<.a.g.+.) Q.CXMXjX1XGXnX5X6XdXQ.(.ZXNXZXC.M l r 7 P 0.4X3X3XAXzXgXxXDXpXZ.4XwXwXhX|.+.j.U._.A.M.M.A.f : ",
"f h f l f K I NX7X@Xv.5X:X,.a.3.<.,./.>X1XNXNXsX1XsX5X:XS.;XsXsXs.6 d c l d A #. XyXlXlXDXhXDXlX4X}.3XY.<XI...j.!.#X-X7X6XsX6.: ",
"f 6 p M h M 1.jX-XS.sXZXiX/.,.<. .q  .N.-XMX1XMXmXnX5X;XV.&XnX`.} k l A I l D c @.U.wXgXzXhXFXzXBX).hX9X9X8.| 5.A.$X7XsXNXZX^.h ",
"2 3 t M x s a.ZX7X1XmXdX>X(.B.` f K +.s.-XsX7XGXsXNX>X&XM.:X-Xa.} B P A ^ _ A c q D r.=XwXBXgXaX3X4X].qXR.o.+.N.Q.^.%XiXZXZX7X1.",
"3 3 3 c ] C _.sX#XMX5XsXiXQ.(.<.g.k.} p 5.-XsXNXsX5X:X2XN.Q.(.<.2.H I @.} 4.I M k ^ | #.k.).hXhXhXcX|.[.g.z.j.a.b.S.S.%X1X>X>X7.",
"- - r 7 x M '.v.5XZXjXGXVXpXQ.Q.4.A 6 X @ :.7XsXnXfXiX(.V.N.9.X.4._ K 9.5.@...l P >.9.5.>.>.y.m.R..XXXF.h.].2X(.N.V.%X/.-X$X-Xv.",
"3 ; D 2 X > v.4X6XMXgXS.S.f. .B p f 8 X # m I f.A.#X@X(.B.a.+.>.9.4.:.5.k.j.4.N 9.g.9.d.g.9.q.l.q.q.z.y.2.j.U.*X1X^.V.^.-X#X%X3.",
"G 3 u 2   , f.7.....g o O , B h p h f o l _ g v 8 8 h 1.2.~ s.d.<.0.f.i.w.i.@.I U.N.N.Z.2.p.B.~.g.g.U.T.q.9.!.M.-X5X^.Q.#X:X%X1.",
"o - Q r = , , X o > = = # . p } h l N x _ =.F g : X 6 M D +.C.j.9.m.p.k.j.b.) M !./._.Z.Q.~.].)./.<.U.wX].>./.;XN.S.#X(.:X@XV.U ",
". 3 =.5 ; = < . < > # ; p : O g A L A ..=.%.B 3 . O p m m F 6.C.m.b.9.j.b.f.m > :.~.b.Q.}./.>X%X:Xa.S.9X~.C.s.5X>XS.$X>X%X%X7.m ",
"O o t v F ; $ = . $ X o 6 0 # O m A @.k.=.F V > # > g A I I A ..k.k.f.i.C.4.d 8 d j.M.m.#X/.-X5X^.a.!.2XU.&Xa.!.7X>XS.-X@XS.6.h ",
". O . 3 w.e.- - ; . O O : 0 a X # L x.C.=.G v 6 0 d N J ' ..@._ H @.i.5.6.V B v f B i.^.#X/.%X>XN.a.&X4X`.:X'.v.%X-X7X$X7X$XI j ",
"< < < X R -.Q 7 - - = = X ; 0 6 . U !.C.-.F A d A _ ) P ' @._ ..P 6 6 I p o 8 V V N f X./.%X@X@XM.N.*X=X2X2XfXS.-X#X7X%X1XS.G j "
};
