/* XPM */
static char *f613ae317ef847669cdbe7848e2efc9d[] = {
/* columns rows colors chars-per-pixel */
"64 64 73 1 ",
"  c #656D1E",
". c #686F1F",
"X c #6B731E",
"o c #737C1F",
"O c #646725",
"+ c #666C23",
"@ c #6A6E24",
"# c #646E29",
"$ c #6C6D2B",
"% c #667124",
"& c #6D7325",
"* c #6F7924",
"= c #6E742A",
"- c #6E7A2B",
"; c #717525",
": c #747B25",
"> c #797E26",
", c #73762B",
"< c #7A772B",
"1 c #757A2B",
"2 c #7A7D2C",
"3 c #726E31",
"4 c #6E7531",
"5 c #757631",
"6 c #7A7731",
"7 c #767B31",
"8 c #7B7D32",
"9 c #7D7E39",
"0 c #807F2E",
"q c #817E33",
"w c #758127",
"e c #7C8226",
"r c #76812B",
"t c #7D822C",
"y c #7E892C",
"u c #7E8232",
"i c #7F8932",
"p c #7E8139",
"a c #818527",
"s c #81852D",
"d c #848A2D",
"f c #898B2E",
"g c #8E932D",
"h c #828533",
"j c #888634",
"k c #858A33",
"l c #8A8C34",
"z c #838539",
"x c #89863B",
"c c #86893A",
"v c #8B8C3A",
"b c #918E34",
"n c #918E3D",
"m c #869034",
"M c #8C9134",
"N c #8D923B",
"B c #939336",
"V c #999637",
"C c #959837",
"Z c #93933B",
"A c #99953B",
"S c #95993D",
"D c #9A9A3D",
"F c #878B41",
"G c #8C8D41",
"H c #908D43",
"J c #8D9142",
"K c #939342",
"L c #9A9543",
"P c #969A41",
"I c #9B9A43",
"U c #9A984A",
"Y c #A6A54B",
/* pixels */
"j;2AVZptjp,hh1huqckaj,hcch2hc2p2thzm,:ye>7j,-#,>2:14=1i1hmkth:9z",
"0&sIBMskh:7kS;i7st11x7=j9sktjuu1;2cf2ae>1,8:&4tv,$,&&us&tkftc27v",
"7O2kskmhk:nkMh8p9hkkcs21,2:2h1p1tu:ostrktt12&&1d2,@&::l0i2ttj1,:",
"qhfkutij287hvJhk812mkKs,2t:11h898:Otai1eaa2=,=%:>=@uv:sd122891-X",
"2utM821h2;hnKjjvkcu1u88h*>tuthzJkk2e>1r&:t:&O$1it:,2@2e7957:t111",
";:ut21h=t mKcKnLv:1xupjiuktk81::ssktt:&&tkut71hfv1t2,2e198its1j1",
"8&-rthu87;hchGhj:tnmt1jtuckkuut:2tty2,,&%&2slf9hv82>hvvI,1>tzhvh",
"spu:t1th<,8GhtkztkZhz8=-1,mv8:1*1t>t2&#-,utZvK6zj25;u9kccs>tMMkc",
"9z71k8;2jkMvKksvZDZPct:&thJIhpc18:rhu1=@>tcphcKAt:e&t:dkzsegkknK",
"vNJk28qqjsP8hhjZNMDgds7:svlMvJJvjit2;@=$2fmnvvnSn2t&=tvKkj==uklD",
"Jcpl2@hz1hSm2jbttuzvNKhtuwrshh7zittt;;=&8kDjusjA24h2,ktMmlh$vvuv",
"kpp1s18u8zjkNDjki:9zcNc:1yN8zvh2&set&,zh>scvt2t2u>8t1ctkph2;hjjn",
"t8uzh2j:tpmNSUPVsshj7u1:hkBuGqt,,s2257hktZnCB>ttunq@i,1jkhtrhp7-",
":::1u9hqhVCItNnmkkf<-&1wkvmhnj>s&2jj1-yyfjfMnbkNKHqq2,dft17t&,,*",
"t:ipz881pPkkkhttmkiu%&,1ZBhhIj,h,,hicsMut2bCfbfhtk99swtu;;,-71:u",
"ktthhu258mkstmis2kt1*u2&skjxns7ht>Kt:7p::kjjp,kuFp:21>:X:,pctkiM",
"Dj>t2hihhtk2ta8:212tt:2,wsxmDnNkthZse2BM:t8Nn2s11zkkszshh8htkiaM",
"f7lv1Jtphhu2hut:212t:i*:tkISSDSNtsmm2iVbyhhlZjsft2skhpnz1ciyktia",
"<iNzzv22jhhvc7c8ttcnht2avcNNhZldfknKns2j=,bDkb>2218;7vz81p8:,,:&",
"dajLAn;h&<jjh79u2dvnSNtsrshkuh2kkhdvb7-h,1kjh,tt858tlx11zch9,,=:",
"hAbkHZ;21jj71hkp;jLfjkh2:ttuffhtshemd1tdkthcvu1>z,2nLqhh28qx@=1t",
"&s2uq1,6nKkuh8tpk9&181&u2thhtd;22zhjMhhajj,ikkpsh:17<2>t278,=@>8",
"==:2h:10s8k8q8>8dh;,54etjthhdt;;pp2iaskkjhu>kkMkvZ:-27227h2>;+&8",
"tt&:k<;j><7mzlj81p1@5:shktttkf2s117ru-ujwtrht*ikruut2222hj21k2$8",
"eh2tp;,k-tmkjkxt,1-:hcvu9,u2;tff>tf0kttt:t:8k:-%ut2r*2tt&782lvj2",
"kl1,=l::thVvjKK9pu;tvmk555;;>dk>dBlaeskagkutDlty:>tcu2ti2s1:1;xx",
"stvt&:e:khbVkNZvJJ;2kMtup,$,:kMdee:h27mZvsknCkidZd:tjmh22hktk:1b",
"fdxufBt1MZjjptvkmt;pt8hl2:r&&w:teryS18tKckkCkt:aff::vccit:BitMna",
"lhhxfBa;sjlt8mZffv1t2u5p5,& %&:t;kkkkls87sttdjjPksfJMkc-t2artkMa",
"ekNkzytkcp8,te1jsh2177728:;-:pt;2&tsjvkusi2yaSflhckCkzt:8*ttilks",
"jBhvN2;lkl:$j8;;1su989:uutt;:ttt-:8thzq9>7ut8,k>KBPDBCtuzkw*&2:u",
":tMjvzvlhhguhhu;&v5888hjrFh1t;1s:h518nv21tuh1&pmMShNnMkjk2t12;&4",
"u*jnznn2*ht&:;t:22=ui2hhijv9vjtu:s9tmMvMu812:::ksvtkstNkhttt:,8k",
"nhOdvcIh:h2u;.t;tw$,tz2hhkNLKvz5hCgskkkkv71t2s2ttkkkttsj2q2;t1;u",
"di,&sdvjzuvsmh8tt1,,222h8sfth7h2ikmVfjjKv87=::>:httd2t:tht;$sdda",
"2:11v,:lNh2ihjlvs1,;1582zftx0>88uv1vnjkLncJctttth7u>2&tt1:1&;sBB",
"7hth2stckkhpMkjjt&,&=,t8hk2icks2hm2sh:ammNcuNuts,12sktpt7&2t8221",
"<s<ktsldk7h87tqG11;;5u>jkpzn82z7h:22shmfvh9u:u1si722:r:&7:;27>;>",
"t1:2kccvv&j557xNss@&;;18@ucz88hthzp>t;tsckKmh:18;,X;=-:1,2t2rtoe",
">t:2hkilBhp-11thz5,7;&12kjh,8zz88,qj2111KKnfi1:1,17@8zhtkpNy:>ts",
"jdfsfMnDCNc1uh2:89:>,57qLvkqh29hqh76qzckhcp2tt21h8,5ths11htttsd:",
";<sttcZnIZkkkhs1;z<;&;$,jqjsh;2szuz78hjvpavi7,;:u,@=-Mt,<shhnsst",
"t;18u:ihvhkfcutu1x9;:i7qj>tt;2ts11287q,Kndtu11111v1&1ktt222h8t<;",
"vh2@&;tksttkth,<v2;etjj<2t>2d25tf,7Hj&ibakf28h>tvIk&%=77&,0h7taz",
"jz2&11:kk22hh81,uu:1vh815;;t><1:<hj0ktHjbbm1<stknnm4=t1,;t7hs;<h",
"57,=:&1et,1:1tt291:52h8:$;jt7ssk$5izklbkj>kh&us21j:&&t>;&;;8;55u",
"h%11X &p:fAvtsa1st118:up2ijhjhz2s1uUNIv1ueo>>abkNq4&2Mq1,&52s1@-",
"s1r;&,1p7glbnakr:21:pppnm8,2tt;,uvkMSksjtde:<>:>t,=h:2s:&,;6h0;7",
"Zh6s;:tu2lAdj>:1t+@>t,kkX&@1s8vh7xskmytaeo>:>fu21@;2,t81tt,12ks>",
"m:>x><2uMnjq8tszz92h8&1712st&jvdu7:fttkt&2;::de:>is.:sd&Xew&tblh",
"adtjjjvhjvSn2:<cjhvF8:@;2z2;71;1:7-t:::&:<@.:khtjzt,tpest<&&d>:e",
"tkblnLnf119>251157:2@p,%7q<1t:ut1:-:jk2*%&k:dt:t68z=+>:7k:18fj22",
"t>tstkz52=29t1slht,1r<i=11<s:t:1tuttj00&&&jsd0nj O<5,<2t:12chi,u",
"&,khaam2;ssueudslkttw2Bl2:,s1t:1rr;,10:&@;,7>j27;;;6q,2t2lNj85,,",
"1:kMmee8,2&$&p1tvsiftkVnzfssesjusf>>d1&@;1s<;>>,2:&@@8112lmd795$",
"&&2tf1,j<111:mp=tMhNNhhM7aBZ>:hGlbhkla&@tuhh;0022t@zq>nhfptssj1,",
"9hs>th&eNsz=>Zukr*itMmzu>ckyy26GKIYAbts&:Mvk75,5ttsIv1js28t,h,1,",
"sthdo>tssskt>fkt:t<l:p22:Zn2tu8h8NSUctvvjlmat85;t>kfk91t>,58988h",
">M2>>o:2s>hklmri,>>tv:12pcv,-*u;2&;HkcKq78181tt78:r:dk,1vp7&,t;:",
"t;;;&11ub55lKHfm8Gvhu>etmJh,112tt>:2Ns888;$3=tt1=%&1te>lj2e;w&*s",
"22&tttcfbsk8c9ct9nnj12:>ZlktpM22ttafsfh9p,t8,kp:11ht-:khhhttt&1u",
";5*11:tuulll1$8tbLz1>tk1jM>jufh>ts1ksl2;h220u,r1;>mt1:kk18:::r-&",
"u1xv2z;ihkz2$51t2hhdd>ikklq1shplta2tatc&tfvG,wu1t>t12722t1=,8kp7",
"2hpKjut=10Hqh,=p6jHAk&&Nkj8huksf22:h1*1t>bdz17:7:22i81122Fciu11u"
};
