/* XPM */
static char *a4c76a694b904d79946b8f3f1333b610[] = {
/* columns rows colors chars-per-pixel */
"64 64 95 2 ",
"   c #B3895F",
".  c #B88D60",
"X  c #BB9063",
"o  c #BC9268",
"O  c #BA9872",
"+  c #C59766",
"@  c #C39769",
"#  c #C59B6E",
"$  c #CC9E6D",
"%  c #C59D70",
"&  c #CB9E72",
"*  c #C6A175",
"=  c #CCA374",
"-  c #C4A27B",
";  c #CCA579",
":  c #CDAA7C",
">  c #D2A474",
",  c #D0A67A",
"<  c #D2AA7D",
"1  c #D9AE7F",
"2  c #CEAD83",
"3  c #CFAF89",
"4  c #D3AD83",
"5  c #D8AE82",
"6  c #D1AF89",
"7  c #CFB18B",
"8  c #D4B185",
"9  c #DBB185",
"0  c #D5B38B",
"q  c #DAB58B",
"w  c #DCB98E",
"e  c #CBB59D",
"r  c #CEB99E",
"t  c #D5B692",
"y  c #D9B793",
"u  c #D6B995",
"i  c #DCBB93",
"p  c #D6BC99",
"a  c #DDBD9A",
"s  c #E0B68C",
"d  c #E4B98F",
"f  c #E2BD94",
"g  c #E8BE96",
"h  c #E2BE99",
"j  c #D4BFA7",
"k  c #DDBFA0",
"l  c #E0BFA0",
"z  c #DEC095",
"x  c #DDC19C",
"c  c #E1C097",
"v  c #E3C29C",
"b  c #E9C39C",
"n  c #DEC3A3",
"m  c #DDC6A9",
"M  c #DEC9AC",
"N  c #DDCCB3",
"B  c #DFD1B7",
"V  c #E3C5A3",
"C  c #E9C6A2",
"Z  c #E5C9A5",
"A  c #EACAA5",
"S  c #E2C7A9",
"D  c #E4CBAC",
"F  c #EBCDAB",
"G  c #F1CAA3",
"H  c #F0CEAA",
"J  c #EBD1AD",
"K  c #F1D2AE",
"L  c #E4CEB2",
"P  c #EACFB1",
"I  c #E6D1B5",
"U  c #ECD3B3",
"Y  c #EED8B6",
"T  c #E5D4BB",
"R  c #EAD5BB",
"E  c #E7D9BE",
"W  c #EDD9BC",
"Q  c #F1D4B3",
"!  c #F1D8B5",
"~  c #F1D6B9",
"^  c #F2DBBC",
"/  c #E5D7C0",
"(  c #E8D7C4",
")  c #E7D9C3",
"_  c #ECDBC3",
"`  c #EDDEC9",
"'  c #F1DDC3",
"]  c #F0DFCA",
"[  c #EFE0C2",
"{  c #EEE0CB",
"}  c #F3E1C4",
"|  c #F8E1C1",
" . c #F2E1CA",
".. c #EFE4D0",
"X. c #F1E3D0",
/* pixels */
"E / / / ) / / ( T ) ) ) ` ` / ) _ _ ] _ ( ] _ ` ` ] / ` ` ` R ) ) W ( ` ( X.] ( ) _ / / / _ W { { { E B E B N T / ) E E E E W E ",
"/ / / / ) / B _ T / ` ) ) ` / ` ( / _ ( _ ] ] ` ( ] ( ] ` X.` W ) E _ _ ( X.X.( ` _ T / ) R ` { ) { E T E N B E _ _ W T E T ) E ",
") / T / / ` / _ T ` ` ) ) ` / ) _ T / / / ] ] _ ( X.` {  .` ] _ _ R _ _ ( X.X.` ` _ E ) R / _ { [ _ ) T / T N T E [ E B T T W _ ",
") T B T ) _ / ` ) ` ..) ` ` ) ..` I _ R T ] ` ` { { ] X.] ] / ( _ R ( ] ` ` X.` ` ` R E R E ) ` [ { [ B T B N T _ _ E B T T E B ",
") T / ) E ) / _ ) ) ` ` ` ` ) ..] T W T I ] ] ` X.] ` ` ` X._ / ( R _ ) / ` ] ` ` _ T E W R _ _ ) ` _ T E N m E _ E E D B E E B ",
") B / / T / _ _ ) ` ) _ ....) .. ./ W R L ] ] _ ] ` ` X.X. .' / _ I _ R R ] ] ( _ ( T / / E W _ ` _ [ B B N j T _ W I N W R W E ",
") T ) / E / ) ] ) ) { / { ..{ { ] ^ _ R T ] ] ] ` _ ]  .` X.` _ ' ~ ) R R ] ] ( ` _ R R R I _ _ [ [ [ B W B j T W W I N W B E W ",
"` / ) / E / ( _ / ) / E { { ) { ] / / ) R ] ] ] ] ` ] ] `  ._ ' ' R ' W ( ] ] ` ( _ T L R T W _ _ _ ) B I I e I ) _ R m I N R I ",
"( / ( ( T / R ( T T _ / _ ` _ ] ' R ( T L ] ' ] ] ] ' ` `  .' _ _ T _ ( R ' X.` _ ` R R R T W _ } _ W L I N r I [ _ W N I M Y I ",
"_ / ( T L T L ( T T _ / ` _ ) ` ( R ' ~ I ] X.' ] _  ._ _ ] ( _ ' T _ ~ ( '  .' _ _ T R I Y W _ [ _ W N W N m I ) W W D I L I I ",
"/ R ( L T ( I T T E / I _ _ _ _ ( ~ R R I ( ] ]  ._  ._ _ ] _ ' R R ' R ( ' ' _ _ _ I I I I W W [ ) R D R S M I W W I m J N I I ",
"( T T T L ( I R T L _ T ] _ R _ ( T ~ R I ] ] '  ._  ._ W _ W ' ' R ( R _ ] ' ( _ _ I P Y R W ^ ^ W I m R L N R _ E W N I M I D ",
"W T I / T T T ' I L _ T ' _ T ' ( R R R I '  .'  .]  .} ] } W _ R R ] ~ ( ] ] ' ( ~ L L R I W W W Y L m R D M I W W R m I D D I ",
"R R / R T / T ( L I _ I _ W R _ ~ ( ' L L ] } ] ] '  .` ] ] W _ ( P ~ R ~ ]  .( W W D D I Q W ^ W Y U S W D L T W R R m Z m D N ",
"R R R T L ( R T L ( ' L / R R _ ~ I ~ R I ] ] ] ' W ] W _ _ ' ' R R ' R (  . .~ R R F D R I R ' Y I T D _ L L R ^ R Y n D M D D ",
"/ / ( T T ] T R L R ( I W R R W R U _ I L ' ' ' W ] } ] _ ] ' _ R P ' ~ P ] ] ~ R ~ D D ~ P ^ W W I Y I W L M T W E Y m D M I D ",
"( R T / I _ T / L I ( I _ ' I ' R R ' R P  .'  .] ] } ' ' ] _ ' R I W Q L ' ' R R ~ D S U I Y Y W W U L Y M I R E R P m P m P D ",
"/ R T B L I R T L R ~ ( _ R P ~ R ~ ' P I ' ' ' _ '  .] } ' ' _ R ~ ~ R P } } I Y ~ D S U W W [ Y W U M Y M I R [ W L n S S D D ",
"( R R R L P R ( L I _ I ' R R ' P R ^ U P ' ' ' ' ' ] ' ` _ _ ^ R P ^ R I | ^ W W R P D Y W W W Y Y U Z [ m L E W [ D n D D I Z ",
"R I I R L R R R I I ~ I ' ~ R _ P ~ ^ P P | ] ' ' ] _ _ ] W ^ _ R ~ ^ R W | W R W ~ D M ~ Y W Y W W Y D Y M L Y W W I x S S D M ",
"R ( I I L I R R P R U R _ I R ~ P ~ ~ P P ' ' ' _ } _ ' ' _ ' ' P ~ ~ P ^ | W R W ^ L S ^ Y [ [ [ Y U D W M I I W Y I x F S D D ",
"' ( I I I R R R ~ I R P ~ R R ~ ~ Q ~ P P ~ ~ ' ~ ' ' ' ' ^ ' _ P ~ ~ P [ | W W ^ ^ M P ^ I W [ W Y Y I W J J I W W U x D Z P L ",
"( R R R P I R P I D ~ L ~ ~ ~ ~ P ~ ~ P Q ~ ' ~ _ | ' W _ ~ ' ! P Q Q P ' | W ^ W W L ~ ^ Y W [ W W [ M U U I L W Y U n D Z P Z ",
"T ' I R L I P P P I ~ D Q ~ ~ ~ U ~ | P P ~ ~ ' ^ ' _ ^ ' _ ' P P P Q K ^ [ Y ^ [ I L [ ^ [ ^ W [ W Y D I D I Y W W I Z J Z U D ",
"I R P ( L S P P P S P P P ~ Q Q U Q ~ P P ~ ^ ~ ^ ~ ] W W _ | D F H H K ' ^ R ^ ^ I T [ ^ ^ ^ W [ ^ ^ S I D L P W Y U P J Z U Z ",
"R R I U L L R P P S P S P Q P P F Q Q F K U ^ Q ^ W ' _ _ ^ ^ F K K H F | ^ R ' W Y } [ [ [ W W [ ^ W m P S D D Y I J J J v Z Z ",
"P R P P L S P P P S H S P P ~ P F P K S F U ~ ~ ^ _ ^ W W ^ ~ I P Q F ~ | ^ W [ Y I [ [ [ [ [ [ } [ ~ m U Z Z D Y D J Z Z x Z V ",
"L R I L S S P P P P ~ S ~ P P Q Q ~ K F F U ~ ~ ^ ^ ' ^ R ^ ~ Q Q K P ^ | W ^ ' I U | [ [ } [ [ } [ ^ m D n V I Y D D Z A V A Z ",
"T I I I D P P P S S P l P ~ P Q U Q ~ F U U ^ U ~ ~ ~ W ~ Y Q U U F J ^ ^ I ^ W I ^ | [ [ ^ ^ [ [ } ^ m U m I U U J J Z Z v J Z ",
"R U I L L P U L H S P H ~ P P P P P Q K ~ U ~ Q ~ ^ Y ~ ~ W I Q F A U | [ W ^ P D ^ W ^ W W [ [ } [ R x U D D P Y U J Z Z Z Z Z ",
"W I I D L L P l S S H S H P P ~ Q Q ~ D Q Q P F ! ~ W W I W U F F F U ^ W Y ^ J I ! W U J [ Z D [ [ Y n D Z m D J J Z Z Z Z J Z ",
"R R P P L P P S S S P S P P P ~ Q R ~ F ~ Q K P Q ~ ~ ~ ~ ~ U K H Z Y | ~ W ~ Z I | Y Y D ! x U Y ^ U p D x Z J L J Z Z Z Z D Z ",
"R R R P L S L P S L P S F Q F Q P P ~ P Q P K K Q P ~ ~ U ~ Q H H Z Q ' Q ~ Q D J [ Y Y D J J Y Y [ F z U Z S P U U Z Z V Z Z Z ",
"R L P R P S L P S F P C F D l D P K Q F K P K P P Q ~ P P U P P A A ! ^ Q ~ R D J [ Y Y Z Z Y Y Y Y Z u U D D P D J Z v x b V V ",
"L I P I S S D U S P P l P C Z F A H K P K P Q H H P Q P P P A H C V Q ! P Q K l B Y Y Y J Z Y Y U Y Z p P Z x P Y Z V v v Z v v ",
"R I R P L j D P S A P l S F A K F P Q C F A K Q H Q ~ Q Q K A F b V Q ! P Q F S Y Y Y J J x J Y Y ! v i D n Z J ! Z V b z z x v ",
"P I P P S S S P F A F k F F S F A F K F F F H H Q P P K P Q C A b C Q Q P ! Z V Y Y Y J Z Z J Y P J V a H S S P J Z v v z z v x ",
"D L U D L S S S S S P l F F V F C H H A Q H F F H P H K F F g G b b Q ! P Q A Z Y Y Y Y J Z Y J Y J C p P Z S D U Z b c z z v v ",
"L L L Z L l l S l V P S F Z V G V F Q A F H F H C K H F C C f G g b K Q J J Z F Y Y Y J Z J J Y Y Y V i Z Z n F J C d w z w z c ",
"L S m S S l S F C S K l F F S F A G Q S H l F H H G P l F A g G g c K J F J a F J J J Z Z Y Y Y Y Y v i F D Z Z A v w 9 w z z z ",
"D m S V S l S F S S H l S F A F H F Q S F F K F C G F H C F b b f f A F J A Z J J Y J U J J Y J ! ! V t J Z V Z A C d w w w z z ",
"S n n V S a l l F l F h S A S F D F K A F F F A A C F C C H g b w g A A Z J Z A J Y J Z Z J J Y U ! Z t J Z Z b A z w w w z z c ",
"V n S S l k S A F l A a l A l F F Z H F H H H A H C F C l H C b d c J K Z J V J Y J Z Z J J J J J J A z Y M V V Z z w 1 d z w z ",
"V u V k V k S S A l l l S A l A V C P V V C A V A C C C A H l b c c H J F Z v J J J J J Z J Y J J J Z 7 Z Z v v A z w w z z z z ",
"S l l l k a V a l h F l a A h C C S F S Z V A C C A C g C H H g b f A A A F v J J J J Z J J Y J I J Z 7 x Z x v b c z i c z z z ",
"S l S S l k l k a a S l V S a C h h K Z F A C b A G C C C H C l g g A C Z A v J U J J J Z Y J Y J J Z 7 z V i a Z z c z z w z z ",
"m k k l l a a a S a S V V F V V C V H h A A b C A C C G H g l g f f G F A V x J F J J Z ! ! Y J J Z Z w i V w a b x z c t z w z ",
"L k k l l y y a A u a V a Z l h C h A a v b b A C h h G l f f g f f H Z A V V J Z D J J J J J Y J Z x z v v 0 i v z 0 c z z i z ",
"m m k k l y y a l a a h y l f a v x C a h c C A b d b b f s g f g w C A Z b Z J Z J F ! Z Z Z D J Z x z i Z 6 i v a w c w w z z ",
"m k k y a y y y h a a h t l g y v h b c b C C A b v C h s s s s f w b A A Z v J J F J Z Z Z Z Z J m w z t b 0 i f a 6 f 0 z u z ",
"L D S k y y y a l a y a q C l y c i C c a b A C b c C V f w g c b f b J b V n J Z J Z c Z v v z D Z x z 0 x y t i y 2 8 0 w i z ",
"D m D S l y a a a l y a t V h h V x v x c Z F F F F A F b f v b b 9 v A b v v J Z D Z c z z f x Z Z x x 0 i i i w w 8 q 8 w 0 t ",
"m m m V V i a a a n u V y h h i v i x v v C F Q U U P A b v b s d s d A c c V J D J v w < q f c v Z z x 0 x i y w z 8 0 8 0 8 w ",
"m S n n V p i a V Z u Z a V V u v i c x a b H F Q ! J b b c w d 9 9 q b c c c A Z A 8 = > > < 8 z x z z 0 i i 0 : 0 w z 8 w 8 0 ",
"S S n x n p u c a V i Z x Z V i v x x b a f 8 6 z A v v c w w f s 9 s b c v z Z Z b > $ 1 1 , ; 8 z z t 0 2 i 0 : 0 0 z 8 8 8 0 ",
"m x n x x i i a x v t V x V Z i x i x V i f 9 f q w f c i d f c s s s b b c z C v c = > < < 1 & : w w t w 2 t 0 0 8 1 z 0 0 8 1 ",
"a u u u y t y a p V p x i x J x x p x A z c b v f f c v c c f c w d w C v a w b b y $ > $ > 1 & : 8 w p p : 8 7 : 8 5 w 8 w 0 0 ",
"u u u 7 0 0 2 i x V u v x t Z z x x x J v x v c w w b v V c f b c c i b f i a c c q @ $ > > 1 & % : w 0 w 7 8 8 ; < : 8 : 8 8 8 ",
"n n p 7 7 t 2 u x x p z x z x p x x x A V c z g f w c v b h i v c w w f w i w a i 5 > > $ > 1 , % 1 0 z w 7 : : ; 8 : 8 : : < 8 ",
"p n n a a i i u x n x t Z z V x p Z i c c i w i f w a h h a w c f w w f w w w w 8 < $ $ $ > 1 , @ 1 : 8 u 0 : * * 8 : 1 : : < 8 ",
"r x p x a p i 0 V x i 7 x z x x y V a v h 5 9 s w i v v V c i a w 9 q f w 0 6 f 8 > + $ $ > < > % 1 : 2 0 7 : : % = : 8 : : 8 8 ",
"p p x p u u y 6 V x x - t x i p 6 0 w 2 #   8 q f w h a h h y w f y y f w q 6 0 8 = + $ $ > > * % : = 2 8 8 - : % : : : : 8 : 8 ",
"e u t 7 t 7 t 7 x i c O - c 2 8 2 4 ; o # < 4 0 f a i i h y y a i f 9 y w q 9 w 8 % @ $ = < : $ X < = < 8 8 * % + = = : * : : 8 ",
"7 t t 3 3 2 0 7 t 0 i 6 x t 2 8 , 4 * & , 5 5 5 w i y y a w 0 q y f 4 4 9 6 2 9 1 % + = = ; , % . : * : 8 : O + + = = * * : : : "
};
