/* XPM */
static char *ac1176b5e4ac4886e7de9520ad0a0fb7[] = {
/* columns rows colors chars-per-pixel */
"64 64 256 2 ",
"   c black",
".  c #010101",
"X  c #020202",
"o  c gray1",
"O  c #040404",
"+  c gray2",
"@  c #060606",
"#  c #070707",
"$  c gray3",
"%  c #090909",
"&  c gray4",
"*  c #0B0B0B",
"=  c #0C0C0C",
"-  c gray5",
";  c #0E0E0E",
":  c gray6",
">  c #101010",
",  c #111111",
"<  c gray7",
"1  c #131313",
"2  c gray8",
"3  c #151515",
"4  c #161616",
"5  c gray9",
"6  c #181818",
"7  c #191919",
"8  c gray10",
"9  c #1B1B1B",
"0  c gray11",
"q  c #1D1D1D",
"w  c #1E1E1E",
"e  c gray12",
"r  c #202020",
"t  c gray13",
"y  c #222222",
"u  c #232323",
"i  c gray14",
"p  c #252525",
"a  c gray15",
"s  c #272727",
"d  c #282828",
"f  c gray16",
"g  c #2A2A2A",
"h  c gray17",
"j  c #2C2C2C",
"k  c #2D2D2D",
"l  c gray18",
"z  c #2F2F2F",
"x  c gray19",
"c  c #313131",
"v  c #323232",
"b  c gray20",
"n  c #343434",
"m  c #353535",
"M  c gray21",
"N  c #373737",
"B  c gray22",
"V  c #393939",
"C  c #3A3A3A",
"Z  c gray23",
"A  c #3C3C3C",
"S  c gray24",
"D  c #3E3E3E",
"F  c #3F3F3F",
"G  c gray25",
"H  c #414141",
"J  c gray26",
"K  c #434343",
"L  c #444444",
"P  c gray27",
"I  c #464646",
"U  c gray28",
"Y  c #484848",
"T  c #494949",
"R  c gray29",
"E  c #4B4B4B",
"W  c #4C4C4C",
"Q  c gray30",
"!  c #4E4E4E",
"~  c gray31",
"^  c #505050",
"/  c #515151",
"(  c gray32",
")  c #535353",
"_  c gray33",
"`  c #555555",
"'  c #565656",
"]  c gray34",
"[  c #585858",
"{  c gray35",
"}  c #5A5A5A",
"|  c #5B5B5B",
" . c gray36",
".. c #5D5D5D",
"X. c gray37",
"o. c #5F5F5F",
"O. c #606060",
"+. c gray38",
"@. c #626262",
"#. c gray39",
"$. c #646464",
"%. c #656565",
"&. c gray40",
"*. c #676767",
"=. c #686868",
"-. c DimGray",
";. c #6A6A6A",
":. c gray42",
">. c #6C6C6C",
",. c #6D6D6D",
"<. c gray43",
"1. c #6F6F6F",
"2. c gray44",
"3. c #717171",
"4. c #727272",
"5. c gray45",
"6. c #747474",
"7. c gray46",
"8. c #767676",
"9. c #777777",
"0. c gray47",
"q. c #797979",
"w. c gray48",
"e. c #7B7B7B",
"r. c #7C7C7C",
"t. c gray49",
"y. c #7E7E7E",
"u. c gray50",
"i. c #808080",
"p. c #818181",
"a. c gray51",
"s. c #838383",
"d. c #848484",
"f. c gray52",
"g. c #868686",
"h. c gray53",
"j. c #888888",
"k. c #898989",
"l. c gray54",
"z. c #8B8B8B",
"x. c gray55",
"c. c #8D8D8D",
"v. c #8E8E8E",
"b. c gray56",
"n. c #909090",
"m. c gray57",
"M. c #929292",
"N. c #939393",
"B. c gray58",
"V. c #959595",
"C. c gray59",
"Z. c #979797",
"A. c #989898",
"S. c gray60",
"D. c #9A9A9A",
"F. c #9B9B9B",
"G. c gray61",
"H. c #9D9D9D",
"J. c gray62",
"K. c #9F9F9F",
"L. c #A0A0A0",
"P. c gray63",
"I. c #A2A2A2",
"U. c gray64",
"Y. c #A4A4A4",
"T. c #A5A5A5",
"R. c gray65",
"E. c #A7A7A7",
"W. c gray66",
"Q. c #A9A9A9",
"!. c #AAAAAA",
"~. c gray67",
"^. c #ACACAC",
"/. c gray68",
"(. c #AEAEAE",
"). c #AFAFAF",
"_. c gray69",
"`. c #B1B1B1",
"'. c #B2B2B2",
"]. c gray70",
"[. c #B4B4B4",
"{. c gray71",
"}. c #B6B6B6",
"|. c #B7B7B7",
" X c gray72",
".X c #B9B9B9",
"XX c gray73",
"oX c #BBBBBB",
"OX c #BCBCBC",
"+X c gray74",
"@X c gray",
"#X c gray75",
"$X c #C0C0C0",
"%X c #C1C1C1",
"&X c gray76",
"*X c #C3C3C3",
"=X c gray77",
"-X c #C5C5C5",
";X c #C6C6C6",
":X c gray78",
">X c #C8C8C8",
",X c gray79",
"<X c #CACACA",
"1X c #CBCBCB",
"2X c gray80",
"3X c #CDCDCD",
"4X c #CECECE",
"5X c gray81",
"6X c #D0D0D0",
"7X c gray82",
"8X c #D2D2D2",
"9X c LightGray",
"0X c gray83",
"qX c #D5D5D5",
"wX c gray84",
"eX c #D7D7D7",
"rX c #D8D8D8",
"tX c gray85",
"yX c #DADADA",
"uX c gray86",
"iX c gainsboro",
"pX c #DDDDDD",
"aX c gray87",
"sX c #DFDFDF",
"dX c gray88",
"fX c #E1E1E1",
"gX c #E2E2E2",
"hX c gray89",
"jX c #E4E4E4",
"kX c gray90",
"lX c #E6E6E6",
"zX c #E7E7E7",
"xX c gray91",
"cX c #E9E9E9",
"vX c #EAEAEA",
"bX c gray92",
"nX c #ECECEC",
"mX c gray93",
"MX c #EEEEEE",
"NX c #EFEFEF",
"BX c gray94",
"VX c #F1F1F1",
"CX c gray95",
"ZX c #F3F3F3",
"AX c #F4F4F4",
"SX c gray96",
"DX c #F6F6F6",
"FX c gray97",
"GX c #F8F8F8",
"HX c #F9F9F9",
"JX c gray98",
"KX c #FBFBFB",
"LX c gray99",
"PX c #FDFDFD",
"IX c #FEFEFE",
"UX c gray100",
/* pixels */
"% % % % % % % % % % % % % % % = D $.;.-.1.3.5.q.t.t.8.4.9.p.p.a.p.a.i.u.a.g.x.N.c.B.z.i.l.i.t.f.g.l.n.c.z.d.s.p.t.9.5.%.#.o.~ Q ",
"% % % % % % % % % % % % % & > k ] *.=.-.:.7.8.w.w.y.6.3.0.y.a.i.u.i.i.y.i.l.h.N.M.A.v.s.j.j.i.d.h.j.c.x.j.u.u.y.p.7.1.@.O.` R ! ",
"& & % % % % % % & - 1 4 , u z K X.#.=.=.:.q.e.w.0.9.2.4.r.a.i.i.u.t.i.r.r.j.g.c.B.C.z.s.g.l.i.d.i.k.z.f.a.5.w.d.4.5.3.$.| / ! W ",
"* % % & - 1 - 3 < 8 h u 4 e x U ` #.:.-.1.6.0.r.8.5.2.4.e.p.t.y.p.y.y.y.a.g.p.j.b.c.k.f.k.h.f.d.u.f.j.t.p.3.0.u.7.5.3.#.) ] ~ R ",
"& * < 5 8 5 3 y 6 r h 2 9 d Z Q } &.*.=.4.9.q.0.2.5.5.3.t.p.i.u.y.t.t.i.f.j.i.s.f.l.N.g.x.z.d.u.w.i.h.t.t.2.9.q.9.1.1.+.) W / R ",
"> , i w 8 q e e y r u 6 9 N L ( +.O.@.*.3.r.6.q.>.9.9.8.q.t.a.u.r.u.y.y.a.s.p.a.d.j.m.j.l.C.s.w.q.d.f.r.<.1.e.7.2.3.-.+.) W ( L ",
"2 4 y 9 y j i 9 a 7 t e i S U ( +.+.+.#.6.2.5.9.7.0.6.4.8.0.p.i.u.r.u.a.y.0.k.u.f.i.s.p.a.x.y.y.j.d.a.r.4.4.p.6.<.2.#. .' Q E P ",
"w 7 r f z z i 9 f 9 p g j C K ~ o.=.+.@.3.3.0.r.0.w.<.,.e.u.i.i.t.t.e.f.u.8.g.d.d.r.y.u.e.q.s.h.x.u.t.7.q.q.7.;.,.-.O.' ^ ( _ L ",
"a a f Z m j i 0 s k v x N D S ~ +.;.#.:.4.1.5.4.6.w.;.1.i.y.q.t.u.w.0.t.a.i.a.z.s.0.y.i.r.9.l.f.a.r.p.q.t.q.;.,.=.X.@.{ ' ' W V ",
"p N x n n c v t g m M B S F M ) O.%.-.=.%.-.<.<.8.8.:.,.w.6.6.u.p.i.w.t.p.a.f.h.a.q.p.j.t.8.i.u.r.e.s.e.6.6.=.;.O.#.@.X.] Q S H ",
"n M z N F A Z a s V D J I C n ^ @.+.%.+...=.=.:.8.0.-.>.2.9.7.8.9.a.w.r.r.h.l.x.h.i.u.f.7.5.9.t.9.q.a.4.-.t.*.X.&.O.| } ~ L H P ",
"P B V R L C b a f I T H R v V ^ @.O.| o.$.>.&.&.3.7.=.#.6.r.4.3.y.u.7.4.q.i.f.g.p.i.i.9.5.9.2.6.5.8.u.3.9.e.o.O.*. .' [ U J L K ",
"G D B ~ F c z x A ^ Q D G C L / | X.` @.&.&.$.#.-.7.;.+.8.7.,.6.y.e.1.5.9.i.u.u.d.g.i.6.q.q.3.7.6.t.d.7.1.-.$.o.o.{ ^ _ F T T S ",
"H R P Y A k J C U / W H n V E ( _ } X.@.+.%.$.*.,.8.-.| 6.8.3.e.e.9.;.q.e.t.w.w.k.i.>.3.e.0.3.6.8.0.9.1.$.;.$.O.[ ~ ) Q L Q L m ",
"Q ' W J S x ! U E R J G F G [ ' `  .%.#.+.-.;.*.:.>.@.] e.a.2.7.e.9.:.8.q.9.w.a.l.5.#.:.i.t.7.7.6.:.:.-.$.&.X...^ ! _ P G U A M ",
"/ [ _ R T H I ~ U K J F W I | ) / ..+.o.;.:.*.@.#.:.O.@.w.y.1.7.y.8.;.>.7.5.q.e.d.,.%.=.f.i.7.,.:.;.>.=.&.$.{ ` ( | W Z U D Z m ",
"! X. .~ / R K U T I D J [ ( _ ( ) ` | ..=.-.#. .O.>.@.*.r.e.1.5.w.6.%.>.2.<.7.5.5.=.*.>.p.r.6.;.*.5.-.<.O.} | R [ [ T S S M C v ",
"( o.@._ ^ E L W ( G H ` ` ) E ! W Q }  .@.%.O.[ @.1.;.=.9.0.>.4.q.,.+.*.9.>.1.2.:.,.&.9.u.q.5.<.&.;.#.,.{ ..' Y  .~ ! C x k Z B ",
"'  .o.| _ Q ! ) ^ I Y _ ~ ] ( E U ' X.{ O.$.+.| -.6.8.*.1.2.>.w.9.#.%.>.0.;.:.0.8.5.;.5.q.w.5.@.X.O.X.+.| ` ! ] [ R K z n c V v ",
"[ ..#.O._ / ( _ E ~ ` ' ( ' ` W T o...X.@.o.%.%.<.<.,.=.,.,.,.7.,.@.>.,.8.1.,.0.5.5.*.:.3.3.$.| X.| ` X.( W ' | ~ H n b B z M b ",
"O.| #.O.{ / ^ / E / ` [ ^ [ ` Q ' %.$.#.] [ @.@.>.+.*.,.3.>.;.,.@.=.6.%.8.3.1.,.,.5.>.%.=.&.{ ( #.` _ ` W ( X.Q K S m v z x v b ",
"X.X.O.+.X.^ E ' ^ _ [ [ Q ( ' _  .X.#.| ' ....X.*.$.5.4.3.-.&.-.o.<.&.#.8.>.2.;.<.*.=...&.X.' ` ..' ~ / E ( _ Y A A m z z b m N ",
"%...` &.O.~ ' ..[ ) ] ^ W W ' O.| } O.+.@.+...%.%.$.4.7.-.X.+.$.@.;...O.,.,.7.>.-.O.o.+.%.) } [ ^ ` ~ ) ^ W R G C m b V y K N b ",
"=.X./ @.X.) { | ' ] ' T W ! ] |  .X.%.:.@.o...+. .#.1.>.@.] } -.<.$.X.O.*.*.2.-.X.[ ..O.| ) | ] W ) [ ( W P U C C V C A p _ m m ",
";.O.o.| } ) | +...o.] Q ^ ( ..o.{ $.%.#.| ] X... .#.:.&.X.{ [ =.-.+.o. ...$.-.;.X.[ [ ' ] ) ' ` ) ' ( ( J C Y B V S M N Z Z x m ",
"#.&.&...( ] X...&.;. .( Q +.5.&.o.O. .{ [ } O.o.$.} %.o.X.O.@.=.=.+.{ ' ..@.#.;.o.o.[ ' } ^ / ( ) U W ~ Z N T M F G m x l C C f ",
"@.3.#.{ ! { .. .%.=.o. ._ { >.@.| { Q / X. .X.X.@.} +. .O.#...O.$. .! ] ..$...} $.=. .` _ I ^ ( P I T Y Z N K D J C B l v M m s ",
"@.-. .O.( / O.o.,.>.} ..| ( +.} _  .Q W ..[ ! *.@.| o.[ [ +.| ] O...E X.o.%.' | #. .O._ R T Q Q T T D G F V Z P J C m x j z b z ",
"@...{ o.[ ^ $.#.4.0.o.o. .] o.' ` X./ I _ { / ;.o.+.o.' [ } { ' ..] h 8.&.| ^ ) ` ) ] ) T ^ Y L L C M I U C G G Z Z n l f l x x ",
"O.[ _ ] +._ %.o.*.q.@.X.| | [ ` ) [ ~ I ) { | $.O.+.X.` ^ ^ [ _  .+.) 7.} ' ) ` Q E ! / / K D A G G Z P P M G D v M v x x k j f ",
"X.X.[ /  . .#.O.O.:.@.| ' X.} ' R ! ^ ^ [ ` ' O.O...| [ W ( ` ' `  .X._ [ ^ ) ~ Q P ^ ^ E B C H P I G V K C B C x b b v n z g d ",
"+.@.o.[ ( Q @.:.@. .O.+.R | X.[ ~ J W _ [ [ ` ' ]  .` } W R ~ { E R ` _ ` _ / E Y I Y ) R D A K Y F S M U V N m M B N m N k p d ",
"$.} #.@.' K ` *.O._ | ..Q ' ..( ^ U ( ` ) ) _ [ W ' ) _ Y T ] ! U D ( ( T _ Q ^ T H V Y ^ N J J A D S C J M S A S A z n N k p d ",
">.[ [ >. .T ] ..] _ } ` ) ` ' ~ ~ _ ] ^ ( ) ! _ Y _ ( W T R [ I T I R ) U ! I U U C S C Y L W H K G H S V C S H S B l z m l f j ",
",.X.] %.} ( |  ./ Q } ( / ] ' Y W } } ` ) R T ` T U ( P Y I ) H L Y I T I T E F K Z P J I L J P P J S V G F Z J A B c c M g l c ",
"+.&.o...' ( ] { { ' ^ ( { ` ^ Y ^ ` ` +.^ R U { ^ S T U I T T I H U P Y J E R C P T Z Z E U S V U J A S Y C A F D C c b b g v b ",
"..} ..O.{ ( / / o.| ^ ..} E R ` / ^ O.X.^ Q J [ ~ J P K K J P G I T H Z U L E L L R S F K K K C K G I K K A S D G N m v x z M n ",
"+.Q [ +./ ] ` ! [  .] ....Q R ^ P W _ .._ I L ( Q Y K K H U P C J R D n Y Y I L L L G K F K P J G Y U K D J G D A m b b b m b c ",
"| ~ {  .[ ] ' ~ ~ ) | [  .] R T I Q Y ..] K L E W ~ T L Z I R Z A H S A J H T R F T W U Z c / I E W I D G D B L C l v B b B m C ",
"] ) | ' ..{ / ^ / ~ X.( ' o.! S ~ ' H ) ] J H E I Y _ T N L ~ F B C A Z V J ~ ( E ( W D Z c } ~ R W U L D M A K B h M J C A C m ",
"{ } R +.o.} ` _ ] W ` _ [ | W U Y [ H E W G Y R A S o.^ V L U H N B G S D W Y ~ ` E P Z P H W ^ G U P K S A D Z v v D J G L S m ",
"^ ` ] o... .o. .' K T }  ./ Y ! P ~ P / J L R R I W ..R G F K P G m H D U ~ G R Q U P H L P J ~ F A K J S S A M v N Z D I s ) S ",
"^ L @.O.` o.#.{ / K W ] ../ J ~ ' T J ` E G K _ Q ! ~ Y L H C K U D A D / ~ G H I Q L R I F K Y F V H F V N A M n M D Z H K ~ C ",
"/ E ] ..} o.o.] / E _ _ ) ) I ( { R C ~ / H K _ L Y T ! J G A A U Y H K W ~ R F E R T E D A G J J C H B v V D C C B H D G T C N ",
"^ ( ^ | +.@.[ } ` E { R ! { W ^ / U U I Y K U L K L W Q I A D F T U I J R W Q P W Q W G S S F D C Z V m B J A D C A H F A G Z C ",
"^ Y X.{ &.#.[ ` [ _ ^ G [ [ ) Q L I ~ J R P J H R J I E Q F S J P K U P R U ! _ A Q ~ J C A K D c C A m C F Z A Z F J L G P G V ",
"` ! [ X.*.$.' ^ [ ..P T ) _ ( R Y I ! P E W S / ^ G K Q ! A U P D F E T E K ( _ 3 ( ..K Z Z C D M v Z b F D A F D J Z H L T S b ",
".._ Q X.%.#.! } @.' I ! W _ ) S / R ~ Q Y J F { ( K R R R C U R F B I E Y F ) ) n ..[ T F V z S B v S B G Z S G J F m I I L n g ",
"| Q o.o. ...` o.+.) ~ ~ E ( _ G E I / ) W A A ] ^ R Q R J G L U L D Z E J P ` E K T ~ I A B z C B V C D Z A H S H H F L P F j t ",
"+.! >...E O.o.{ ' Q ' ' ~ T ! ^ T S ` ` _ U G R U Q T W F U R J K P A T F R / K D J E U A C n v V Z S G Z A G G P F H J J Z h r ",
"/ { #.[ Q O.} [ { W W } } K Q  .I C [ } _ L P S F ( K U E Y E T K K J K H T T K P H G H G B B b G F A F G F F J K F D S D N b k ",
"! } o.[ [ ` _ {  ./ Q  .} G ~ ( T G T ..` T L A B T ) P E / U W K S U P K T K A U U A V L C G S F G Z G P G G I L S Z V S B M b ",
") } $.` / ) _ ( ' [ ` [ ( T ! E ( H J } [ ) E J M C | ! J ( R U F P ! T G U H G H I S S L G R J G G A F K U L K P S B V C M m c ",
"| [ %.{ Y ` | E I ' ` ( ( R W R ( L ! / / _ ^ Y B F ( ^ G ` T G F ! E Y S T P L G K F P K I ^ U I C Z F U Y I D J Z B N n n z h ",
"] X.#. .T [ } ~ L T _ ^ ` W ! E / ! ` Q Y / ! L G U ~ Y R ' I S E W E T F R P L Y G G P G E ^ L P A Z G K Y L S A C N v v l d i ",
"( @.X.[ { ' } ^ W H R ! R Q ~ P ` ' / Q U _ U Y Q K Q R ~ W U Y ! E U Q U Y K P ~ H F P F R ! F J F F J D Y L Z C M b M x g p y ",
"! @. .T | } _ R ( D Y U U ] ( U _ ] ^ / / R K ~ ( L ~ W ^ U P ^ Y Y T ~ P W I F W I J J A ! Q J P H J F F I H Z V v z N c f u t ",
") | ' T [ ' ] E T R Q P / ..[ U ( ) ) ) ] R J W { ! ! ~ ) I G ( P F U / P ~ E G Y Y H S F ! ^ R K H J S D H A V N c v n j l p e ",
"` X.) R ] | ` / F ) ~ / [ [ ] ~ ^ ) ] | Q [ I I ../ W ^ / K A ( Y D I ^ J E Q D Y E K C Q I ( R G Z I G F D Z B N v z v z f i 0 ",
"{ o.` K [ X.' ^ K _ / ] [ ~ ` } R ` ( [ ) o.) R X.( U ] ( A D T Y G I ~ P U Y F T ( L D E K Q I A J K D H A B C n v x l x a y 8 ",
"` X.] K  .O.| W Y / ) ] ( ~ ' ` ( ^ T [ @.R ' { ` ] H ` / A D T Y R F U R ~ I S W ) E I H P U K A J H F Z J B Z n m M j h a r w ",
"/ [ ..) | U &.R E ( E } ~ ^ { [ [ ! P o.&.a X.2._ { R Q Q D F Q R T V L T / ! L K ( ( W Z H H F D L G A A H C A M M m h k s t i ",
"( ] } ] [ ] { / ) Y L  .E ( X.} ) E R ..-.' X.! [ ` P ~ U D D ( T H F Y Y Q ( U U ~ ^ R C D J S J P S Z Z K D B V m l x l h w t ",
"(  .' Q ( [ ` o.) C K } ! { { [ W W ` [ &.} ~ Q } W E R L L G / W F L H W ` ~ F R W W U Z S K G I L A N S K D V C b x n c h 0 w "
};
