/* XPM */
static char *_836a4b3ed2f4ac5e5c2faf96a2023ea[] = {
/* columns rows colors chars-per-pixel */
"64 64 256 2 ",
"   c black",
".  c #010101",
"X  c #020202",
"o  c gray1",
"O  c #040404",
"+  c gray2",
"@  c #060606",
"#  c #070707",
"$  c gray3",
"%  c #090909",
"&  c gray4",
"*  c #0B0B0B",
"=  c #0C0C0C",
"-  c gray5",
";  c #0E0E0E",
":  c gray6",
">  c #101010",
",  c #111111",
"<  c gray7",
"1  c #131313",
"2  c gray8",
"3  c #151515",
"4  c #161616",
"5  c gray9",
"6  c #181818",
"7  c #191919",
"8  c gray10",
"9  c #1B1B1B",
"0  c gray11",
"q  c #1D1D1D",
"w  c #1E1E1E",
"e  c gray12",
"r  c #202020",
"t  c gray13",
"y  c #222222",
"u  c #232323",
"i  c gray14",
"p  c #252525",
"a  c gray15",
"s  c #272727",
"d  c #282828",
"f  c gray16",
"g  c #2A2A2A",
"h  c gray17",
"j  c #2C2C2C",
"k  c #2D2D2D",
"l  c gray18",
"z  c #2F2F2F",
"x  c gray19",
"c  c #313131",
"v  c #323232",
"b  c gray20",
"n  c #343434",
"m  c #353535",
"M  c gray21",
"N  c #373737",
"B  c gray22",
"V  c #393939",
"C  c #3A3A3A",
"Z  c gray23",
"A  c #3C3C3C",
"S  c gray24",
"D  c #3E3E3E",
"F  c #3F3F3F",
"G  c gray25",
"H  c #414141",
"J  c gray26",
"K  c #434343",
"L  c #444444",
"P  c gray27",
"I  c #464646",
"U  c gray28",
"Y  c #484848",
"T  c #494949",
"R  c gray29",
"E  c #4B4B4B",
"W  c #4C4C4C",
"Q  c gray30",
"!  c #4E4E4E",
"~  c gray31",
"^  c #505050",
"/  c #515151",
"(  c gray32",
")  c #535353",
"_  c gray33",
"`  c #555555",
"'  c #565656",
"]  c gray34",
"[  c #585858",
"{  c gray35",
"}  c #5A5A5A",
"|  c #5B5B5B",
" . c gray36",
".. c #5D5D5D",
"X. c gray37",
"o. c #5F5F5F",
"O. c #606060",
"+. c gray38",
"@. c #626262",
"#. c gray39",
"$. c #646464",
"%. c #656565",
"&. c gray40",
"*. c #676767",
"=. c #686868",
"-. c DimGray",
";. c #6A6A6A",
":. c gray42",
">. c #6C6C6C",
",. c #6D6D6D",
"<. c gray43",
"1. c #6F6F6F",
"2. c gray44",
"3. c #717171",
"4. c #727272",
"5. c gray45",
"6. c #747474",
"7. c gray46",
"8. c #767676",
"9. c #777777",
"0. c gray47",
"q. c #797979",
"w. c gray48",
"e. c #7B7B7B",
"r. c #7C7C7C",
"t. c gray49",
"y. c #7E7E7E",
"u. c gray50",
"i. c #808080",
"p. c #818181",
"a. c gray51",
"s. c #838383",
"d. c #848484",
"f. c gray52",
"g. c #868686",
"h. c gray53",
"j. c #888888",
"k. c #898989",
"l. c gray54",
"z. c #8B8B8B",
"x. c gray55",
"c. c #8D8D8D",
"v. c #8E8E8E",
"b. c gray56",
"n. c #909090",
"m. c gray57",
"M. c #929292",
"N. c #939393",
"B. c gray58",
"V. c #959595",
"C. c gray59",
"Z. c #979797",
"A. c #989898",
"S. c gray60",
"D. c #9A9A9A",
"F. c #9B9B9B",
"G. c gray61",
"H. c #9D9D9D",
"J. c gray62",
"K. c #9F9F9F",
"L. c #A0A0A0",
"P. c gray63",
"I. c #A2A2A2",
"U. c gray64",
"Y. c #A4A4A4",
"T. c #A5A5A5",
"R. c gray65",
"E. c #A7A7A7",
"W. c gray66",
"Q. c #A9A9A9",
"!. c #AAAAAA",
"~. c gray67",
"^. c #ACACAC",
"/. c gray68",
"(. c #AEAEAE",
"). c #AFAFAF",
"_. c gray69",
"`. c #B1B1B1",
"'. c #B2B2B2",
"]. c gray70",
"[. c #B4B4B4",
"{. c gray71",
"}. c #B6B6B6",
"|. c #B7B7B7",
" X c gray72",
".X c #B9B9B9",
"XX c gray73",
"oX c #BBBBBB",
"OX c #BCBCBC",
"+X c gray74",
"@X c gray",
"#X c gray75",
"$X c #C0C0C0",
"%X c #C1C1C1",
"&X c gray76",
"*X c #C3C3C3",
"=X c gray77",
"-X c #C5C5C5",
";X c #C6C6C6",
":X c gray78",
">X c #C8C8C8",
",X c gray79",
"<X c #CACACA",
"1X c #CBCBCB",
"2X c gray80",
"3X c #CDCDCD",
"4X c #CECECE",
"5X c gray81",
"6X c #D0D0D0",
"7X c gray82",
"8X c #D2D2D2",
"9X c LightGray",
"0X c gray83",
"qX c #D5D5D5",
"wX c gray84",
"eX c #D7D7D7",
"rX c #D8D8D8",
"tX c gray85",
"yX c #DADADA",
"uX c gray86",
"iX c gainsboro",
"pX c #DDDDDD",
"aX c gray87",
"sX c #DFDFDF",
"dX c gray88",
"fX c #E1E1E1",
"gX c #E2E2E2",
"hX c gray89",
"jX c #E4E4E4",
"kX c gray90",
"lX c #E6E6E6",
"zX c #E7E7E7",
"xX c gray91",
"cX c #E9E9E9",
"vX c #EAEAEA",
"bX c gray92",
"nX c #ECECEC",
"mX c gray93",
"MX c #EEEEEE",
"NX c #EFEFEF",
"BX c gray94",
"VX c #F1F1F1",
"CX c gray95",
"ZX c #F3F3F3",
"AX c #F4F4F4",
"SX c gray96",
"DX c #F6F6F6",
"FX c gray97",
"GX c #F8F8F8",
"HX c #F9F9F9",
"JX c gray98",
"KX c #FBFBFB",
"LX c gray99",
"PX c #FDFDFD",
"IX c #FEFEFE",
"UX c gray100",
/* pixels */
"u.5.5.-.:.1.w.i.u.f.f.s.N.N.k.9.4.:.@.^ W ( W / W I Y I T Y U ^ =.,.%.&.>.5.+.[ ^ W T ! ' W ( E W ^ / / { -.8.<.O.` ) =.u.t.4.p.",
"e.q.8.7.2.3.q.a.y.i.s.s.n.M.h.0.>.-...^ ^ ( ~ ~ R U Y T E T R _ &.>.2.5.-.-./ +...Y P E ) ^ W T R ! / ~ ] =.6.@.( R [ :.4.t.7.8.",
"i.d.r.q.7.9.q.i.p.s.p.p.x.f.p.t.1.q.$.( R Q E Y E I E E T R R } ;.<.2.&.2.1.~ ..^ ~ ! P ^ ) { _ ` ^ ~ ! )  .-.@.W E ` o.,.7.7.w.",
"y.f.u.w.e.w.e.d.k.l.e.r.s.u.u.s.8.<.#.' T T T T W U E ! E R Q | -.*.( E ( ] T } ` | } U ) o.&.5.+.' ) ` ] X.4.=.) ! ^ ] <.7.9.y.",
"7.w.e.q.w.9.i.u.i.u.w.e.u.a.d.h.e.2...{ W W / Q W R W ! ! Q ) [ +.] W T J K L Q ! / ' W ' *.,.2.( ' ..%...[ 6.#.[ ) _ %.<.9.r.7.",
"2.5.6.y.u.t.s.y.f.r.p.p.d.a.a.f.i.t.5.@.^ ! _ W E ~ ) / / ' [ o.| ^ T Y I Y P Q $.,.%.#.o.;.*...^ _ }  .` ..*.} ! (  .>.<.r.p.1.",
"2.,.0.r.y.y.f.k.N.j.i.y.t.p.s.d.d.f.s.9.+.( ~ ! ~ ( ) { ) [ [ #.+.` ! Q Y U U R &.3.$.| *.#.' ) ) _ [ [ ( ] ] ~ ! ' | -.>.4.e.5.",
"9.7.9.0.r.y.f.V.H.n.d.s.u.i.j.h.x.M.N.p.t.=.` ~ ( Q [ 6.o.) _ O.%.] ] ! Y I P Y &.%...o.*. .....` ' ..[ ' { ] ! _ *.$.' | 8.q.y.",
"u.6.w.9.3.0.d.d.g.s.s.h.g.t.k.C.L.V.m.v.l.,.] ) ( ..p.s.>.[ ' #.>.{ [ Q E T U Y [ O.} } ] X.-.6.{ { { ) _ ) { _ W [ @.o.@.7.8.6.",
"0.7.y.9.6.u.d.u.p.u.t.d.u.u.n.L.U.N.h.t.5.*.[ ) ..e.i.0.1.#.o.;.6.:.X.E Q E W ~ ^ X.| ( _ O.| $.{ { ' ^ ! Y ^ ' W W [ @.4.y.0.9.",
"8.0.r.s.i.a.e.y.u.a.j.s.i.f.z.n.B.l.e.<. ...o.$.2.t.5.2.<.#.%.3.7.:.&.( ` ~ ( @.} O.-.) [ =.|  .] ` } ~ Q ' ' { ~ O.5.5.7.y.0.i.",
"e.0.8.t.r.w.w.s.a.i.i.j.D.N.h.c.V.i.8.2.#.&.#.:.w.w.0.3.2.*.&.-.1.:.:. .@.} [ *.;.#.1.) / #. .{ _ ! +.{ ! ) _ ~ _ 3.i.q.0.a.p.y.",
"a.j.d.e.t.t.p.d.y.a.a.b.C.n.N.H.F.x.0.<.>.%.@.1.e.w.8.<.,.*.o. .-.4.5.*.;.%.>.6.4.%.$.{ ) +.| | ( ! ( ) ! ( ~ ) o.1.q.e.t.d.g.r.",
"y.v.v.p.d.g.h.g.i.u.p.k.d.f.n.B.v.b.j.a.5.%.>.9.e.q.i.7.>.%...| -.3.7.2.*.>.5.8.$.^ X.o.[ =.o.} ! ~ R ! Q ~ ! ..=.1.w.p.y.u.e.e.",
"i.i.d.g.t.s.N.m.k.h.s.j.s.p.l.n.N.N.A.v.7.*.1.q.u.r.v.p.:.| o.=.:.1.7.8.3.4.6.O.) ` 2.4.=.6.=. ./ ^ ~ ^ ! ( ^ ] } >.0.i.y.q.7.0.",
"w.y.h.u.7.q.p.i.d.p.e.t.t.s.x.D.^.N.N.k.4.i.1.3.e.d.n.s.8.o.| ..;.<.:.2.3.7.8.O.'  .o.*.=.q.u.$.o.O...' / ^ / ] +.2.t.i.t.e.t.a.",
"t.i.u.7.9.t.i.a.p.u.e.t.f.j.v.G.T.N.v.f.i.t.3.O.-.y.t.l.2.O...+.2.7.;.7.7.;.5.:.o.2.#.{ @.e.m.y.4.2.%.O.:.@.@...<.p.s.q.7.y.d.h.",
"u.r.e.y.i.f.g.s.y.i.i.f.x.h.x.B.Z.K.Z.i.5.>.-.o.+.5.i.g.w.&...4.a.u.7.6.r.7.8.t.9.;.4.:.3.s.B.x.u.w.>.+.0.w.7.6.u.a.j.w.y.z.m.n.",
"y.y.i.s.g.f.j.f.d.d.s.s.d.d.l.B.I.W.v.7.&.#. .X.@.-.a.x.q.+.#.j.s.9.q.0.w.t.q.q.y.7.t.i.r.r.z.Z.d.p.p.s.g.g.j.v.n.n.z.c.c.B.b.i.",
"p.l.n.x.g.g.x.z.j.p.a.s.a.k.n.c.L.F.d.<.%.O.+.#.&.>.f.p.3.O.,.u.9.1.w.u.u.a.t.6.:.w.u.i.g.w.y.Z.c.g.x.j.B.S.Z.C.B.l.k.B.N.n.b.d.",
"b.b.G.V.m.x.c.l.k.t.i.e.a.v.l.z.M.c.e.:.$.+.o.$.,.s.h.w.i.6.7.e.e.a.r.e.a.d.p.y.q.1.q.f.p.p.s.M.N.A.c.M.A.A.H.F.S.m.c.C.V.Z.D.N.",
"n.v.A.V.z.x.g.s.p.t.e.y.u.j.l.k.z.n.g.4.@.#...| t.l.h.a.w.u.e.t.p.f.t.y.y.u.i.t.j.u.5.0.p.d.i.m.x.C.m.L.K.K.L./.oX^.P.B.M.M.V.N.",
"l.z.l.k.f.i.e.a.y.0.r.a.i.k.k.b.N.N.a.2.;. .] +.z.s.-.y.z.h.g.f.d.k.i.e.8.e.p.e.y.r.a.g.l.v.v.N.B.S.H.Y.Y.L.H.~._.R.Z.z.m.D.V.M.",
"x.h.i.p.t.s.p.i.d.g.p.k.N.A.B.D.v.g.7.2.0.<.@.1.u.4.4.u.f.p.j.u.t.i.r.r.q.q.i.e.y.w.p.g.p.k.M.C.G.Z.K.P.K.P.E.E.U.V.n.N.S.V.C.n.",
"v.k.p.a.s.h.f.f.m.C.c.v.Z.N.c.s.p.u.s.d.k.v.q.1.9.5.8.q.e.a.i.t.e.y.a.a.t.w.s.d.i.9.y.g.l.j.V.A.M.v.v.N.S.Y.P.P.Z.m.M.c.m.S.b.Z.",
"v.l.f.d.p.d.h.b.m.b.g.d.g.f.j.h.k.j.k.p.l.y.;.0.u.4.5.0.w.a.t.p.y.j.l.g.s.y.u.y.e.r.y.g.z.l.B.B.k.K.J.b.C.K.H.G.z.a.g.l.k.x.g.b.",
"c.x.d.u.a.s.l.l.g.a.y.l.s.d.j.c.N.b.j.d.q.r.r.a.w.5.8.2.6.i.a.d.s.g.f.f.l.g.a.u.r.r.i.a.d.l.A.A.c.K.U.x.M.D.G.S.x.d.t.r.u.y.y.f.",
"j.l.i.t.r.r.f.i.i.l.z.l.g.g.k.l.k.f.a.t.q.z.z.a.f.s.y.2.9.j.h.p.u.s.p.l.x.z.j.t.q.w.f.p.t.h.S.B.N.c.b.l.v.n.z.h.s.q.,.@.%.;.7.a.",
"a.p.q.7.7.3.5.9.w.d.j.h.a.i.d.s.d.g.d.r.t.g.g.x.n.k.s.p.f.x.a.w.e.q.p.j.s.h.h.i.w.r.s.h.c.N.x.B.C.B.x.b.b.d.w.q.p.4.o.` [ | 4.r.",
"r.q.2.1.;.;.%.:.,.7.p.i.t.y.y.u.l.z.0.6.u.a.p.x.N.B.z.l.g.d.y.9.6.3.9.9.0.y.f.p.e.y.i.c.m.h.l.V.M.Z.x.s.s.8.<.:.w.$./ / ( ' <.e.",
"i.9.&.' { &.` { O.4.y.r.9.7.r.a.j.u.q.t.a.0.r.d.z.k.h.y.t.u.0.1.:.$.&.=.>.8.i.w.w.i.l.c.j.f.M.C.j.a.t.4.1.-.&.=.%._ / Q T ! O.e.",
"<.%.[ ^ ` ..( ! ^ O.6.0.5.:.4.a.u.y.n.h.u.d.a.y.u.a.i.i.r.e.0.<.-.'  ...o.<.:.>.4.i.u.y.e.q.g.f.w.1.:.*. .] ( ( ] ( Q T K I } 6.",
"! ^ ^ ' ] } / / ` '  .:.-.$.1.i.u.h.k.l.b.z.g.s.p.s.a.g.t.q.8.=.=.|  . .| } [ ' |  .( '  .X.@.<.4.} { ) E R T Q / ^ ! T K J U ) ",
"U R Q / ^ ( ^ _ [ ' ] o.#.*.4.0.y.s.l.c.N.B.m.z.j.s.s.p.s.9.1.1.2.@.=.>.#.[ ] ] ) Q W ~ { #.&.$.-._ ! Q E T ! ! / ` ^ W Y U L I ",
"T E ~ ~ ^ _ ` ` ' [ ' { X.+.:.t.y.d.l.c.z.v.f.f.k.d.s.x.g.6.>.2.7.>.-.=.=.[ ` ] ` ! Q ' +.O.X.| @.{ ! ! ! E ~ ~ ( ` / ! T U P I ",
"T R ^ / ) ' ] [ ' ] } {  .$.%.7.w.i.g.g.a.a.w.0.w.q.e.w.t.9.<.4.8.6.2.=.@./ ! ( ^ ~ ` +.@.'  .o...' ! Q Q ! ^ ( ^ ^ ( ! T I I I ",
"R R / / ~ / ' _ ( _ } ..&.-.%.=.4.w.d.i.r.u.p.t.q.w.0.9.8.8.3.4.3.;.=.o.] ^ ^ ~ W W ^ ) / ' ..{ { ( Q ~ Q W Q ~ W ! / Q Q T U P ",
"E ^ ~ ^ ! ! _ ) W _ ..} %.*.=.=.2.w.0.u.p.a.h.k.u.y.8.4.1.>.<.,.$...] ( / / Q E R R Q ~ ~ ( ] _ ^ E T Q R E R Q E E / _ ~ E R U ",
"/ ] Q / ) _ ( / Q ' | } @.O.@.+.:.<.6.f.h.u.r.y.w.w.5.:.<.-.-.#.` ) / E R T T Y Y I R E W ~ [ / ! / W Q W ! W ( E T ) ~ ! Q Q W ",
"/ _ ~ ^ ) ( ^ ( ^ ~ _  .#.1.:.X.;.6.u.p.j.w.e.i.w.6.6.>.,.:.,.$.( W W U L J I Y U T Y Y Y Q { _ Q _ ^ ) ( / ' %.Q R ^ ! Q ~ W T ",
"' / } X.' / ~ _ } X.X.| O.>.>.X.+.<.i.e.q.4.e.p.w.<.=.-.<.>.:.$.{ T T P J G K K U R R T ! _ { / / ! ! ~ _  .X.o.^ Q _ ) ( _ E T ",
"/ ^ X.&.| [ } o.#.X.$.*.-.:.%...O.;.s.2.{ _  .7.w.6.#.@.2.6.1.+. .! R U P P L K T R T T ^ ` X.{ ~ ^ W ! ) { ..[ ] _ _ ( ! _ ! ~ ",
"~ ^ ( ' _ ..;.:.=.@.O.%.>.<.>.#.&.4.2.} _ [ ) } ,.1.O.X.,.5.0.,.+.~ W T L U P P Y ~ T R / `  .X.E U / ( { ( ` _ ) } ~ ` [ [ ) ` ",
"^ ) ` ` ( { :.;.<.&...X.<.3.-.o.#.%.X.( ( [ ] ' X.$.#.%.,.9.u.t.q.X.^ R P K L I U T Q ~ ) ` ..' R ^ _ { o.o.[ ....} ` _ [ ` ^ ' ",
") ' ' ) Q / @.,.<.:.#.| } >.;.=.} [ { ( W ^ ' ] { ..#.>.<.r.f.d.i.6...Q U I P L L L Q Q [ { { } ! } X.} 2.5.;.%.#.{ _ ( [ ) ) ) ",
"] [ ' _ ( ( [ =.-.=.%.} (  .0.3.+._ { ) / ) ) ) ( ` | ;.>.7.u.a.k.i.%.Q T Y K H L W ( _ @.+.O.o.( ~ [ #.:.-.*.*.:.X.` [ ' [ } ) ",
"[ ' } | ] / ^ ( @.2.<.*.-.2.,.=.O./ ] ] ) / ( / (  .O.[ ..8.e.s.s.5...W I I I T Q ^ [ @.:.&.#.| W Q } :.>.,.&.&.5.-.%.+. ...| } ",
"| { o.] ! / ^ ) =.5.e.p.8.0.7.;.' ~ ( _ / ^ ` ) ) | O.X.#.6.9.8.<.} ^ R I U I U W ) +.;.3.;.=.` / ] ..,.,.w.,.*.3.7.<.;.$.&.O...",
"+.+.+.' o.O.@.-.1.3.q.p.5.1.>.| ! ! Q ^ ^ / ] ) _ ] } +.2.q.0.5.=.' ^ R T T P I Q (  .*.2.3.&.' _ { ..=.1.1.,.=.>.9.4.,.=.#.*.,.",
";.X.+.%.>.2.>.>.,.2.<.6.>.-.+._ R W R W ^ ( ( _ ' { O.*.2.6.3.;.X.{ ) E I K K L W ] ] @.1.$.X.{ ( ` } O.;.,.2.w.g.g.6.,.-.*.:.-.",
"*...` _ ..:.&.,.2.>.&.%.$.&...] W R E ! / ^ ^ ) _ ' X.$.-.*.*.+...) ~ T I I I J ~ { W o.-.) ) } +.X.o.} $.>.5.l.C.N.0.&.-.*.-.%.",
"X.X.} _ } $.$.-.&.o...o.@.} [ { ( Q ~ ^ ~ ! ) ( ( ( } O.+...| o.] ! / R I I U K ! ] ` $./ Q [  .| &.%.+.-.>.$.,.p.u.4.*.*.&.;.=.",
"..| [ ( ^ ! [ +.{ ^ ( )  .+.X.{ { [ W Q ~ ) ' / ~ / | | ..#.| ;.@.^ ) W I L K J E E ` ` ! ( } { ) { #.&.;.#.%.#.@.+.$.*.%.=.*.&.",
"o.] _ ( E K W | ' ) ( ~ ! [ ] / } O.] E / ] ( ^ ) ` { ] ` %.*.:.$.^ ! R Y K J P T U Q ^ / ^ ( [ ( ` } &.:.-.@.@. . .O...} @.*.O.",
"` ~ ) ^ R T ) } / ( ( ! ! ) -.-. .{  .~ ! _ _ / _ ` [ ] ` -.:.&...) W R I G Y ~ T I Y E ! ! ` | | } X.&.+.;.&...X.O._ ^ | X.@.+.",
"^ ~ { |  .....O.' Q W Q W ! 1.d.%.[ { 4.O.Q / / ) _ _ ) _ $.O. .X.} ^ ( R Y T R I L U Q ^ R ! ~ X. .{ O.@.1.>.X.o.} / E _ } | ` ",
"L W / ..-.;.:.:.*.` R R U ! } -...^ ' q.y.} ' ^ W ) ) ~ _ X. .#.1.*.] ( R T I U I P U W ! ] ` ( [ O.[  .-.-.-.%.O.` ( ' ( { [ P ",
"T ~ ] $.9.4.-.5.>.o./ E K W } ' { +.*.X.:.%.%.] R W / ! | #.+.@.o.@.| ] Q U Y ( W Y E ~ ! [ ! X.] ..{  .$.X.*.5.@.' / ` | } ) P ",
"! ' { $.7.3.>.9.3.$...] W ^ ' ] o.#.4.,.O..._ E ..~ Q ^ _ @.;.1.} } o. .^ T Y ^ W R / ) E ~ ) [ { } ` ) { ' O.:.$.[ ( / | _ ` ~ ",
"' / ^ @.,.>.>.-.:.<.*.O.X.} ..;.2.1.9.X.! Q L K W Y Y Q ^ #.;.<.4.:.-.O./ E E Q Y R ! ^ W ] O.' ( ` ! / ` _ X.*.%.| _ ) ` _ ` _ ",
"o._ / o.+.:.7.%.5.y.,.o.&.%.@.e.8.>.*.+.E I Y I P U Y Q ! { >.3.u.w.<.| ( _ ! W T T ( [ [ <.*.$.' ' ~ { O.[ #.*.#.O..._ [ ' [ } ",
"=.O.+.{ } O.=.,.r.i.7.,.4.6.<.8.8.7.=.| R U R Y U Y T Q ~ ^ X.<.7.7.,.O.[ =.) Y T R ! _ X.;.<.} ~ ^ / X.#.*.;.-.*.X.+...' | #.1.",
"<.;.O._ ] +.@.3.7.7.5.r.f.s.u.r.r.6.*.( P L L L I / ! / ( Q ( { 2.<.=.#.+.,.] E T ~ ! ! } :.| E R ! ] X. .-.;.-.-.| @.&.%.&.#.>.",
"2.3.&.` ] $.-.7.e.e.q.t.c.M.i.q.9.<.#./ U I P Y P ~ ( Q T E W )  .$.=.=.:.1.| W W Y T ! _ o.W W W / ` [ +.=.*.=.| [ [ 2.t.9.;.:."
};
