/* XPM */
static char *_35f75357f89423593d6f7a28e9ce1d2[] = {
/* columns rows colors chars-per-pixel */
"64 64 256 2 ",
"   c black",
".  c #010101",
"X  c #020202",
"o  c gray1",
"O  c #040404",
"+  c gray2",
"@  c #060606",
"#  c #070707",
"$  c gray3",
"%  c #090909",
"&  c gray4",
"*  c #0B0B0B",
"=  c #0C0C0C",
"-  c gray5",
";  c #0E0E0E",
":  c gray6",
">  c #101010",
",  c #111111",
"<  c gray7",
"1  c #131313",
"2  c gray8",
"3  c #151515",
"4  c #161616",
"5  c gray9",
"6  c #181818",
"7  c #191919",
"8  c gray10",
"9  c #1B1B1B",
"0  c gray11",
"q  c #1D1D1D",
"w  c #1E1E1E",
"e  c gray12",
"r  c #202020",
"t  c gray13",
"y  c #222222",
"u  c #232323",
"i  c gray14",
"p  c #252525",
"a  c gray15",
"s  c #272727",
"d  c #282828",
"f  c gray16",
"g  c #2A2A2A",
"h  c gray17",
"j  c #2C2C2C",
"k  c #2D2D2D",
"l  c gray18",
"z  c #2F2F2F",
"x  c gray19",
"c  c #313131",
"v  c #323232",
"b  c gray20",
"n  c #343434",
"m  c #353535",
"M  c gray21",
"N  c #373737",
"B  c gray22",
"V  c #393939",
"C  c #3A3A3A",
"Z  c gray23",
"A  c #3C3C3C",
"S  c gray24",
"D  c #3E3E3E",
"F  c #3F3F3F",
"G  c gray25",
"H  c #414141",
"J  c gray26",
"K  c #434343",
"L  c #444444",
"P  c gray27",
"I  c #464646",
"U  c gray28",
"Y  c #484848",
"T  c #494949",
"R  c gray29",
"E  c #4B4B4B",
"W  c #4C4C4C",
"Q  c gray30",
"!  c #4E4E4E",
"~  c gray31",
"^  c #505050",
"/  c #515151",
"(  c gray32",
")  c #535353",
"_  c gray33",
"`  c #555555",
"'  c #565656",
"]  c gray34",
"[  c #585858",
"{  c gray35",
"}  c #5A5A5A",
"|  c #5B5B5B",
" . c gray36",
".. c #5D5D5D",
"X. c gray37",
"o. c #5F5F5F",
"O. c #606060",
"+. c gray38",
"@. c #626262",
"#. c gray39",
"$. c #646464",
"%. c #656565",
"&. c gray40",
"*. c #676767",
"=. c #686868",
"-. c DimGray",
";. c #6A6A6A",
":. c gray42",
">. c #6C6C6C",
",. c #6D6D6D",
"<. c gray43",
"1. c #6F6F6F",
"2. c gray44",
"3. c #717171",
"4. c #727272",
"5. c gray45",
"6. c #747474",
"7. c gray46",
"8. c #767676",
"9. c #777777",
"0. c gray47",
"q. c #797979",
"w. c gray48",
"e. c #7B7B7B",
"r. c #7C7C7C",
"t. c gray49",
"y. c #7E7E7E",
"u. c gray50",
"i. c #808080",
"p. c #818181",
"a. c gray51",
"s. c #838383",
"d. c #848484",
"f. c gray52",
"g. c #868686",
"h. c gray53",
"j. c #888888",
"k. c #898989",
"l. c gray54",
"z. c #8B8B8B",
"x. c gray55",
"c. c #8D8D8D",
"v. c #8E8E8E",
"b. c gray56",
"n. c #909090",
"m. c gray57",
"M. c #929292",
"N. c #939393",
"B. c gray58",
"V. c #959595",
"C. c gray59",
"Z. c #979797",
"A. c #989898",
"S. c gray60",
"D. c #9A9A9A",
"F. c #9B9B9B",
"G. c gray61",
"H. c #9D9D9D",
"J. c gray62",
"K. c #9F9F9F",
"L. c #A0A0A0",
"P. c gray63",
"I. c #A2A2A2",
"U. c gray64",
"Y. c #A4A4A4",
"T. c #A5A5A5",
"R. c gray65",
"E. c #A7A7A7",
"W. c gray66",
"Q. c #A9A9A9",
"!. c #AAAAAA",
"~. c gray67",
"^. c #ACACAC",
"/. c gray68",
"(. c #AEAEAE",
"). c #AFAFAF",
"_. c gray69",
"`. c #B1B1B1",
"'. c #B2B2B2",
"]. c gray70",
"[. c #B4B4B4",
"{. c gray71",
"}. c #B6B6B6",
"|. c #B7B7B7",
" X c gray72",
".X c #B9B9B9",
"XX c gray73",
"oX c #BBBBBB",
"OX c #BCBCBC",
"+X c gray74",
"@X c gray",
"#X c gray75",
"$X c #C0C0C0",
"%X c #C1C1C1",
"&X c gray76",
"*X c #C3C3C3",
"=X c gray77",
"-X c #C5C5C5",
";X c #C6C6C6",
":X c gray78",
">X c #C8C8C8",
",X c gray79",
"<X c #CACACA",
"1X c #CBCBCB",
"2X c gray80",
"3X c #CDCDCD",
"4X c #CECECE",
"5X c gray81",
"6X c #D0D0D0",
"7X c gray82",
"8X c #D2D2D2",
"9X c LightGray",
"0X c gray83",
"qX c #D5D5D5",
"wX c gray84",
"eX c #D7D7D7",
"rX c #D8D8D8",
"tX c gray85",
"yX c #DADADA",
"uX c gray86",
"iX c gainsboro",
"pX c #DDDDDD",
"aX c gray87",
"sX c #DFDFDF",
"dX c gray88",
"fX c #E1E1E1",
"gX c #E2E2E2",
"hX c gray89",
"jX c #E4E4E4",
"kX c gray90",
"lX c #E6E6E6",
"zX c #E7E7E7",
"xX c gray91",
"cX c #E9E9E9",
"vX c #EAEAEA",
"bX c gray92",
"nX c #ECECEC",
"mX c gray93",
"MX c #EEEEEE",
"NX c #EFEFEF",
"BX c gray94",
"VX c #F1F1F1",
"CX c gray95",
"ZX c #F3F3F3",
"AX c #F4F4F4",
"SX c gray96",
"DX c #F6F6F6",
"FX c gray97",
"GX c #F8F8F8",
"HX c #F9F9F9",
"JX c gray98",
"KX c #FBFBFB",
"LX c gray99",
"PX c #FDFDFD",
"IX c #FEFEFE",
"UX c gray100",
/* pixels */
"4.i.B.m.G.m./.Q./.M.0.e.0.m.M.I.f.y.3.4.>.| +...R 2.y...0.e.;.S.K.m.H.g.4.,.K.0.>.>.9.f.l.r.8.x.S.Z.n.C.B.L.g.u.Z.v.n.Z.K.H.q.d.",
"1.,.f.z.B.s.#.&.V.).y.k.k.L.P.^.y.U t.$.*.' &.1.;.8.B.x.V.Z.:.E.m.s.m.P.b.4.o.C X.d.M.f.n.M.f.v.7.| K.N.h.S.n.c.G.n.V.n.V.T.n.f.",
",.( w.q.q.C.j.,.R Y.H.M.w._ ^ v.].{ 1.7.#.+.O.#.-.%.q.U.f.| c q.6.D ~ q.B.f.@.F i m.T.n.f.k.p.m.W.X.F.C.j.k.j.n.K.G.B.L.t.>.@.f.",
"c.y.>.7.X.E._.n.| p.v.6.[ L c c ( ,.3.4.5.>...` ` O.&.Z.z.,.S R v.6.c v %.z.r.@.P B.K.c.e.8.w.X.2.<.V.S.M.l.b.d.v.b.p.H.z.f.k.$.",
">.B.u.1.@.v.T.m.5.7.u.t.d.r.=.U a N 2.2.4.q.h.e.[ / U x.Q.1.{ 7.l.S.C a 4.e.a.0.s.z.x.x.M.h.u.i.*.@.u.V.z.m.S.l.i.6.1.h.o.X.A.L.",
"8.c.k.q.| ^ o.X.o.w.S.K.z.e.x.y.P k 5.M.N.d.l.c.0.| x =.L.9.X.k.M.c.~ { p.) ` -.z.j.w.4.c.g.g.V.F.z.z.N.g.i.V.B.8.[ U 6.s.T U M.",
"s.b.M.n.>.W $.{ G >._.W.g...P 6...K 4.j.t.c.y.f.x.x.8. .t.N.4.@.,.&...6.-.9.g.b.b.f.w.1.4./ I s.F.b.z.0.6.w.j.u.;.;.'  .k.j.Y L ",
"' G.).L.n.r.6.=.P / T._.(.F.O.7.$.&.g.q.e.A.M.s.f.x.l.8...} E h n B W ` _ t.M.C.S.i.>.4.R.k.{ 5.p.e.5.=.P 9.g.B.x.f.q.3.' _ F f ",
"B s.F.z.n.l.s.,.%.L 6.^.).P.k.e.6.4.D.F.h.b.9.0.x.l.g.k.p.X.| &.' G S D $.b.B.h.B.d.1.+.v.n.8.e.g.-.{ #.Q X.Z.K.~.N.d.y.t.<.' i ",
"p ;.S.s.g.x.N.q.,.W ! M.!.D.M.r.] } 1.d.J.H.>. .p.c.y.a.e.t.v.y.4.;.+.} 7.J.Y.x.h.y.9.5.0.t.j.m.s.*.~ ^ 3.;.a.Q._.(.H.c.b.j.7.I ",
"v 4.k.X.j L t.N.w.O.T / 3.4.@.o.} ! R G F.K.h.i.z.J.P.I.E.~.n.6.*.*.=.>.) Q y.F.N.u.q.e.v.b.V.B.n.1. .S 4.&.1.{.OX^.~.L.R.l.b.+.",
"A 0.&.[ I C v 7.t.:.` T ~ ! ) ! =.=.4. .0.r.r.9.f.O.T %.%.[ | l.3.>.<.0.:.( S f.n.a.q.6.h.q.5.2.t.y.w.| @.[ ( n.XX`.!.V.q.^ %.3.",
"/ 0.+.w.-.Q f R a.q.X.{ [ ^ k.J.k.-.L W #.$.@. .L 4 % 7 # 0 z 4.s.y.3.C.l.w.E -.n.s.6.3.j.e.x.J.v.r.+.&.&...Q o.S.'.[.T.j.6.E @.",
"H Y R ' ^ ` P I ;.q.@.| ..O.@.2.x.r.] W / ^ ] y.i.{ B -.B : K 9.C.p.+.v.B.f.*.&.w.6.$.>.6.5.2.p.z.z.9.6.8.8.( ~ | 8.G.|.[.F.5.} ",
"D A J K / P { %.=.O.*.&.:.] ,.r.b.x.y.&.^ D ' !.`.C.:.y.B.L | 8.0.e.2.) 7.d.;.@.%.#.4.$.1.>.u.f.c.x.x.a.0.s.5.3.^ H I :.(.A.<.X.",
"P ! ` K T H ~ E [ } 8.7.p.>.-.b.f.h.j.0.' M N %.`.'.V.<.&.T :.u.t.:.u.( c ! / } *.} @.%.6.0.i.l.l.k.j.j.d.i.8.,.3.#.^ F ^ O.} @.",
"#.&.+.[ *.;.s.%.,.;.>.f.l.s.;.g.g.q.p.r.9.F Y ` Z.}.).z.6.=.w.x.l.i.8.2.! Q 8.<.5.| J | 3.i.t.x.k.s.r.t.f.t.m.w.t.w.5.;.2.y.M.d.",
"4.4.f.4.8.7.e.u.2.7.&.v.N.j.b.z.Z.a.w.e.0.$.o.| L ) 3.<.~ ,.4.y.8.l.h.>._ E #./ ( ;.` / &.u.e.e.s.m.h.a.g.r.i.l.n.F.M.a.u.x.V.n.",
"P N 4.>.*.5.8.t.m.A.k.J.A.z.Z.J.P.m.t.h.b.d.p.y.+.b Y ] P 9.j.4.R J h.u.,.I P ^ { O.;.;.p.a.u.5.O.=.h.N.n.g.g.x.g.z.n.b.f.l.r.$.",
"8.W *.z.#.4.8.<.y.k.P.L.c.J.l.N.Q.H.d.r.d.c.x.f.0.-.-.0.1.:.u.~.t.R [ r.J , 4 F +.;.<.@.8.l.y.8.4.( 0.F.V.L.N.V.z.d.p.s.r.-.[ M.",
"8. .%.a.r.9.r.8.' N ' t.y.j.z.f.C.A.A.f.;.p.H.D.N.a.w.>.p.y.u.E.C.8...o./ a $ 2 ( X.7.m.l.3.4.3.s.] =.z.t.v.R.W.R.D.7.r.B.8.! <.",
"C S U 6.p.#.<.#.a % 6 r n *.g.g.K.Z.B.l. .I b.A.F.v.u.>.d.x.>.p.z.3...5.c.#.v y D B N ` A.w.' <.9.*.-.0.R E S.Y.R./.j.&.j.b.+.K ",
"^ {  .e.c.,._ $.Y x d y s n 8.f.R.m.f.XXD.L 1.v.y.s.g.` _ %.o.U a.J.9.q.W.p.( ..7.2.E m y.0.[ &.3.#.{ M.2.T h.G.A.7.) K I / :.! ",
",.3.9.0.i.2.$.=.n.O.D g E k W a.G.V.=.N.J.[  .&.[ =.[ U  .3.8.p.| U.t.O.,.q.#.=.Q.A.0.L ' O.~ ~ ` 5.R -.*.` 8.a.} f p 9 1 * R i.",
"V.1.*.2.#.1.w.) =.4.o.I ` j l 3.8.e.p.3.i.e.q.0.#...P P t.'.`.x.;.I.N.;.E D P C y.~.g.` ! _ ( | +.0.2.L A >.t.7.,.' Q z 2 3 U L.",
"G.a.#.$.+.;.i.q.' ( [ ' ( m b 7.:.3.j.a.h.w. .=.0.#.=.F 3.U.{.N.j.A.k.&.+.:.#.] -.;.O...W ) :.r.7.y.e...Y | 0.v.A.d.7.b s a W P.",
"z.r.6.>.( m -.y.t.r.1.3.1.P H f.f. .0.g.f.,.9 b 8.Q x.p.-.3.r.a.j.d.C.u.O.O.f.m.b.&.,.u.{ +.9.9.<.*.1.{ $.8.<.n.`.8.V.g...N C F.",
"x.8.&.&.-.t c ] =.e.a.r.y.@.>.F.k.4.0.2.y.p.K G { Z s P +.=.%.9.k.t.l.N.x.&.I +.N.h.u.a.0.0.j.k.a.&.+.W ) j.z.V.[.x.3.v.s.W I n.",
"r.f.q.| <.@.v ] _ #.8.q.2.7.d.i.1.@.4.4.[ <.W E R G r t ] &.<.u.x.p.7.r.p.B.@.M +.B.g.h.i.r.l.U.V.t.O.F K t.;.n.}.(.p.l.c.*.{ >.",
"} $.#.,.W 0.X.Y I Y E | ] =.I _ &.3.g.f.^ z C K W ! ! m ( *.>.q.r.b.<.+.X.G.Q.5.O.x.v.c.y.t.X.N.U.d.<.I N V K y._.@X}.n.a.w.=. .",
"6.X.I  .&.[  .P N 8 4 g N +.U g *.*.s.g...G U ^ } Q U J ! ! @.7.:.q.y.1.=.&.t.0.0.r.j.r.( #.Y E V.p.7. .K L D ) 2.e.s.6.,.*.=.` ",
"7.2.[ L 6.i.@.| *.x 5 4 r +.a.' 4.6.s.h.;.( E G Q / Q T / Q _ 8.4.<.z.h.p.t.7.4.v.c.y.>.' 3.u.*.g.c.q.^ O.1. .E } ' ` ' w.8.u.;.",
"f.b.<.~ ( q.U.m.d.T g h ) q.e.1.h.k.b.c.&.^ +.~ ^ ( ] '  .| o.>.,.9.g.z.c.c.I.z.H.M.k.0.v.y.7.u.m.A.z.+.[ ,.j.4.g.x.t.;.d.x.z.z.",
"l.C.u.>.#.=.X.[ 8.X.J F $.S.s.2.$.) V.k.2.o.2.o.( / o.X.$.O.@.l.t.j.n.s.y.g.#.) j.E.v.3.k.P.k.e.=.! B.s.*.:.-.q.m.m.B.i.f.x.S.Q.",
"/.T.J.m.j.s.:.Q M 1.] / 6.s.X.4.i.S a.h.d.a.n.e.3.*. .+.T b w =.M.k.C.s.6.k.a.#.Y V.H.g.9.k.0.s.v.V ;.:.<.X.&.;.z.c.M.V.3.T ^ M.",
"w.$.#.h.b.Q.b.8.{ a.#.%.<.} F G K H [ } 0.C.C.N.z.*.D [ U J p r b.F.j.3.=.[./.x. .r.b.N.y.8.1.=.&.U { ] ' } $.q.w.5.2.c.0.] E V ",
"A A g E <.Q.[.<.@.=.{ 1.4.0.9...J ! ..+.w.M.K.C.N.%.C -.3.~ L i $.V.q. .^ N.$XH.n.l.l.b.C.F.b.r.-.W E } ) / ) =.6.&.:.~.).q.} v ",
"` 3.K k U n.N.3.O.X.1.&.$.-.e.i.=.8.t.6.h.S.d.<.e. .M ' s.@.R z G d.2.@.o.} u.M.T.J.H.V.Z.N.L.V.v.0.' { +.` ! | <. .] C.&XD.z.>.",
"=.t.} v 8 2.F.z.2.6.2.E [ p y +.| O.n.k.k.u.&.N Q @.R c ` -./ P D ] ..[ ( Q r.9.v.H.m.s.t.+.{ M.V.j.<./ ] +.' E Q L / E t.'.{.V.",
"e.u.O.J a R p.B.B.2.T +.g.+.Y <.u.2.d.j.-.r.s.e.{ -.o.U n f a H ~ O.Y R T V W %.5.D.H.b.!.A.+.r.d.l.v.6.Q ..| { ) R ..} I 8.`.F.",
"z.h.f.7.7.1.4.i.B.*.*.P ,.k.4.t.8.W } >.-.d.J.F.u.3.[ ^ ` F c W %.} ^ Q R R K ) x.A.F.u.G.F.t.a.j.p.b.M.,. .} { ,.*.8.p.[ Q D._.",
"g.*.&.u.f.4.g.D.0.5.<.D ( 0.w.i.$.b r g N T 3.f.i.u.[ { $.! A ) 1.=.@.T Q 1.@.O.4.O.*.f.m.c.b.C.g.6.=.@.=.o. .{ @.5.u.h.f.%.W =.",
"[ Y W } J j =.p.-.>.' ' >.5.3.t.#.a 2 X > 3 0 @.e.*.&.8.3.{ >.5.t.s.O.I C c ) 1.{ N h | M.m.n.h.c.5.=.P @.$.Y U } <.y.j.Y.w.t.@.",
"u.7.<.1.) z B 9.<.| ~ 4.7.[ O.#.) x H a y r < j $.$.o.;.W i K ;.' #.E { } T Q &.| Q l j 0.l.w.$.e.i.g.,.w.w.o.L I O.F.T.y.{ 7.B.",
"p.h.8.v.>.$.F X.k.O.{ 5.4.R 0.R.e.P e s P J 6 : ^ -.o.o.Y m 5 W S b j +.+.5.t.2.5.` j 9 8.c.H.B.s.t.&.2.u.a.5.-.T ! =.U.E.r.F a.",
"c.v.;.K.z.5.[ [ z.&.{ ,. .K I p.z.t.H c H ( M g W [ [ s.7...m Z L C v W E r.!.x.s.` z e #.d.y.s.r.h.7.t.w.a.y.8.o.( y U x..X8.6.",
"S.S.5.@.:.) { ,.z.1.W W ] n x l.^.B.8.E C G L v ' ^ K ! w.&.W K H I o.W U ~ M.Q.T.5.P p ( 3.d.g.a.t.y.e.0.u.s.w.o.,.x d ^ L.U.t.",
"C.F.k.6.P D T { 2.e.) D J k t >._.Y.M.1.%.X.W c / ~ G g D A B S L X.p.#.P f A +.m.Z.5.]  .4.e.i.l.i.t.u.g.u.i.4.#.A.7.M S 1.K.B.",
"m.E.K.j.( Q #. .-.} +.R F F u y :.I.[.B.k.>.*.Q ] ] P K S D Y A k ( w.e.6.( R k / 3.8.e.>.5.+.( ;.d.d.f.v.k.R.h.q.4.m.<.&.1.g.C.",
"w.F.Q.c.R G W @.k.$.O.( G L S e j e.+XW.g.2.&.3.3.7.` ~ I U ` #.N } z.e.q.@.T I +.h.d.h. .1.%.T _ 9.s.c.N.v.C.U.k.^ ' [ o.r.7.u.",
"T T n.x.( F Z K &.2.,.-.[ Q I S j h [ 7.=.%.*.1.>.&.W Q E R [  .k g g.V.h.9.( K ' f.y.7.u.p.1.' / } -.f.K.p.( +.x.#.-.3.-.u.p.7.",
"z.X.9.D.;.} Q L L ' <.&.:.-.,.;.T A ~ [ ' ,.0.r.9.=.( ~ o.` Y 7.#.f ` n.w.,.R H X.5.e./ H  .9.5.) A T Q d.I.u.R %.l.1.y.5.=.6.'.",
"U.f.y.c.s.w.$.' Y H *.i.t.y.N.C.w./ #.` I 8.l.f.i.8.O.7.2. .H 6.k.! ] 4.p. ./ ) ~ K ^ %.m - z M.j.Q f e | }.OXe.{ L.9.4.u.9.=.c.",
"$.>.5.y.h.Z.y.1._ k t I N.S.m.G.K.t.)  .P J p.i.d.d.%.O.t.v.l.,. .^  .+.0.2.U T m x m v E u 5 9.Y.w.D h u g.).r.1.K.t.} 8.g.5.7.",
"q.0.q.<.0.x.q.9.m.4.[ l ] #.q.C.m.@.( N.j.U i.y.i.j.4.! ^ | D.A.p.e.7.q.5.[ H F ` I  .t ( P 8 ] $.} I p.R H f.p.w.k.1.W K ) f.C.",
"b.z.7.5.O.9.7.4.E.M.2.n t : 2 P t.g.^ e.g./ >.0.1.2._ Q / { 3.^.V.n.9.g.t.) K | x.@.*.m ..J b %.*.W x 5.%.e H *.*.p.<.' ' v ) J.",
"l.c.z.u.;.:.0.` t.L.C.O.E J w = H I.l.1.7.e.[ / | | ! 3.,.;.d.N.d.4.:.r.h.#.T J &.3.1.+.-.Z T >.8.+.#.J V k ~ *.7.u.p.7.7.&. .s.",
"y.k.z.j.d.f.0.+.! 7.I.i.>.q.` c w 2.W.n.V.d.o.3.<.E Q K o.@.p.r.#.{ +.6.2.&.X.E a p D O.~ m G w.d.y.a.*.4.[ &.d.9.w.b.q.n.g.o.;.",
" .:.V.g.f.V.z.p.$.8.OX%XR.N.y.W w Y k.l.m.k.` ;.2.x Q L ` $.7.p.w.( 3.A.d.} e.5.L z r Z L K ) t.b.r.z.N.n.q.P 4.8._ b.l.7.>.;.} ",
"1.>.v.N.Z.k.5.,.y.%.M.*X#XZ.b.{ Y o...=.r.).2./ ) j 0 h t 2 s +.9.<.a.N.n.[ F { 1.o.J U ! O.6.p.j.z.p.a.V.(.3.g.U.>.) $.X.} E ] ",
"a.y.4.i.p.P.q.v X.e.] e.n.d.w.u.4.7.8.' [ D.8.! G h y c l 9 @ M ,.>.=.,.2.8.~ l S 5.#.{ X.y.n.v.v.x.s.e.7.R.s.k.Z.i.P ' 8.} +.+.",
"g.d.<.1.;.R.U.:.K 9.2.o.) W f T $. .,.o.4.8.p.%.H m U %.p.@.6 z p.f.;.| ) n.x.! F | *.,.X.<.O.A.I.x.b.x.=.*.>.y.C.N.y.$.2.&.9.L.",
"F.S.z.e.0.%.9.8.X.1.l.y.| 2.Y e ' } =.&.u.y.2.{ V d $.(.).i.Q Z 5.b.e.>.&.#.-.T D L :.e.| %.Y / J.c.C.M.t.e.3.-.j.v.h.u.w.) -.D.",
"b.V.B.b.N.5.>.7.x.a.Z.p.K 2.Q.[ W _ ,.r.:.4...U C x P q.oXf.@.i.9.n.c.*.8.o.O._ _ W  .e. .9.k.>.N.5.k.H.v.h.t.r.9.f.a.u.i. .%.y."
};
