/* XPM */
static char *_9e382705fee4fc0fed562925dfc5ebe[] = {
/* columns rows colors chars-per-pixel */
"64 64 256 2 ",
"   c black",
".  c #010101",
"X  c #020202",
"o  c gray1",
"O  c #040404",
"+  c gray2",
"@  c #060606",
"#  c #070707",
"$  c gray3",
"%  c #090909",
"&  c gray4",
"*  c #0B0B0B",
"=  c #0C0C0C",
"-  c gray5",
";  c #0E0E0E",
":  c gray6",
">  c #101010",
",  c #111111",
"<  c gray7",
"1  c #131313",
"2  c gray8",
"3  c #151515",
"4  c #161616",
"5  c gray9",
"6  c #181818",
"7  c #191919",
"8  c gray10",
"9  c #1B1B1B",
"0  c gray11",
"q  c #1D1D1D",
"w  c #1E1E1E",
"e  c gray12",
"r  c #202020",
"t  c gray13",
"y  c #222222",
"u  c #232323",
"i  c gray14",
"p  c #252525",
"a  c gray15",
"s  c #272727",
"d  c #282828",
"f  c gray16",
"g  c #2A2A2A",
"h  c gray17",
"j  c #2C2C2C",
"k  c #2D2D2D",
"l  c gray18",
"z  c #2F2F2F",
"x  c gray19",
"c  c #313131",
"v  c #323232",
"b  c gray20",
"n  c #343434",
"m  c #353535",
"M  c gray21",
"N  c #373737",
"B  c gray22",
"V  c #393939",
"C  c #3A3A3A",
"Z  c gray23",
"A  c #3C3C3C",
"S  c gray24",
"D  c #3E3E3E",
"F  c #3F3F3F",
"G  c gray25",
"H  c #414141",
"J  c gray26",
"K  c #434343",
"L  c #444444",
"P  c gray27",
"I  c #464646",
"U  c gray28",
"Y  c #484848",
"T  c #494949",
"R  c gray29",
"E  c #4B4B4B",
"W  c #4C4C4C",
"Q  c gray30",
"!  c #4E4E4E",
"~  c gray31",
"^  c #505050",
"/  c #515151",
"(  c gray32",
")  c #535353",
"_  c gray33",
"`  c #555555",
"'  c #565656",
"]  c gray34",
"[  c #585858",
"{  c gray35",
"}  c #5A5A5A",
"|  c #5B5B5B",
" . c gray36",
".. c #5D5D5D",
"X. c gray37",
"o. c #5F5F5F",
"O. c #606060",
"+. c gray38",
"@. c #626262",
"#. c gray39",
"$. c #646464",
"%. c #656565",
"&. c gray40",
"*. c #676767",
"=. c #686868",
"-. c DimGray",
";. c #6A6A6A",
":. c gray42",
">. c #6C6C6C",
",. c #6D6D6D",
"<. c gray43",
"1. c #6F6F6F",
"2. c gray44",
"3. c #717171",
"4. c #727272",
"5. c gray45",
"6. c #747474",
"7. c gray46",
"8. c #767676",
"9. c #777777",
"0. c gray47",
"q. c #797979",
"w. c gray48",
"e. c #7B7B7B",
"r. c #7C7C7C",
"t. c gray49",
"y. c #7E7E7E",
"u. c gray50",
"i. c #808080",
"p. c #818181",
"a. c gray51",
"s. c #838383",
"d. c #848484",
"f. c gray52",
"g. c #868686",
"h. c gray53",
"j. c #888888",
"k. c #898989",
"l. c gray54",
"z. c #8B8B8B",
"x. c gray55",
"c. c #8D8D8D",
"v. c #8E8E8E",
"b. c gray56",
"n. c #909090",
"m. c gray57",
"M. c #929292",
"N. c #939393",
"B. c gray58",
"V. c #959595",
"C. c gray59",
"Z. c #979797",
"A. c #989898",
"S. c gray60",
"D. c #9A9A9A",
"F. c #9B9B9B",
"G. c gray61",
"H. c #9D9D9D",
"J. c gray62",
"K. c #9F9F9F",
"L. c #A0A0A0",
"P. c gray63",
"I. c #A2A2A2",
"U. c gray64",
"Y. c #A4A4A4",
"T. c #A5A5A5",
"R. c gray65",
"E. c #A7A7A7",
"W. c gray66",
"Q. c #A9A9A9",
"!. c #AAAAAA",
"~. c gray67",
"^. c #ACACAC",
"/. c gray68",
"(. c #AEAEAE",
"). c #AFAFAF",
"_. c gray69",
"`. c #B1B1B1",
"'. c #B2B2B2",
"]. c gray70",
"[. c #B4B4B4",
"{. c gray71",
"}. c #B6B6B6",
"|. c #B7B7B7",
" X c gray72",
".X c #B9B9B9",
"XX c gray73",
"oX c #BBBBBB",
"OX c #BCBCBC",
"+X c gray74",
"@X c gray",
"#X c gray75",
"$X c #C0C0C0",
"%X c #C1C1C1",
"&X c gray76",
"*X c #C3C3C3",
"=X c gray77",
"-X c #C5C5C5",
";X c #C6C6C6",
":X c gray78",
">X c #C8C8C8",
",X c gray79",
"<X c #CACACA",
"1X c #CBCBCB",
"2X c gray80",
"3X c #CDCDCD",
"4X c #CECECE",
"5X c gray81",
"6X c #D0D0D0",
"7X c gray82",
"8X c #D2D2D2",
"9X c LightGray",
"0X c gray83",
"qX c #D5D5D5",
"wX c gray84",
"eX c #D7D7D7",
"rX c #D8D8D8",
"tX c gray85",
"yX c #DADADA",
"uX c gray86",
"iX c gainsboro",
"pX c #DDDDDD",
"aX c gray87",
"sX c #DFDFDF",
"dX c gray88",
"fX c #E1E1E1",
"gX c #E2E2E2",
"hX c gray89",
"jX c #E4E4E4",
"kX c gray90",
"lX c #E6E6E6",
"zX c #E7E7E7",
"xX c gray91",
"cX c #E9E9E9",
"vX c #EAEAEA",
"bX c gray92",
"nX c #ECECEC",
"mX c gray93",
"MX c #EEEEEE",
"NX c #EFEFEF",
"BX c gray94",
"VX c #F1F1F1",
"CX c gray95",
"ZX c #F3F3F3",
"AX c #F4F4F4",
"SX c gray96",
"DX c #F6F6F6",
"FX c gray97",
"GX c #F8F8F8",
"HX c #F9F9F9",
"JX c gray98",
"KX c #FBFBFB",
"LX c gray99",
"PX c #FDFDFD",
"IX c #FEFEFE",
"UX c gray100",
/* pixels */
"j.<.=.u.d.l.%.! ~ +.} ` 4.6.0.c.x.x.v.C.B.D.F.m.9.y.3.4.:.,.9.v.z.t.3.4.r.s.M.v.g.1.p.m.v.b.v.z.l.v.m.s.d.c.z.l.u.f.a.a.f.N.z.c.",
"j.a.w.f.a.s.t.@.1.u.&.X. ...#.7.w.k.c.m.C.P.F.M.7.d.k.z.h.y.e.w.n.p.s.a.w.e.v.s.u.g.A.B.v.b.s.d.V.k.h.M.q.4.w.c.c.d.u.r.y.v.C.t.",
"j.p.d.i.i.t.r.d.q.2.k.z.e.) ) :.j.z.f.b.D.F.A.v.x.z.v.n.Z.d.+.0.k.0.s.m.5.*.p.u.v.H.v.l.v.B.B.N.v.u.i.b.0.u.h.x.c.f.r.4.2.0.g.f.",
"s.a.t.u.r.7.4.u.X.E t.x.x.,.#.p.V.c.x.l.z.b.N.x.l.3.7.k.b.0.{ >.s.u.a.M.2.,.d.v.C.d.2.i.j.i.b.v.b.j.g.i.6.s.y.w.g.f.8.-.+.1.9.r.",
"u.t.i.f.f.q.2.9.5.4.u.q.u.r.g.5.t.V.F.k.g.m.m.m.k.w.w.k.z.4.;.q.s.N.J.p.-.0.k.D.v.9.d.y.w.a.7.g.B.g.i.j.x.e.5.-.h.c.x.8.:.+.;.5.",
"a.d.w.e.d.7.&.@.3.4.,.%.w.w.q./ *.V.m.x.l.c.j.x.z.b.v.z.i.5.;.5.l.Z.l.6.&.;.c.F.s.8.9.{ ` q.k.k.s.f.p.x.u.9.M.c.y.0.z.3.4.%.3.7.",
"5.t.>.%.3.*.$.+.>.#.*.@.q.9.y.7.s.f.h.x.l.p.z.m.m.v.v.s.4.w.y.i.Z.V.e.9.<.=.d.v.1.3.4.~ J ` 1.9.z.d.a.y.h.c.v.1.a.c.9.o.8.w.1.5.",
"r.u.5.%.O.=.,.=.<. .#.#.e.i.;.1.q.q.z.N.c.r.m.N.v.m.c.c.k.B.N.M.G.l.7.4.6.O.q.C.w.<.} :...,.y.j.q.;.w.6.p.s.k.r.m.h.' ^ | ..$.t.",
"s.s.8.<.$.4.e.0.8.0.3.=.4.a.1.;.0.2.t.x.k.h.j.M.h.Z.x.v.c.b.C.s.h.0.>.>.>.:.s.V.9.r.e.f.a.x.u.u.,.<.@.>.0.w.f.a.p.>.~ ] $.&.| >.",
"x.e.t.e.6.i.w.a.w.g.$.>.u.d.a.u.y.<.4.z.m.p.g.P.I.H.B.v.c.C.B.r.x.6.<.<.:.3.8.l.j.y.p.p.h.s.*.;.>.q.} %.w.w.p.e.,. .] #.=.7.r.i.",
"l.j.f.j.j.8.-.p.p.e.0.i.t.d.u.s.f.6.y.f.v.M.H.K.D.N.j.x.b.D.D.B.B.e.r.6.t.e.$.:.l.s.k.5.s.y.,.%.4.$.^ @.w.+.:.$.o.` =.6.$.y.a.l.",
"u.z.v.k.h.u.y.p.i.r.f.2.>.i.l.b.l.a.j.$.<.A.b.4.u.r.,.r.B.G.x.s.b.d.8.7.r.2.,.=.d.v.m.z.k.p.;.;.;...^ #.-.,.*.%.>.<.q.9.d.4.q.a.",
"p.c.m.k.i.l.d.k.g.d.k.y.i.i.p.h.f.u.i.O.&.z.e.u.y.6.O.0.A.v.i.j.M.x.9.8.3.3.8.*.z.M.m.b.v.z.0.%.$.#.O.-.#.o.' / :.e.t.r.h.:.e.p.",
"k.g.t.s.9.h.h.l.h.z.e.k.j.z.d.g.h.j.p.h.j.g.e.w.6.3.<.:.h.e.1.u.v.x.d.r.9.w.6.u.n.v.k.x.c.j.u.q.,.;.%.$.&.{ O.` ;.7.y.d.h.p.k.i.",
"d.9.*.-.p.v.C.C.C.V.t.7.g.l.r.k.v.v.z.v.B.N.k.f.r.2.7.3.d.8.>.3.0.g.p.s.u.w.5.:.8.j.b.M.l.j.a.x.a.y.0...&.>.e.4.&.s.s.s.d.l.b.k.",
"y.6.=.5.d.b.C.H.V.v.q.#.0.u.w.z.c.c.x.x.B.a.B.z.v.s.i.t.s.1.O.4.q.g.a.r.q.3.2.e.7.f.F.L.z.v.v.M.j.0.w.<.q.V.V.g.h.M.d.f.l.x.h.y.",
"d.8.>.q.s.n.z.S.Z.k.e.2.&.1.2.x.s.i.q.u.A.N.N.f.c.f.r.s.p.<.&.r.i.f.u.u.r.,.2.y.2.d.Z.C.f.x.N.k.h.f.s.=.e.N.B.c.M.b.5.;.a.g.d.i.",
"g.y.g.t.1.;.>.a.c.N.c.t.6.6.8.w.:._ E { 8.2.r.f.g.g.9.p.f.6.<.h.x.l.p.p.y.0.w.t.<.z.C.M.f.j.l.y.g.h.8.r.l.n.B.n.Z.w.%.o.$.8.h.d.",
"p.j.x.N.t.%.$.=.2.N.P.V.n.b.9._ W K F H J L Q / O.t.4.,.9.1.r.M.V.v.a.s.p.9.1.3.>.y.B.x.i.i.b.j.v.h.g.g.l.V.C.k.H.a.#.} W ! o.&.",
"s.f.B.K.w.2.0.3.8.g.I.L.A.C.a.{ L I H G H H L F U >.q.4.:.0.s.b.N.c.c.f.0.t.w.8.3.w.n.c.f.v.I.J.F.x.0.,.u.v.C.c.n.M.<.-.] ' { =.",
"d.b.B.C.k.y.a.i.0.g.F.Z.N.V.Z.<.#.+.U H K W ( ' ( =.>.&.#.9.y.k.c.x.C.B.u.f.i.9.y.g.x.B.Z.m.M.V.B.l.r.3.w.x.N.s.u.m.z.0.O.1.q.u.",
"i.M.k.p.*.s.f.u.r.j.k.x.x.c.m.z.g.d.>.| O.#.$.<.@.2.t.2.>.t.s.a.z.c.z.v.f.s.a.d.g.j.b.A.Z.j.q.l.n.j.p.a.s.k.a.t.w.x.x.t.>.-.q.w.",
">.2.:.-.@.j.h.y.a.h.p.r.k.v.x.b.e.6.3.:.>.1.4.<.+.7.w.8.3.f.y.q.d.s.7.9.i.v.M.V.b.v.x.N.N.c.a.p.g.k.8.h.a.=.,.q.e.y.,.1.-.@.-.;.",
"+.X.{ +...j.r.9.&.>.#...<.g.s.x.j.k.y.d.v.h.,.;.3.7.6.g.w.i.p.e.r.8.,.7.j.z.v.n.c.N.M.V.M.n.v.k.v.b.v.z.e.} &.f.z.8.&.$.=.#.#.&.",
"' ` [ o.,.c.p.w.t.:.[ ) ..6.0.0.8.x.z.z.t.l.e.t.0.<.=.h.p.6.<.$.+.+.X.#.9.i.a.x.D.W.Y.G.A.b.M.B.B.m.b.c.6.( [ w.i.3.;.>.t.>.#.+.",
"~ T _ } -.k.a.0.,.O.o.] +.6.y.9.8.v.b.m.c.j.k.s.2.1.7.y.u.+.E I I U Y E o.,.0.h.F.[./.U.Z.m.L.H.K.A.v.v.l.p.q.7.r.4.%.q.z.p.1...",
"' !  .X.#.a.s.u.t.<.,.5.1.q.B.v.b.C.V.V.N.v.p.y.d.d.n.f.0.&.I F K J I ~ o.*.7.z.V.Q.].E.K.F.R.W.W.U.S.m.p.x.q.X.u.>.~ #.*.4.u.@.",
"@.o.O...:.a.a.i.i.6.6.p.s.c.M.v.m.V.G.C.C.C.M.c.N.f.r.5.<.;.Q F F G T | O.1.s.V.M.P.[.R.L.D.J.W.~.Q.A.-.O.u.u.3.d.,.` | @.p.s.:.",
"#.-.&.2.a.h.p.a.s.f.s.y.u.i.r.h.H.S.J.P.U.U.J.C.D.b.w.3.1.f.:./ Y T ..@.@.1.g.N.V.Y.].Q.R.F.M.l.c.B.l.X.5.n.8.8.,...( [ X.t.h.0.",
",.4.2.u.0.j.m.c.k.u.d.d.d.6.q.s.n.K.R.].U.S.N.l.d.i.d.r.#.e.i.,.o.#.-.;.;.1.q.x.I.W.T.L.I.G.z.p.k.l.F.Z.C.c.d.p.5.@.{ O.| 4.l.g.",
"e.;.<.g.9.d.c.t.i.a.u.f.s.&.w.n.C./.`.U.j.j.s.6.,.,.q.3.1.6.t.>.@.:.>.-.,.3.y.m.^.^.P.T.P.J.h.j.l.z.A.C.m.m.x.j.l.2.-.$.@.1.w.r.",
"t.r.p.i.u.i.1.' ,.m.z.l.x.j.v.N.C.I.P.i.6.y.8.>.-.*.9.:.>.p.h.g.e.>.2.1.1.y.M.N.K.Q.T.Q.T.Y.v.f.j.l.d.9.f.s.c.v.j.0.1.&.5.<.>.d.",
"r.f.p.s.h.l.2.{ e.Z.S.v.b.j.z.v.F.G.g.7.6.f.8.=.#.$.;.e.>.9.g.9.8.;.>.u.2.j.C.M.J.E.).`._.(.n.d.j.k.t.w.a.p.j.n.n.a.2.4.z.u.e.i.",
"t.d.9.w.7.t.N.S.F.P.k.&.i.x.k.x.Z.E.a.<.7.*.~ P P Q  .5.3.6.8.=.3.,.5.i.3.u.B.V.Z.F.G.Y.[.).J.v.c.h.2.;.e.a.k.x.x.g.8.2.r.9.7.1.",
"r.0.@.r.>.y.v.D.C.A.7.1.c.n.c.D.K.H.v.q.;.~ F H G K ` &.6.7.g.7.<.:.5.0.8.p.v.z.M.z.v.M.S.F.`.(.Y.d.} o.q.p.j.k.g.a.t.e.:.2.w.w.",
"$.w.e.d.w.h.l.z.b.f.n.B.u.3.n.I.I.L.H.e.<.^ G G G G ` o.8.7.d.9.5.5.w.f.a.a.7.<.g.a.g.z.V.R.Q.`.~.S.y.,.0.g.z.c.x.d.u.p.9.w.u.y.",
"5.p.t.2.q.s.k.k.m.n.A.n...@.m.m.M.D.f.7.8.} J G H ( +.+.8.i.h.w.-.0.7.f.d.0.<.>.5.w.h.x.N.F.F.W./.H.m.c.V.F.k.v.l.g.x.g.d.k.s.i.",
"z.e.-.q.t.a.x.v.M.n.S.I.t.i.m.j.M.B.i.u.d.d.#._ { >.*.*.i.f.4.:.%.7.a.k.f.q.5.4.%.7.l.b.M.F.M.V.D.p.h.B.I.d.%.t.6.g.n.a.p.l.5.*.",
"c.4.} -.7.7.u.k.V.z.m.Y.Y.H.B.k.b.m.i.f.i.r.4.:.-.,.q.4.6.c.0.w.1.w.d.2.2.&.&.;.=.2.f.k.b.S.x.j.l.j.j.5.b.3. .j.B.a.x.N.N.Z.A.v.",
"H.;.( -.u.5.e.m.P.B.N.M.B.A.n.k.k.c.g.8.0.a.9.u.g.p.q.:.:.g.i.2.:.8.l.6.8.7.2.0.e.3.w.f.M.H.m.z.h.z.d.i.x.G.v.V.n.G.J.P.F.k.A.Y.",
"K.n.y.4.t.a.j.Z.J.G.N.j.c.v.k.g.l.B.Z.z.a.d.j.x.f.8.7.q.r.i.p.;.=.1.z.s.d.u.6.5.1.-.5.k.n.N.g.e.s.f.a.p.0.Z.L.M.j.N.P.~.B.p.b.Y.",
"U.k.f.r.p.S.D.Z.A.S.Z.x.j.z.x.k.g.b.F.G.C.d.8.p.V.M.f.d.M.i.q.5.%.3.s.q.a.d.6.,.*.<.;.e.z.x.i.y.y.l.c.i.7.b.F.c.u.j.H.Q.R.I.E.).",
"P.7.q.s.t.x.U.S.v.M.K.m.z.v.z.h.h.x.n.N.T.A.l.C.!.^.N.v.y.9.2.0.q.a.f.r.w.3.r.,.>.4.1.5.l.v.f.k.k.A.M.r.0.S.D.x.p.a.S.V.I.c.B.[.",
"S.c.y.j.v.Z.L.S.z.n.P.B.v.v.c.k.g.c.A.Z.I.G.V.H.A.F.Z.U.h.0.t.x.a.s.0.=.3.;.q.5.>.4.p.t.l.k.p.f.x.B.n.j.x.G.Z.v.z.f.c.P.E.c.V.R.",
"s.j.d.j.Z.P.F.Z.S.K.H.B.m.v.l.s.a.l.L.H.b.h.k.v.j.a.k.m.h.t.f.j.d.e.s.4.4.;.,.r.r.f.z.i.j.k.l.i.d.s.C.C.M.C.z.d.c.c.h.c.F.P.K.M.",
"l.n.b.V.F.D.S.Z.G.L.G.V.A.v.p.s.b.S.N.h.e.q.8.a.u.p.k.l.c.g.p.k.d.y.r.*.2.%.5.7.f.l.c.u.q.f.v.p.w.j.A.F.m.B.V.n.v.M.x.6.9.V.B.z.",
"h.n.M.Z.Z.C.N.G.!.Y.S.C.N.z.h.v.N.N.h.p.d.g.r.p.8.q.s.b.c.h.j.x.l.z.s.t.q.7.8.<.e.9.r.p.8.,.y.s.r.C.c.V.M.i.C.M.c.N.c.r.t.m.g.i.",
"1.1.9.p.f.y.e.y.x.N.B.B.N.n.v.M.m.n.x.j.b.n.h.g.e.f.l.x.v.l.j.l.b.c.M.n.j.u.p.j.h.p.t.0.q.8.r.g.v.S.B.l.z.z.k.d.z.v.z.w.6.M.c.r.",
"6.=.7.j.0.>.<.7.k.b.N.H.B.c.v.n.m.n.m.c.b.h.t.a.k.A.m.u.d.y.4.k.n.x.m.h.z.u.g.n.b.j.k.p.s.l.v.c.v.C.x.p.i.m.k.h.z.x.x.g.e.M.A.d.",
"i.9.i.k.q.&.#.4.i.d.N.G.n.y.d.V.B.M.C.c.w.b.z.b.c.z.z.s.a.a.t.h.j.h.e.a.s.z.m.c.t.g.V.B.m.n.m.h.s.m.v.h.y.v.z.d.u.3.8.M.a.j.n.f.",
"8.8.9.,.,.:.} / #.a.e.u.n.l.s.m.V.D.A.k.c.v.j.l.c.c.x.n.c.e.2.j.x.c.y.h.M.c.M.h.f.j.V.s.V.C.l.g.g.u.j.t.,.p.t.t.y.i.u.v.b.c.l.<.",
"a.t.<.;.>.%.o.+.O.8.6.g.v.l.j.d.M.J.V.u.c.x.k.0.y.N.n.b.n.s.6.a.M.V.M.c.B.c.M.n.j.a.A.M.L.L.g.h.z.p.f.8.=.r.u.i.r.g.s.g.c.b.g.%.",
"s.i.<.#...;.5.u.+.g.i.f.7.i.h.p.a.s.n.d.v.m.v.j.g.,.d.c.x.l.u.s.v.l.b.m.V.b.c.b.g.g.P.T.T.P.v.j.5.s.l.a.d.w.g.2.<.p.i.p.v.m.j.i.",
"s.a.4.=.>.8.5.5.i.c.s.d.h.i.b.a.2.-.7.<.i.b.x.z.g.=.f.x.x.c.c.k.e.c.M.N.B.B.V.j.b.J.N.x.l.i.a.p.7.p.u.i.f.a.k.r.i.p.i.l.j.r.j.a.",
"p.k.0.,.8.t.,.:.z.b.d.s.d.i.k.g.r.0.3.O.4.t.v.l.c.b.M.m.M.b.c.x.i.n.M.z.C.C.D.m.C.z.6.q.p.4.7.i.i.k.u.7.h.j.r.l.j.l.d.b.j.a.M.s.",
"k.l.t.<.u.s.f.r.2.3.z.d.<.z.k.q.e.3.q.5.7.e.j.C.V.N.m.V.V.v.n.z.g.j.n.a.l.b.n.A.V.t.y.k.s.q.w.s.t.c.p.p.N.m.a.z.b.f.k.b.a.f.b.j.",
"g.b.z.h.>.y.p.0.&.' d.s.i.p.i.q.h.7.0.t.r.h.f.h.C.s.c.D.V.l.z.m.i.x.n.p.l.v.D.J.x.7.t.7.p.0.s.j.s.c.c.e.z.A.M.k.n.j.f.v.k.j.M.a.",
"l.l.j.a.=.u.7.t.5.e.d.-.9.i.t.6.7.r.e.9.u.B.z.r.C.J.F.Z.M.l.g.i.B.K.c.q.l.N.V.M.8.;.p.t.a.4.p.k.p.c.M.w.v.v.a.c.x.f.5.2.N.c.t.g.",
"s.j.s.j.a.d.6.e.a.d.6.^ $.t.8.8.3.u.7.*.i.j.j.b.I.L.A.b.b.n.h.z.C.l.2.r.l.x.f.M.j.1.,.j.g.q.5.j.g.j.g.<.g.v.l.M.k.t.>.a.N.v.9.q.",
"f.z.i.s.i.z.q.0.y.2.+.) { 8.6.j.j.i.7.&.7.d.b.F.f.w.f.t.i.v.v.D.n.q.p.p.8.u.p.C.t.e.8.w.d.j.i.z.x.r.7.b.k.t.n.C.7.q.k.x.c.f.t.<.",
"u.M.h.h.s.q.} ,.:.*.#.X.O.0.h.b.l.9.s.q.p.c.Z.d.q.y.i.0.7.s.b.G.g.7.q.o./ o.8.l.l.u.3.7.a.h.g.l.m.y.k.M.-.( *.x.r.z.c.B.p.9.s.h.",
"k.p.5.j.r.y.y.<.@.>.>.' [ 8.s.x.M.j.h.r.k.V.Z.t.w.t.$.=.,.<.f.v.3.1.4.^ G W q.p.f.2.9.x.V.h.p.l.l.f.d.t._ ) ;.j.f.h.a.d.v.j.j.p.",
"i.} ) q.u.f.j.| | 5.3.;.1.| 7.N.V.b.m.M.M.S.h.<.q.o.I Y &.O.q.V.e.>...&.] #.u.m.x.g.x.B.l.z.n.h.f.a.d.t.o.o.-.O.#.f.z.7.n.v.w.g.",
"6.^ } q.k.A.<.R R 6.w.@.2.-.r.m.S.b.c.m.N.n.e.1.q.@.I T %.>.s.B.q.0.4.i.a.u.l.Z.v.d.f.V.r.x.m.x.j.z.b.v.g.u.4.[ R <.k.u.v.v.p.b."
};
