/* XPM */
static char *_309b2b9bbaf4015c87ef18d578f459c[] = {
/* columns rows colors chars-per-pixel */
"64 64 210 2 ",
"   c #1E130E",
".  c #1D1612",
"X  c #1E1915",
"o  c #1F1C18",
"O  c #2F0600",
"+  c #250C05",
"@  c #2C0C04",
"#  c #250F09",
"$  c #2B0E08",
"%  c #340600",
"&  c #3A0501",
"*  c #330D04",
"=  c #3A0B02",
"-  c #310F08",
";  c #3B0E08",
":  c #261206",
">  c #2D1303",
",  c #24140E",
"<  c #2B130D",
"1  c #23180F",
"2  c #2B1A0E",
"3  c #331206",
"4  c #3C1205",
"5  c #371806",
"6  c #33140D",
"7  c #3B140C",
"8  c #34190D",
"9  c #3C190D",
"0  c #231612",
"q  c #2B1611",
"w  c #231A15",
"e  c #2B1A14",
"r  c #241D19",
"t  c #2B1E19",
"y  c #331611",
"u  c #391710",
"i  c #331B14",
"p  c #3B1B14",
"a  c #331E19",
"s  c #3B1E19",
"d  c #292017",
"f  c #25211B",
"g  c #2B211C",
"h  c #342116",
"j  c #3B2115",
"k  c #33221C",
"l  c #3B231C",
"z  c #3B291E",
"x  c #2C2521",
"c  c #2C2922",
"v  c #322621",
"b  c #3D2621",
"n  c #342A23",
"m  c #3C2B23",
"M  c #400400",
"N  c #450D02",
"B  c #4B0E03",
"V  c #530600",
"C  c #540B02",
"Z  c #590D00",
"A  c #441103",
"S  c #4A1406",
"D  c #481806",
"F  c #43140C",
"G  c #4B150A",
"H  c #44180C",
"J  c #4C1A0C",
"K  c #521107",
"L  c #591001",
"P  c #55140B",
"I  c #5A140B",
"U  c #541D09",
"Y  c #591A0C",
"T  c #441710",
"R  c #431C14",
"E  c #4C1B14",
"W  c #411E18",
"Q  c #4C1E18",
"!  c #541C13",
"~  c #5D1C12",
"^  c #511F18",
"/  c #581F18",
"(  c #611506",
")  c #691100",
"_  c #691803",
"`  c #62150B",
"'  c #68160A",
"]  c #621C0E",
"[  c #7D1605",
"{  c #701D0D",
"}  c #6C1E13",
"|  c #582707",
" . c #5F250F",
".. c #442215",
"X. c #4F2517",
"o. c #43231C",
"O. c #4B241C",
"+. c #462B1C",
"@. c #4C2A1C",
"#. c #522215",
"$. c #5C2415",
"%. c #53241C",
"&. c #5D251C",
"*. c #542B1D",
"=. c #5A2B1D",
"-. c #4D321B",
";. c #722509",
":. c #672117",
">. c #6D2513",
",. c #63231A",
"<. c #6D251C",
"1. c #622B1B",
"2. c #6C2E1D",
"3. c #722014",
"4. c #712A16",
"5. c #7C2619",
"6. c #74341B",
"7. c #422621",
"8. c #492621",
"9. c #442B22",
"0. c #4C2B23",
"q. c #452E28",
"w. c #532620",
"e. c #5E2720",
"r. c #542B23",
"t. c #5B2C24",
"y. c #4C3227",
"u. c #4A332B",
"i. c #543225",
"p. c #5C3226",
"a. c #5A3B25",
"s. c #55332B",
"d. c #5C342A",
"f. c #513C2B",
"g. c #5B3C2B",
"h. c #563B32",
"j. c #652D23",
"k. c #6C2D23",
"l. c #712D22",
"z. c #7A2F23",
"x. c #643224",
"c. c #6D3324",
"v. c #663825",
"b. c #62322C",
"n. c #6D342A",
"m. c #623C2C",
"M. c #6B3C2D",
"N. c #753324",
"B. c #7B3323",
"V. c #733826",
"C. c #773429",
"Z. c #7D342D",
"A. c #753D2D",
"S. c #7A3C2D",
"D. c #673B30",
"F. c #6C3A31",
"G. c #743E32",
"H. c #7B3C32",
"J. c #544035",
"K. c #594232",
"L. c #5E4936",
"P. c #5F4A39",
"I. c #6E4321",
"U. c #64412E",
"Y. c #6D4029",
"T. c #70462E",
"R. c #6B4A37",
"E. c #624138",
"W. c #6C4D38",
"Q. c #744435",
"!. c #794232",
"~. c #7C4C34",
"^. c #72483C",
"/. c #735442",
"(. c #87270F",
"). c #802415",
"_. c #8A2E1F",
"`. c #982F12",
"'. c #932D1E",
"]. c #813116",
"[. c #8C311F",
"{. c #823326",
"}. c #823C23",
"|. c #8A362B",
" X c #82382D",
".X c #8B3C2D",
"XX c #943225",
"oX c #923A26",
"OX c #9D3824",
"+X c #98382C",
"@X c #83432C",
"#X c #974A2C",
"$X c #824B37",
"%X c #894A39",
"&X c #944735",
"*X c #9B4631",
"=X c #904D3A",
"-X c #9A4F3A",
";X c #95533B",
":X c #99503D",
">X c #A2442B",
",X c #B6432E",
"<X c #AB5639",
"1X c #845140",
"2X c #8B5847",
"3X c #995844",
"4X c #B35B43",
"5X c #8F6442",
"6X c #8F755E",
"7X c #B16148",
/* pixels */
"r r o t p y w r l s 0 X o o o X o X . 8 >.V S p t r 0 r X o X w t r w w .   . X . . y a , r 0 X . X 0 0 e q . # - 8.q . . e b.B ",
"X X r w 8.o.e e l j w X f f o X . o r < A.%X*.a q d r w X o r w e q q q 0 0 . X . 0 s y q 0 0 0 X 0 , a k , . q - r.. . 0 , W ^ ",
"w w w e R %.< e p a w r o f o X o o r i @.R , w r r f w o r t w < p %.O.s 0 0 X X o y i 0 t w 0 q , s 8.q . w w s b   X o r x y ",
"w 1 < i u t.#.= O.p t r r o o X . . r t a y e r o o r r o w w t 7.8.E Q %.$ : . . r t e w 0 X q q i Q 6 q 0 0 w q , 0 o 0 o r r ",
": 9.a.> 2 D [.[ {.S i g f r o o o r r t u y i g r . w r r r w x m e q $ e.j.6 , . w 0 t a 0 o t y s.W - 0 0 0 w t q .   . f t q ",
"< f.6X-.> D OX,X).N s d f f f f f r o 0 j o.l s w f r w e r < , , 0 0 0 & / w.< . 0 0 . t 0 0 q 6 Q s i t q , , q w 0 w 0 w n a ",
"h h 2 +.r.B Z 7X-XB u d r X f f r f w e k a i.9.w d k z q.O.#.%.p 0 0 0 y + 6 9., 0 . . w 0 o q u Q s y a 9.y.o.< q h h z k z z ",
"e e d 1 r.1.Z ;.}.A 8 d r X r w t t d d q i p s d w q a y 6 T d.7.t . w w q y y., r . t t 0 0 q - s.a # y s 6 y t q l l h i a a ",
"w w f t < D (.`.].A 8 t w r g e u o.h t k k j p g d w r 1 0 e q t r X f r w y s 0 0 0 e e e w r y s , q l q , 0 . w q t w t r 0 ",
"r w 1 # : F *X>X;X=.* y e q e i p.*.e g g g k h t r g X . r r x f X r x 0 0 $ 9.e 0 q p < w w q y p q q e , w X X r w t r 0 x x ",
"r q 5 #.@.s.g.* 5 m.=.= - O F i.i e e i k x g g 0 f x X r w r t t w f w r w 0 q k $ $ a w 0 r q ! P ; 6 q e w X r g i a r r f x ",
"0 q d.m.8 8 e 0 : + E j.t.J N.K @ q d t g f g d r c g w r f e n a w r r r 0 q 0 b W T O.q e e 6 e.k.w.y e t X r w t 8 y 1 X o o ",
"e i q : e v w . 0 , O b.j.~ _.).& p k t d d d d d r f d r r t b 7.y . X x q , e s 6 &.!.X.p R O.F e.8.y e w w w q R / ^ < 0 X o ",
"a 0 0 r 0 0 t 0 . , $ Q Q M ` .Xn.p q w x g x n . w e d t r k l y p , 0 j < y s < 8 G $.H R ..R ; 6 < t t 0 0 w + ^.G.A , 0 . 0 ",
"0 0 . w 0 r 0 o r 0 , y 7.y 6 u o.s l z d e d d d d j u.k v v q < p W T M T b # # a 8.R 2 e , q q q t 0 e 0 0 0 + s.h.@ 0 0 e q ",
"X 0 0 t t r r t f r 0 q i i t e i p p 7.z e q i m m h z k g r r < s 7 / C.,.6 e , a i w w w . w t q 0 # 0 0 e 0 e 2 + e , w y s ",
"t 0 i v w r o t r f t t t y a t y s s a a 0.s.W m g g n x d r d 1 k z 7 ! K 6 < 2 g r w r r o 0 y - ; W s s e , w q 0 e a $ s W ",
"e # q a t w . 0 o t x a a t t t q a v x k b w.W j v m g d d r o w 0   l Z.I #.y y e q 1     1 # T j.t.w.q # w r r 0 t 0 a y T T ",
"e w t t 0 w r r o 0 q y a t 0 . a q.. w r g a b 7.9.z h d t w . . . . + <.Z.! t.#.%.X.g.a.g.i.X.l.j.u , 0 w w w 0 o o w y Q %.E ",
"a i t r e e e , 0 0 s 7.r . . . y b o . t t a b j s l l j < 1 . o . . i &.N % E %.J 5 +.-.-...= <.I < r . o X X o 0 0 , 7.W 7 W ",
"T W e w q q y y s 7.t 0 0 . . 0 q a t t g k 7.y e 0 q p =.i.: w X X 0 g q < - s e , q 1       > ! j.> , w X X X w w q o.b w q w ",
"; s.y t a b 7.s s # . 0 0 . . 0 i e   r w e b q 0 0 u T 4 d.< q 0 w q 0 r 0 q b w f o r . X X , ; K p.* : 0 w 0 < y 8.u e w f r ",
"; w.W 8.a a t   0 . . 0 r 0 r 0 0 e w w w w 0 w w , ^ ,.* 6 W p i e h e w . s b 0 o 0 w q q w q 4 U ] 2.J - w : ! !.y w r r o o ",
"p p p y q 0 . . . . o o q 0 0 . . r r w o w 0 w w e %.A p < 8 o.s i i e r 0 p < 0 0 h > y s e q F $X4.B.3X= $ @ !. .: r r X X o ",
"w r q e d X r o o r w w . . . . 0 w r r w r c w o w a u 9.u a a a q e e e e 8.y e q ; T u q r < x.1.A $.-X4.x.Q.!.= i r 0 0 w w ",
"r r t x f f f X X r e q t . . . X 0 w g t q r w w r w < 8 i , w e 0 w t q a b q e y ! H.o., 0 q R F 9 R  .Y D D ~.D q g k w t d ",
"f f t t f f f r X 0 e w w 0 o r X w e n x w w r w d 0 0 1 e w w . w w r t t 0 e q 7 z. Xu q w e q q w e e u e 3 @.u e g m t g f ",
"f f r t g g f o X 0 w , , w w o . 0 e w 0 0 r 0 k e . w 1 r w r w o r r t t g t w u C ` u t e w w w f f x f d k l y e t v t r r ",
"f f d g k d w X   . 0 . 0 r X . X . r w . X w e w e X f X X w w r f x t h k r r w y A ^ u w g w k i g w f e i ..l i g g x r t r ",
"c g f k g q g o   . w 0 r w X 0 o X . w w e q e g . o o X o w e t t x x a t t w e $ F t.h e g t e t w w 0 d 2 a.-.> h i q e t t ",
"f f f e l p t w . w w 0 . 0 0 X r r w 0 6 o.y t e w f X o o 1 d k l v t e r t t q p O.r.g.j e f e w . w X e > a.I.| $.F T 9 o.m ",
"h e t i O...s q 0 . 0 0 w w 0 r w 0 w < R 8.q 0 w d f X X o o v b a t t g t t a q j j p 8 z e r w . . w w 8 5 T.5X~.v.#.=.p.o.i ",
"T 4 u w.Q w.u < 0 . 0 r a y w r 0 0 6 y 7.i w X w w . . X r w w r f t g g t k t X   . v t w t t   . 0 0 q ; k.C.3 2 q a l o.0.o.",
"N.A.%.W 6 T b.7 # 0 X t q a w 0 w q p t.u q q 0 0 w w X . . X r w r t 0 e t x w . . . f r X t w , q 0 e 7.Q B e.j g x d e t a j ",
"{ C.$ 0 q $ Q b.s # 0 . 0 r t X w w u r.y y , # : w e 0     1 t a i a v r o r w . . . f w . r . e a p q.b q $ y l < e r f e e w ",
"5.P # . X q - & o.y . 0 0 . t 0 w e 7 Q s a l 9.b q 0 w e k v g b l k k g g f x r o . o r o f f a y q , q w o q 7.s w d f f d f ",
",.F , . . 0 t + 7.9.0 w , q q 0 . q F t.q , e 7.b a e e z h v k z z j l 9.k f f o . X o f r x x t X . o w 0 X . p j . f w e w 1 ",
"! u e o o x 0 0 u p 0 0 0 a t 0 r q u Q # w v < + , q 0 a i e t q t t h J.e d o . . X o r r x t w X . X o X X . u s 1 r f e h i ",
"! 9 t X f r X q y s , . e e w w r 0 y u , t e 0 w w 0 r , t w r d g c 1 j h   . . . f x r f f o w 0 X o r o o 0 i a w f w h 9 = ",
"F.R e 0 f w r 0 < b q , 6 p q r r q R T < e e r w X r t e a r r x n g g 2 l 1 f f o x x f o X r r 0 X X 0 o o q p o.2 e 2 p p.A.",
"t.@.q t r w r 0 0 q 7.* ; T , r w u <.` T y q t r r d e i i w X r f f g , b W s f 0 t r . . . r w X o . X X X w y 8.6 4 - R D.%.",
"- s l , 0 r r 0 0 e 7.T n.x.u e y T ~ Z.^ y y 0 w w q 8 o.8 , 0 o f x f 0 a s.s w r t e w w t q w o . X X o w e y O.t.d.@.r.p 5 ",
"e w l q 1 w n , q s < - $.j.O.l u.W 7 u y e f 0 X , F A.=.9 , 0 X o r o o e w.y 0 w w t e e y e . r X X r o w e < O.j p p a e e ",
"f w $ W i , $ y l < < 7.%.H 3 i y 6 q 0 o w t 0 0 , * 2Xt.@ , w 0 w w X o r s s , o t w e a a < w o w t w w 1 < R o.< w e t r r ",
". 0 y u T t.&.^ < w , k t 2 e 2 , q w w 0 , , q 0 w y j < q 0 0 i a X X o 0 q t 0 t X X t a l e r w w q < 3 8 H *.R e d w e f r ",
". , < 0.; ! 3.P $ e q h w w w 0 w q i < , e a a 0 0 0 1 0 t r q 7.y 0 X o r r t t r f t t t a t r r t k l i./.U.#.6 t r w w f . ",
"w 0 w e y r.:.V F - u e 2 1 w 1 2 $ F ! w.8.q q 0 e e r 0 e a < W 6 0 o o o o w r r g r f r r r r r r e q k k : +.o.1 o r w r r ",
". X 0 0 , u H.:.=.O.p p k z h z k R l.l.E < , 0 w w 0 0 e , a p 8.u e X r 0 w 0 r r o r r w o r o o r r w r d t 8 +.e w w w . e ",
"0   . 0 $ y b.T ; t.w.O.9.P.L.K.9.Q k.N - 0 w w X . w 0 0 < 7.R W s s a e w t w X d r X o w X r f o X r f f t k < p W y a a e i ",
"w w r 0 q l < - - W 6 < < > : : $ @ n.J q 0 w . X X r w q b 7.6 u p i a e t t r 0 w d e 1 w e 0 o f f x c g t i o.W O.p p $ s j ",
"w w 0 w r 0 e , u R q e d 1 1 . 1 < T e.u + w . X 0 < - 7.a e w w t w . w w r r w r d q e 1 q q . o o c c g e i j 8 p r.&.O.a 2 ",
". w w t t 0 w 1 7.s w X . w . 1 0 q F S j.7 < q q < o.d.p q r r r r o X o f f o r w e h 2 9.h.i d e d d g d n v 9.0.p p T T < q ",
"0 t t a t r 0 0 v < , r d , i i e y D @X_ &X2.O * * 1XX.: d o X o o X X f f f f d d 2 e 8 y.E.8 w w g g g k v w a e e 0 # : a y ",
"2 t i y e y q q a , 0 r g , < t e 8 v.6.) oX=XS #.M.c.% e o r w . . X o g d f o o o 2 h i < $ y g d e w w w f d t k e r w 0 e i ",
"p s e < u ; & r.7.w w r w . w 0 0 q s.= L >.A.=.=.U.Y.> 2 r r w w . o r w w 0 w . 1 1 2 w 0 1 w w f w e w 0 w g m k r g r . 0 e ",
"#.O.@ 6 J C.B.$.< q w w . . . w 0 t i - &.c.= * @ 3 R...w o . . r . . X w w f w r w z d 0 . 0 r r e r d t q w k w w w r 0 w o r ",
"% &.t.$..X4X<XS y X . 0 X X X 0 w a t q w.u $ q , w q k w X . . . . . . X w w w w k j o.2 w w r t w o t e a 7.< , w w w w   . . ",
"I :.G K ( Z #XV.- 0 X . , # . 0 a q , q s < w w w w w w w 0 0 w w 0 X o w w w r e 1 2 z i t d d x x r t - w.u q 0 r . . e r   . ",
"XX} E 6 @ *.v.1.n.T + 0 $ a 0 r i y 7 u , 0 r f r d r 0 r e e w w 0 r g t w e t 0 r 0 0 e d r r e v x y / e.q r . . X . e e . 0 ",
"'.' 4 2 1 z j O F &.y $ q.s , r e p %.w.q r f w f o X w , a a , q e , q q k a w X X X X o f f f w t v s j.e.q X X X . o e q e z ",
"3.<.6 w e e w e # # u s.s , X X t q Q w.q r X r X X X . s y e t : 2 ..m.s.a q X w o X X f f r f t w r w 7 8.# o X X X q # y r.E ",
"B w.y , t w r . . # y u e 0 X r r , T E < t w . . . 1 , l i , 0 2 +.W.-.8 8 w X r 0 . w r o o o . . X 0 # y b q 0 0 q $ ; p.E * ",
"q y 7.a t w r w 0 q l , X r X r r q ; t.y w e b i - * 5 j , 0 . d k e 1 w w w w w q y e 0 o r . X X o X . . e k 0 6 & C z.P @ 0 ",
"w w q i q q f r 0 v e , X o w r r e F Q.p 0 < a s 8.D.#.< 0 w . d g f r f X . . e < y q w r X X X X X X o 0 # i l @ ,.|.+X` $ r "
};
