/* XPM */
static char *_67a42c506154d1df7134c414d966f85[] = {
/* columns rows colors chars-per-pixel */
"64 64 197 2 ",
"   c #9D1700",
".  c #9C1E00",
"X  c #A31400",
"o  c #AD1700",
"O  c #AC1A00",
"+  c #B31700",
"@  c #B31C00",
"#  c #B91E00",
"$  c #9A2200",
"%  c #B52200",
"&  c #BD2400",
"*  c #B52900",
"=  c #BD2A00",
"-  c #AC3A00",
";  c #B23100",
":  c #BB3300",
">  c #B23800",
",  c #B93E02",
"<  c #C32600",
"1  c #C32C00",
"2  c #CA2D00",
"3  c #C33400",
"4  c #CC3301",
"5  c #C43D01",
"6  c #CC3B01",
"7  c #CE370A",
"8  c #CD3C08",
"9  c #D33501",
"0  c #D43B02",
"q  c #DA3E02",
"w  c #D33C0A",
"e  c #DC3C0B",
"r  c #BD4200",
"t  c #BB4800",
"y  c #C54400",
"u  c #CC4200",
"i  c #C34B00",
"p  c #CC4A00",
"a  c #D44301",
"s  c #DB4401",
"d  c #D44C00",
"f  c #DC4C01",
"g  c #D74209",
"h  c #DB450A",
"j  c #DE480C",
"k  c #C75400",
"l  c #CA5300",
"z  c #CE5D00",
"x  c #D45301",
"c  c #DD5401",
"v  c #D55B01",
"b  c #DC5B01",
"n  c #D65208",
"m  c #DF550C",
"M  c #DD590A",
"N  c #DD5513",
"B  c #E14500",
"V  c #E34C01",
"C  c #E94D02",
"Z  c #E0460B",
"A  c #E44D0E",
"S  c #E84F0B",
"D  c #E45301",
"F  c #EB5402",
"G  c #E55B00",
"H  c #EC5B02",
"J  c #E35409",
"K  c #EB550B",
"L  c #E65B09",
"P  c #ED5D09",
"I  c #F05605",
"U  c #F25C03",
"Y  c #F05509",
"T  c #F35C09",
"R  c #F95F09",
"E  c #EB5413",
"W  c #EE5B12",
"Q  c #E25F19",
"!  c #F55D11",
"~  c #CE6001",
"^  c #D16100",
"/  c #DC6500",
"(  c #DA6D02",
")  c #DC650E",
"_  c #DD7402",
"`  c #DA6311",
"'  c #E46301",
"]  c #EC6301",
"[  c #E66B01",
"{  c #EC6C01",
"}  c #E5630A",
"|  c #EA630A",
" . c #E56E0A",
".. c #ED6B0B",
"X. c #F36403",
"o. c #F96605",
"O. c #F36B02",
"+. c #F96D04",
"@. c #F3640B",
"#. c #F9640C",
"$. c #F46C0A",
"%. c #FB6D0C",
"&. c #E47303",
"*. c #EB7301",
"=. c #E47B01",
"-. c #EC7B00",
";. c #ED740A",
":. c #EE7E0D",
">. c #F57302",
",. c #FB7403",
"<. c #F47B01",
"1. c #FC7B04",
"2. c #F5730A",
"3. c #FC740B",
"4. c #F57A0B",
"5. c #FD7C0B",
"6. c #EB6412",
"7. c #E16A10",
"8. c #E96911",
"9. c #E06019",
"0. c #F46412",
"q. c #FA6513",
"w. c #F26B12",
"e. c #FC6D11",
"r. c #EB7916",
"t. c #FD7412",
"y. c #F47A13",
"u. c #FE7B12",
"i. c #F7731E",
"p. c #FD711C",
"a. c #F47B1B",
"s. c #FF7E1C",
"d. c #F77320",
"f. c #FF7A26",
"g. c #EA8403",
"h. c #ED8A02",
"j. c #EF8808",
"k. c #F48402",
"l. c #FD8304",
"z. c #F48B01",
"x. c #FC8B04",
"c. c #F3830B",
"v. c #FE830A",
"b. c #F3890B",
"n. c #FE8C0B",
"m. c #F59302",
"M. c #FC9305",
"N. c #F49B03",
"B. c #FC9A06",
"V. c #F1900B",
"C. c #FE940B",
"Z. c #F79C0D",
"A. c #FE9B0B",
"S. c #EE8312",
"D. c #F18211",
"F. c #FF8413",
"G. c #F38911",
"H. c #FF8C13",
"J. c #FE841A",
"K. c #FF8B1C",
"L. c #F79613",
"P. c #FF9412",
"I. c #F69C10",
"U. c #FF9B14",
"Y. c #FF941B",
"T. c #FF9B1B",
"R. c #F5A304",
"E. c #FAA204",
"W. c #F7AB05",
"Q. c #F9AA06",
"!. c #FEA30B",
"~. c #FDAC0C",
"^. c #FDB20D",
"/. c #FFB80E",
"(. c #FFA314",
"). c #FFAC13",
"_. c #FFA31B",
"`. c #FFAB1C",
"'. c #FFB413",
"]. c #FFBA15",
"[. c #FFB519",
"{. c #FFBC1B",
"}. c #FF8A20",
"|. c #FF8028",
" X c #FF8C2A",
".X c #FF9622",
"XX c #FF9D20",
"oX c #FF972B",
"OX c #FF9E29",
"+X c #FFA225",
"@X c #FFAC22",
"#X c #FFB325",
"$X c #FFB922",
"%X c #FFBF2B",
"&X c #FFC01C",
"*X c #FFC525",
"=X c #FFC923",
/* pixels */
"v.l.v.1.n.P.] X.J.' [ n.`.m.n.u.U C B q B B s F %.4.n.P.H.<.x b b > $ $ 5 D H.P.<.{ O.3.E w 7 3 w S Z e 9 0 X.F.u.,.o.+.1.1.v.l.",
"l.,.1.l.l.P.{ ,.J.b / T.@Xk.>.G C F C C ! V s D 3.<.k.P.c.{ ' a.a.l - , u x c.U.n.l.u.X.1 @ @ & h h 4 1 2 9 @.u.3.+.o.o.+.1.l.l.",
"5.>.X.+.>.F.>.u.t.x =.#XT.{ ] F F R U #.%.F V @.2.*.:.D.[ &.=.XXY.( ~ ` d d { C.P.P.F.c % & 7 w h g 1 @ < 2 B Y V C U X.+.1.5.l.",
"3.X.F D D u.>.5.3.b Z.%Xl.] X.U U X.U u.%.F D @.4.*.;.^ ' ..j.@X_.g._ r.v i [ n.M.C.H.>.x h 8 @ 9 w % o # 9 9 B B C F F +.5.,.1.",
"%.D q 0 6 e.3.3.O.&.$X$X[ X.+.+.R F U 3.%.F D O.2.4.[ v 6.' b.#X`.h._ S.&.z D.k.k.n.n.P.4.P = @ 0 2 o @ 1 4 9 q B Y I C o.3.+.,.",
"q.B 9 2 = 0.t.>.[ C.%X).*.O.3.3.U F X.3.+.] O.>.4.u.} b c b =._.#Xm.g.S.G.g.L.k.-.k.z.n.u.@.J 0 s a 3 8 0 q C S B C V F +.,.X.U ",
"S s < < 1 0.e.G *.`.).C.1.,.u.+.H U X.+.>.O.>.1.v.c.' c f G [ P.[.Z.g.k.T.(.(.h.-.k.x.c.>.] $.p.e.@.L J J F T #.I V D +.3.+.X.G ",
"4 0 9 2 5 p.0.a c.`.x.n.>.3.,.O.D H ,.5.1.1.F.P.P.l.4.c d c { P.).Z.h.h.!.).$Xm.-.c.n.v.G D U %.u.2.@.U K U F T #.s X.F.1.,.+.F ",
"2 2 e 4 u |.B 6 Y.n.{ 3.D G +.O.] ] 1.n.v.n.n.C.C.n.2.G s ' l.A.'.'.Z.m.R.[.[.B.k.n.n.4.H a s F %.%.@.X.F U U H %.] ,.n.l.v.u.D ",
"2 4 4 6 i.p.1 3 oX*.G U f H u.,.O.2.n.l.l.x.l.n.n.c.] 4.{ ;.C.!.).'.).R.~.].'.!.z.n.l.<.U s 0 f G #.X.H F I R F X.5.l.x.C.H.@.a ",
"s d ' J. Xa & 0  Xb a V D O.5.>.1.v.l.l.l.1.1.1.5.{ ' 2.2.l.U.!.Q.Q.].^.^.~.~.!.M.l.l.<.G V s a V F I F H H U U H 1.P.P.P.O.c a ",
"J.K.Y.J.| = & g f.c q S e.,.<.v.l.l.n.l.1.,.O.{ 5.,.O.3.l.n.A.~.~.R.'.].~.~.!.B.C.x.x.F.>.G V s s s G I U U H U X.v.U.M.>.G 3.t.",
"5.H.F.O.g @ & e W C q V t.K.n.T.n.k.v.1.<.O.O.{ 4.v.5.1.v.C.~.^.~.~.^.'.E.!.B.m.M.C.x.n.F.X.V s s s F @.U X.+.O.<.F.l.l.{ { H.5.",
"*.v.5.| 4 + < 0 0 q 9 q f ' <.C.C.<.n.l.5.1.u.4.5.5.5.<.z.A.~.'.'.~.R.^.!.A.A.z.x.C.C.x.v.5.G D D f J #.X.+.1.5.5.[ l.1.{ 5.F.<.",
"*.H.3.P = # 2 9 4 2 9 0 0 d ] H.H.-.4.4.1.F.F.5.v.O.+.>.k.(.^./.~.~.Q.'.!.m.A.k.x.x.C.l.l.v.H F m f d G @.>.l.P.1.' x.n.*.v.<.1.",
"l.F.X.D 1 < 2 9 4 2 9 0 0 a b J.T.&.*.[ *.5.5.>.$.{ O.<.C.).{.].~.Q.W.].!.z.C.x.<.l.l.l.v.v.O.L J d u x ] O.l.U.v.{ k.).U.x.<.1.",
"5.3.I 0 < & < 0 h q q q 0 s D F.Y.-.*.{ { 2.>.>.,.>.v.P.(.^.]./.^.W.W.{.~.z.M.M.l.<.1.1.1.5.>.3...d 6 d H X.<.P.x.k.m.).(.(.C.1.",
"O.X.S 2 & & 0 A Z s h q 0 s G u.P.*.;.[ { 2.2.3.u.O.O.<.B.[.^./.~.W.^.&X!.m.x.x.v.1.X.+.{ 2.$.@.w.L a s F ] { x.C.x.m.(.M.k.x.l.",
"3.H s 9 4 4 h E s 4 4 0 4 6 c 4.J.{ { { ] 3.$.,.3.] X.>.k.A.[.].~.R.W.&X!.M.M.1.1.,.,.X.] | | x D @.D f G ] <.C.U.z.B.T.>.' l.l.",
"t.F q 4 4 2 0 S g 2 < 4 g a D 3.u.b ' H G $.>.,.,.O.X.+.v.x.Z.'.'.R.^.].E.E.C.<.O.U o.3.G ' G d D F F @.%.u.H.x.l.M.(.n.G U 5.1.",
"I D V s 6 3 6 g w 2 & 1 w J $.F.3.] G H ] X.X.,.,.,.+.O.,.1.x.M.!.'.{./.E.B.!.k.G s V T | b } x x V ..%...>.v.*.<.C.P.*.] X.3.3.",
"U V f 0.J : : 6 7 2 # 1 g V ] u.+.O.] G $.+.>.,.5.1.+.+.>.1.l.l.g.!.=X^.E.B.(.n.G s 0 B ]  .' x c f 0.X.H { F.{ *.H.<.O.X.X.H U ",
"R F { J.K.l ; y 8 = @ 1 4 0 V X.>.+.O.O.+.,.,.3.,.+.+.+.5.,.1.1.g.m.=X[.N.B.C.C.>.H B B F X...' x d L X.c $.u.' >.v.O.O.U F B C ",
"G *.P.L.U.S.i Q 8 % @ % 1 4 I H +.+.>.,.+.,.,.+.+.+.,.1.1.l.>.1.n.!.*X^.z.M.x.C.U.,.o.F F G 2.;.d y c G X.3.] D O.5.F.H F F C C ",
"z T.(.Z.U.T.:.x 6 * O % 3 0 0.H +.,.1.v.1.+.+.+.1.1.1.1.1.,.>.<.C.).*XR.z.x.1.x._.M.+.o.U F G y. .r p D %.$.a D O.K.2.G f F K V ",
"`.@X`.`.P.b..X .n * X * 6 V I G +.1.l.n.l.>.+.1.1.l.l.v.<.,.>.l.B.{.[.N.k.v.<.l.(.M.<.+.%.U D $.}./ x { ;.b 0 s G 3.G ' G a f e.",
"U.P.C.n.F.z ;. Xi.a 3 g P X.U H +.l.C.C.x.l.1.1.l.x.n.x.l.l.1.x.N.[.).B.l.1.>.1.).M.1.+.3.U D G F.L.L.C.V.G.G d c D } b x x ' OX",
"[ { *.F.s.y k  .} d a K #.+.X.+.,.1.n.x.l.l.1.l.l.l.C.M.x.x.x.M.A.~.!.M.<.,.] l.(.x.1.+.,.H U +.<.M.`.(.I.T...F D d  . .[ J.K.*.",
"a d { u.8.r t ) n : : a X.3.1.l.1.,.l.l.1.5.1.v.1.l.C.B.C.B.C.A.B.M.B.C.l.{ c F.T.M.,.,.O.1.u.>.' P._.M.T.H.G #.x x ( S.Y.F...c ",
"f J } 8.i y k 7.d : @ u 3.v.n.n.1.+.5.>.U %.,.u.,.1.x.C.B.C.A.C.M.M.M.U.x.>.c F.U.l.>.1.l.C.v.[ &.Y.<.c.4.b G | D x ( =.<.*.D 0 ",
"W m N 5 : n  .y.n = & s 3.F.v.F.3.X.3.X.0 0 G X.F X.l.C.C.M.M.M.M.C.x.A.U.l.' +.Y.<.O.1.C.A.x.*.U.P.2.H 4 0 V ] ' *.=.j.k.*.c a ",
"m 5 ;   : m J.H.L a V @.t.%.$.] G H #.K 9 < s H f D >.v.x.x.x.C.x.x.x.k.A.n.] X.H.*.] l.(.!.l.Y.P.<.s 9 9 B V L O.F.L.L.H.5.f a ",
"n > $ . 6 c J.U.4.] $.t.K a 0 3 0 J f s 9 0 @.s.u.+.X.,.1.1.n.l.x.l.v.k.n.P.] ] K.' ' n.`.B.n.v.H D s q q B s D 3.4.n.L.H.4.x x ",
"a.l - , u x v.P.n.l.5.X.1 + @ % g Z 4 < 2 9 @.u.3.+.o.X.+.1.l.l.1.1.1.1.l.P.O.,.F.b / _.`.k.>.G F F I C ! V s F 3.<.k.P.c.{ ' u.",
"K._ z ` p x &.n.C.P.F.c * % 8 w g g 1 @ < 2 B Y C V U o.,.1.1.v.5.+.+.+.>.J.>.u.3.x =.#XT.{ ] F F U U #.e.F V X.3.{ c.D.[ [ =.XX",
"T.j._ r.v l [ n.M.C.n.;.f j 8 @ 9 w % o & 4 9 B B C I F +.5.,.1.5.X.D D c u.,.,.3.b Z.%Xx.G X.H I o.H t.%.D D @.2.*.;.^ ' ;.b.@X",
"`.h._ S.( z c.k.k.x.n.H.e.| = o 0 2 @ @ < 9 0 q V Y I C o.,.+.3.%.D s q 6 e.u.,.{ *.$X$X{ X.+.+.o.F U u.%.F D $.2.<. .v | ' b.@X",
"`.m.=.G.G.g.L.k.g.k.z.n.u.{ J a f 0 : 8 w q C C B F C F +.3.+.U q.s 2 2 3 0.3.O.[ n.*X).{ X.5.3.U F X.3.+.] O.O.<.F.' b c b =._.",
"[.Z.g.h.T.(.(.h.-.<.n.c.$.X.@.p.e.$.J J J F T #.F V C +.3.+.o.F D s < 2 1 0.e.' *.`.).A.1.,.u.>.H H X.,.+.O.,.<.l.c.' b f G [ P.",
").!.h.h.!.).$Xm.g.c.n.v.G D ] %.u.3.@.L K I F X.#.s X.u.1.,.$.D 9 9 2 4 3 p.0.a c.`.x.v.>.5.,.O.D H +.1.5.1.n.C.P.v.2.c d c *.H.",
"^.[.N.m.R.[.{.N.k.n.n.5.G a s H $.%.@.@.F U U H %.] ,.n.l.v.u.V 2 2 e 9 u f.Z 3 Y.C.{ %.D D +.O.] ] 1.v.v.n.n.H.n.H.2.' d G c.U.",
"^.'.).R.~.].'.!.z.M.l.<.| s 0 s G #.X.F F P T F X.1.l.x.C.J.2.a 2 4 2 6 t.p.1 6 oX*.G U V G u.,.{ ,.n.x.x.x.l.x.n.4.' 3.O.>.C.!.",
"Q.Q.[.^.^.~.!.!.x.l.l.1.H V s a V F H F H H U U H 1.C.U.P.O.x a a d ] J. Xa & 0  Xc a D G +.u.>.<.v.l.l.l.5.1.1.1.*.' 2.>.l.U.!.",
"Q.E.^.{.~.~.E.B.M.x.x.F.O.G V s s B I H I U U H ] v.P.C.>.G %.t.s.}.Y.J.| 1 < g f.c 0 F %.$.<.v.l.v.x.l.1.,.O.X.4.,.O.5.l.n.!.!.",
"^.~.~.'.E.~.B.M.M.M.x.n.F.O.D s s s F T X.X.+.O.,.H.l.1.{ ] Y.1.1.H.F.O.g % < 0 W K s V p.K.H.U.x.k.v.l.1.O.O.{ ,.v.5.1.v.C.~.~.",
"'.~.R.~.E.!.A.z.M.A.C.x.v.2.G D D f J 0.X.+.1.v.5.{ 1.l.{ v.F.>.*.v.5.| 3 + < 9 q 0 0 0 c ' <.C.n.k.n.l.5.1.5.5.v.1.5.<.l.!.).'.",
"~.Q.W.].E.m.A.k.z.n.n.l.l.v.] D D n n G o.>.1.P.1./ x.n.*.n.1.<.>.n.3.@.1 # 2 7 4 2 4 q 0 a [ H.H.-.4.1.4.v.F.u.u.$.O.>.k.(.^./.",
"~.Q.W.{.!.z.C.x.<.l.F.l.v.v.] H m d u f X.O.l.P.v.{ z.`.P.x.1.1.1.F.X.C 1 1 2 9 4 2 9 q 9 a G F.T.&.*.[ *.5.4.>.>.{ O.<.M.'.].].",
"~.Q.W.{.~.z.M.C.l.<.>.1.,.1.O.3.w.p 6 d H X.<.P.x.k.M.(.(.(.n.1.5.+.I 0 & & < 0 h q q q 0 a G u.Y.-.;.[ { >.>.>.5.>.v.P.(.'.]./.",
"~.Q.^.&XE.m.M.l.v.1.+.+.{ $.O.$.w.L s s G X.*.n.C.x.m.(.M.k.n.l.>.X.F 2 & & 0 A Z q h q 0 s G u.H.-.;.{ ..2.2.2.3.O.O.<.B.'./.^.",
"~.N.W.&X!.M.M.l.1.,.3.+.] ..| x G T V s D ' <.x.P.z.A.(.*.] l.1.,.H q 9 2 4 h E s 9 4 0 6 6 x 3.F.[ ..] ] 2.3.,.3.O.] >.k.!.[.].",
").R.^./.E.!.C.<.O.G o.%.G } G d D I G | 3.u.H.x.x.M.(.l.G U u.1.3.F q 4 0 3 0 A e 2 < 9 w s c t.u.G ' ] H $.O.3.,.X.] >.l.x.Z.'.",
"~.'.{.^.R.!.(.<.G B V #.} b } d f D @.3.O.O.F.*.-.C.C.{ ] X.3.3.U F V s 4 1 6 h w 2 & 1 g D $.u.5.] G H ] X.X.,.,.,.+.+.,.l.n.C.",
"g.(.=X/.E.B.!.n.G s 0 s | [ | x D f ..] G O.v.{ *.H.,.O.X.U U U T V f @.m : 5 5 8 2 # = g C ] u.+.O.] H O.+.+.,.5.5.>.X.>.1.l.l.",
"g.m.=X].N.B.C.P.,.H B s F @.;.' x d L @.D O.u.' >.v.] +.X.F B C o.D ] K.K.k ; 5 8 & @ 1 4 0 V X.>.$.X.{ O.,.,.,.,.+.+.,.5.1.1.1.",
"M.B.*X'.z.M.x.C.P.1.T F H G 2.;.d y c G X.t.] G { v.J.] F F C V D >.P.P.Y.S.i ` 8 * + % 1 4 I H +.3.>.,.>.,.3.+.+.+.,.,.1.1.,.1.",
"N.'.*XR.k.x.1.x._.x.+.o.U F G u. .r a G %.$.a D O.K.2.G s F Y f v T.(.!.I.U.:.v 5 = O % 1 a 0.G +.,.1.l.1.,.+.+.1.1.1.1.1.1.+.1.",
"N.$X[.N.x.l.<.l.).x.1.+.%.U c ..K.( x { ;.b 6 s G 3.G ' G a c 2.+X`.`.`.P.b..X .n *   % 6 D U G +.1.v.x.1.,.,.1.1.1.v.l.1.,.,.,.",
"N.[.).B.l.1.>.<.(.M.<.+.3.U D G F.b.L.L.V.G.G a f G } v x x / OXT.P.P.n.F.v ;. Xd.d : g K @.U H >.1.C.C.x.l.,.1.l.n.x.x.1.1.l.l.",
"B.~.E.M.<.>.] l._.M.1.,.,.H H +.<.C._.(.I.XX$.P D d [  . .J.K.*.[ { *.v.J.y l  .L d a E @.+.X.+.1.1.n.x.l.l.1.l.l.x.C.x.x.n.x.C.",
"B.M.A.C.1.{ b F.U.x.1.,.+.1.3.>.' P.`.M._.H.G @.c x ( S.Y.F.| D a d ..u.8., t ) n : 3 a $.,.1.v.1.>.l.1.<.5.l.v.l.l.M.C.C.C.A.U.",
"C.M.C.A.x.>.c F.U.l.>.,.l.C.n.] *.Y.<.c.4.v D @.x v ( =.c.{ G 0 f J | } p y l 7.d 3 @ 6 $.v.v.n.,.,.5.,.] %.,.5.,.<.x.A.B.B.B.M.",
"x.C.x.C.U.l.' $.U.>.>.1.P.A.x.<.U.P.$.P 6 0 V T ' ;.g.g.k...D a W m N 5 : n  .y.x = & f 3.F.v.F.3.+.t.X.0 9 P X.H X.l.x.C.C.M.M.",
"x.M.x.x.U.x.] X.H.*.] v.!.!.l.C.U.-.f 4 9 s V H $.D.L.L.n.y.f d L 5 :   * M F.K.W a B 0.,.,.O.{ H H X.H 9 < s Y f D ,.x.x.x.x.C."
};
