/* XPM */
static char *_87f6e32b2ec4bbdb47bb2459961ca02[] = {
/* columns rows colors chars-per-pixel */
"64 64 253 2 ",
"   c #A42F00",
".  c #AC3200",
"X  c #AD3A03",
"o  c #B43500",
"O  c #B43A01",
"+  c #BC3C00",
"@  c #C43D00",
"#  c #CB3D00",
"$  c #BD4201",
"%  c #B04A0C",
"&  c #C44403",
"*  c #C94402",
"=  c #C34B02",
"-  c #CD4B02",
";  c #D44500",
":  c #DB4600",
">  c #D34B00",
",  c #DB4C00",
"<  c #D24B08",
"1  c #C85608",
"2  c #D35501",
"3  c #DD5302",
"4  c #D15A01",
"5  c #DE5B02",
"6  c #D6570A",
"7  c #DC5A09",
"8  c #C75B17",
"9  c #D75E14",
"0  c #E14D00",
"q  c #E35300",
"w  c #E85600",
"e  c #E45B01",
"r  c #EA5C00",
"t  c #E15508",
"y  c #E35B09",
"u  c #DC6303",
"i  c #D5620C",
"p  c #DC6A0B",
"a  c #DF700C",
"s  c #CC6011",
"d  c #DA6519",
"f  c #DD6C1B",
"g  c #DB7810",
"h  c #E56302",
"j  c #EB6400",
"k  c #E66C03",
"l  c #EB6C01",
"z  c #E56309",
"x  c #E66C0B",
"c  c #EA6C0A",
"v  c #F16600",
"b  c #F16C00",
"n  c #E67304",
"m  c #EC7303",
"M  c #ED7B03",
"N  c #E5740C",
"B  c #EA740A",
"V  c #E37A0C",
"C  c #EB7B0A",
"Z  c #F17301",
"A  c #F27C02",
"S  c #F2730A",
"D  c #F27C0D",
"F  c #E36515",
"G  c #E56C14",
"H  c #E56D1A",
"J  c #EB7314",
"K  c #E37A14",
"L  c #EC7D14",
"P  c #E2731B",
"I  c #E6761A",
"U  c #ED7A18",
"Y  c #F27B13",
"T  c #F17B15",
"R  c #C8782F",
"E  c #DD7824",
"W  c #E37B24",
"Q  c #E87A21",
"!  c #EE8304",
"~  c #EF8A05",
"^  c #ED830B",
"/  c #EE8A0B",
"(  c #F38402",
")  c #F38C03",
"_  c #F88C02",
"`  c #F28509",
"'  c #F28C0B",
"]  c #EF9007",
"[  c #EF930D",
"{  c #F49304",
"}  c #F89403",
"|  c #F59A05",
" . c #F99C04",
".. c #F2930C",
"X. c #F8910D",
"o. c #F59C0C",
"O. c #F89C0C",
"+. c #ED8513",
"@. c #ED8B13",
"#. c #EB831A",
"$. c #ED8D1B",
"%. c #F38415",
"&. c #F38C13",
"*. c #F18C1B",
"=. c #EE9214",
"-. c #EF9914",
";. c #EF941C",
":. c #EF9A1C",
">. c #F29413",
",. c #F39C14",
"<. c #F89914",
"1. c #F89C15",
"2. c #F1951B",
"3. c #F29B1B",
"4. c #F8A305",
"5. c #F6A30C",
"6. c #F9A40D",
"7. c #FAAB0E",
"8. c #F5A314",
"9. c #F8A614",
"0. c #F6A914",
"q. c #F9AC15",
"w. c #F4A31C",
"e. c #F8A41A",
"r. c #F6AB1C",
"t. c #F9AC1B",
"y. c #F8B51A",
"u. c #F9B41C",
"i. c #DD8333",
"p. c #DD9030",
"a. c #EA8222",
"s. c #ED8B23",
"d. c #E68628",
"f. c #EC8C29",
"g. c #F38D22",
"h. c #ED9323",
"j. c #EF9B24",
"k. c #E59229",
"l. c #EC942C",
"z. c #EE9B2B",
"x. c #F39423",
"c. c #F29C23",
"v. c #F89925",
"b. c #F2952A",
"n. c #F29C2C",
"m. c #E38431",
"M. c #E88934",
"N. c #ED9A32",
"B. c #EC9C3C",
"V. c #F19C32",
"C. c #F19B35",
"Z. c #EFA32D",
"A. c #F3A324",
"S. c #F8A627",
"D. c #F5AB24",
"F. c #F8AE23",
"G. c #F2A32B",
"H. c #F4AB2C",
"J. c #F7B324",
"K. c #F8B324",
"L. c #F7BB24",
"P. c #FABB24",
"I. c #F6B22C",
"U. c #F8B32B",
"Y. c #F7BB2B",
"T. c #F9BB2C",
"R. c #EEA332",
"E. c #EBAC3A",
"W. c #F2A433",
"Q. c #F3AB33",
"!. c #F8A931",
"~. c #F2A63A",
"^. c #F3AD3B",
"/. c #F5B334",
"(. c #F8B534",
"). c #F6BA35",
"_. c #F9BC34",
"`. c #F5B33B",
"'. c #F8B43B",
"]. c #F6BB3C",
"[. c #F8BC3A",
"{. c #FBC22C",
"}. c #FAC334",
"|. c #FCCA35",
" X c #F7C13E",
".X c #F9C43C",
"XX c #FBCB3D",
"oX c #FDD038",
"OX c #E49C42",
"+X c #ED9E43",
"@X c #EDA345",
"#X c #E7AB43",
"$X c #EDA649",
"%X c #F1A944",
"&X c #F4B443",
"*X c #F6BB44",
"=X c #F8BC42",
"-X c #F8BB45",
";X c #F4B54A",
":X c #F5BB4A",
">X c #EFB552",
",X c #F0B353",
"<X c #F6BD53",
"1X c #F4BE5A",
"2X c #F7C145",
"3X c #F9C443",
"4X c #FACB44",
"5X c #F6C24C",
"6X c #F9C54C",
"7X c #F7C849",
"8X c #FACC4C",
"9X c #FCD245",
"0X c #FBD24D",
"qX c #FDD849",
"wX c #F6C453",
"eX c #F8C553",
"rX c #F6CA55",
"tX c #F9CC54",
"yX c #F6C55B",
"uX c #F8C759",
"iX c #F6CA5D",
"pX c #F9CD5B",
"aX c #FBD254",
"sX c #FCDA55",
"dX c #F7D25E",
"fX c #FAD35C",
"gX c #FCDB5C",
"hX c #F5C563",
"jX c #F6CC63",
"kX c #F8CD63",
"lX c #F7CB69",
"zX c #FAD363",
"xX c #FBDB64",
"cX c #F7D368",
"vX c #F9D46B",
"bX c #FBDC6C",
"nX c #F9D571",
"mX c #FADC73",
"MX c #FADD7B",
"NX c #FCE165",
"BX c #FCE16C",
"VX c #FCE373",
"CX c #FDE977",
"ZX c #FBE47B",
"AX c #FDEA7C",
"SX c #FCE581",
"DX c #FDEA83",
"FX c #FCE689",
"GX c #FDEC8B",
"HX c #FDF287",
"JX c #FDED91",
"KX c #FDF293",
"LX c #FEF298",
/* pixels */
"aX0XI.[.).6XfX0XU.(.fXXX5.8./.u.{ _ ( 5.O.D %.g.*.) Z S -XaX<XxXfX0XI.).(.`.-X(.D.3.>.] ) ) ) ~ 3.A.G.&XyXbXzXdXU.( j c :XaX6XbX",
"=X].,.3.Q.eXpX2X/.`.rX).D.H.I.5.8.| ) 5.' Y U $.*.] m *.&XzXeX X).].8.w.H.-X*X/.w.3.,.' ~ A ! ~ v.^.:XyXnXmXbXtXI.) M *.:XzXeX4X",
"*X:XR.z.%X<X&X^.E.#XE.R.Q./.H.=.w.o.] { ' Y J K n M m ^ ^.yXaXw.Z.^.n.V.~.&X`.`./.Q.G.3.~ ! +.f.C.&XeXiXcXcXdX3X1.( A @.~.yXfXt.",
"mXnX1X$X@Xz.M.B.@XV.b.h.z.l.l.j.@.@.@.! ..^ x p u n j C ^.<X:X$X+X$X+XOX@XZ.W.`././.n.#.B U Q m.N.-X7X-X3X`.`.g.m M M n B.kXmXmX",
"HXmXhXOXm.Q Q W W s.s.a.W P K N p i a M ^ ^ n h 5 n @.$.N.M.M.i.M.M.i.R d.s.s.h.x.f.a.E W a.#.$.z.`.z.Z.I.:.*.p 4 u l P +XkXmXDX",
"HXZXhX$Xm.H F F d l.b.9 8 1 > & $ - 5 k k m n r k @.;.G 8 8 % 8 d f f 8 d G J U I H 8 8 f @.h./.D.#.9 K ..c 6 % X = 7 f B.&XtXCX",
"VXmXkX;XM.H y t z @.@.5 & @ o . + h C n e M ^ n k n 5 * & + X $ < 6 y 7 x C C B x < $ & 6 [ w.2.z * = x M r * O & 6 G E k.@.,.(.",
"6XzX2XZ.M.H y h k k n e : # @ ; u C Z.C C =.k h h 3 @ . . o O , , w 0 h M -.=.e # . 4 e V r.M ; @ ; , h e ; * ; w k L E V k e Z ",
"pX8X8.:.f.G t n n h k q e e h h n :.Z.;.Z.^ w z n ; # .   . & k.W.B n M h V o.n @ + u ] >.M 3 o + , n ~ ; . + 3 M A y p h w e Z ",
"zX7X`./.c.G t t B ^ ^ n V j.:.@.^ Z.*X5X/.e , N C x x & + ; e &XxXJ.w.Z.~ ~ -.:.U z m ~ l ; ; @ + , ^ 8.u . & h { ! e e h h m v.",
"bXfX2X(.2.L u : 3 M j.@.n z.E.*X=.z.`.A.;.n B R.H.`.H.Z.V e e s.7X,.^ Z.I.[ l x Q.D.[ ^ M ; = u 5 l M 0.1.n k ~ { k l n Z M *.uX",
"gXaX_.D.3.=.^ h e N C k q e #.`.j.&X-.j 5 n j.D.G.eX).I.[ ~ l h z.Z.=.:.I.>.e 7 E.}./.3XJ.^ Q.J.| m n ~ ] | w.0.{ ! ) { ) _ Q.bX",
"_.K.<.>.~ M +.j.h.@.M n x N N =.:.;.h 0 e ! -.3.A.D.C B ] [ [ k B *XaX].[ n l M ].8X7X4Xr.Q.8X.X8.k l m ] D.).Y.J.5.q.9.{ >.:XsX",
"(.U.A.D.[ M $.E.:.M C R.yX5X:.! M w 0 q h M h.Q.=.h : h ~ Z.D.e x &XNXY.h h n A [ ). XI.-.I.7X Xr.M l M :._.}.Y.Y.L.J.x.G.;XfX8X",
"_.'.)./.A.:.Z.Q.^ h h E.pX;.n C n q 0 k n n z.=.h 0 e n [ Z.^ e l.dXgX=.q w j m n ! / ..] /.7X0X XI.8.5.8./.L.0.8.r.3.b.;XkXfX8X",
"pX[.U.'.5X&XZ.Z.M e z ;XD.h e M @.C w n z.Z./.` w 0 h / [ A.@.@.:.I. X-.m k M n k 3 3 l ! D./. X4XY.| M j ^ 5.( m n D v.&XhXzXxX",
"BXtX:XeXpX=X+.k +.+.+.`.~.z.@.n M ^ n M j.`.A.! h w e k @.`.5X).] =.:X/ l ( m j r & * j j h l +.).J.k ; & h { M w l ! A b.1XnXCX",
"NXfXfXpX-X2.k k ~.wXE.R.2.E.Q.^ ^ z.Z.;.c.3.M / / k h L ^.dXxX7XD.&X7X+.h M h w e ; 5 r q 0 ; - @.~ 0 @ $ e ! ( w j Z b s.yXxXgX",
"aXfXbXzX`.z.g.;.^.5X<X^.;.j.;.-.-.j.Q.&X*X:.@.;.j.;.@.Z.5XD.!.rX*X*XtX3X,.l w e k m l 0 # * + & h r , + ; e m Z w q z J b.'.3X8X",
"aXfXxXbXcXiXeX<XD.=.:.:.W.`.Z.3.~ M h.<X2X`.*XA.H.*XzXdX).=.Q.rXzXzXzXxX1.0 h M A ] l # O O $ 3 r w w , w r l j q t G U v.!.wXxX",
"VXmXbXbXzXdXcX5X^ k ^ j.&XeX*X,.n j +.A.:.Q.rX:.>.`.vXVXzX2X`.5XtXvXxX4X] w B ,.) ! q O O + ; w l l l l M A Z r : t J Y C k.dXCX",
"CXVXxXzXpXkXwX*XM j n c.Z./.>.n w n ;.,.! j.iXr.( V.vX8X2XbXdXpXrXNX}.] M ^ D.A.( M q @ & * 3 w j ! [ | { ) A r , w J Y K OXjXCX",
"xXgX).`.eXmXzXZ.C n +.:.~.D.=.C B $.G.! k ;.5X-./ Z.).^ #.cXBX2X3X4X~ h ! Z.rXrX).w.^ z u n C >.,.0.0.5.| _ m r , 3 G T p.#XiXNX",
"=X!.:.;.:XbXvX&X&XE.Z.;.&XQ.j.A.&X-X3.j n H.-.! =./ m j h.rX8X&.B C j j M A.rXNXNXxXaXD.,.| A. XY.I.5.~ M l l j w r z #.z.#XrX7X",
"W.x.2.3.Q.dXjXiXcX*XA.;.W.-X;X<XeXwXQ.$.R.3.n M >.m j M H.w.] r e l j m M !.dXxXNXxXgX X).J./.T.9.` Z j m M ~ A l Z D ^ h.Z.^.!.",
"v.n.>.>.W.wXuXeX`.A.;.Z.&XiXcX7X`.;XiXwX5X3.` M / M l ^ -.] ! n l M ! ] j.eXxXaXdXgXY. X3X XT.o.Z r w j ~ 8.r.5.( [ { m V ~ 3.W.",
"F.Q./.`.`.`.`.^.;.~ :.G.Q.;X].o.~ G.&X:X5X&XQ.] ..M m c.`.A.] / >.Z.`.5X5XzXxX8XfX0X9.D.r.r.5.Z q q r Z ' t.y.{ )  .{ / *.&.>.e.",
"I.*X5X5X`.Q.&X!.c.3.j.c.Z.Z...M ! ,.=.A.Q.wXpXH.c.Q.Q.:X].8.] A.H.;XpXxXxXgXfXXXY.I.o.o.5.o.! h , q l ] 5.O.A Z { 0.0.w.2.' ~ S.",
"tXzX8X/.G.`.^.G.^.3.:.G.G...M C @.../ 3.Q.5XpXcXzXzXpX3X8.>.Z.wXeXvXgXtX).)._.o.( [ 1.o.( { ( j j Z ) o.9.l q j [ J.Y.K.o.' j.eX",
"AXmXzX'.A.c.c.W.`.c.v.:...! ^ ;.' ! =.A.j.`.kXZXDXZXbXeXQ.`.jXZXCXZXVXgXr.-.w.] ~ 3./.r.( ] { Z r Z ] 0.) 3 3 l { J.}.Y.D./.yXAX",
"AXfX3XD.....~ Z.:X`.G.=.~ @.G.Q.~ M ! >.>.!.iXVXZXBXaX2XxXbXZXDXAXfXtXJ.>.w.~ A [ o.H.).D.1.o.j r j A 9.A w w b _ 8.{.T.8XpXmXHX",
"CX7XD.A.c.>./ j.W.Z.>...' >.G.D.~ ` ~ >.c.&XiXcXtX>.m ^ &XfXdXVXCX7XD.w./.:XD.H.8.[ `.8XJ.8.r.A v j l o.) j r j Z ] D.8.I.4XuXCX",
"pX7XH./.H.2.*.:.:.>.~ ! ) ~ / ] ;.c.n.^.wXvXzXdXI.A w c :XtX:XxXpX8XH.).`.5XpX7XI.H.pXXX5.,./.r.) ) ! o.| b v j b >.<.~ n.*X-XbX",
"[.2Xw.w.w.3.3.>.&.' ] ! ! A ( ' G.`.<XkXmXZXmXuX/.] M ;.5XbXpX[.).2X8.r./.dXgX4X[.=XfX|.D./.Y.5.5.{ ) o.( v v v A 5.A S V.eXtX4X",
"-X6X'.!.W.n.n.j.c.:.2...M ! 2.~.&X:XpXmXDXDXmX8Xo.( ! ,.:XnXxXr.`.5X).`.eXxXpX7X8XtX8X[.3X3X}.r.J.5.| | _ m b b Z | Z S V.tXaXt.",
"nXnXcXyXiXeX;X&X^.`.&XA.2.c.!.&XeXiXcXbXvXbXdX).] ! ( [ yXDXAXvXnXZXVXmXVX8X7XzXxXaX3X3X7XtX8X}.K.J.q.| o.5.A A ( ( b m !.kXbXvX",
"nXcXlXhXlXkXkXiXhXkXcXuX<X<X&X;XiXnXcXpX5X-X/.1.) ( ) G.nXDXAXAXHXAXAXCXbXtXtXgXfXaXaXtX8X4X_.e.9.0.u.6.5.7.{ ( ( b j L ^.eXcXvX",
"jXhXhXhX1XeXyXvXMXvXbXMXMXmXlXcXzXpXdX8X].`./.D.>.>.j.&XbXaXfXVXDXDXDXAXAXBXbXxXxXxXgXfX0XK.A b A _ | _ ( _ _ ( Z r l U Z.E.#X1X",
"$X>X1X<X;X-XeXiXMXeX-XkXZXZXFXbXeXtXkXcXeXjX6XeX*X-XvXVX4Xr.8.`.bXAXAXAXAXCXVXZXVXxXsX9Xu.) v r m ( A Z Z Z A ( b w i P #.V g k.",
"f.B.~.&XeXyXyXcXcX-X/.<XmXDXSXxXiXkXMXZXmXSXnXmXbXpXdX0Xr.Z j D -XbX0X8XVXCXCXVXVXBXsXq.{ b r r A ) ( Z A A ( _ w - 1 s 1 2 > h ",
"&XG.j.`.1XvXmXpXeX-X;XkXnXDXZXnXbXMXDXDXZXsXtXmX8Xo.w.K.A r w D eXaX9.!.zXbXBXBXBXNXoX .) Z j Z { o. .| { o.6._ q $ = 1 = & 2 %.",
"xX).`.5X<XrXpXwX&XyXkXeXzXMXmXpXkXmX8X XT.' H.[.o._ ..) b b Z G.uX7X/.T.3XaXBXxXBXxX.XD.e.1.>.D.U.U.K.K.T.}.y.( w - 2 2 ; , h ^.",
"0XD.Z.:XtXkXcXnXvXmXZXnXmXSXxX&XeX).e.{ ) &.-X(.1.] ) ( Z A =.uXbXpX X6...<XBXVXBXbXaX3X8X3X_..XXX.X_.T..XXX{.0.` Z c Y l h h s.",
"Q.^.W.*XcXvXnXmXzXcXSXDXFXGXZXnXzXD.<.3.G./.<X`.6.{ { ( Z ~ !.vXxXsXT.{ >.6XbXBXBXBXsX8XgX0XT.}.4X.X}.T.3X|.}.{.y.| ` ` A A k c ",
"B *XzXpXuXkXMXMXnXvXVXxXaXzXAXGXzX'.w.^.yXnXfX].w.S.G.>.( *.eXtX_.K.} 1.5.w.tXxXBXNXaXzXxXoXT.[.4X}.}.XX9Xu.y.u.u.4.) A A / =.Z ",
"C &XBXfX;XhXMXFXSXmXpX'.Q.:XnXAXmXvXyXvXZXDXmXpX6XzXpXeX-XuXxX4X(.D.3.F.| <.8XfXbXBXxXxXxX4XT.T.7.9.[.4X4XP.4.6.T.6.) Z ` c.c.w ",
"Z.zXxX-X,XlXZXZXAXZXbXeX-X-X-XeXzXZXSXFXGXAXbX8XeXxXbXmXZXCXxX6X_.(._.9.o.S.pXBXBXBXNXsX0X4XT.7. .D.3X4X|.7. .t.|.K.{ ( ` 3.^ w ",
"3./.eX-X,XcXmXzXzXzXzXkXeXeX-X-XnXAXZXDXHXDXzX).eXZXgXaXVXAXBXzXuX[.F.D.'.5XfXBXBXBXgX0X4XT.K.6.9.T.4X9X{.q.t.T.XXT.6.{ / 2.&.=.",
") ;.wX&X;XiXvXkXzXvXmXmXkXfXzXMXSXDXDXbX4XfX3X5XxXgXq.O.=XCXVXVXbXtX6X6XaXaXxXBXBXbXsXaX.XT._._._._.0XXX{.P.T.P.P.u.e._ ` W.:X}.",
"H.-XpX^.%XeXiXMXFXJXDXZXvXvXbXvXmXbXVX4XF.!.!.6X7Xe.( ( !.mXVXgXxXfXxXfXfX3XaXBXBXgXxXsX3X_.u.K.9.[.aX9X{.T.}.y. .} } X.D.<XdX0X",
"[.5XfXdXeXlXMXJXGXgXfXmXVXmXaXpXeXtXfX(.F.D.!.tX_.e.!.G.&XaX6X8X0XfXBXBXxXaXfXBXBXNXBXNXxX0X7.} K.8XsX9X|..X{. .A Z _ e.(.D.H.pX",
"xXzXcXVXkXlXFXLXZX-XeXmXAXpXtXpX6XpXzX6XI.'.-X6XeXuXfX8X4X[.tXzXaXzXbXBXVXxXBXBXNXNXgXNXgXXXu.e. X8XsX9X4X|.7._ A A &.U.J.o.Z.tX",
"aXbXbXxXeXkXMXGXAXkXkXZXGXvXzXpXkXmXVXfX].U._.tXbXzX4XT.O.(.bXCXVXMXVXbXBXBXVXsX{.F.K.4X|..X4X8X4X0XsX0X0X{.} } _ } 1.T..X).`.6X",
"aXbX7X`.<XnXZXFXFXZXmXSXJXAXbXmXZXAXmXbX_. .S.zXCXxXtX(.D.'.xXCXCXCXAXBXgXxXNXP.( r b 1.T.3X.XP._.0XsXsXsX9X|.P. .4.e.P.Y.eXtXpX",
"3X8XG.b.<XMXJXJXGXJXJXGXGXHXbXsXgXmXtX[.9._ S.zXVXxXaX6XeXtXzXBXBXBXsX0XtXxX|._ b e r <.6X9Xq.} F.8XsXgXsXsXsXqXu. .O._ ^ wXxXtX",
"B ^ U b.;XZXKXLXKXKXGXKXKXxX-X=X'.zXaX-X'.'.=XvXbXvXfXzXxXxXbXbXBX8X.X_.8XxX}.A Z b Z !.gXu.A ( U.0X9XXXsXsXsXsX|.4.A b %.-X4X>.",
"r l T x.&XmXKXKXKXDXAXGXCXzXpXeX-XpXaX8XmXgXzXmXCXCXxX8X4XfXBXBXNX8X.X8XfXxXaX<._ 1.e..Xu. ._ _ <.X._ A I.sXqX9XoX6.Z b <.1.~ v ",
"b L 2.H.-XnXCXDXGXGXSXSXxXzXkXaX&X(.K.(.eX4XfXBXVXxX}. . .9.4XxXxX0X7.u.4XxXBXtX_._.[.}.X._ _ z q y r Y [.oX{.T.{.7.A A X.' ! Z ",
">.Q.:XtXiXvXxXzXxXCXMXVXzXzXaX6X;XH.3.D.U.'.8X3X3XU.O.>.e.} e.3X8X_.O.X.U.tXxXgXtX XpX7XU.&.c 2 4 B ' e.K.K.y.u.T.q._ X.A.<.' { ",
"U.:XzXmXmXxXgXtX3XtXpXpXpX8X-Xn.V.V.v.!.(.(.r.X._ e.!.T.1.` A e._.U.v.v.S.U.8XaXtX7X7X3XT.&.n h l )  .X.<.e._.K.q.u.<.x.v.>.) G.",
"pXvXBXbXpXtX3XH.G.`.5X-X!./.Q.x.*.g.w.r.K.=.D %.c.(.5XK.' ( *.&X4X-X).!.e.!.=X].-X`.).I./.,.Z Z D ) ' o.v.(.7X4X3X4X(.S.X.~ z.uX",
"AXVXAXxX_.H.I.A.c./.=X).v.1.8.%.Y %.,.r.<.x U x.(.8XaX(.V.!.<XzXxXzXgX3XF.w.U.H././.H.A.3.,.&.*.` ( ' w.w.`.pXxXbXbXpX'.n.R.yXAX",
"DXgX0XI.3.D.>.' ..w./.).F.e.o.Z v v ` 0.! z U b.'.3X3X).fXzXmXCXZXaX7XK.<.A./ *.!.Q.A.>.] >.V.H.~ A ! 3.>.!.uXbXVXxX8X-XdXcXmXDX",
"AX8XK.w.`.3XF.H.e.} '.8XT.e.r.A v v b O._ S Y x.S.<.&.X.'.gXxXAXCX8XF.w./.(.1.D.!.D.3.<.X.>.!.U.) ( ) >.e.&XzXxXfX1.A ` -XgXxXAX"
};
