/* XPM */
static char *_3be78ed3641458c9d28f98641955875[] = {
/* columns rows colors chars-per-pixel */
"64 64 172 2 ",
"   c #24231E",
".  c #2B241E",
"X  c #2C281F",
"o  c #332C1F",
"O  c #3B291F",
"+  c #1C1E22",
"@  c #201E23",
"#  c #1D2225",
"$  c #1F2827",
"%  c #1E242A",
"&  c #242524",
"*  c #2A2723",
"=  c #262925",
"-  c #2C2A25",
";  c #23262A",
":  c #2B262A",
">  c #252A2A",
",  c #2C2C2B",
"<  c #322722",
"1  c #342C25",
"2  c #3B2E24",
"3  c #332E2A",
"4  c #392E29",
"5  c #2E302C",
"6  c #353126",
"7  c #3B3126",
"8  c #34312C",
"9  c #3B332B",
"0  c #3D382E",
"q  c #272A31",
"w  c #2C2D32",
"e  c #2F3431",
"r  c #343332",
"t  c #3B3531",
"y  c #373833",
"u  c #3D3932",
"i  c #393B3A",
"p  c #422E25",
"a  c #402F28",
"s  c #433325",
"d  c #4B3525",
"f  c #423926",
"g  c #4D3A26",
"h  c #43352B",
"j  c #4B362A",
"k  c #44392D",
"l  c #4C3B2C",
"z  c #533624",
"x  c #543B26",
"c  c #5A3B25",
"v  c #523629",
"b  c #533C2C",
"n  c #5A3E2B",
"m  c #413632",
"M  c #483730",
"N  c #443B32",
"B  c #4B3C32",
"V  c #433E3A",
"C  c #493E38",
"Z  c #533E31",
"A  c #5C3F31",
"S  c #623E25",
"D  c #623F2B",
"F  c #5C4027",
"G  c #55412D",
"H  c #5C422D",
"J  c #464034",
"K  c #4C4133",
"L  c #474139",
"P  c #4C443C",
"I  c #544233",
"U  c #5C4432",
"Y  c #5C4935",
"T  c #554539",
"R  c #58463A",
"E  c #5D4A39",
"W  c #624227",
"Q  c #6C4226",
"!  c #64432C",
"~  c #6B452C",
"^  c #65492E",
"/  c #6D4A2D",
"(  c #724526",
")  c #754A27",
"_  c #794B27",
"`  c #72462C",
"'  c #734B2D",
"]  c #7B4D2C",
"[  c #76512E",
"{  c #7C512E",
"}  c #634632",
"|  c #6A4632",
" . c #644A33",
".. c #6C4C33",
"X. c #624C3A",
"o. c #6B4E39",
"O. c #704731",
"+. c #734D32",
"@. c #7A4D32",
"#. c #704D39",
"$. c #6D5135",
"%. c #67513A",
"&. c #6D533A",
"*. c #745234",
"=. c #7C5333",
"-. c #7D5834",
";. c #745439",
":. c #7C5539",
">. c #755A3C",
",. c #7D5A3B",
"<. c #6C5641",
"1. c #804F27",
"2. c #824D2D",
"3. c #894F2A",
"4. c #85522D",
"5. c #89542D",
"6. c #875A2F",
"7. c #8B592E",
"8. c #945428",
"9. c #94592E",
"0. c #9C5829",
"q. c #824E32",
"w. c #835433",
"e. c #8B5532",
"r. c #855A35",
"t. c #8B5B34",
"y. c #835639",
"u. c #845B3A",
"i. c #8B5D3A",
"p. c #925632",
"a. c #925D33",
"s. c #9B5E34",
"d. c #935F3A",
"f. c #985E39",
"g. c #A05D32",
"h. c #99612E",
"j. c #856137",
"k. c #8E6034",
"l. c #84603C",
"z. c #8D623B",
"x. c #956135",
"c. c #9B6235",
"v. c #9D6A37",
"b. c #94623A",
"n. c #9B643A",
"m. c #956A3E",
"M. c #9D6A3D",
"N. c #A26435",
"B. c #AE6433",
"V. c #A46933",
"C. c #AA6D36",
"Z. c #A0673A",
"A. c #A26A3B",
"S. c #A96E3C",
"D. c #B36C35",
"F. c #B16F3B",
"G. c #A7723E",
"H. c #AC753D",
"J. c #B3753E",
"K. c #BA733D",
"L. c #846246",
"P. c #8E6441",
"I. c #906240",
"U. c #956841",
"Y. c #9A6A41",
"T. c #97714C",
"R. c #A37241",
"E. c #AF7C43",
"W. c #A17149",
"Q. c #B37840",
"!. c #CD8539",
"~. c #B88448",
/* pixels */
"h N +.C.-.i.w.h.] 3 t +.k m 8 2 d +.h , U | , 4 * | b , y +.2 8 d N *.V.=.e.*.A.a.9 r +.7 t 8 s g ~ s : H / > 4 = *.g - , ' 7 1 ",
"t Z x.7 ; p ..e.4 3 B U t F +.z +.t 4 9 ^ I r t 3 / o.Z U 2.< 3 9 K m.7 # h ..t.t 3 B  .4 n ` Y +.k 3 4 W G r t r *.$.Z R q.8 8 ",
"3 z.n   3 N g k.9 8 s a.H =.Z 1 8 0 2 8 x 9 r j C *.b b / t.| 1 > j.c * 8 k g a.y 7 7 5.n [ j t r 0 2 - n t u Z f +.g g +.5...5 ",
"+.t.) y.*.B 4 t.Y 5 ' ^ - j j 9 B p ' 4 s ~ d Q u.I Y h v o.F w.r.t.*.L./ g 7 z.I 1 @.' * h d h l 7 +.7 h | n +.:.j n 7 g W z 2.",
"Z k & j =.9 : b Q.b - c U C A r j 9 4 k ! 8.7 , K I | l N n *.#.7 f 5 h :.0 * I H.Z 5 n } B F 5 l u 9 p } v.j , h b &.U s g | ' ",
"U Z k - ! =.4.C.G t.=./ v *.n - 7 h & n 4.h F - Z Z j [ $.b j S n Z 2 * ^ =.2.D.b n.u./ Z +.Z & h C * j t.h F * h R I q.| X.l | ",
"s 4 n l L u.i.s.- a.} = - 5 m 4 5 < ~ ] t.l { 5.*.; l b.4.} / { h 4 E C 9 w.k.c., z.H 5 1 * 0 2 , o ~ =.b.b =.r.>.w l I.a.| / ' ",
"W 2 = t N b.I & W o., 9 f 9 n g 1 ! ^ l m.l.  t i.z.z.M.u.n D.x.W 0 3 9 V z.Z & *. .* 4 N 0 F Z & W } l T.L.& 9 r.a.w.f.{ x B.e.",
"z +.q.9  .n.^ / n.} 8 0 t j z 7 b =.a g =.G - , , B [ b : 3 e.5.F ' +.p o.x.H +.x.| 8 4 5 U b 2 j ' h F { Y 5 * 3 B o.Z 0 t r.2.",
"g , } Z.s.9 u.G 0 w./ a.[ { n r a u H G d < 4 g s M u.- - 9 +.5.G , H v.n.h =.G f :.+.7.` ] g 9 B 4 U I 0 . k b G f u.e 8 7 @.a.",
"N u e ;.+., S b , t 8 v ] g h W ] =.j., 3./ Z = | i.N u Z P n ` s 5 , / Q , F d , 0 4 v :.g k  .y.| o.b * 9 k k 0 #.U 1 a 4 A *.",
"0 G n { ~ v 7 7.f 7 h a h 3 5 8 , } w.t./ 6 a A H 9 3 9 g I 0 9 h G H { +.Z 2 3.0 7 M 7 M w 3 1 8 5 *.=.o.b 4 h 1 u.p 5 l Y 7 , ",
"f U n 4 K Z U 5.g h 9 a K I } 0 6 :.3 s / 3 g q., 3 M 8 H c 3 Z l } H k E I n r.b h l k C U U n $.o.x.  M { 0 , G i.3 3 o.c 1 I ",
"j *.$.8 ! j t s.Z ' t.n  .E 9 7 1 k.a , #.7 S | B h C B | v 4 b 7 ^ | 1 H Z N c.j / r.Z U Y u 9 G G r.` 8 I 2   ^ | 8 0 | G 2 Z ",
"M ' h 5 b G 8 r.o.+.u.% g #.w 3 +.9.6 < l n.k & g 6 2 4 F l B k j @.j = b U i I.! 7.D.F b 4 o.* > = 7 7.& = G d 0 c M N } Z h 6 ",
"3._ * 1 8 9 G I [ x.+.@.7 ;.a.+.a._ 5 9 N ' g b ^ U t - 0 Z ^ h 5.q., 1 3 N Z U b +.g.@.n +.t.4.f 9 O k.U s G 4 7 | H , f B W b ",
"s A.Y - Z } j * W n m n d.x.Z k - d.j.y M 1 $.! I t U b t k S j p M.G ; l g p 2 * g +.c Z a.t.( q.>.b b E.= = = - ' b 6 Z 7 W d ",
", Y | . Z } n F / 9 k 3 n 5.> , l g ..m.b.$.{ , m N g I 7 6 @.n 1 } ^ < U g * ! h 5 I M W Z - [ t 0 C > j.a., G o.H 8 M d 1 ' j ",
"m 7 , 0 & , 7 ] T t k 4 X.} * S l & 8 t.g Z.Z r 8 7 c 2 ` G Y 1 8 7 3 , & 2 ; 7 Z % W W 4 d 4 4 3 8 , F p.r.1 e.{ 9 K I _ n Y 0 ",
"u.r.n a.g 0 8 h r.y r = H c.~ ) +.b ] !.M ^ h ; 2 p =.+.c w.` s r.z.n +.=.U g t.z. .K.M.M , d ` *.g ^ / 4 / ! & +.b.k.T c 4.+.b ",
"C.o.h F b.N 3 ; ` +.m l { +.0 5 j @.5.W 9 { =.b { N.[ 8 8 > 7 5 v.G s c b c.a.] r.d.j G H.[ 9 0 U *.J.2 , t 6 1 > } H , , , 9 7 ",
"v.I 8 - U *.m / @.4.! 5.} a 0 I 4 8 a.n h _ *.:.m k j 3 5 2 9 5 x.H c ' f { > ; > Z 7 ; 3 s.` j = ; H v.6 r 9 > e k. .t 5 8 9 8 ",
"/ H m C , w.#.M Z  .c D c H 7 s K w ~ r.u.l q u h k 7 7 g H G , | W I ^ q.g M 6 1 j l 7 W 2 0 g 0 3 ^ m.R.>.=.$.z.j.# 5 d H G - ",
"~ U r t r b W f j l Z s / b 4 4 k B w.g h :. .9 h 0 h l j.6 9 4 ^ *.l N ;.m 7 k Z j r L ,.6 9 6 * j *., B m.*./ $.M.| B w.6 3 4 ",
"j ;., 7 $.r.2 W c Z ] g A.a./ #._ u.C.g 4 7 k.X.B t.+.S ^ , 5 4 p Z ~ / %.8 2 2 ~ Z t ^ i.Y b n 6 H 4 3 y / *   p 9 G u.Y & 1 1 ",
"N ^ 9 j ^ 1 z p Y a.3.^ i.n.q.t 5 # ^ z.U g U Z.h ] D.9.| , , , h t.+.& [ g + , = 4.| c q.b 8 - j I r t h w.s n h 5 ; ! ] : * 3 ",
"0 0 :.@.* * 2 * , 4.9.l 7 4.3.^ , I d $.R l , { @.! q...b a.Z 1 +.9.6 M ! W n j +.[ * X W l , ` r.$.n 8 / g 3 H l , H ..l P.g 4 ",
"/ N o.w.x } -.-.{ a.v , 8 h ! g 3 F | t b | < 0 n l i.R t s n +.a.g b y.j t n ~ ~ t.2 8 G -.D N.{ m B i.! , & 4 9 l b.l M Z H c ",
"Z 4 2.} H *.T $.I b } 4 0 2 h 9 h 4 l.X., I ' } } z.b Y Z < * I $.& 9 %.n r , 3 # r.I k Z g | >./ r r ! E a Y n ! a.M n U 3 5 J ",
"I 5 / s.r., 5 1 4 n W e Z H 4 a Z j ' A = +.l 9 =.=.5 1 n d , +.v.I > g W , r 4 , ! 3.& 3 ^ [ U P.B 1 - f +.U k +.' - 3 n l r | ",
"3 } / p c.b 8 j U h ` 9 y | H 1 d 3 x 3 [ $.= 5 M 4.7 r s ~ | D 7 q.g < ! , 9 3 T ^ 5.p ' ' 9 7 M n = 7 / ;.e 9 l w.2 3 s O.+./ ",
"  W b c $.N I 7 k 9 t.9 9 B =.2 < / =.S #.[ t M , [ Y 3 9 _ j 1 6 1 t.G l.0 8 * t.I 0 n.| } B = , :._ n ^ +.k k - [ b 8 t [ Z 5 ",
"3 :.H h l 3 0 4 9 N a.j 9 Z j g j ( g & j / 1 0 - ;.I , , =.0 r s B +.G.l.w./ a.4.9 3 #.B u 9 0 b -.j # g / < 7   / Z , r =.- * ",
"C N 0 [ d Y *.n t 5 I %.g 2 j U / r 3 < +.b , 0 , +.^ I U q.4 1 0 j a.f $ 7 / a.t 8 B U 1 b +.x / t , 4 / g 5 t , [ | Z Z 2.3 9 ",
"9 ^ { h 4.g 0 [ N j 6 g ! j 7 3 , k O 3 Z 4 5 G B D F K o.4.~ 1 , z.F = 1 u G 9.y k h 3.b ] g * r 0 7 8 Z 4 1 b 0 / G l O.i./ 8 ",
"{ #.4 w 6.#.o 5 r S p k < l l 7 l h +.0 j ! b ` =.j } K G ` b 4.{ r.:.q.| l 9 k.R * [ ! - N l k N p =.N g ~ j ' =.j n h n / z 3.",
"I h 9 q.| t./ f A.} , S H M Z 6 h m u 2 ! c.7 , l j | I B A | / B N - j [ 6 & b C.j < F n h U 8 j 0 0 p ^ c.a , h j o.U Z b ! *.",
"U g d l G ` a.D.Y a.{ | v +.G * 7 B * l a.l Y 3 B M j ' n n l / G l a , ..u.{ D.T x.' | n o.n , 7 h ; g 3.h o.4 B Z g ` ! Y M D ",
"a o l h L u.4.x.y t.| ; 0 t 0 9 , < W ] d.b -.3.-.$ s n.p.n ] q.p 1 E B 9 u.r.c.0 p.G 5 3 , 0 2 - 2 | =.b.l -.m.*.> l d.e.H ] @.",
"^ 0 : t m n.G , +.H % 9 L m F H 3 ~ | j r.r.& 6 { d.k.a.] D F.9.n 2 = 8 8 a.b = / ^ 5 m M 4 n b 3 ..| B U.r.# t 4.r.w.Z.y.n D.9.",
"F *.{ 0 X.n.! ' s.} 5 9 t G g t d @.a F y.b _ p 3  .Y.d k , 2.5.c Q @.h ! x.c | h.! 8 t 8 G g 8 j ' h n r.G * = 5 K / x m 8 5.q.",
"l & F W.Z.1 @.Z 0 =.[ Y.' =.n 5 k 6 I n 7 , a.!  .l t.Z Y =.s { Y & I A.a.h ' b k u./ 4.+.q.F 8 p 1 Z g O X 7 l I N r.3 8 0 +.3.",
"M 3 & +.~ - c z 3 u y H 4.s 2 c y.&.$.s * - g Z K k w.` j K.] @.4 3 q ! W - ! G 8 t 8 x 2.g 7 W y.} / G = 0 p s f / H 3 2 8 Z ` ",
"M Z n ' ~ d 4 5.l B h 4 9 = 1 < < e [ +.^ g 4 d ^ r Z 2.z 2.0._ 8 t 7 3 s z 0 k.N M K N k , - - 8 = *.:.| I 1 2 = 2.0 3 f j 4 1 ",
"j Z | 6 b b c r.G h h 1 l Z n } $.} c.= 4 w.7 , H g Z g K t.7 s w.h , k r.] a 2.c 7 4 h K I H } $.X.h.- k q.6 : b w.t 3 ^ F 8 b ",
"0 ....1 H M t s.h / -.1 4 Z I } H g ,.~ 6 j & b @.F o.l.i. .H m g | Y b.e.f , =.G n 3.j U | m 0 ^ g { | 5 G 2 5 W S 3 < W I 3 n ",
"s ( 2   b G 8 r.| +.g ! #.Y F 0 -.B b a.> h ! r., r k a.C r ^ h 1 8 4.! H H &.^ H p x Z | N $.7 >   g b.; - H Z m b k M } b M 7 ",
"9.] * 8 8 B I G b 7 5 U G q.{ F y.g 7 z.} 9 n @.9 3 < ] K t s n 3 4 t.8 y l +.& s q.} 7.g 5 n w.7 6 o t.X.b G 3 g ^ A e k h W Z ",
"j A.Z 8 I g p < & 0 h y N o.Z 3.H r 7 ! H., *.H m k - { Z 3 3 ` W :.t.W 5 0 W 1 = t M 6.| 3 h +.6 N G H T 3 * 0 ` k M 4 Z k ! d ",
"1 Z | 2 H j   F Z g Z t Z -., 0 ! = r.I $.-.| 3 5 t 9 @.9 , 4 [ U l 4 ` k M | - 9 8 , ;.+.& d H -.-.~.+.U 9 1 [ U l 0 8 d 9 @.n ",
"t l r & * m : 3 ,.B - , g a.* 8 o.$.I I +.o.7 * k ; B t.B 5 g | & 7 4 n +.f b - 6 6 # ~ +.< 4 c ^ -.;., B *.' z , U H l :.U Y k ",
"r.i.n [ u.| l , 7 *.K A J.H < 3 E b.1 6 <./ ' d @.^ ! Y H / 2.j 8 4 d 2 G.Z.| & 8 , / ! r.; l ' / -.o.3 5 [ b # 5 t ..Y W r.@.z ",
"V.H s | I M.' t.^ m.r.~ ! 4.8 > G k / | %.I w.Z 7 | b Y k n q./ 5 3 8 z.$.0 u.-.$.c.+.= >.t.b.l B k +.< 5 g l Y I b 2 * 6 > t 9 ",
"c.n n @.Z { , j M.*.; t 8 4.r./ g M :.9 5 # l - 3 U R | T H ! F -.h g.H , w 8 } S.^ 1 - |  .h U t 8 Z 9 3 t } ! B o.! 5 t 9 6 = ",
"W F I Y d.H m h ..U # j I $ k 6.r.V.h 3 b.$.G.A.M h 7 ` b l H -.:.+.[ >. .Z Z X.>.8 4 B F 1 8 1 J 6 $.i.o.*.a.q r * = , b } f * ",
"~ ' j j o.f 6 r { H ! z.K 1 a.h.- r.0 , K x.$.*.s.s 9 @.a.| 0 Q B j , k i.^ , H 2.3 8 X.#.j ' Q F / F b i I ,.k 2 ~ / N u.8 9 4 ",
"p j ^ ^ U 1 8 , r.a.E h y.y.a.b.g ;.t t e / 1 = [ t.b.x.a.| @.` A b K 9 Y | 8 < c.l I { X.I ^ 1 6 0 = 5 8 =.k 6 5 N E j.X.= 6 1 ",
"l i.@.w [ n ; 3 | 4 3 8 8 | b.3 N F , k m r.h n 4 , N @.~ b D.r.h t E 0  .) x @.[ { 3 b j , c s 0 J H 6 b W 5 t 8 9 > | [ < , , ",
"w.x.7 B | | U d } %.o n h k 4 / z.$.I 9 +.I , n G 3 b n p p.} n 5.#.m s W c x l ;.| * | ~ } G 5 k 0 } G 6 G 5 g f y x W j i.x h ",
"r.U n { k 4 g ~ ..t.0 h U [ W C.y.k s t.} 5 - 2 y j b.l h 0 n ^ q. .Y i.B 8 n ` &.z.7 8 j x.@./ Y 4 8 k H 9.d } t Z d.N m B D g ",
"^ , 3  .H r - , & 4.b 0 U j | *.| , , ^ Y 0 Y U U z.b } H - , H ^ > r ^ U 3 w - = x.g 7 I M ! [ / , 4 b u.^ ! I | t.j Y %.8 , k ",
"b.H # I o.8 9 8 , n 4.# , ! @.G e.l 8 r N ` U B _ +.5 8 n b 3 +.M.n > j  .t 0 8 > F t., 5 | { Y t.M 6 9 m #.G 4 ' +., 5 S I 3 o.",
"p { b 8 $.t N 8 K | 7.g :.+.1 m f ! 5 k +.^ q 0 l ] 9 0 s O.| D k @.b 7 | m N 3 k ^ z.g @.' t K k | , 0 / / $ 1 Z w.h 8 N #.*.| ",
"4 4 9.f ;.8 k , { l 0 c.o.U k 5 - Q [ / +./ M j 3 ( I 3 t { d 3 2 8 c.k o.8 N 9 r.G m x...X.f 8 = Q _ ~ +.+.9 k t ' I 0 8 ' g * "
};
