/* XPM */
static char *e11f140c24fc45bfe62d5c06e4449130[] = {
/* columns rows colors chars-per-pixel */
"64 64 19 1 ",
"  c #BEAF8E",
". c #BEAE94",
"X c #BFAF98",
"o c #BFB094",
"O c #C1AF95",
"+ c #C3B396",
"@ c #C9B696",
"# c #C7B897",
"$ c #C9B897",
"% c #C5B599",
"& c #C9B69A",
"* c #C7B89A",
"= c #CCBA9C",
"- c #D1BD9E",
"; c #CEBCA0",
": c #D2BEA1",
"> c #D1C09F",
", c #D4C1A2",
"< c #D9C1A2",
/* pixels */
"*;%o%=@+OO%o.O&;=&$$===;-=:;::-=;:&+.$&-&%%=-=&%+%#%+&&%===;-:%O",
"**=;&.+&:*%=;;;%&*&&&&%%=&+%..+=%%=::$&=&&&+..%=*===:=&&++&+++*;",
"&*=%&-:;==:=%O%&&%%%$&&&+%==--=%%&+.O$@+&%%==-=$&%%=&%%=%==*---%",
";&+*;&OXoO.+*-*&*==-==;=;*+++&&===->-=*&=-:*%+O+*=*&=:&%%+%&%O%=",
"+&==+%:<<:;;=+&=&%O%+%@@%+::-&&%+&&%+=$&+.+%=;;--=$$++$+X+**::;%",
";*%&,;%+X+%+%&$&%&:=&=&&-=+O%==%%&%%====--==@OO++&%%=$--::=:%OO%",
";&&%X.X*=;;*=&%=;&O%=%&&&==@%++*$*--%%&O++$$=>:;&%$-$%$O&-=%&:::",
"+%=:,,-;*%&&&;**&&--&=$*%%&---=$%%%&&%&=;$%+.+o+=>=%*$=-%.O%%&%o",
"-&$%%+oO&&%&%%%%&%+%&&$%&@@OOOO&-=;&%%=&%=->:;;*O +&&&&%$=-=&&=-",
"$&&&**==;==*::;;-=;;-=&$+@@--=-&+&%&==*&**@++O+%*-%$,-&=@@%o+%%O",
"&%%%-:&+;%%%+%%%=&%%%%;-:-=-@@+@==%&&%==%%#$++&:;;-%&%%+=-&==%%*",
"%$-=&%==%%*;;<:;&::;<,*=$@@===-&&==;<,*%@*+%:%OO+&=***&$+%++o%-@",
"====-=%%-==$&%O%-*%O.+=*==@.&&&*%%%OO.+**%=$#=:=%%&;=&&&=$*#=:&O",
"$%%++%%&+%$%%%:*++%=--==$$=-&o%&%==-,,,*#$=*#%=:<;%%:&%&$&*=*%=;",
"+*&%=====&&=;;%%=>;*%X+%*%@+*,:;-O&&+%X*$$++*=+O.+%=--*==&%X+=-+",
"&&--O+&&%&&&O+&=+XO%*-:=%%=*+OOOO:&%&===-&%*===&=;;%++&&+@,,-&+&",
"=:;::=&;=$&%--=&*;;;=OO+;;=;;;::-++-$+&%O%=;+%*==%%**%%;;=$oO=;=",
"+OoOO%&%%=-=%+*;$&&+%--=&+++%%%%%=-$%=&=;=$=;=&--$*;-===%+$*=&%%",
"&**&&&%&*%OO*;%+&*%*=%&%%&:::&&&%&%$=$=&+&&%++&O&=&+%%%%@*=%+%;*",
"&;::%&&%&-,:=%==%&=%+%%=;;%%%&&&%%%&O+#%=*=;=&&*$%%*==&*&%%=-=&&",
"%o .=;;%&&OO*=%+&*%&=;,=%.O&=%*==-=;-*==&&&%%*;:;===*==%=&=;%%++",
";-=-&%=&&&=-&+%;:*-*++X+&::=$==&&%X+%+%%%O%**%*&%;**%%&*&@+%&%=>",
"o&=%%%+X%=&&=;=%+o+%;-==-%O%$%*%%&;---==;>->:&=-;*o%===&*:=*==%+",
"=&+*-=->=%&=*+O&=;,>*%%&&*;=&====-=%+++%%X++=%%*==>>*%&=&%&&*%%=",
"%=;&%%OOO*=*%=-==%%+%-=*&%&&&OO%+%+O%;-=-;==&O*$=;=+$*=$*==;&O%&",
"%&+=;=&*==%@=*+O%%@#*++*=&%&=-==;-:;=&%+O&%&>=$%+@&=-*#%&%O%;--%",
"&&%%&-,=%%*;&+&:==$$&;:=&%*=&&O%*=&%Oo%*&=$&%+%%&%&%$=+%=--&+%==",
"=;::-=%+%-=%%=&+&$&=&%O%%*%%%&&&++%-;::-$&&=-====$%&&&=;&&&--*%&",
"&+oOX.%=%%&-&+%&&&%%+=&:;=**==;%*;;%+oOO&=++=@$%*=#+%%++&%***++*",
"*==&&&&%$$@&&=:&&&=-=&%O+%%+&&&&%++&;;;-&+-=%+%$$+*=::;;>*%*==&*",
"&&&-;&==$*%%=&%%&%%+%&==-;==;;%&%%:=%%%&=;%%===%==$%&%++&-=%%&%%",
"*==&%%&%&==-*=====&&=&&%O+&Oo%&=*-*+%*&+O%%&&$&*$$*#&--*+ ++&==*",
"=*+%***=&O+%%&%+%++&*%%*;;=--=*&*++==&=----=%*=&=&%*-+.+*,,;;*%*",
"+%*=-=&%&:;;=-=-:,;--;<*%+%=%%&=;:=%%*+.OO++*=*=&&*%%*=-=;*%+X%%",
"=>==%+*=*%%&=+.%&+..+O+%=-&%*-=@++;=*-;;->=$**=*-===;,&$%+o%===*",
"=*%X;==*&*&%;:==%&;,,<-*%+@=&&++;*%+%%=,@@&$=*%*$%*++$=&%*;-=%@=",
"X%==--=&+%%%%+%=;-&%&+.+&*=O%*=$%+%=-=&%$&%+o&=&%$*%=-&&=*++$*-&",
"=*%#%oO%;;;;=-&%%*%%%&=-:&&-=&@=*;-%+oO&$%=-;;%&===-=$$%+O&:&+=;",
"+@=*%:>=%%%*==&%%%&=-&%++*%O%%&*%++%%&:%@*+O++;*%@%++--;,-&+=;&O",
"-$@--&++-;=&++%%=&=&O&*=-=*-==***=->==%:=*&-;=++==--=%+O+&&=&+&=",
"O%*%o%;*+Xo%=,-=%&**-*%+++%%O+&*=&&%#+++o+&=&&=-*+..+@=;=;%O%=;+",
"=&$=;-;*=;=$%+O+&=+%%$&=;===--$%&&%+=*=$-=&&&-%O%=-=>&%&&%=-=*==",
"@**%++&;%++%*-;====$&==&O+%&%+%&$*==*=%%%+%%*+$=-=%&&+*===&+.+++",
"=%%&&=%O+&-;==%&+%=;=&&&&;;&&-;:;==**=;,=;=&%=-%o+%%&=&O&%&&=---",
"%%=%+*;,;-OO&&**&&&O.+*%&=&%%Oo+=-&.+%&&&*&*==+&--&==&=;=-&=%O+%",
"=&%%;%+XO%===**%@=-;-==--;&&;;;%+%&-**=-==&&%+==%%=@===%%O&-=*=;",
"%&-==&*---&&&=&&&%%%%+%%oO&&%%*,=$&$%%+O +&%*-$+%=+++O+&-:=O%%%%",
"=-*+&-=+O%$=@+=%&*==&=*=;=%+=&+.%*%+$%*::-=;=*$-=&--<:=&=@;=*;&O",
"=%%%%%%=*&=+=-==&;&==$%%%&=:=&=,=&*&-:;&+++%+&-+&&&+@++==$O&@@=-",
"@*=&+%+++$&==$%+&%%%*&:;:&OO+*=====&%%O.O%%&*%O%&&%%%*=%+*:&=&%O",
"*++&=----=%&%&+%%*=*&&++O%&:;;+O%&@&&%;=->-&=;;--&%==&+&-=&&&==&",
"->,=&%+&+%*=*&==;*%&*&++%%&%%&&;&&&;=;==*+%O&+O++&&=$$-$%%O%%%%;",
"++OO+&=&%%%&&&%O%&;=@&::::,:%&%&&&%O%+.O+&==;,==*%X%=*+O+&::-:&&",
"&=---&&&=--*===:-@+&:=@.XOO+&*&%;;;====-:=$=OO%+;:;+*+&>:;&OO%%&",
";*&O%*&&%O++%>;=&--$+O%-:,:=*&&&&%%O%==&+O+%=-*&&+O%%*-&+%&:::=@",
"+&=;&+&=-;,;%.+XOO@=::-&-&+O%&&%+$&&&%O@-:---&*&=:;;*$*%&=@%+&OO",
"-&%%&-&&&%++&;::-=&+%&%%O+*=<-@=-==&%&:&%+OOX%*%%=-&*;==%%&=;*=-",
"+%%&$+%&%%==&+O$=;=&%&&-;-&%O+%@%%&=&%%%*;:;;&%==+O+**%+&==%%*%+",
":-===-==--=O*;:=%++O%%%%%O%*=>=====&%%&;=%%&;&;=@%%==&=-=%%+%%*;",
".o&&&O**+O%=&+.+%::-====:;&&+++%OO%&;;=&%%%*o+%&=--%%**++*--;;*+",
"::=&&=$%=;=*&-===%O++%++&&++=:;=:==*&&O+===*-=@+ooo&==*=>-&%%+=>",
"O+&+@&;=*+%-==%OO&=---=%%=-=&O+%%+%&%&-=&&%%+%*====;++%*+%oo*=$.",
"==&*=&+O+**+oO&:-&&&O+*--=&&&&;-&=;--*&&*=,;>*X+&=%O&;;*%=====**",
"&%=&$%*>:,==::;+O&-=&$%%++$+&&&%O%+%=;=+**&=&#;=;++;;%&<-+$%+&=-"
};
