/* XPM */
static char *c37ef56f240a4d2b9705924531b56c85[] = {
/* columns rows colors chars-per-pixel */
"64 64 110 2 ",
"   c #503626",
".  c #5F3A2A",
"X  c #5D4032",
"o  c #624130",
"O  c #664937",
"+  c #6C4935",
"@  c #6C4E3B",
"#  c #734D36",
"$  c #734D3A",
"%  c #70513F",
"&  c #7D533D",
"*  c #755542",
"=  c #7A5542",
"-  c #7E5B45",
";  c #865A3F",
":  c #845740",
">  c #835C44",
",  c #8A5D45",
"<  c #825E48",
"1  c #8D6145",
"2  c #87634C",
"3  c #8C634A",
"4  c #916347",
"5  c #93654B",
"6  c #99664B",
"7  c #95694D",
"8  c #9A6B4E",
"9  c #8C6650",
"0  c #856856",
"q  c #8C6A53",
"w  c #8D6E59",
"e  c #946A52",
"r  c #9B6D52",
"t  c #926E58",
"y  c #9B6F59",
"u  c #977257",
"i  c #9E7155",
"p  c #95725B",
"a  c #9C735B",
"s  c #9B785F",
"d  c #A06F4F",
"f  c #A26E53",
"g  c #A47355",
"h  c #A97556",
"j  c #A67857",
"k  c #AB7957",
"l  c #A4755A",
"z  c #AA7659",
"x  c #A6795C",
"c  c #AC7B5D",
"v  c #B17D5E",
"b  c #8E7463",
"n  c #9C7A65",
"m  c #A77760",
"M  c #A57C62",
"N  c #AC7D61",
"B  c #A37E69",
"V  c #B27E61",
"C  c #B97F61",
"Z  c #AE805F",
"A  c #B3805E",
"S  c #B8805F",
"D  c #9F806B",
"F  c #9F8375",
"G  c #A78063",
"H  c #AE8163",
"J  c #A6826A",
"K  c #AD836B",
"L  c #AD886E",
"P  c #B48364",
"I  c #BA8566",
"U  c #BB8867",
"Y  c #B48669",
"T  c #BA8769",
"R  c #B6896B",
"E  c #BC8A6B",
"W  c #BE906F",
"Q  c #A68572",
"!  c #A98471",
"~  c #AD8B71",
"^  c #B58B71",
"/  c #BC8E71",
"(  c #B59076",
")  c #BE9174",
"_  c #B69079",
"`  c #BD947A",
"'  c #BE997F",
"]  c #C08966",
"[  c #C48768",
"{  c #C28C6D",
"}  c #C2906F",
"|  c #C8916F",
" . c #C28E71",
".. c #C88F71",
"X. c #C39274",
"o. c #CA9373",
"O. c #C3957A",
"+. c #CA9679",
"@. c #C5997E",
"#. c #CA9A7C",
"$. c #D19B7F",
"%. c #BD9780",
"&. c #BD9D85",
"*. c #C49B82",
"=. c #CB9D82",
"-. c #C49E8B",
";. c #C8A087",
":. c #C3A28C",
">. c #CFA289",
",. c #C8A591",
/* pixels */
"T I I v x T H g i j P I P I I I P H U E E E T H P v v v P H v T I C E { I } ..T I I U I I $.| ......T z 0 u g z z r Y K I T  . .",
"N P E T T P I A P P Y P P T E { ) E Y E I v H E E { ] } { ] U ] T I v S T { { E { { v ] I v { o.$.| .. . .h c V c V I V I T  .@.",
"V H ) K c H Y I P P I I I U I E  .) E ) Y N N H H c N P Y E U } O.I I {  .Y c T I V P ..o.{ l z C P T T v h V V z I  .{ X.{ E Y ",
"l l l x P T /  .E I  .} E I E ^ ^ T ^ H T E T U T V I P Y T T { T I I I { X.T I E [ ] I ..o.{ V c l g z x v I V V N m i x 8 , e ",
"K H X. .o.X.O.#.E c I U P I Y J n N V l g f j P T I I I { { } E E I } U I } X.{ E { { I H U } X.[ o.[ ..V { ] [ E { H M / H ) @.",
"{ { T c Y U I Y l x S P c v A g a p s l M M c H V P I Y I E E Y E E { E {  .E R ) ) E E E I { E I z v v v V H I E { T P { +.+. .",
"V V V g i N j x x P I P P v x c v l q s M x H P I P I E ) E E O./ Y H H Y T I T / / P Y I I I Y h r v I I v f z c c V M N H V V ",
"V v I i l R Y W T Y P P H M v c S Y Y I Y N E { { T E T Y E U Y H H P H Z I H H H V Y Y P V Y H N ..[ [ C I [ I I C V V V l a c ",
"V I V K /  .E H H T P v A Z N c Z Y I U P c I I I U R P Y I Y R T U E E E P z H Y P P I E E Y c M I { [ I Y I { ] I E T H V P K ",
"5 i x x i f g l P T X.} { T Y E } } E I A M E X.E H R ) W R R E P I T T E H Z Y P v V v H P c x M { I P j c H Y I v j N V c z i ",
"i r g 8 l z c H T E E E E E E E E T U P H P { / Z H R T E E T R U E E E T P I E P P Y I I I H N z r : f c I E P c V H V T Y c h ",
"I c v P V c j H E E { { { { E / E E E A P { E / H Y E E E E P Z Y } E E E { { E O./ T T E Y T I P {  .o.{ ..{  .E O.X.{ { I v P ",
"I T I I I I N I { E { E E E E E R E E P U Y T W E X.X.W E W T Y I H I P k z V I T E E E E R E E I [ Y U U { E E E E ) ..T I E E ",
"I T I P v c c T { E E U I T U I E T Y Y T E  .Y P P H H P H Y T Z A v H v v C I P c P v v P I c h v P I P Y I P E I Y P H I U P ",
"P v c c z v I T T P P P U E I H A P Y A Y I T I A S I E Y P Y A H I v P v v I v V c c c Y { I g c I I T T I T T { I P v v P P v ",
"v c j z I I { E v I O.U H P P U U I A E E I U } X.P P E E I H Y E P P U P T I I v v N M c H P r v I I I E / E E P I E I Y U P v ",
"V V v P I E X.T c E O.E T T T Y E H v v P v I I Y v I E E } E E { I T P c v V c c V P V T E c i V E R T I Y E T H c U E E { U P ",
"l k c v [ U Y P H P T X.) ) T H v P V v v I X.H h g S { E } E P c j Y T v v P V T [ P z T I H x I P T Y z i  .H c I E I E h f j ",
"Y T I j v { { E T ....T U I E E { I { I c v T P Y I |  .| X.E N P H Y a i g h i 8 z y r g v P l c I P 4 f P { c j x j A c & < I ",
"o.@.H i 4 g k v V C v V v h h h H P h c j v V N l g P R E  . .c S I E v l c c f c P v I C v z i h { z j v S v j M Y W X.) W X.| ",
"@.=.+.X.{ [ } X...I V c c I v Y  ./ L V V s c f 4 e i N c x j N T z h g c l 5 g H s e s M y w i N Y Y H N Y I I V H X.X.E Y ) @.",
"l z g 5 3 5 5 8 r g V X.X.T g V V E { I T ) E / ^ E V N H / Y Y ) / R V _ ) ) I M Y Y K R E / B ) ;.) E } #.X.c h c I c H A c x ",
"N / ^ l x M , : ; ; i g k f x j g g z m V V V B B N y l V Y K ( @.O.O./ O.O.%.V V M M i m E K M ) ) B K A h c v c c v v v C I T ",
" .T { E ) $.+.| | { } E c P P T Y I V R Y N ) R N N H Y N Y R / R T V m V V V V c a l 6 r f , . # , = 9 k d r S I I P 8 8 c { X.",
"s c M c Y K P N N M v { } X.X.-./ v V M u I / / / l x 8 H E E R P ) / P z m l h g 3 t 8 g l r , g z f 6 8 8 r z f C I v z V g y ",
"N M G H v V T ! N Y N V I S I /  .I N z H Y _ H i l 5 M E S / E P I I { T P E H e 8 N g z N z f 8 6 4 r z h c h c d g c c T  .N ",
"{ I I V R V I H V C  .T I H c v c z l N c z j j f 8 I | E P  .O.E { { I Y E X.H R O.Y R I V  .V g f z T Y H v v v f g i ] X.E O.",
"^ { E  .O.E [ I T C Y X.' { E { E C { ..E E { I j c I I I H  ...[ E T M c c f 8 P H N w V /  .I h i P E ) X.V h h V E g l I {  .",
"V P P I V h j f g c j i l f N v v C E E ^ P A Y P ) ) / m e c P k A I 7 , 3 1 6 g , 5 , I c h z z c T / X.X.T { E X.+.X.^ 9 N v ",
"P V V x 5 5 8 i m l e r 8 i r e 5 5 x j M i c H R Y Y Q b z Y Y Y Y I Z v I v v V E H Y v c T P M c f P E I P E T T T E ..I / T ",
"@.) Y N c :.&./ E / E E H Y T V V P H I Y N T I V T Y H l z h I P H I H { E Y Y V P V T c I Y P Y N m +.X.P ) X.E T E T ^ ^ ^ ` ",
"T / E  .^ / @.,.O.H N Y T P c c v c v X.c Y @.c x V E { z T T I ] E E c O.{ S { I I c I { { T R / X./ c v T @. .T / { C ^ / C I ",
"P V / ^ Y  .*.O. .T T T / / H R Y v A H j H P j j v Y h 8 Z v S c A H x Y N g x M T M M l V f 8 I T V V T X.T l R E c v I c N H ",
"E P / R @.*.' U ] O.@.Y *.=.I T ) U  .T I P c P j P U I R P c c c M M c H Y  .H E H E Q x z j E  .I V R *.X.O.@.*.O.X.{ .. .E I ",
"H I T E R M g c V V N l ) E 8 l v T I T T P M Y V T I V X.X.X.o.O.;.*.' ( ) O.E E j V P P u q c V x r r z i i x x z c P P I V x ",
"I I I T V H R T / V z V I v H  .E X.{ T I H c N c v v P k i j Y i H W ` M I E E E c v v T V l c l z g i l g g g c V V z l Y T H ",
"v j c l z P ) I Y c V C j Z E P I I H c / Y M E z H P S I K K A g M H c x c v j x v E x g f z N g g c T X.E T { E T Y Y Y Y k A ",
"j z j V T Y Y P V V M z c c c c T E P I T P H Y Y I E H T E P H R T ) E v c Y ) E R +.X.{ Y ) O.O.V T #.#.O.X.o.X.E { I E Y v H ",
"H Y / X.E E ` / /  .Y E ` ) P R Y P R @.O./ O.X.*.R Y { U U R P Y Y E H 8 M c P K / *.O.O.) ) O.*.O.) #.X.` *.=.X.X.{ E { O.Y E ",
"N H Y N V P K R ^ E T N P Z c R T Y T R H M c j x H c c K H J H v / Y N M N H R / Y Y E P c Y R H N z V v I P I P v j j h a x H ",
"H H Y Y I H R R Y Y R Y H Z P R R R R H H Y ) ` ) ) R ` ' H n p H H Y H Y I H W Y R P ) *./ ` / ^ R P I ^ P ~ Y N N l x R c H H ",
"I E G H R H I R P Z I W H Z Y Y I Y P U E H G Y ^ E } I G U O.=.X.E E E Y E E H P E E Y P Y / E / T P E  .) E )  .E P K Y H H P ",
"P H Z j Z x a x Z P ^ c l c E Y E E E W P A H H T ) ) P R X.W ' Y c M x a M c g 8 u u e 7 t a c / @.#.E E T P T I P c P P x R Y ",
"^ E R I H H P I U X.W H H H W T X.W P P v G R E T / E Y H E Y P x x v { O.W H ) @.%.&.&.' ( ~ K ^ O.=.X.} H H I N j P E E R E H ",
"j i 1 1 r 7 > , 5 3 e r 8 i f i 7 9 8 g 4 U U A v c j c M P c H c c Y / E H ^ E P O.` ` ( ) :.=...{ } E I I { | ] } X.P H I A c ",
"i p q u q u a i 4 9 e 3 e i l c 0 * @     & 8 c Y Y { E O.O.*.E E } E / T r / Y H P P P G c c M M x g g g i 1 $ + % = $ 3 3 2 2 ",
"+.T R *.( I Y H Y Y U E  .T P P O.) E / ^ g e x c x k N M c ( ) c M l s a s ) E W I R } E U k j M l l z x q 5 < < i i Z Y R X.O.",
"E H Z K P Y I P P H H Y P H H I Y H P ) { X.| E ) X.E Z H P H Y H P E E H Y K Y Y ^ X.E U Y U X.#.X.X. .{ T E } } E E ) @.E E ..",
"T N X.O.K P I ^ E R P P P Y E E Y T R T  .E U Y T  .) E X.O.{ Y T Y H Y H H K T H T T T P Y P ..../ E { T X.{ P /  .P O.` T { ) ",
"Y H ) ` E / ) ^ W E H Z Y T { W R Y / / O. .) E Z H Z K R E Y c V V I Y Z Y T E E I P P v { | T I { T { /  . .c l l ^ O.) E ) ` ",
"Y Y Y ) O.` O./ Y I U I Y T P c P E K Y ) E O.O.^ W T E X.@. .H  .)  ./ W X.{ I P V P v { E v e z M H T ..I N r 8 V / E I I Y Y ",
"E Y /  .E E ` >.O.) E E  .#.Y K E Y { P Y | E E ) W H c K R l p R H Y E ) X.X.E I I { { { I V T H l M V V M l g c H H T W X.O.O.",
"Y } X.E E @.X.X.) X.H I } H c #.X.^ B  .X.X.T P Y I c T O.E M K / c  .E R Y ) W Y c g V  .{ Y } } o.../ T V g N Y Y W O.@.) ) ) ",
"7 8 7 8 x ( O.T c i 9 7 4 , 8 i 8 e 9 [ I c N z c j l  .E { i O.K P E R Y U Y c  .H q 5 g V E | ..[ [ ....v c I { U { O.@.^ x 7 ",
"c V H E N N V j z N g g c z V c V a Y I C I P Y N r g i c p s O.W W I E } { { E O.#.=.#.I m 8 r v C I h & : z v 8 7 c c I X.{ H ",
"R  ...{ E P P I E ..I ..{ Y Y P  .^  .N T [ P B c H E E Y H R Y I Y W O.E I Y P  .X.| { +.=.V r & O o o $ < i z x Y I { U E { Y ",
" .E E } { v E  . . .E ;.| | X.E P I { ......X.O.X.T V P I P P P R Y E U E I S P X. .{ ] X.o.{ o.{ V H { { U E { R H E { U E E R ",
")  .E E { E E Y { P H #.v N V I Y M I C E z c }  .V V I R H K I E U P S I c } X.T P { ] { o...{ } j V I H I P T Z Z E E T E I X.",
" .E E { E E O./ Z M Y Y Y Y H E E O.K P T z I T P c c } ^ E O.E P H H P A E E H e c I +.{ v [ [ C v I P v I I T U I I { E E W E ",
"{ X.H H { E / ` / H P E o.O.E E c Y X.X.Y N z x z v {  .) )  . .E I Y E U { P v Y V V o.$. .Y { { ] o.X.T { { { X.H Y | I I E Y ",
"E { I V T  .Y ) @.x c H P Z H E P Y R ^ Y m r , , = @ > 4 p n H P H c x v W I Y E  .T C o.+.+...[ [ R { T T { T I c N } U { { H ",
"H K Y ` E i / O.P H E X.Y @.;.X.) T R E ....{ { { I N N x a , % 5 i l 9 3 g v T [ [ ..[ C [ ..o...{  .{ { T T ] I V 8 } H N z x ",
"{ +.*.O.g c  .#.o.U H T P U X.E T N [ E T I I Y T T  . ... . .X.E {  .X.{ H c H ] [ [ [ C m l C C E { V v V S v g x V I I l E { ",
" .T ] P x { { { X.H c } U I Y  ./ R T X.E V I M V V E E I c P { E E I I { X.X.I T I I C ..X.v l f g g z c x f c c h N T Y N I X."
};
