/* XPM */
static char *_6d84c59def94d95b90c7b2faac9f9fc[] = {
/* columns rows colors chars-per-pixel */
"64 64 53 1 ",
"  c #6E5A38",
". c #745A36",
"X c #755E3B",
"o c #795F3A",
"O c #7B633E",
"+ c #7D6542",
"@ c #7F6944",
"# c #7E6949",
"$ c #816744",
"% c #836B45",
"& c #8A6E46",
"* c #856D4A",
"= c #896F4A",
"- c #877047",
"; c #8E7247",
": c #87704E",
"> c #8C734D",
", c #8F784F",
"< c #90764E",
"1 c #91784F",
"2 c #877050",
"3 c #8E7552",
"4 c #8F7856",
"5 c #8E7958",
"6 c #917652",
"7 c #947B54",
"8 c #997E56",
"9 c #967E59",
"0 c #997F59",
"q c #978057",
"w c #9B8156",
"e c #97815C",
"r c #9C835B",
"t c #9F885F",
"y c #A1865D",
"u c #A3895E",
"i c #9E8561",
"p c #9F8864",
"a c #A18661",
"s c #A48B63",
"d c #A98E65",
"f c #A58D69",
"g c #A98E69",
"h c #A79066",
"j c #AA9166",
"k c #A6906B",
"l c #AB926B",
"z c #B1956D",
"x c #B1986D",
"c c #AE9570",
"v c #B29973",
"b c #BB9E72",
"n c #B69E78",
/* pixels */
"##9pfdc7dsrt7>jcdduwyuw>7ur<7rurhjs71srysuy80;Oirrq8r3>yuj%2g:O*",
":X%*7>r3rfs*3sslrgdwyu>0sqrutututryrus870ywy;83issurr7qrst@riri3",
"4rr9118y<f7*07uf787w<;0yryqrqrhl1qd77dusy8yr00>7sdurrsyax:7rlwrj",
"0dyaurga>r%r8<wr>7ssw80788rs8uhs1qr8uyqwr8yyy0i>0y08rrrdqXjudsyr",
"jrywuu8ak+7dr8797ud07317y879rrqrqquwr8<1ra8sa6y8>i500dc0Orjuyuu1",
"jtdyuyrfv3iys8777rr717i>rarirffju8qtyysrayrr>8804k0aif5+3rruudjw",
"ijsudslsp#aayrsifu00rr9*==7ijssldr7uurruyd6$0ayy8a33f:497rwuuuj8",
"=>uss8o=e+1udfirr3r1sa*ikf3:ffts0=qwpltqda6a06y00>pkf%a9rswwuuuw",
"ay=s0o8dlh8lw8705407>74iaadi9c9i3:90frqqsr1ry8y8yddrc32rruyww8wu",
"r0;&29yaru>>8raap5rir707irrvr9f9+4fdsrr7rrr>y80ya8ada0X0uwuuu8wu",
"7ywdy08usu1>yya4%X>qs87q$rpk5e2X79ar77r>8a4=00aaz69y7y$3fwuww8ud",
"0088ayyaula9raa04+8rhsq+=k5e5 #if97910s88003=y80aOrr0ri*ywdzywd8",
"rr;.ayd80r0yysuysXiljsi+kf19#Xkir7997r8y0u6*3369073a07f=7rrryw<8",
"yz3*8wu&y60asszs3*sxjf74aacsp+ekirr0rryrs82i29a0lg>karrr=uutw;yd",
"rl228duwrsa0a7s699rjjj>r7usul7>nsarissrd6O636gzd0z4fa8yusfrrjddd",
"rr$awsyr7r8;60a6vg4rsusrrjydjs+fs99>r-7f$a6=;aa8sla7r0udr-,sjsuy",
"iq:sili79600da22f990aay9a98sgy*=faa0o4u$6aiyyaaydyrs2idy+=aadrrr",
"f9esrq3>>0aa6;a046000g00a2gaddf*5if10lda6i68ruryrwygo00==0aad6<r",
"f37rrusfa%3==gig=40a68*> 2a8ra-aa0a=10us96;6<rr8dusd$sar62gyussr",
"1=$hrsdyyyi20a0f900094i05+faaa*0fr2=0rsdf07ayudywlz<$zduf$0sfxlc",
"7j77ir8udzr9yyyy6;y0a080s=agr<700a037wlsa890uuuy670+dldd207ifvxe",
"shs7cfuusayyyrrsg06<6>0aa*9y8wr8705077llr0s7yuju=+50add<.9l9=k@@",
"rrsf3idyyyay0a08aa$080az4g=0r00yr07dy6dr70g0ylqr$2varay&>8ri3X9s",
"uurr>0sdrazyasarar6gyggu8v0%dyys=oad88aa;7r0dd8j>iaarry&8&rskets",
"rjs8aii7>$00udssd6*aip>7csf+0rg<$*78>0auwyxyuwc8&zudw;dy680isr0f",
"qrsd8$=>3=07durys7*0r8>ljff%rd77sayy>r07wdwwhuxO;zu8wydbuyi77rju",
"ywdv0$0waa0000sr40i0frqcddl*ss8wyddyr8yuww;uuuO>0yu888;j08078r7r",
"877d60sw73iarri:9faisw1iadj+ur8yd0yy88luwdwwu-%s67ywwu;87$rrrrrr",
";;8s7r0wduyadliqasyyrr-dsap%p7ydjyuu>tuujduj07ay7y6yuuuwywxjq1tt",
"08sr708yls0<0dprddwy8r3i7iiX:sjljdju-tq1uuud80wa0y8ywuwwludy18qs",
"y<874r0yy;<y<rrrstyurq7ssciq29duwys1ru8q070a04d0$y0y1w;wuwjuwqwj",
"yy6yasy<r<0y8s0qyywyyr7r7sfe94vfsr>8slqrzyrgs8dyyay8&wuu8&<ryrrr",
"hhs8,sr8wsw7r>+ir08<t7>rtk::c>$>::7tydc7juysq>ljdjywywy<8y<8a97s",
"usrt8t8>;s0y>74asuuyq,7rsr+rrwq<@ sturd>ysu=>sslrldwus;ws0ya0rrl",
"rru,>rtuoryyqq29sdsrrssix>7rjwyl79urr00r7f7*97sd80806;8y0y8yi>ss",
"ttl1qur7+rrurra>ry8qtr0diXhuuhww7fruyrfs>i%r73ry>7uu8007887y07rk",
"rq17urs=>f8ysqa7>r1r0dcrX9hsyuy8duyysr8sp@9sr4686ud086>7y007rsif",
"j1$rsr7Xir0da8708g0iid0O3truuddysruyyyrsv>ars8607yy7>8a68y8893lf",
"sr%t9r9%dy1uurti9f43k2178yyyuud8yjsyhslkf*duayi3yyisrr7:;>8q*3jc",
"e+7ussr7jrqrrrri5*ikf%a8quwquuuw=3tsuq+*4o8asgg6rsr>ad=ilgr13rru",
"32rrlf05kq7y889939jsc>2ryuw8wwwuyr>siX,sls8jrw8=prrr77qqydruqlrr",
"#5gjkr3orsyuquid=issd9Xrywuuywyuyr***7usrs<<<wd;3sirs8yyr8rc99k3",
"99pai2i4:7>7rs011rry7r+3dwyywwyu7r9rrr7uss>=yyuy771=79-1r7rs45*X",
"se4>:0arrr1>700>rarrqri%uyyuywdw8r90jrrfsjs7uw00r7-rrrw1=u>7: #p",
"i7rrrsrrqrtr34@iutrqqqs*qrrry877wr:Xsuj7rrqwqwuyr-81wyhyuu,q# kt",
"hsriyss78qsdlrqcltwttrir:irtw>wdtj>*7rsrr,qs7rsur71huw1wrrjupOqc",
"jsasjjsrs77hi:ihhuptttif*pirdsdftl-:9jssuqjd8uqrs78swwwwwuuuhq:n",
"dir3r>>sr77iqqtsuttturtfX39slssurr%p>ulzssfrrryth11uwwudtsrshiOh",
"sffr$0qssqr>8srsssjqqqsr@isssrtrr7=a2%0r8dyrs9%*k3rtuusy7<qjdr>:",
"4af30lsr7qw7<8rrrfhsut=::rrsh7,qf00ayg8;36aa24si3>,uzu8<&>fauss-",
"a00><0usr<1r78r1<ssfl7:k>>ltuusrs700yassa*3*>krd>>t78s>7O:s9ss-i",
"dy>>0rdudq7y7rriaif9:+rui@rsfcjj7%$g0gg00ra40a871ldw76y09$safr>r",
"4a0480zsy8w8801kkf%#7irrfq4afcci>h>ryy00ylr8arys9ra0a880f=ygq>70",
"7r4r77jzr0d0ys**2X*kr7rsle554c:@hla1ca008ryayrrysa1=>>0ai%3y7rr8",
"r97dy8a078s0ug6peppifrudi49f2X4irraf9a088yyyrtsr7a%r0rdz6c20yr0u",
"#.ad86uu>70yusallji7rr7yslffk7psyyyr;%o;yda<7ssr073lagsr7cy$syyy",
"&>7q>ruy8sbyywsjriyrryujtsprsr7dsfuwsa$0uyu;yfs%r3%pii:7vagO7rd1",
"ssur,rwqws<wduh>7da7qyquii94isds8rsjrug0sy88drp7rq:er73lgdf-rj78",
"rsjtr7yuqw;yuso>00sw88%ytq*@ss8wr8y81dg=88r8qqsr3rirhrqxddl&uu00",
"j0ri77luudy8i-=f>8w8wd88r9+ifr78r78<8y0&><yurtr=rfsrsr,uaslOs08u",
"duuu,ttyjudj79is8y<8yuuwtOquuy788syyruw8zuyyhli0sdrrrr-suii#y7ys",
"ddju>uq>uuyjq9rr8y8ywu88rrjyww87dzdaafsrduw<7sirfuquqq3t7pe+*djz",
"ryu<wu1ywwqsr7fu&wyy8w;wyqjuwugssrsy8rwyy;>u7treuyusrr7fscfe37du",
"rr;wyxwwxuris7hsydu8&8yuw&;wydw77>860dywq1rrqi9ryy8yrt5r7ip597zu"
};
