/* XPM */
static char *_9936415efb6450d9fd2e52e70d13399[] = {
/* columns rows colors chars-per-pixel */
"64 64 49 1 ",
"  c #866E55",
". c #8A6F56",
"X c #8D6F59",
"o c #8C7156",
"O c #8D7159",
"+ c #907157",
"@ c #94745B",
"# c #9A775C",
"$ c #96785C",
"% c #9D795E",
"& c #A27D5F",
"* c #997660",
"= c #9E7B60",
"- c #A37D62",
"; c #A97F63",
": c #A6815F",
"> c #A68163",
", c #AC8265",
"< c #AE8967",
"1 c #AE8568",
"2 c #AF8B69",
"3 c #B28566",
"4 c #B88767",
"5 c #B58867",
"6 c #B98A67",
"7 c #B48668",
"8 c #BA8768",
"9 c #B68969",
"0 c #BB8C6B",
"q c #BE916E",
"w c #BF8E70",
"e c #BF9370",
"r c #C18E6D",
"t c #C3926E",
"y c #C9956E",
"u c #C6996F",
"i c #C9986F",
"p c #C28F70",
"a c #C49371",
"s c #CA9672",
"d c #C59972",
"f c #CB9A74",
"g c #CD9C79",
"h c #D09671",
"j c #D19C75",
"k c #D29D7A",
"l c #CFA279",
"z c #D1A077",
"x c #D3A27A",
/* pixels */
"933133740rppasfgjffjjifjd1&---->,,>,>,177778000p0perpapwweww0009",
"07373900rpaahhgaar09555>-->137394447531>>11377990ppaadffgaapppp0",
"443737388804481>;&=%=%%->386840rtrrr0045971770eewssgflggsasspw00",
">;,1338383833,,1;,,,>,37600rrrpaaappprtt00900paggggggaq01---==--",
">,73788rrr0w000883879400rpaaassshyhyssyaaaapaaasaw91=#*@$###=--;",
"00000raaaaasttprww0000ppaffggjhhhjhhurr37>1;-===**$*=--;;>3<1277",
"pappaaaapaasaasaaaaaaadsffgjjjjha03,;----=====-==>>390000rtrtppa",
"sdsdtpr00000raaasfasafffkggjp0<&-%&;>;132511175955299907046rrrtd",
">>>>>>----%%=-->333590q004,;&##-;7900400900909945571>;--=###%=--",
"#*#*####**&&----&&:&%%&%%#%-;174rpaastppepwwpw0eeq00631,>--&%%##",
">>>>>>,,,1133733444453333536r0udfgjjjsssffsaaaatwpp00t000731,,>,",
"77948066088844446r86rrrrtrpasjjhfa07,>>-;,170raaaasadsadttr00707",
"tprrrr0rr0r0r0prryyyyyhhhhyytr5,-*#$@+@@@O@X@@#;,799784aayyyatpy",
"0rrttrrrrrrr0r88443333443<:;&&%%&;;,;;>>-=%&###+O$@*#+#=;3;33366",
"&;,38600r0rrrrr0888843;;3;::,,,348446449771,--&&&%*=###@@@@*##&&",
";;>;;1,390rttpyprrrrr6rrrr8r6rrrrrtrttttww008333,;;;;;&&%%&&&;--",
"54883544800wpasaaarrr888883066531;,,>1773>:>3356034353<<;>>,3533",
"000r0rrrpppsafsshhayrrr8833,;;-=%&###$@@@@$$@$&:,806665693556000",
"tattyaryssffhfhjjjjjhhhhtrr668331;;;;--->>,1333,>>>36trrqqq0rrpp",
"sydtaadsasa008771,;,;;r;688680854,;,,>;1386666r6r053<56rrtuudtdy",
"eq04377>;&&#%%&&&&&&&&;&&;&;;-;;;;,,375000trrrrr0431,,,3300tdddt",
"%#$@##%=%&-;;1;33;13;8;;,31,3177654400rttttqrr3,--&&&#%%##--;--&",
"=%--;;;;,5488863888000rrrrtputttrr000rt0t005,;&&-;;:1;;;-#####%%",
",37083888866rrq0rrrrrrpptrtuussuyyfstarr03<,;;,;,5384863711>>;,,",
"0q0qq506606q093,;---==>=-==%=%::>,30tsjsdr0006443886000044683740",
"dtttttq66<:%$$@@@#%&=>>=-&&>==$@@++@$&3tsihyyttrrttpaatppq0rttaa",
"uuue0<:%$#$$%%*-,15502000q009571<--%#$@@%35ttrttytsdasissssysysd",
",>%$#%%>;>>>,>1200eeededeedepq00667371>-=##%;<<5044586600qqq0551",
"OO$&351>-->,120eedddfdfugdaddaappeprpptq093,>3<<33333<<>>%%#$@OO",
"50qq7-%=>,12epaddgffffffgffddadsdsadpasadpptrqqqqequeuuqeqq23333",
"q2>%$=>,29padfggllfifudeeq000r0000q0q0weetatrteeeeqeeqeeeududddt",
"@O$%>39qedffgxxle9>>>&&>><900prp005333>->,>1<99qqqq95222,,,,>&=$",
"%-:35qttdfglld5-%*--,70rsdgffsdfadttq093,>:>:%&&><9qw0051,--*###",
"560utffglfq2=$$->,,;17770adglxxxxxxjfjdeq5<,,>>&===>20e000873733",
"tsisifp0,&**==;;>----=%=*=-->170addeqtqe00051,,>>&%$$>50w00wpppp",
"0052,>-&%>;1>,;;35777111,,>--=&%###=->>13,<,,>:%&>>>->>50088008r",
"33,,:,3398008rrrpppaap0ww00977731,3339333333799002q0909960088888",
"400060rrpdhassyhffjjggjsfdssdppprrrrt00qqaadfsgjfgggfspqrrr0r804",
"rtrptyhfhfap40939279790weffggfhayrrrr0000000027292220eddututrrrr",
"hihhziq5>=%#$$##$$##$@$$$*=>54thhhaytpr09711----=%&=$==,90tuihfs",
"ussq3-@XXX#%&;>,>,,;;;;;;&%####%,0tsyyutyr8831,,,;>>,>-*###=->5t",
"$$@@O@*%;;1334358333,,3,;;;;&##+..$:5uyyyyrpr06873337447,;-#$@+@",
"%#&&;1880000849979933434,3,,;;;;#$.  $>4ryyytqqq00u6000847771;&#",
"11,83808004464404405488886458;;8,-%#@  .$&5ryuuuut65,>1;39448733",
"97000r0000w00000q006686r0r066455313,&&$.. o@&392,&%%--;;17900000",
"w0wprrtpaweeqqq6553531,,70rrr046884533>&%++oo@+$$%->;1374000rrrr",
"aaasapsssdae053113533,;;%&,6rytr006695333::;&&&;;13177400weweetp",
"gggggfspw1,-=><33345838,,&$%%:30rtttrq665344533383339000peewwfas",
"kkgar;;*###%;;3335454553;;;;#OO$->735944q00449044000qtsdgdsjgjkk",
"91-**+@###%%-;;15454455431;;;=#@@. .O@$@=,59900q00000qaggkkjjjsp",
"@*@$%%&&###%-;;;;;,1353:,;;;;--=#$@@@@$@@@###=*==$**$*=->>>-=-=#",
"1;3348;;;;;;3;3;;1;,,:;&&&;;;----*##$##$#=*###$*$$@$**==---;;1,,",
"80r;r;;;777877779977733;3,31,111>>>>---->>->>>>>>>>>,1777780rrr8",
"rrrrrrr88000800844008080600044904004531<1111,2,211229927370rrrrr",
"rrrrrrrr000000w0r800rr000r00r0000pqtq00999999999020092277900rrrr",
"paaprrrrrpppapsaaaaaprp0r4000epr000teqaqqqqq0qqqqqq0ew000088rrpr",
"dssdadsddaddsssaw0099,--%%####;,0q0tatttqt00tpeeeqwwrp0eprrrrryt",
"ssiissddyssdq9>=@@@**@$$%##%$O@$%>00auuuudddadaetpqe00eeadttyiii",
"ffufsffdtq<&#@@O@@##*==>>>;&--%@@$#-:<90tttttaaeq05,>>=&->><2qti",
",<9993>>=#@@$*===-&->->733311,,>-##@@+@$&>>,>,>&%#$*@@@@OOO@$%%:",
"@$$%*$*@#==----;,>1,70000r00409531&%$#######%&->133371;--*@*$@@$",
"&%=====>-;;;1133370000r0raradtqrr63,&&&&&;1780rrq000097>,>-->%==",
">>>&;-;1331770w0rrpppptatyhssssytt0087,,388r0800r000040092711>>>",
"2,,,;,3378wwpppsadddsdishfsq055366004444758000q0rr0qwpwpw0097555"
};
