/* XPM */
static char *_545311186675[] = {
/* columns rows colors chars-per-pixel */
"64 64 123 2 ",
"   c #491E14",
".  c #4A2016",
"X  c #4E231A",
"o  c #4E281F",
"O  c #552117",
"+  c #5C2417",
"@  c #552419",
"#  c #5A251B",
"$  c #55281E",
"%  c #5C2A1E",
"&  c #602519",
"*  c #612B1F",
"=  c #722D1F",
"-  c #542C23",
";  c #5B2C22",
":  c #632E22",
">  c #692F21",
",  c #752F20",
"<  c #653225",
"1  c #6A3225",
"2  c #643529",
"3  c #6B3629",
"4  c #66392C",
"5  c #6C3B2E",
"6  c #743425",
"7  c #7C3525",
"8  c #723A2C",
"9  c #7C3A2B",
"0  c #653C30",
"q  c #6C3E31",
"w  c #713E31",
"e  c #6F4135",
"r  c #744235",
"t  c #7C4536",
"y  c #72473B",
"u  c #7E4738",
"i  c #7E4A3B",
"p  c #833725",
"a  c #833D2C",
"s  c #8A3F2C",
"d  c #913F2C",
"f  c #843F30",
"g  c #87402F",
"h  c #8D422F",
"j  c #824536",
"k  c #8B4534",
"l  c #844837",
"z  c #8D4937",
"x  c #814738",
"c  c #894738",
"v  c #834B3B",
"b  c #8A4D3B",
"n  c #954633",
"m  c #994531",
"M  c #914936",
"N  c #924E3C",
"B  c #9A4E3A",
"V  c #8A513F",
"C  c #94513E",
"Z  c #98523F",
"A  c #A04F3C",
"S  c #834F41",
"D  c #884F40",
"F  c #845344",
"G  c #8C5242",
"H  c #845548",
"J  c #85594B",
"K  c #8B5B4D",
"L  c #955443",
"P  c #9A5542",
"I  c #9C5947",
"U  c #935C4B",
"Y  c #9D5B4A",
"T  c #8D5E50",
"R  c #915F51",
"E  c #A35A46",
"W  c #A35D4A",
"Q  c #AC5F4A",
"!  c #96604F",
"~  c #8F6052",
"^  c #956353",
"/  c #9A6555",
"(  c #976857",
")  c #9D6857",
"_  c #9A6758",
"`  c #9C695A",
"'  c #AB604C",
"]  c #A36553",
"[  c #AE6450",
"{  c #A86A57",
"}  c #A36C5A",
"|  c #AC6E5B",
" . c #B16652",
".. c #B06F5D",
"X. c #AC715E",
"o. c #B3725E",
"O. c #AD7361",
"+. c #B27663",
"@. c #B87764",
"#. c #B37966",
"$. c #BC7965",
"%. c #B57C6A",
"&. c #BB7C69",
"*. c #C07E6A",
"=. c #96817B",
"-. c #9A857E",
";. c #BD806E",
":. c #C1816E",
">. c #9C8780",
",. c #9E8983",
"<. c #9F8D88",
"1. c #A08B84",
"2. c #A18E89",
"3. c #A5928D",
"4. c #AA948E",
"5. c #AC9691",
"6. c #AD9993",
"7. c #AF9D98",
"8. c #B19C95",
"9. c #B29F99",
"0. c #B4A19B",
"q. c #B8A39D",
"w. c #B9A6A0",
/* pixels */
"P P C L P Y 4.5.I P I I C L E Q P P ' Q N G 6.7.I P E E P P P P I P C C Z Y 4.5.I P I E L D E E P P Q Q b G 6.8.I P E E P P P I ",
"P P b C P I 5.5.W P P P V b P E P P E W b G 6.6.I P E E P P P P P P C N P I 5.5.I P P P b N E E P P E W b G 6.6.Y P E E P P P P ",
"u u u u l V 0.0. .Q l t r w 5 5 t j r t l b 6.6.Y Z v v u u j x u u t u v V 0.0. .Q v t w w q q t u t t l V 5.6.Y P l u u u l j ",
"t t u u l V 0.0. .' u t w q 4 4 t t r r l F 6.6.I L j u t u u u u t u t j b 0.q. .Q u t w q 4 0 t t t r l F 5.6.I P v u t t u u ",
"t t b c 5 e 6.6.Y P j t t t w w t t t t t i 6.6.v l V b j u b b t u b v 5 e 5.6.W P j u t t 8 r t t u t t u 5.7.v l V b t u b b ",
"u u G G e y 6.6.Y P v i u i t r i v u i t S 5.6.G v G L i u G G u v V G r y 6.6.Y P v i u v y r u u u v t S 5.6.F v L G u u G L ",
",.,.,.,.-.-.9.7.,.>.-.>.-.>.=.-.>.-.>.>.>.>.0.w.,.-.-.-.-.=.1.1.<.,.,.,.-.>.7.0.1.-.>.-.>.-.=.-.-.>.,.>.>.,.0.0.,.,.>.>.>.-.,.1.",
"1.1.1.<.,.,.7.8.1.1.,.,.,.>.<.<.1.1.1.2.,.,.9.9.1.<.1.1.,.,.3.3.,.,.,.,.,.-.6.6.1.-.,.-.,.,.,.<.-.>.1.>.-.,.8.8.,.-.>.>.-.-.3.3.",
") ) +.+.#.#.%.;.#.#.O.} O.O.6.6.+.@.@.&.#.#.%.%.#.#.+.+.| O.6.5.G V I I I I Y Y I I L L I Y 6.6.P M M M k k k j k k k k c N 5.6.",
"] ] X.+.+.#.#.%.+.+.| | | | 7.6.@.o.@.@.@.#.#.#.+.+.O.+.| | 8.5.G b P P P P P C P C C V C I 6.6.B n n k a a p p 9 7 a a g c 5.7.",
"X.| ( ( #.#.} ` ~ T / / R ^ 6.6.o.X.) ( ^ ^ } ` ^ ~ / / R / 6.8.I L u l P P l t 5 e u u u i 6.6.z f 1 : ; % : * $ $ > > 1 8 5.0.",
"X.X.^ ( O.+.` ` T T ^ ^ K ^ 6.8.O.| / ^ ^ ^ ` ` ~ ~ ^ / U ^ 7.6.Y P t t P P t t 5 5 r t r u 6.6.M f : : % # % : $ $ : < : 0 5.0.",
"..| H H } } ^ ~ / / F F U ^ 8.0.@.o.K K ) ` ^ ^ / / ^ ^ U ^ 5.6.Y C 4 2 v b e 5 t t 4 4 t u 8.8.B n % % < : ; ; : : > > 1 5 5.7.",
"X.| H H } } ~ ~ ` ` J K R ^ 9.9.%.o.! K } } ( / ` / _ / ^ ^ 5.6.Y P q q v V r r i t 0 e t S 8.8.P N 2 ; 2 2 < ; < 1 2 3 5 w 4.7.",
",.,.>.>.,.>.>.>.>.>.1.1.-.1.8.0.1.1.>.>.,.>.>.>.>.1.,.>.-.,.7.9.,.,.-.-.-.-.-.-.-.>.>.>.-.-.0.8.1.-.-.-.>.=.>.%.-.-.-.-.-.>.8.9.",
"-.>.>.,.-.>.<.<.>.>.-.1.-.-.5.6.-.-.,.>.-.-.2.1.>.>.>.>.,.1.6.5.,.,.,.-.,.-.2.<.>.>.<.,.,.1.6.8.1.>.,.>.>.>.<.1.1.>.>.1.>.1.6.6.",
"! E I Y I ! 6.5.c j k k k M A A k s k k k b 6.6.Y P Y Y  .[ b i Y W P Y I W 5.5.I L P I W W  . .E W Y I I Y 6.6.Y I I I  . .v v ",
"E P Z Z Z I 6.6.j f a a s s m m a s a a a c 5.6.Y P P P Q Q j t P P P L L I 6.6.L P P P W W Q Q P P P P C I 6.6.I P P P ' ' j t ",
"u u u u u v 4.4.f f 1 : : : : : , 1 6 8 1 4 4.4.P L b b v u u t x u u u t v 5.5.I G x u u u u u b b b b u i 4.4.Y P V b u u u u ",
"t t t t u v 5.4.j a < : : : % * > 1 8 6 < 5 3.5.Y L b b u t t t t t t t t v 5.6.P G u u u w t t v v v c r u 4.4.I P b l t t t t ",
"b v u l l G 0.8.z s > :     ; * @ $ 1 1 > 5 4.5.Y P t t v j t t v c u u u F 8.9.I P u w - 0 y t 5 5 v v t u 4.6.Y P u t l l t t ",
"V G u v b G 0.8.G k 5 3 o - : < - ; 8 3 3 r 5.5.Y L v i b b v v b D v u i H 9.9.Y I S x 0 0 y i e e v v i v 5.6.Y P i i b V i u ",
"-.-.-.-.=.-.0.7.1.-.>.>.>.=.-.-.-.-.-.-.=.>.9.9.,.>.>.<.-.>.-.-.-.,.>.>.>.>.9.9.1.>.>.>.>.>.-.>.>.-.-.-.-.>.9.8.,.>.,.,.=.-.>.-.",
",.,.-.-.-.-.6.6.>.>.>.>.>.,.2.,.1.-.1.,.,.,.8.6.,.>.,.,.>.>.2.1.>.-.>.-.%.-.5.5.-.-.-.>.%.1.1.1.,.,.1.1.<.,.7.7.,.,.2.1.,.,.<.<.",
"I Y Y E ' ' Y Y I I I I L L 4.4.I L  .[ I I Y Y I I I I Y Y 0.9.z s a a f s p 9 9 9 9 a 9 9 4.4.} | :.:.#.%.;.%.#.#.+.+.O.O.9.q.",
"P E P P E E P P P P P L b L 4.5.L C ' ' P C Z P C C P P P Y q.9.f a 7 7 p p , , , , , 7 7 w 3.5.} { *.*.#.O.#.#.O.O.+.+.| +.9.w.",
"P L v j u t u u u u u u 5 r 3.4.I P l u u u u u u u u l j v 6.5.f p % # # # O O # @ # #   - 2.5.X.| / ^ ` ` ` ` ` ` / ` / / 8.9.",
"I P t t t r t t t t t t 4 e 4.5.Y Z u r t t t t t t t u u v 6.6.f 9 # #   X O O O @ $ # X - 3.6.X.| ^ ^ / ( ` ` ` ` / / R / 6.8.",
"P P q 4 c c t t t t u t t u 6.6.I Z j t t t t t u j u u t v 6.6.f 8     & & O O O O + # + 2 5.8.| | ^ R ^ / ` ` } ` / ^ R / 6.9.",
"Y I r q S v i i u u i i u F 5.8.! I v v u u i i v v v v v F 6.6.D q o o : > ; ; ; # : : : 4 5.8.O.| / / ( _ ` ` ` ` / / / / 5.7.",
"-.1.-.>.-.=.>.>.-.-.-.>.-.>.7.7.1.-.-.-.-.-.-.-.,.-.-.-.-.-.6.6.-.-.>.=.>.O.=.-.-.-.>.-.>.>.8.9.1.1.,.>.>.>.-.,.1.1.>.>.>.,.6.7.",
"1.-.>.>.-.=.<.<.1.1.1.1.,.,.7.8.1.1.2.1.>.>.<.<.1.1.1.-.-.1.4.4.1.1.>.>.>.>.2.<.1.,.,.1.1.1.8.8.1.1.1.1.,.,.1.1.1.1.1.>.>.>.4.5.",
"I I L P I Y 4.4.O.O.+.+.O.O.;.;.#.#.;.&.} } 6.6.Y I W W I I Y Y P P L L L Y 3.5.O.| +.+.O.O.&.;.%.#.&.&.} } 6.6.Y I W W Y I Y I ",
"P P b b Z I 5.6.X.| +.O.O.O.&.#.+.+.@.$.] } 6.6.Y P E E P P Z P P P B G P I 5.6.| ..+.+.X.X.&.%.#.#.$.&.] ] 8.6.I P E E P P P P ",
"u u u u v G 8.q.*.$./ _ ~ ~ T ~ ` ` ^ ^ / / 6.6.Y P l j u u j u u x u u c D 9.q.*.$.` / T ~ T ~ ) ) ^ ^ / / 6.6.Y P v j u u u j ",
"t u u u l V 0.q.*.$._ ( ~ ~ K T ` ` ! ! / / 6.6.Y C j u t u u u w x u u v D 9.q.*.$./ ^ ~ ~ T T ` ( ^ ^ / ( 6.6.Y C l u t t u u ",
"t t b v 5 e 5.6.+.| / / / / ^ ^ ( ( ^ / U ^ 6.6.v l V V t t b b t u b b q w 6.7.O.| / / _ _ ^ ~ / / ^ / U ^ 6.6.V l V V t t c b ",
"u u G V e y 5.7.O.| / / ` ` ^ ( ` ` ( ^ ! / 6.6.G v G L i u G G u i D G w y 6.6.O.| ` / ` _ ^ ( ` ` / ^ ^ ^ 7.6.F v L G u v L G ",
",.,.1.,.-.>.9.9.1.1.>.>.,.,.-.-.-.1.1.1.1.1.0.q.1.-.,.-.-.-.1.1.,.,.,.>.>.>.7.9.1.1.>.>.<.>.>.>.<.,.1.,.>.,.0.0.,.-.>.-.>.-.,.1.",
"1.,.,.1.>.,.5.8.>.>.>.>.-.,.>.<.-.-.1.1.-.-.9.9.-.1.-.1.-.,.3.3.,.,.,.,.>.,.6.6.,.>.>.>.>.>.,.,.-.-.1.1.>.,.8.8.1.-.>.>.-.>.3.3.",
"V V I Y I I Y Y I I L P I Y 6.6.[ W W W E W Y Y I I I I I ! 5.5.K D I Y I I Y I I I L L P Y 6.6.P E P P B L B L N N C C C L 5.6.",
"c b C P P P Z P P P b C L I 6.6.W E E E P P Z L Z P P P Z I 6.4.D z P P P P L L P L N N L I 6.6.E B m B M k k k z k z N z C 5.9.",
"I P v u P P l u r 5 u u t i 5.6.Y Z v u w r u u r 5 u u t v 6.7.I L x x P P l u q q u u t u 6.5.L M w 8 1 3 8 8 < < 8 8 8 t 5.0.",
"P P t t L P t t 4 4 t t r u 5.7.Y P u t t w t t q q t t t v 6.7.I P t u P P t t 5 4 t t t i 5.8.L M 8 5 < 2 1 5 < < 3 8 8 r 5.0.",
"P C 4 2 l l 5 8 t r 5 4 r l 6.0.' E r q j u r r t t t t t u 5.5.I P 4 2 v c q q t t 4 4 r v 8.9.E B < : q w 1 1 6 8 8 8 8 r 5.7.",
"Y L e q V V r y v u q 0 u V 8.8.] W r r b v t t u v u i t F 5.6.Y P q 0 b V r e u u q q t S 8.8.E P 5 4 q y q q w w w r r t 5.7.",
"-.,.-.-.>.-.-.-.-.-.1.-.-.-.0.0.-.-.-.-.-.-.-.-.-.-.-.>.>.>.7.9.,.>.>.>.>.-.-.-.>.=.>.>.>.>.9.9.1.-.>.-.-.%.-.-.>.>.-.-.-.>.7.9.",
"-.,.-.,.,.-.<.<.1.-.1.1.-.1.8.8.1.-.,.>.>.>.1.1.,.>.,.,.,.,.6.5.,.,.>.>.,.,.<.,.>.<.,.1.>.,.6.8.1.>.1.>.>.>.1.2.>.>.>.1.>.1.6.6.",
"W ' I I I ! 6.6.I P I I W W  . .W Y I I I Y 5.6.Y I I Y  .[ v b I W I I I Y 5.5.I P I Y W W  . .E E Y Y I Y 6.6.Y I I I  . .v v ",
"P P C P C I 6.6.P Z P Z I E ' ' E P P P C I 6.7.I Z P P Q Q j t P P P L P I 6.8.L L L P E W Q Q P P P P C I 6.7.I Z P P ' ' j t ",
"u u u u t v 4.5.I V v u u u x v c b b b u u 3.4.I Z V b u u u t j u u u u v 5.5.I G u u u u u u b v b b u i 3.6.Y P b b u u u t ",
"t t t t u v 4.4.L C u t t t t u v v v v t u 4.5.Y Z V l u t t t t u t t t i 5.5.I N t t t t t t v v b c r i 3.4.I P b v t t t t ",
"v b t t l V 9.0.I Z t t < 2 r r q 5 j l t i 5.5.I P u u l l u t v v t t u F 8.9.I L u w 2 2 r t 5 5 l v t u 4.5.I P t t l v t t ",
"V V i v V G 8.0.! L v u 4 0 i u e r v F u S 5.5.Y I i u S b i i b G u v S H 9.9.Y I S u 4 4 u i r e v v u S 6.5.Y I i i b V i u ",
"-.-.-.-.=.-.0.0.1.-.-.-.-.-.-.-.-.-.>.>.-.>.8.9.,.>.,.,.-.-.-.-.,.-.>.-.%.>.9.9.1.>.>.>.-.-.-.-.>.>.>.>.>.>.7.9.,.,.,.,.>.-.-.-.",
"1.1.1.1.-.-.6.8.1.1.1.1.1.,.<.<.,.>.>.,.>.,.8.8.,.>.1.<.>.>.1.2.,.-.,.,.-.-.6.5.1.>.>.>.>.1.1.2.>.-.>.>.-.>.6.6.>.>.,.,.-.-.1.<.",
"O.O.+.@.;.;.;.%.$.#.+.O.} X.4.4.Y L [  .Y P Y Y P L P Y Y Y 8.0.W I E Y ' Q Y Y Y I Y P L I 4.2.u a n n 9 9 7 9 6 6 9 a f c 8.w.",
"..X.+.@.&.&.#.#.+.+.+.+.{ ] 5.4.L N Q ' P P Z L L L P P P E q.0.W P P P E W P P P L P L b G 4.4.9 7 d d , , , , > , 7 , p f 8.w.",
"..| ` / ` ` ` ` ) ) ` / H J 3.5.Y L u u x u u u u u j x j S 6.6.Y Z v u t t u u t u u u 5 e 3.4.f 7 % # @ O @ @ @ @ & : : 1 5.9.",
"..| ^ ^ / / ` ` ) ) ^ ^ F J 4.4.Y P t r u t t t t t u u x v 6.6.Y L u t r t t u t t t t 5 r 5.3.f 7 # @ @ O   O O @ # # % 2 5.9.",
"| | K J } } ` ` / / ^ ^ U ^ 6.6.Y P u t t t t u j v t t u v 5.6.I L q 0 j v u t t t t t r y 5.5.f p % @ @ @ @ O + + @ % * 1 5.9.",
"O.| K K ` ` ` ` ` ` / ^ ^ ^ 6.8.Y P v i u i u u v v i u i F 6.6.Y P r 0 b v v u i i u i u S 7.6.c f : : - o - # * : : ; 1 5 5.7.",
",.,.>.>.=.=.<.,.>.,.<.>.,.,.8.7.1.>.>.=.>.=.>.>.,.>.>.-.>.>.5.6.1.>.=.>.=.=.>.>.>.>.>.>.>.,.7.7.>.>.>.%.O.>.-.-.-.-.=.-.=.>.6.5.",
",.>.<.,.>.>.<.<.,.,.<.<.,.,.7.9.<.<.,.<.>.<.,.,.2.2.,.1.<.<.5.5.1.,.<.<.>.>.<.<.,.<.<.<.,.,.7.7.<.<.<.<.<.,.1.1.2.2.<.<.,.<.7.5."
};
