/* XPM */
static char *_545311339932[] = {
/* columns rows colors chars-per-pixel */
"64 64 58 1 ",
"  c #2D3333",
". c #303636",
"X c #363D3C",
"o c #383F3E",
"O c #39413F",
"+ c #41453F",
"@ c #3C4443",
"# c #3F4847",
"$ c #3F4948",
"% c #404744",
"& c #434945",
"* c #4A4E47",
"= c #424C4A",
"- c #4A4E4A",
"; c #45504E",
": c #4C524D",
"> c #51554E",
", c #475251",
"< c #4B5551",
"1 c #4C5856",
"2 c #4E5B59",
"3 c #535654",
"4 c #545A54",
"5 c #595D55",
"6 c #545758",
"7 c #565B5A",
"8 c #595E5D",
"9 c #5B6057",
"0 c #54615F",
"q c #5B615E",
"w c #60665E",
"e c #5A5F60",
"r c #556464",
"t c #5D6463",
"y c #5F6864",
"u c #5F6768",
"i c #5C6C6B",
"p c #5E706F",
"a c #5F7170",
"s c #606666",
"d c #616A66",
"f c #616768",
"g c #636C6A",
"h c #66716D",
"j c #68726F",
"k c #666F71",
"l c #686F70",
"z c #667271",
"x c #697572",
"c c #667977",
"v c #6C7A75",
"b c #6A7778",
"n c #667978",
"m c #6E7D79",
"M c #717E7A",
"N c #6E807C",
"B c #72817C",
"V c #6E8381",
/* pixels */
"04::>94>4<>>:+***:>99995599>99w<2999455>45545599w544qqqqdy8qdq8-",
"idddhdydhihdwyywq990qqwww0qywyy;i990058tt888qqrtsfssfgdggggzvxg@",
"pddhdhdihdhhhdpywywyyqddydiiydh1N009785rt888q8tugzghkikzzzxbMbg$",
"0dhdhdhhhhydhddddyiyyidhhdhddhd<N2908888qe8qqttfgiggkggzhzzxmxi#",
"idddhdhhhhhwydhyyyyyyyddddhdhdh,z888r78888qttffffughkgggkkkkbbk@",
"ihdhhhhhNhdyyyhwyyywyyywhddddhy,a8878t8ttttttfffufggzzkzzzxbbbz#",
"iyhdyyhdyhyydyydyyyyywwNydddddh<at88888qttrtsttrtfuugzzzzxzbbbk#",
"cyqhyyyyyhNhyyddywwyyyywddhydhy,pr8tq88rqtqtytttftyfgzkkzkkxzzk$",
"Nyyywwyyyyhhyyydyywyyyyhyhhdhyh$i87tt88ttqtqtrqtttufgzgkkkzxxbk#",
"hhyydhyhhywhhyyhyyyyyyyydyydyhd,rr77re8ttttttrtstufizzkkkzkkxxk#",
"yiyddhddydyyyhdhwyyyydhyddhyhyd,i8788ttttttrttttfuuggzxkzzzxkbk@",
"NNphdhhhyyywydddNyywyipNNddyyhh1ct788qtttsssutyuyfgggxkxkgxxxkpO",
"iNwihyhwhywwdddhdNw9dywNwwyidhd>cterrttfftuuuuufyfggkxkxxkzkbbk@",
"NyNdyhhhdhywdhdhdwdNNNddNwhydhh;peee8rttfftyuyuyufgzkxzkxbxxkxk@",
"NNyNydhhhNwNhhNNdNwNNwNwdhyypdh;i78888trtfyttttuuugkkbxkkbbxxzp#",
"yhdyNwNNhdNwNyNyNdNNwNdNdyhdddd,p8788eetttguuuugfgkzxbbbbbbbbbk#",
"phdhNhNhhNNhNhNhNwNhNNwhdhihdhd:i878888tttdfuuygggzzbbxxxxzbzbz#",
"NhhhwNNNhwwNwNwNhNwNhwNwhhhdhhp;ur8788q8ttsuttyfuggzzzkkkkkxxxfo",
"rphhhwhNhNwBBBBhBNNBhywwwddidhy$irq78e8trtuuttufffzzgkkggkgkzkuX",
"rphdhNwNhNBhBBNBBNNwNNhNhhhhdhd*itt88rttttfggfuggzgfigugggigggtX",
"ihNwhhBNNBhhBNhNBhNNNhhhhhdddhd=ute8qr8tttgfyuygghfuufgzggiggutX",
"phwhhhwNwNBNBBBNNNNNwNhhddhydhq@2t8r0tttytggfffugkggigfhkgfgggtX",
"pNNhwNBBwBNBNhhNhBBhwNhhdyyddyqO2qtrttuuffgguigggfffgfygkzgkgku@",
"0ywhhhwNNhhwBBNNNBBhNhhhhiqydq0O2fffuufgggzzkkkzguyufsyfgzzzzzu@",
"yydphhNNdNNhBNNNNBBwwNwhwywyyy0O7gfuyuufggzhggzgfusfgyygfkggziu#",
"iNhNwNhNNBBBNNNhwBBBNhhhhw0yy09@rutufyuuuggkikkgfuytuytuggkkgktX",
"phhhwNdNNBBNNwhhNhhBNhdhpyyw991O2uyuggyffgzgggkkfyuygttfggkgggt@",
"NhhhNwNdwBBwhNhNwhNwdNNhdyw9094O1uuyyfyugfgkgggguuttfutufzgggit#",
"NyhhNwdNNNNhhhNyhhhhhNNypyyw999O2utttfyufgggighgfyyyffyufzzgkgu#",
"NphhwNNdwNNhNhdpyhwNdwhNdyyyy99O2utstftyuughggggugutttgffgggggt@",
"pNyNhNNNhNNNwNw9wyydywidhddy009O7uterttttygfffffufttrtygugffuut@",
"<OOOO+OO++++OOOOOOOOOOOOOOOOOOOO,@oO@@o@XXXXO@##@#$@@@@OO@OO@@X@",
"5-*->6-66676-:;@-->-:>>>3<4444337<>444:***%+&*:;73>46:6:-:--:>36",
"weseetfgdfffffs@rljlxjjvvvvxbxjjgsdwqqt99q88qq4=itqqfetfffffffte",
"ftftttflffkffkf=axxvMMvvxxxjjvvjhggssqqq5q87586&aftttfffllfffftt",
"fetetffffgffffe=zxllMMxxjjjjjjxvhghdsq8q8485784%itffeftffffffftt",
"eefettflggfgfff#ixzxMvjgjjgjjjjjxjddqq888438343@iutseftffffflffe",
"feefttfffffffke=azjjxxxjgjjdfjddjjhds9888565783@rtetsetflffffftt",
"feefftsgffffffe,Nxjjxjjjggdddddddjjst9w85656684@rtetestfffffffff",
"eefeffflfffffff<Vxjzvjjgjgssdddddsggssw88885654@rtettstsffffffff",
"lffsfffffffsffe<mxjxvljdfhdssddssddddwwee9e9853oeteffeetlfffffff",
"fffffffffkfkfkf,Vxjjvlggdsdssdgdddgddswtweee884oeeeeeeffffffftff",
"flfffflfkfkfkkf=czzjxjggddddwwsjgdgddwdwswte8q6@eeefefeffffffflf",
"ffllllflflflkff=axzxvxjjddsddsshjjjggdddssswsw8@reefeefflfffffff",
"fffklllbkkklkgf=xvjvvxjddwqswssdgxjjlgddssdwsds@reeuttteffffffff",
"ffflllllbklbggf=hjjjjxjddsqfqqqsggvjjljgggdddg8%ueeeetffffffffff",
"ffkklllbkkxlkks=jjjdgdjgdqqdtqqsddjvxvjlgggjjww&iuufffffllfflfll",
"kkfklkklllkkgft%shgddgdgsqsqqtqsddgjvxvjjjjjdde-iueeetffftfefflf",
"fklfkfkkklkkfle@isytsddsswq8qsqtwddglMvvxjjjggq=zueuetsteeeeeeff",
"efkkkkfllfklffe#hddswdwsswqqqqdwwddjljMvMvjjhyq=aeeesteeeeeeette",
"effklkfkfkflkkf@iddddddsddqq9sqqssddjjxMMvxjdsq#ueeetetteteteeee",
"etfklkllkkllfkf@ijdhdhgddgfddssswddjljMvMMxhgdq#ieeueee66e6ee8ee",
"tffllfllklklkff$igggdjgdddwsdwqqwsdlgxMxxMljddt-aeeeeee6ee8e888e",
"eeelfffffkflkft#tgdgdggdgdsdsstwssggjvjxjxvlhgs;neeeee866666666e",
"eefffffflffkfkfX4fgddjgdgddddssssdgjxjjgjgjvjgt=peeeee666666668e",
"eefffffffffkkfeX5gdddgdggswddwqqwwjljgggjggjxht=aeeuse6656666686",
"eefffffffffkfleo0ysddhdgdsswdqsqsggggggddgddjjt=ffffee666666666e",
"eetffffffffkffeo0sgsddddgsdddsqqwgssssssssdddsy#fleeee6ee6666656",
"etffffffkfkkkfto0ydddjsdddssdstdgsswtwwsswsdstq&eftete66e56566ee",
"eefffffffffkkkeo2ddddgddgwdsdwqdwwqwewwwqwsswsq@efttee666e666eee",
"effeuuffufuffkeo2uisdgddddsdsttyqqqq888wtsqqrte$efeeee666eee68es",
"ffeteeefeeeffffo0gdggjdsgwwsyttqq8888888qtqqee6Oepfffee6666e88es",
"eeeeeeeeeeeeeeeo0tyyddtttqqwrq77553643775q8888e$ieeee6666666ee6e",
"ooooXooXoX.X.. X;@@$&&O@@o@o@@#@@@o@o@OXXXO@@@@$2@@@$$$@@@@%&+o+"
};
