/* XPM */
static char *_545311462983[] = {
/* columns rows colors chars-per-pixel */
"64 64 116 2 ",
"   c #454239",
".  c #4F463F",
"X  c #4F493B",
"o  c #55473E",
"O  c #54483C",
"+  c #464540",
"@  c #4D4640",
"#  c #4D4A44",
"$  c #4E4D49",
"%  c #534D45",
"&  c #524F49",
"*  c #584F48",
"=  c #4E504D",
"-  c #555046",
";  c #54534C",
":  c #5B554C",
">  c #5C594E",
",  c #555552",
"<  c #5A5751",
"1  c #575956",
"2  c #5C5A54",
"3  c #57595A",
"4  c #5D5D5A",
"5  c #615A4E",
"6  c #605750",
"7  c #625D55",
"8  c #695F56",
"9  c #615E5A",
"0  c #685F58",
"q  c #5E605C",
"w  c #646056",
"e  c #696256",
"r  c #63625D",
"t  c #6B655C",
"y  c #6D685E",
"u  c #71665C",
"i  c #716A5E",
"p  c #7A6E5E",
"a  c #595D60",
"s  c #615F60",
"d  c #5E6162",
"f  c #656562",
"g  c #696662",
"h  c #676863",
"j  c #6C6A64",
"k  c #676769",
"l  c #66696A",
"z  c #6D6D6A",
"x  c #736D64",
"c  c #786E65",
"v  c #716E6A",
"b  c #6F706B",
"n  c #757166",
"m  c #7A7266",
"M  c #74726C",
"N  c #7B756B",
"B  c #7D796E",
"V  c #757571",
"C  c #7A7671",
"Z  c #777873",
"A  c #7D7A74",
"S  c #7A7778",
"D  c #7D7C79",
"F  c #81766C",
"G  c #817A6E",
"H  c #897D6F",
"J  c #807770",
"K  c #837D74",
"L  c #887E74",
"P  c #827E79",
"I  c #897F79",
"U  c #858176",
"Y  c #898176",
"T  c #85827B",
"R  c #8B857B",
"E  c #8E897E",
"W  c #908476",
"Q  c #948977",
"!  c #91867D",
"~  c #928A7E",
"^  c #988C7E",
"/  c #858481",
"(  c #8A8681",
")  c #8D8A83",
"_  c #8F8D89",
"`  c #918781",
"'  c #948D83",
"]  c #988E84",
"[  c #918E89",
"{  c #969185",
"}  c #9A9286",
"|  c #95928B",
" . c #9B958A",
".. c #9E998D",
"X. c #969590",
"o. c #9B9690",
"O. c #9D9992",
"+. c #9D9D98",
"@. c #A29686",
"#. c #A1968B",
"$. c #A29A8D",
"%. c #A99D8E",
"&. c #A29791",
"*. c #A49D92",
"=. c #A99F94",
"-. c #A5A196",
";. c #AAA295",
":. c #A5A29A",
">. c #AAA59B",
",. c #AEA99D",
"<. c #B0A699",
"1. c #B7AB9F",
"2. c #ADAAA2",
"3. c #B2ACA2",
"4. c #B3B1A5",
"5. c #B2B2AA",
/* pixels */
"*.=...} ` ` ' ' ' { ] ]  .*.` ' [  .R R ) Z / ) T  .>...U U U U M x g N ~ E ~ >.E A T U U V v x B {  .E S K [ R K R I j C D C I ",
"T  .! R R Y K K K U K R R ' S C A B z v z 3 k D D ( ) z b r h f 1 1 4 q q t f U M h h N N h r , t R { T D D P j k j K P T V g a ",
"C ] L Y B K K v K B N F L  .+.' : g t , d a g s r g R f z h h z , g f 3 q z 2 U M f d N z t h 4 x U { l a z S a v j j K v b S z ",
"| ` J N v N N v B G F N A  .| T P J j 9 v f f 4 1 z ( h z h h z 2 k t q t 2 q } V z z b q ; f f n A } l a f f = z K C I S S P P ",
"..Y N u 0 j e t t x B g N { S M S [ [ C v f j v 7 M U f z h f h q f h f r h 1 T b h z b z j q q t f T V l z M 9 b ` T K M V P S ",
"( L t c x g & 7 t t j c m ..D U ( X.K K A K P v V R U k v j h h h q l h z h z U j b M r r q q q h z U V z M V V z M T S A S M M ",
"| A r j m f j c j m v y m | ( T [ [ ) K j C A M V C R z M h t q h r r 3 r h r E n A n q q q 1 q z z E b z K g 0 a 4 v m N P V M ",
"&.K t j t 0 2 g f 0 : < x  .U z P / P P C K A S j F ` 4 r q d f q q q 1 q q q E N w q 1 q , , q q 2 ' U z N B B N v R K N n ( P ",
">.} T E R ) R A L G T R } -.}  . . .} E  . .} ' } ..;.R R A { ) U R U R ' E { -...K U T ~ K U E E ~ ;.*.W U E ~ ' R } O.E K { $.",
"| | -.:.-.-.:.=. .X.o.o. .| ..>.>.` ` { E A T R E T E { { ' ' } E ..~ | ;.-.*...{ | { 2.| T R R E E U A Z M n n ] } >. . .T | | ",
"A U | ( S | &.' [ ) T P ( T R ..] P A M A N f f b M C V N h N E B T U R x t U K N j B | A b b h b D A Z b b h h U ' -.R V z b V ",
"P $ P D N A } ( P P T D ( T P  .] ` D C M M z < v b M N z f M R M T D B 5 e B j y y t U P V D b Z Z Z - n j j N K ' *.S f S V M ",
"_ / ( D T T [ P v M M M C P C ' ] Y P S R S C k f z c K ( K I ' b K n t m E g j r r , B R b Z M A Z b B b y h Z j V O.| M / D D ",
") ) / S S ( ' N C M 0 j M C C { ] ] U T A C v V K K J R P C A } b y i i M N t x j r 1 n P z A P Z b b b r z b b B V T T M M M M ",
"z V T D V R R z A v M V C M j } ' K K Y V S J V D I ( ) D R ' E l n V j M r < e 7 > e i U N U A n j h h q r j b N b ( T k r V f ",
"V z Z M V | ' A S K C A N x M $.#.! ' ` P ~ ` M I K m I G R $.{ b n n t n m t i i e e Y } K N V n b A B M V B D M b o.R g z z z ",
"2.:.O.| O....... .' A Y R {  .' { ' | { %.%.*.' } Q ] @.] ^ #.%.*.-.*.-.>.>.,.,.;...E -.&.*. .( { E {  .} ' [ R R  .*.3. .X.&.o.",
"P ( ' S T U ' { T t 2 q q g V b z b z M } Y K B j G Y Y ! ' ! ;.-.R ~ E  ...} $. .E { ..R } K h b b b Z z r 4 < 4 K ( o.M v M M ",
"4 y N v M N ' { U g r h z M V N h q z z *.R M K F F W } R L ! #.E N N B U E m e E ' ) T T ' A z f f M Z V z h f 9 C R } f , 1 2 ",
"f 9 h g N h R | A v f f r # b b z z M b ' K N U N B U U K G ! ] n b n j n B B o B A T E A ' K z b z b V ; 2 k r j N (  .9 9 r f ",
"t v g h f b T U j M h 4 f f h b M z h z ~ c N A V A G Y Y G U Y y t j e n j E K m n U Y M  .A h b b V z f h 4 q M g N ( f 1 r f ",
"b h z t r z A b h f f r q M z z z z z M { N C M z j z ~ } p U W r r j V n i K U y n n n V ` S z b b b z M f 4 q r f h ' h g g M ",
"h 4 r g g f U N Z z h r 1 q q q M D z M ] M N V t q j n G n Y Y r t j i n y j A A B M j V +.N k A M r q q 3 4 f h Z z E M j z t ",
"z f 4 r h f D z g h f 3 4 r r r g V M C L j M M y n U n e n m Y y y 5 y y 2 t M n M U B z ) K v M z q r r 4 1 q h f d R q q r h ",
"g g h v P v ! M g z j r q h M f k r N U } B x e N L } W N e F ^ m i u F p F F Y N m N G N  . .x r r r z h f r 4 z h h ) z z j z ",
"&.' U E R ( [ ] R [ R ` @.^ E W Y ~ ' ' { { Q ] ' ] } } } ^ @...} @.%.} *.*.} @.| [  .{ #.,.=.} | ` ' ' ' ' ' }  .;.&.>.>.2.=.=.",
":.K f f 3 f 3 9 z f f b ~ n n m i i n t > , x ' ' E E U U E E W E *.$.Y U B B V z d D D ' } j r M S v z z z S #.) ' [ E ` ' T U ",
"` C 4 k 4 k 2 1 z f z k Y x y N x x - 4 2 e x } | ) R U p n U B B E >.-.B m y w z h k 9 N ~ 4 4 t M 4 f k f C [ U ) R 7 N A v M ",
"T ' 9 f k k z g z f k z ~ c j i t y t K t t v ' R U B m N U m U B R O.U R | ) K V v v t B R 1 f z j g z k f z ] P I x K U v x f ",
"I ' f z f f f k V g f v E 7 e x r e > y n N m R n B G G U m m U G R o.R ' *.[ U K R K C ` ` 9 s h v a z f g V [ D v N K N M N h ",
"P ' V M z b z f z D v z E 7 > > 7 j t - j y j W q N U U U U B m B ~ =.T ( | ' R C R L C L R 1 9 g z 4 a s 9 j | S C N C g t e t ",
"*.>. .R ) ) / ( I ) | R } Y m L U G ~ Y G Y { ;.Y ^ $.{ } @.} ..~ ;.1.' } *...} #. . .#.=.#.J ' ' R R ' ` R ` <. .! ! ] ] ] W ! ",
"N K ;.R B K Y U { ) U R L } O.U y M S ) R / ' $.E E E } ` R U Y G G B K ;.^ G m B m m G Y m U B y U n ^ ~ Z A b C A D T D S A K ",
"z z E r = ; > 2 t n e t x R } M h b A A V z V ' v A U K K m z c j i e , R m t n y n e e n i q > X = ; B z h b 1 r f 4 2 z M k f ",
"v r E w = = , - - q w t 7 `  .N g M g D V V D  .K A R T R x 7 U m M n e Y G e w i n e n 5   > $ q w w B V t b r q l g @ z V g z ",
"M h Y 1 = 1 q 2 7 2 2 r e E ' S b z r V S Z D ' R N A N K c v K L K G n ^ Y y m y n n m y > B w > w q E n h z b b b M M l j f M ",
"h M E 4 : , t w e q < ; t ~ A h z h Z Z A V S E j M c N G L M c v m G y R G w w y y , > j q A n w B > E ~ h j j f z z z V P z h ",
"v M ' j e w r q = 2 w 2 1 K A A z t h z V T V ( M v M A A B x B B A m r Y B > > n y q q w - t j y B > Q U j b M z k z z b D v j ",
"z N ' q , q q r > ; , 2 1 K C V z r h z M T U #.z M N z M M K N c N N n R i - w > 5 w y m > + t i y > U R Z A Z V b S z k K P A ",
"N M ' q w , 2 2 = > 7 v 7 ~ M v z r b b g z U } B N N B K B M N v v n y ^ B : : > 5 > w y n e e y w > U ..E A b D D M z v v P R ",
"' ' *.} R ) ' ' K ' ! } ` R R [ ' ' W ^ } ' $.%.} } { O.#.' } *. . .#. .=.*.' o.&.~ E E ~ #.] { %.{ } <.;.-.$.' |  .{ $.' ' ' ' ",
"4 9 j j M D { C j j f r 1 ; , 9 j z f z V ) ' S D D U R D M z z C } ;.3.( T ' I T / / K M [ >.R A T R E E ~ E K Y R L  .x j g 4 ",
"f 1 j f k f R 3 1 9 , , 4 r ; 1 g 4 f f 4 M R S b z D D M M v h M ) *.} v C A M < C z g z T } x e t x m t X N B B n N z 3 4 3 4 ",
"r 3 z k z h R g = 4 4 1 4 f , 3 h r f f q V U C D Z D V 4 j z v K P } I M V h v r M f f r R K , q < 2 r m : t y N z M K , 0 3 r ",
"f r g f j f C 9 3 r q r d 4 4 4 r 4 f g 4 j R V A Z Z V D b h z z z ( E C V z g v f g f s A J $ , w w w M B 5 7 x r K R 1 f r f ",
"f h r k z z P j k 0 f 3 f 4 f r 4 r f h k N ( V T P b z h r z b C D ( R j f g h g t 9 r 9 C F & 2 2 w 2 2 j y y 7 4 D R f h 4 q ",
"2 4 4 a f a I f , 3 , ; 3 , 1 3 3 1 4 9 4 v ' A D M z b z q r z M z V K 4 4 4 s , , , 9 & x K : % % : & : 7 2 0 j 2 h A 3 4 , a ",
"D U U K A T } Y B M S C K v N K F A K L L ~ #.] Y K K T ) U U E T { $. .' ~ R ~ R I K R K ' %.L F L G Y Y ` R Y ! ~ ' &.R ` R R ",
"N N N R ,.4.>.,.O.2.5.N U :.( } $.' ' K L R R ' '  .@.R { ~ Y ~ U W Y R m E U $.4.2.,.2.>.+.+.+.*.) :.*.*.` E ) { E Y U Y Y R ' ",
"; ; ; ; | ..| _ / X.K z / D D A $.S v M x K ( ) R ` ~ B B m n A n x i G n Y M R 2.[ X.+.+.( _ / D D / X...w q M n t y : 7 > r w ",
": 1 > # ) ) A K ) t R _ Z N h V  .P M T x K ( T N ] R i p t y m > i m N G K Y ' ) A / _ A g _ D S D S T $.% % t t e r X % w w w ",
"# = , > ` T U / E t U A A z z A R v M S v P N J S L ^ t i i e m t t y y N M K ~ S / _ ) N v +.D _ _ z _ R $ < 6 y 7 q w z r w 2 ",
"> > w q U M U ) A / { K z M h z I b V M z z D | B L ] x i c e e i t e i t m i n | _ / ) +.X._ / ( _ / O.) , 7 < 2 e t q 2 < w 2 ",
"w i w t ' T / U P T D b g M k M R z V h 4 r z U M K W i i i i 8 y i x i i i 2 L ) T D _ _ X./ D S V S T E % t t 5 j e e w w t y ",
"& w ; , U N A K T z z f N K v K ~ g M z g v M t j K ~ u u t u e c m x i j 7 $ R X./ / X.D S V M T z V _ c # 2 7 w ; > < ; , < < ",
"q ; > t E A A T R P b z M A g G ] j g 0 v R ' M t B } n B u m B N i m x c w # R +.D V D Z Z S A S b V / } t 2 ; ; 7 - 5 w : > > ",
"| } { } $.} .. .{ E ~ E R } &.;.;.*.@.' ..*.$.@.=.>.=.&.*.#.*.#.$.#.&.#. .#.=.=.$.} $.E ~ *.{ } } $.=.} ' Y B R R } ~ ~ ;.$.{ { ",
"R R R U R R R ' E N ` L L R E R Y ~ Y G G m ' $.=.*.&.o. .| | | | }  . . .| =.L j z t e m F G U F W } - % < 7 7 t x j r ~ $.~ ~ ",
"U U M K L N K W U v B K K G > o m c x y t t B } &.] | ' [ ' ( I R ` Y Y ! ~ *.L t t G 7 n N Y m p Y Y # : < 7 % t j n 1 ~ W Y K ",
"N B N B K K B K E f B B x x 5 e M 9 7 : w 1 7 ]  .` ( P I I R P P [ R R K R $.x t t M 4 m i n u p m { 7 t t t ; w w r t ' L N x ",
"z t 7 j x B x G K h v c 8 6 i Y t w 0 4 < , < ! ` I J N v K t v C m K L F L *.g e j q r w t Y G y p Y : e 2 2 w t 2 < ; ! G x 8 ",
"x e e v x v m L K z r 8 u g c x 9 6 t 4 9 , * K ! N J I F B u m C B C C K P #.j t j q , ; 2 i n t n R ; 7 w 6 7 7 7 2 ; ' N t x ",
"j t n h M t e G S r j v g 0 g 7 * : 6 * @ 6 : W R V J D K z V K V K B c j G ' 7 7 e 2 7 w n w : 5 e Y 7 2 < 2 0 1 < 2 ; R h t g ",
"K A K M c y v ' ( M c N c N G L m u F c u c u ] ' R ` J Y ' K K C K x N G } >.N m e y F H { L B y p ] n t t t y M N y B } G F m "
};
