/* XPM */
static char *_545311591642[] = {
/* columns rows colors chars-per-pixel */
"64 64 86 1 ",
"  c #00627C",
". c #026B7F",
"X c #016680",
"o c #036C84",
"O c #086E85",
"+ c #056E88",
"@ c #096F88",
"# c #037186",
"$ c #05738B",
"% c #0A758C",
"& c #05798D",
"* c #0B798E",
"= c #11778F",
"- c #11798F",
"; c #0A7691",
": c #067C91",
"> c #0C7C93",
", c #0D7F99",
"< c #127D94",
"1 c #127F99",
"2 c #078095",
"3 c #0B8196",
"4 c #0D849A",
"5 c #0D889C",
"6 c #138196",
"7 c #188497",
"8 c #14849A",
"9 c #19859C",
"0 c #148A9D",
"q c #1B899E",
"w c #20879C",
"e c #228A9F",
"r c #22909F",
"t c #1587A1",
"y c #1987A1",
"u c #168BA1",
"i c #1C8CA2",
"p c #1C8EA8",
"a c #1690A4",
"s c #1C92A5",
"d c #1E98A7",
"f c #1E94A9",
"g c #1F98AA",
"h c #228DA4",
"j c #288FA4",
"k c #248EA8",
"l c #2392A6",
"z c #2992A6",
"x c #2494AA",
"c c #2A95AB",
"v c #249AAC",
"b c #2B9AAD",
"n c #319AAF",
"m c #2896B1",
"M c #269DB1",
"N c #2D9DB1",
"B c #329DB2",
"V c #389EB1",
"C c #29A1AF",
"Z c #31A1AF",
"A c #27A1B0",
"S c #2CA2B4",
"D c #2FA4B8",
"F c #33A2B5",
"G c #39A3B6",
"H c #38A8B6",
"J c #35A5B9",
"K c #3BA5B9",
"L c #34AABA",
"P c #3CAABC",
"I c #36B0BD",
"U c #41A7BB",
"Y c #42ABBD",
"T c #4AAFBF",
"R c #47B1BE",
"E c #3FACC0",
"W c #39B3C1",
"Q c #44ACC1",
"! c #4AADC2",
"~ c #44B2C3",
"^ c #4AB3C3",
"/ c #4EB8C6",
"( c #4FBDCC",
") c #4DB6C9",
"_ c #51B6C5",
"` c #51B8C9",
/* pixels */
"$8si;;1y8hblxcmppypmBBmKkykmvs48vNQQKDu00a5322&6SdsdA66NPvvLSSLi",
"%ibBi9ih9NmmmmcspppNEBKKp1tmgs0ffFPQQsaaa502223#CIAvS86SLAbLFSDS",
";bFBBixicFNMmmppppmBVU!Jtt1xfsgvvNMJCad00008623&6CaII68JJJSSSSCS",
"%cPGBi<hcfmNNiixttNVEQUUxt,ff08sxssuusafd044333*#0>3xuuLSSSSSLPL",
"%l0sbc<ypfcFmimq>mK!UKQmt,>>86;6i0uisqsggfvs>:>:$&2&470JLCALLHvx",
"%5>0sb4imxvNPFi%pGVJlvmsu1;>,,xJDvLNSSvffJJsv3%:+&4:2466SLDFHC00",
"o630qq0xmmvJmy;8mBciiiiyi>;>>6iFYYJDDJLvJJ330s;%#::236>>sJq08ss4",
"o4i0iqBNNNbmi8$fBBNGb0icy;6illxis/FNNF~)J5:%,25>$%32&&*68q>688>4",
"o00qflJPEB868>%vBnbGQKBcy>0xbxlFssYYJFQN52,$2:22;$:2&*s888>8>360",
"#&8iilxlxmx6<$>BBBbcGQhhi,ibxcxBPlnSsMA552>&::252&&:#0vfs0866adA",
"#6vssfi344c84;,bBnlbUzyq91lNbbNGHFbbaNg5423%:2222:$$+0Ags808sSAC",
".sLxlbqilxsqq>>iBKFFVzhyq<cKCbbKYJJSvMa2>233:242,,$$+3gLAvA0aI~P",
"#6Clvbsxsxx0q>38cUBb8kzh6%FGbccT_JSxfvu5,55,:25,&$,%%360Lf8820Cd",
"&5Fvxllvlbb8i>>qx-%6<<kh<%vQGJPBs8804faa25>::,;>,>4>>480054383a0",
"&5CblsbJvJFiq>6l<*%*1<>1>%8Q_Hxq868s;80a55;;8>6iiu86430s04743005",
"#3qPSxlHPGBbi%>8*><%$;86;%>cYi0ii848>6442;,iuhllx2;865av0u033530",
".3qq627RB6;88;>>>%%$qzh1<*$9Gl9q73qxvCb0o<slhixc8,;>00adsu82>;80",
".36&&&bn88>>6%%;%hjBQzy9<<%*Nm88>zCBGbxx>9qxcNJ844,*s0sfda,3%&42",
"..36>8bq>8>,6$$1b^UJKnh9<<*%<NiulHCZFbbv86icxi445in<qdsaAA>&%&>>",
"..22>8h348>6>+1cFcccNKNl71<>%xiiYYHFHFPc87ls0860tlc>3LSLLA>*;%>&",
"&&#%>88>;>>;$@8hy99hlBUx98<8%8ixGFUGNcxl89ssii0umJ0$<xxMSu,&4tus",
"3&&&4663&$;<1@9qy99ikcGKFh68%%8BJblqii8lq0040fSPYh%%8868ba%;88is",
"22$$,,%$$;6ic<<qiipkllnUbzb6<$=KJNxvxhcbbviu40JY8%%>86>>bitt1818",
"&2##:%+:tkilG98hnnBVhlBb9ii;6+*bFGFbbmxlhsxvxZF6$%*0886uxqliii84",
"2&#.$#>ispxmJ8iccmBh8bUBqh*7h$;yiFcBbzbhfifFWm<$>>%>8uuaGxhllpsx",
"52#.o%uulxkBGyiczkq;9BGGll>ll%%>8e=6*$qFslMv>%**><<98ffvBccxiyi1",
"3&#&340ixNcUNuyxkq<<BGNbGl>lh>$>>xkq<<<BBNk+.o%%7hliiifl6hj@%;16",
"2&;aNSvJJBGQNs8lcxlbPBbbB8qhh8@$<l9968<l`b*=%O%zclxcllillKx 8xcx",
"&&fMDMxLJYPfcm6lbcbGFmbbc9hhi9%%hh8yiiik!V7<=%%qclxlibblmBcohxll",
"X8FPFNJJPKpip48lcBGbBGbblhhlk8+>hyiyiikVnnj7=%o@qBbxlBJGK8>+hNhl",
"$sJ~~~~~^sipssxxB^KFDclxlnblx6o1iikhpiBnkkcj<%.@%sFcbcBl1;;+<s>>",
"8isKFFPPDupuimxlGPJFslxxxl79l,X1ytxnnVBhjck7-@o#%%7FQx8t8>;%%6%;",
"i0iu,8yJmtsuxxscPNFSbbml91<1y>+1cckikbBjzk-%<O+><>%6Bl6><<;;@%>@",
"i>>8894ih8ycNbG^KBSbmNb9=1-@+X+1ichi9yxVVxhy1O-*<<<&9kq@+%<%%$$$",
"%;68ii$;889FKBGKGvbllxc8=>@=-=o1iihy<yknUb<<@=8<199<*h1o%%;%>+o>",
"8SDJDMt:8><iNvscGFxxxbNh;711k-+1kyiihilBUq>@@wyhqw17=<<>;+;*%+%>",
"MLDJMmDt;;88Gx0qBJBbmBJq7nzzj<@1i9ihyhmch1*@yhzkqwh91-<*+o;;%@>,",
"DEPbNJNu>%81csiilqsbBK119cncjh=>chiljcm88<@%tyhkkhy199<%+X$;$*,6",
"fLEEExxu,%19lqqlcFQYK1>>1nckcn<;pxkccNiyh1@-hy9jhkzhhq<$+oo@o>80",
"fauft:tt2;%8i68isihPn>1=hncnVb9$psNBNbhih1ohjhjkhhcz9998<%XX@88i",
"fNvMxx0:,:%;>889plscl,16hcBBnn7%fmBGNcxyk9@cjjkkhkmpihw91<o @hhy",
"mWJPPs,4;&$:1*<9ilpli81ibnBccn9*pmNBnbbhy>*BnncnnUbihhhq9=;oo19c",
"vmSPm>,:#o*ssu>>uiici89Bxxnbce9*kNBBGUBi1@<VmnmcVYkkhzhhy$>;X@@<",
"si0sM,>$$40sixf0<ihxi>kUblGVhq7<iGJFYbhh-OhKBnjihnkkkmjz1@;< %>;",
">qii0%+>60aasvfvh%*9p,8lGTGew99;yiN)Gy8h1%cBcnBzkcnkknzz<$;$ o;7",
"sbJx$$;440vvvvSDxq=>6><8eUzq77q>1iiUh9iqyhKccnnchcGVFBnc%X%=>+++",
"zFPu;>6uuflAASAANNi+%><6qze919i$,pyc819q9hUUVBBBnGGchh1=@=hzxq;+",
"x~Fu%>silssvvalvSb$%6q61ej99<w8$1iic7996<9ln^QUYYGl0>><;%zBcnblk",
"FPAi;%vbxxxvvvADIqX$76%8lrw9<7>;;8icqq9>*6q6F/RTzqiq606**UUUUGnl",
"~Ffi%;xPJLFADIWIIq#$7***$+9wh<>;%iicqqi8%7lsx^Rx8ixq386%7UUnzl6#",
")Wsu%%qPFSJ~ICvii7*oqzch%o*jh=%,$8BHqsh9$elqxHFq6hq3>8=$ql8>%.-B",
"WAp8%%qLbbvPxirvr76%9heBVjjjw*%>;>lPlll6<k8>qFbqxl4*6>@>lc8<*hHJ",
"Mfu,%;bPANSFq7qvv7*6ehjzjhwjjO;%>>,pNxl*6hq9iBFbb8;>$$$<lNq:fHbc",
"Mm8,>>xJJbPs0qqrr%#q77zz<<1Vj@$;%;>yKbi<iqiiqbPNq*%@*%$<iq*3JbNN",
"Mvpfi>qiSPJ0800qqo%q-*ee7<jc9*%+%;,yl9><shsiicyq<%@=hq><9%*0BFbN",
"fNNNx%<88xC6857q-.-q-7jwwjhw1=%+>%>yy>$8xliill7<<*%heh<*8>>0sPbc",
"bJJBq&o#**8qaq70*.-677Ge7q77-%+*1$%q8;08>6iixq86<*zzeh8%2&&00UYZ",
"!!^hi&-z7$<q73667.-q777jcw=-;%$89%%4<xviuiiq0786*hGzllq%>&253Ce-",
"NGPii<aFnl67rrrll7&77=%*e<%-<<%0s6o;8xitsmFFPni>$V!c7ee>%o285s76",
"8ici6>iFbbbZCzvZlr7O<lrw--*=<@<svb%+svxfxbbJbbq#<GTjehq6+o2*7q66",
"hhxi%0vnbbczZbnbzcr*qKKGz6<7%$cBFLyo6fllllCFbh*+e^^chcq9OO*ql027",
"Nli90xSFZHZZFZZZbSr2qbBUz=@=+iBbmJiX6lslllFni7@$l_^Bzn976&37q3*7",
"ki96hblbGUGZGHbnve7-6nh<%*7hbBbvJ~i$qbNxxSK986o%FYFKGGbeh#O#.2*2",
"iy>8qqllbTGGHbrv0776-b9<<BbbFSbJSPN%6ixNmFF78%+9HPPKFbzq-o&.*7.O"
};
