/* XPM */
static char *c9cfa433491a405fc7f780d2a5963fde[] = {
/* columns rows colors chars-per-pixel */
"64 64 58 1 ",
"  c #84A1A7",
". c #8BA1A7",
"X c #8BA7AD",
"o c #92A5AB",
"O c #99A7AE",
"+ c #93A8AF",
"@ c #8FABB1",
"# c #95ACB2",
"$ c #9BADB4",
"% c #96B0B5",
"& c #9CB1B7",
"* c #9DB4BA",
"= c #9FB8BD",
"- c #A4AFB5",
"; c #A3B1B7",
": c #A8B3B7",
"> c #A3B5BC",
", c #AAB6BC",
"< c #A4B9BE",
"1 c #AAB9BE",
"2 c #B0BABE",
"3 c #A5BBC1",
"4 c #ABBDC3",
"5 c #B4BEC2",
"6 c #ADC1C6",
"7 c #AEC3C9",
"8 c #B3C1C6",
"9 c #B9C3C6",
"0 c #B4C5CA",
"q c #BBC6CA",
"w c #B5C9CE",
"e c #BCCACE",
"r c #B6CBD1",
"t c #BDCDD2",
"y c #BED0D5",
"u c #BFD2D8",
"i c #C0C7CB",
"p c #C1CBCE",
"a c #C3CED2",
"s c #C9CFD3",
"d c #C4D1D5",
"f c #CAD3D6",
"g c #C6D4D9",
"h c #CBD6D9",
"j c #C7D9DE",
"k c #CDD9DC",
"l c #D0D6DA",
"z c #D2DBDE",
"x c #CFDCE0",
"c c #D4DEE1",
"v c #D9DEE2",
"b c #D6E1E3",
"n c #DAE3E5",
"m c #DDE6E9",
"M c #DEE8EA",
"N c #E0E7EA",
"B c #E2E9EC",
"V c #E8ECF0",
/* pixels */
"004400O$>4ggzbxr80;>45tzffvmzbzhhhccnxxndee1ea06868w8<8edw8ew8pd",
"<,44p0$&Oo$$ixvzadq0q8as58shhkfzxgdfhmcxe1166w666189838we6=88=8k",
"$$350640>$oo0txnzczfzdzq-5585dlkcczccMcge6<41868668yewwdw6e6=<6d",
"&34w0143<54>30dvnNnzhzv9-259qphfxvnmmchgap4167886eeyyydd87w==36d",
"543q067<440e50rznNNNnnz5:,5pppfhcnnvhfhatt068w088peeydje7w63466f",
"r41e4;>>40qrttgzzNVVVNs:-,5pdsalzcchathweet67ww7weyyygjweww7w8wd",
"04343O#>-*->q05azNBBVl5225qsspedcbcge0xtewtw46767ygtgxdww778868w",
"5044>$$$O.o4a,>0szNNnp5599ipspetxnxgt0xhdpwt07w7wggdjgw7e76=667g",
"0044>$$O.X>00,,4alncfa55i9sffapehkaddthhgt00e77wyydjuy77ww7=76wg",
"00344**><-404,,qlfcf5sq9pffffppfcgttkdhjdt060wwyygxjjrww73=6=3ww",
"0r43>>>$*O*<>,,0zffs5iqqpfffffsfckfaggjkdtatrywydxkxjww7=377=38t",
"304>*>>-*$>->1iazzzs99q9fflffflzblhfdkxnjddyyjjxbjjxjy7777w7666t",
"+3444808844>,qglczlp29i9flzllzzvnzhladkmkkgwyknbgykbxdwwwwww777w",
"+>rusuut0088qasxfzsi22isfllfzzzznczzdgxmbkdggxbbjjbbxdywwtyw66ww",
"$>uratr0>->qjahlfzpii99slslfzllzzbzzcbmMbkkdxxgbbkbMbjyw7wdw777w",
">4rart04>>4qashxzzi99iisflflzffclnbbnMMMnkkkcjdxbkMMbjw7wtyw==7y",
">>ri0t04>>0qslglvari9ssssfslffznvnnvmMMMMzbnnkfkMMbMbjwwetyw==7w",
"38ur4rr048rqlgajlaiiilgssflfzfzzzbzflMMzzMbMnjdbbbbMbbkjjywww7yg",
"ru400084,44qjglvggsssslslzclfffffffflMMzzMbbgkkdjxMbedfkddgtgxjy",
"j0$4u044444glvvvlvllljllfzcczlzffbzplnMzkznkdeedetxxwwdjkggjxjww",
"r0>4aui080axNNvvvxhllllvzcczzzfszcfszMnzkbzfdpffydfbdpaadjkkxyww",
">40440t>4ugvNVBmmsihvjgvnnnvnclzzzffznnzkbbdffkkkzcbkeeewtkgyyyw",
"44r448t0rsavNVlxvagvvllmzcnvznvzbfpfznbczbbpfzbbkbnMzwewwdjydyyy",
"000430rst0qjNValvgnNNvglzvvcznvnbzzzbMMnMzbkzzbzfzbMMfq8efgggywy",
"r07000gl40svNNxxvxmNczlhxccvnmnnnnnzMMzvbkzzfzfffzcMbzspddeettyd",
"*>4u45r54rllmvvcNvvvlcxlffzvnnbnMbzzMzzvbfzfpspsszvnbzzfd9eweyyd",
"$34u004>4qulvvvvNvhgzvvgdhznVnbnnnvnMcsfkfszpfsp9fzbzfzfedeweyyd",
">66i05445rsgxxxmNvsgznlhfzccnnnnMnzzvfsppp9spffspszbksffpweeyyyk",
"rr4r54540rglglnncxaaxlhshcczzzzbbzzzzfpp9p9psssspffzzffzdedddfdk",
"lr054005rssluvmNvxpgllghhkzzlfhzzkfsffpsppsp9sspzfllfpfzkdfddewy",
"ur004iuulsgssvmNzchhxghgflkckffhfffskfpp99p99sslsszzffkkfkffdeyd",
"r4000uulluruulvvhzzhzaadafkbfafdfpfkffp9999sszzspplvzzkffbkkkdkb",
"t6ewwtadkypdfzbbffbbfe9ddffcfdffffkfbfp99slllzlliszvzvzlvMnbzzkk",
"6377eatyjdgkfbzzkzbbfdpdpffcfkkfkkffzp99pzfpslvlllvvvmMzvnnnbfpf",
"q66wtyyydgzbznbbbbbfdepdedfcdpddffpffp999sp9illlllvvbnzzzzvnkttg",
"ww77eywydddbbbzbnzkfdeddepkcpdpskfppap999p929llspsvnzfzflznMbdtd",
"0w6wtywfdddkzzkzzfdkddffddfbfffppkpqpp999p92izfiiilzlskfkzbzbbey",
"0wwttddytydkzkkffdde8edffkzczsfp9ff9pp52ip25ffi99plzssssfkkfxMgb",
"70ytdywweydkkkfffd9w89dfdkzbbffs9afsakp99piiipp9illzzpipffeygbxb",
"70tge8wweddgfkfffde869pdfpdnMckfepffffpiisi9iszslvlzli9pdywwwgbx",
"67ryytreyddffkdffke9wedffpfcbfffapakfeqdfki55pnmzcpfapqdde768ddk",
"**7wrdytyyeffbkffke8eepkzfzkzffs998pp9ppifa925fzaf9ppepfp687ydwy",
"%%<0erytefkkkkzfffd9eddffzbzffss999pqfffpdfp999pppeppakfw7wwddwd",
"*%*600ytykbkkbkfdpdpfffkzfzcfsp999qapd9fpsfapp9qpppapdzzpewpkjdk",
"**&37ratykfkzzkkdepedfzzfpkfffp599phdi9qafffffppppfspkbzgdddkkxk",
"**&=ryrwwfkfkzkfe9dfdffkffbfsfsipqffqq969ffhffpfpsfffzbkkdkkkbkd",
"*%&*4drwwfbffzkfp9dkkddfffcffffs9pdq8q99itehppfpfpzfdzzkkkjzMbkk",
"3*&=4awwefkffzzkewkzppfpfzzffkfsdfpqqa99i9qthtaffdzfdkzkjbznbgbM",
"33**3r0rtggsalzxdpfddffapkzkkzzfhptqpfe8986edfaffpckdkkkkbnMbkzM",
"344>40rttgguglkcxxckkfpeqfcckczzaqpadlt00840akffddzfdfkdkbnMMnMb",
"*=4340rtaglxggkncknbMkpefzzzzcnzaqpdfdte06tddfbxkkkddkkgzbbMMMzz",
"**4744iaagvxgggnkdxzbbfepfffkbbkeqtdddde69dtwdcnkfkkykzbzbnbMMkb",
"<>4074rtagbxlxulkgjkkbjffkfffkkk96eaddjw7tdttdzxkdkkdbbkkknbbMnn",
"<<34qrratjbvxxdgtykdjbffkzkzzkbzt09tgdd46tgddkkdddxbbkddkknzznMM",
"&>**4rrhgvvxjgrutyjgfxckzbkbzkkzdett0yt30yyyjkj0edkMkptdkkzkkkzM",
"&<3>>40sgjzjgtqjjyggfajbzzbbzkfzhttw7yywygy0tha06ykbkyykzbzfffkn",
"&>3>>35hshlxjgdujydjdednMMMcckkkhdtry7ryyyyrurw03wjcketjzbkdafkb",
"$-3>;34dzxxxljjgjydxewkbBMbkkkfkxkyrww7wuuy7w777=3gcjpdkccaeeffk",
"$$;&-345anxxxlluyggceykxbbMkgkggkxygrr77yur=6==%*3ycgefkkfwwpfdk",
";$O--34iqvbxxjljgxbxyfxxznMcgdggggtru7r7yyr7*==%#=tgkkjddpwqpadd",
"$-;,>35gdccljdjxxnbjxxxxcbMnkjkdrwu37r7rrw== @%==60gjkkffteeypfk",
"O$$>;4allxkhddgxxbnxxccxbbMbbgytwwr%=rrr77=%@X%%=9eyetddfeeeedkk",
"O-->,5qaakljjgjljbxcxxbbnbbbbgyurr7=3rur=====%%%33wyt7wajffpfzzf",
"--285aetglklcxbxxMxxbbbnnMnbnxjyyy777uurww766%%=3=6yte7wkxkkcMzk"
};
