/* XPM */
static char *f71a39da2a104c96a6e6a8f59148fbfa[] = {
/* columns rows colors chars-per-pixel */
"64 64 71 1 ",
"  c #899EAC",
". c #86A0B1",
"X c #8CA4B3",
"o c #8EA8B7",
"O c #8FA9BA",
"+ c #91A7B5",
"@ c #93A9B7",
"# c #92A7B8",
"$ c #95ACBB",
"% c #99AEBD",
"& c #96B0BF",
"* c #9CB1BE",
"= c #A2B3BF",
"- c #94AFC0",
"; c #97B1C1",
": c #9CB4C3",
"> c #9EB8C6",
", c #9CB6C8",
"< c #9EB9C9",
"1 c #A1B6C4",
"2 c #A8B6C3",
"3 c #A3B9C6",
"4 c #A9BBC6",
"5 c #A0B7C9",
"6 c #A4BCCB",
"7 c #AABECC",
"8 c #A4BFD0",
"9 c #AABFD0",
"0 c #A6C0CE",
"q c #ABC1CE",
"w c #B1C3CE",
"e c #A6C1D1",
"r c #ACC4D2",
"t c #AEC8D7",
"y c #ACC7D8",
"u c #AFC9D9",
"i c #B2C6D4",
"p c #B9C7D4",
"a c #B4C9D6",
"s c #B9CAD6",
"d c #B2C7D8",
"f c #B5CCDA",
"g c #BACDDB",
"h c #B6D0DE",
"j c #BCD1DE",
"k c #B4CFE0",
"l c #B9CFE0",
"z c #B7D1E0",
"x c #BDD3E2",
"c c #BFDCEA",
"v c #C0CED9",
"b c #C2D3DE",
"n c #C9D8DF",
"m c #C3D5E2",
"M c #C9D7E2",
"N c #C5D9E5",
"B c #CADAE6",
"V c #C5DBE9",
"C c #CBDDEA",
"Z c #D1DEEA",
"A c #CEE1EC",
"S c #D2E3EC",
"D c #D5E8EF",
"F c #CDE4F1",
"G c #D4E6F1",
"H c #D5E8F3",
"J c #DBEBF5",
"K c #D6ECF9",
"L c #E1EEF7",
"P c #E3EFF8",
"I c #E2F2FC",
/* pixels */
"miu8%@6;-$%:199err:rgj7anbZBmh0>0h3*VCX:uq<o&$wfz04iiu,<,-5yeeO:",
"mi6r1$6&--$446r59grwfaagvMLISg1$0r0*g;.e4a0X*13iu54pth;e$-rCu-$i",
"mrr>:65&;11w991;6:pf0qgvpvPLZs%$rif$qOO01gq#::4rf4ia6a&y,qgGd:=d",
"xri>66e&;917wwi96X9m00ngbbZBga46ixt*1X><:iq%36:5t:qi*;$y,<qNi$=s",
"grr;6q9;:249w7gwr1wpqiMspmbgw2qwpfr5% 6w141>1:>5r:4w@1:e0twm9 :g",
"ir0;4e56%11ppggwi16pfigwwwggiwew44633*631*4>76t-$q=wpwh:0ihiwX1m",
"fre<3f;,1139pbpid64wiqiqpwga6ahr*>t*1:+@1@9dgw6y>i19uru<;iar9X:s",
"rqr;qjtr12421gpw6;&1t6wpgwwfwaxt6wyrwtq*#16wmgri6ww:wix<>ixi6$6p",
",<8-6fr91#12=MMd66&rr-6afisi7sgd6twrtfNy*%wwga6wfi91jffrwixe>:1q",
"9,ee1w99%@11=bpdf9df6;rru6wa96wxft6ihif8>47>w4$9w444brer3hxe>516",
"rerr%w595%913944wtwr58rg94fgr6riw9,9pqu9:ld1:1@1479%bjhf4jxe<80q",
"ffiu565#9r6;rd22%9:;65;fw>ugff94i94ga9f61dm6%9%r33f*wBNxiNche:3g",
"Ngdut>1$5yr$,9,#,96656r0e6fVxgdrryr7dmuu4wy$;xrff%r7qBa6fxhhy5:N",
"gagf86&:7rr;X65,9fitttu6<6aggllfe5fg7fue75rr8r0fr9yw2bgpwjxuy9@p",
"d7ify>1idw9<#599>fwrf696r6giifmlr5gmls;r9druxr9rx6wf2mAmgjxrrt@q",
"pwfgyrfgfu9,;89,6rhgw6,>5ipfgfsfrrxmVd,Nuuy9hu96u6dp*gCVgxjhhm**",
"9pffffsiifu:eh9,9piw<>,rrwlbBCgd66sAm:dFkee:8frifrrg24mggjjfjVt>",
"6ww6fd996ukyuxf6si9l6r,8:5bZZSBlr3%sx%wMyu80qjffmqrf01agfgxijCf6",
"w6dw6i711659hxrrp9wu969e,8%mSZBmy5*1l97druerjfrrxuqry00gigVtamf,",
"urpfyd11%3qwffry91fr6,;8$62pZMBVur1*ij796hrfxhrruu4tf04iqaCfpw9:",
"ratjer6r5dr:dgdli*tqwiir5,-1vMBLVirqdgdiyzyuirryf<6wut66wtxx6ry<",
"wgffuu5w6t,%4xdy:$6w05uuu99>ivMSm9ywddd91fu<tyrfhfurwufq6rgfryue",
"9jmCur0wrd4:3gf8><rq66qtNdd64pimjwqrfddfr6irwqqxxhwriuuuyryfyeee",
"pmxjh;er,w515fl8errq33rgNMgd5wfifw9tslCmfuw66q>fVNy6fxxzyeyxyyyy",
"pBmfdOdk;5,1wll6ri61:%5gasgm9>wrriwgbZJCkf97rd66Clr6gNNhfyejqfhe",
"gjgf9%gxu8%9mxf9tr3*;55ugipmi>9969wgZPLMxurtsgi1gmd7wxfju0ri6ft;",
"pgfw7:lxuywmVgl9ti5@3wy9gwdmftw96rrasZBMdr6wgGm9dVfk47fjh00t>r06",
"4a6972bMxgpmVfl;3r*$6fu56dssrr<rwijmbbggur19MIK9dMgudrjifrqjrrhh",
"4itp51MSVjwmFlr,5:$*wigw39wpt<;r6wmMsbpgjt6smZcqglfuyetr0q3fetft",
"9uli64gmNgpMMfd:36>*4wxg57rfr;6wwpbbbvgjft9pbgr6dihxttrr063hr0tt",
"pjui949pgfil79l,63e647gi:5rii6>19apff4gmfr6iggqqfdfhte0*q64awtaa",
"xiuuw;p9rwpf9p9>660*;3w4w6wii6#irq9wirqiiw6wpaq9glNhturetqiht0ta",
"igffw%fw69xfur*4i95%&X:16;qii#;w6tr6ere,r9rfpgu6mNNfyeutrfff0ary",
"6uliu$9i5rgww319j51:;$%>3::646;5eeueyeuyuttNmVuwfMNxrykt0efr4Nxf",
"y6if9%ddrux>&064f6*1>$o;>:*q6q;8t8eyrihfuydmxxjrpCVluyuheqipwNci",
"yy9a%*mmgfNt&uq6t>165:&&>:1ui6;<yre<ruiufggsNmf8smVxzyuuttaagbgf",
"ke8r+4gmgrjw;xirgr6456*$;;wsCg3&ri00hagfridsCxjudbVVxhku5ttwjaaf",
"yey:19sbf6wigxt3uf9iw4:98o9mbC0&ri50f6iiisismgxr4gBVzcu58yi6iwtw",
"8e9O1pmgg*dagx6&;1w99*62+$1mbNr*q0qhrxjagNfwfxue9fmNxxurfrhr6w9,",
"8r>14gANf:9>6f9>66pgt54*$X:mNga@06iitjxgmVVxfwyu9pmmhxfwaalgt66y",
"ux:wwmjgioi:qV1:d9wxsw1%=q*sna0X4qr6wwwgbZCixhyegbBggjm6smbfi1gm",
"xxr54j9ga$h$3f@:i1w49671ibqinq=1qf1ifhwiCBfifztrwbBZnNV0gCVbt9sg",
"xit*qw4pi3u$&fr6Nar:6iVpnAtwfa4**e0ghNwims6iifhf4bZZACV0wMBVx%dg",
"gpx%553rxit$0h03ima;:rCgjg>*wwqw04hwhwwgf99trfjr2bbjnbFgwggMV14m",
"ggV:5r36gjeXX034iffe8864wi=0aagN64a0ai0wg6hhtjr4iBnapgf04aagH59b",
"gNc:0t&&fjr>>r9rw4g;e<%%=aawmns00et0tVa0i3ztrjhrinmsgjwawgwihf4g",
"smu><8:<%grqqffftwjqe044wmnsNngNg0*wfjtfV;A3ffhisgnbamVe3w66wj9g",
"9grr8<<eOq44pjfaimg*e6xgfniigmjAVffmmwwhffV&hNxrjfmBfmAf3$5r669p",
":iggx6rq*r44aZBjgBAij6w6mBastmNDAAAAANjt0iz3aAVabggZmmVaw*=$0t$>",
":ajij%::*rgpqwgjjSbgmg6fZmV6=NDDnjDDADVt%V6;apbaj4pBBAm0i>*@3h>*",
">rfgf,O%4pjMpa0abbCrs99mAGCf0aDSDsADAAxr*Nf4AbNabw4gNAf>a103663;",
"6rigt6>1qiag44ibgjhig9:ASGNihmsvAaBDDDss4DiiGCmfmw4pjjj:t3wfxr>3",
"fjfw9669%19w41wfmffq974SLDNgjrBDDbbZSSmtwmeibCiijq*wbqh613mmmNuq",
"rilpw6766#*=43X4riN32%:BBaga34BJAnZDnSjamDfrw02ami0pwqz5;9wpwpa6",
"q4gmw49i65r5:q9pqrr66ragq40%*ejBDvZDSDViAJfgNjrmxi6*6tq:91216419",
"19fi9wbg4568**eiqtr6qVfrbmg0imssvwnZJHAwBSqbDAeht06*3tr5;**1*6:4",
"@9xw4bBmp56q663r0ife3ehrKAwjBZ4qs4nJJAVfjAqSZaaar6;6;0et:;$#5>;5",
"2wmipJSma663pmgiee04*6e0VFwNng0qbgnADNBqbjwZnahaf0&0r><u551$6r55",
"w9jwabgpi614wfgCe30y0<e-<chgg31hbsnIbqm0GfaCqwi00r6:r<8w5:6-$15%",
"*pj2wpwwai>:qmnjt<ry>,e<&tzfww0aswjDsNNihh4q4fgwa53>0e0i6$3&%%55",
"1gs9wwwpgq60ajgi0>0aO<t00euhat3wa=q=*am0he3r4bgfhr9ih;6r6:;,w9;6",
"wxNw949ga016444q3&0rtr0ae>0trwfww =inx=wc<6>4mfqq>rBh@r015rw9t6-",
"qru1w69www#X##*433r6zujgw0etwxmq3abDmnh0j6,O%:**r3pmi>56:4t;*ty5",
"rii55$1141@@:&>16i6tcasffhxhewqitew4=Zj1iy;XO%*qt1pae0;65xr%%X&r"
};
