/* XPM */
static char *bb7b35f037624c98b6360cbf95ed171d[] = {
/* columns rows colors chars-per-pixel */
"64 64 51 1 ",
"  c #94A4C5",
". c #99A9C7",
"X c #97A6C8",
"o c #99A7CC",
"O c #97A9CD",
"+ c #9DACCD",
"@ c #9DADD0",
"# c #9DB0D1",
"$ c #A1AFCD",
"% c #A3B2CF",
"& c #A1AED1",
"* c #A5B3D3",
"= c #A9B6D4",
"- c #A7B8D6",
"; c #ACBAD5",
": c #A6B5D9",
"> c #A9B7D9",
", c #A6B9DA",
"< c #ADBCDB",
"1 c #B1BDD7",
"2 c #B1BEDC",
"3 c #AEBEE0",
"4 c #B1BFE1",
"5 c #B0C0D7",
"6 c #B4C2DD",
"7 c #B9C5DE",
"8 c #B7C9DF",
"9 c #BAC8DF",
"0 c #B6C4E2",
"q c #B9C6E2",
"w c #B7C8E4",
"e c #BCCAE5",
"r c #B9C6E8",
"t c #BECCE9",
"y c #C0C7E1",
"u c #C2CDE6",
"i c #C2CEE9",
"p c #C8CFEC",
"a c #C1D0E7",
"s c #C5D2EB",
"d c #CAD4ED",
"f c #CDD9EE",
"g c #D1D7ED",
"h c #D0DAED",
"j c #C2CFF1",
"k c #C4D3F0",
"l c #CCD6F0",
"z c #CED9F1",
"x c #D0D7F1",
"c c #D1DBF3",
"v c #D5E1F5",
/* pixels */
"qqatssddlsq64w6$0a;+<0ir6;qs1tdueudddgdsuy22&=<0:&>qq51;9ssstitd",
"60t6tseuls6q0ti;+16<0<2wqqts3tue1eddudlsda06q;4&o=0tat6=;euaisli",
"0rqqi<0jsw66eqq6X :e2*666wawtstqqpgugccgxfqee0<<<3wuatw0qeeaett6",
"3=eset00e*:t6qqi6:<e;*0w7titiessepjudcliieq622r<00<0r0stte2reeqi",
"aqtsttwat<%rtwe06rre;:t0tteesuidddscdvc9udt<060w<00:wss<3<2wcpii",
"ffstw6ts6i2<e2022rrq00<,0q06sissslcafcdgssatewta3:stss2:j0tddsig",
"dfaw<,akds2wi<40rwrt0rr40qw0wskieatdcsdueierid03:O:0a0>&6wsdu0dd",
"dddeesssxdssw:4t6wrjrr0r<6wt0ete8awssaduiquusl3<*:0<tr0:1sdie10d",
"ddaq5qzaqssw6ttwtdsssw33:<00<rqiwwtetisittewaleedss52t6>r<audsdd",
"cdwsw5wt0te<<wr0ttktl0000t060rtt03rssis00eqetlksftq6eqrse0suisad",
"sdddftisauq*0q:6kw3re0w0<<0jjriae0ri0ia0>wawqtadssddsteiedut0tw0",
"qesiq50q0000ru6eiiwsttti03rjettti000:u00tettattialuedqie7uut06t5",
"eussq66e00r:30<66tslr300tt0ksswtttrrwitttew0qdwqtlsus>t77e0<:o>:",
"qiddluus>;0@w-,t5etas3::<tewu60sdt13r>>0w50w001wattls44rqqw:**>*",
"*9iuulgswe0**<<,09*>tr300saweje0ew00<>w*:30>304rqwtair<ewe6:*<-+",
"=tq;5qjsud<*+$#+00>-03w0reii2wt08tw0<0q:O*00eewa9waq6<rui7>:@0<.",
"966;65eddi<*=ootr41006kdla<6qt0w0err0t4e05rtqtsw5e1.<*:,3;o&*0,$",
"e;eddafxseee12ewus0rstaasswts66tldsatq6wtetrsst06wt><<+<,#@@+*:e",
"queuuduudtw6qusiwiiskaaasswsswassdtq0qee6;stw6t<qittw;320*+#Xo1w",
"16d5ugiudq5aawweiruafkaagclsastisaut665t06at5606etatt6*=qe;1*$$6",
"57deufugu11aatqqt6euae8aesdsatawjqeaw5qqiastqt06t<wq6e;200;<0;$*",
"qaeaqesseqqqia55qrrea80fssdgiasaatuadsaqi60taaq0au30sadwa6;$**$$",
";qe6=qdstetatatq164<qdwslgvdttfa57sdiflaw3w5aqwqtsewslseiw;>=*;<",
"6q;<1udq7eatetq6q00:uieqssagaeaw2tdsdcsf<1059tt7etsdafdse;=6q=66",
"6;%;eau1<sw1601660<3eiuee2igfl63aldfsdau:;5q61qtqqqasdssd7155=6e",
"e61udd6ttswww;06100te00weqsddf6eaaddss7610>03#:5qaquxgddue051<56",
"a11duyudaai1ea6eqqrieq66tsssefadeqfdpde7iw153$-<eaftsusgdas17ewa",
"a88auppaddt67aat*eat7qe:twtuta6ew06aatq2tewr$$w,6aattsuufcuquida",
"9da=6uudsftuu;2q7w06tq:=:qeaa7=waq9aa55q62qi1*#<6wquffdgaa9asde6",
"au=%1aafdeesi15006,6e6**+>deat-<edadseqt5565611q00eadpudd999gq76",
"u;2eta9useqldude=+=qe3#@,rtasq;>eaaka6aa-08%60<2009ipaap97a6au=5",
"6%6tuae9dqqsidduq0=5866>1wq0u60qqtast6eq,5=6w*X+-66uuuauadfa99%$",
";q91=eudgeqaa616ta6wtst20r00qqt<w626wju6q66eeq1+-0wtteeafa9uu5=;",
"6et=6udide6eq5%;t60als0<3w<<00:<w5;w7itq26f6ae$3<056et9sas99q==;",
"ea11uuddddue;;<:02wuttd0*0<>0:*r5ttwtaat;25ie5:5q66tt66ea9%5u;1%",
"uu=esdglss91=+-$*6tet>eiwj>6<50065t7a89926555;6dqa65w59a9=;96%15",
"ppuhsicl665*++>$%:<tstwijt66wq26t60da9a8uuu16w6uta=%6eqe77dea%6a",
"ddapdgs7=;$+;*$*+@>tiasiirtt00ts0>0a9eaayuputaa5*626aq7uaudgtqud",
"dxduddle2*:+>-$$+#6tae6wte13t6war<0duyau7ada19d56t59uuuddddu6qeu",
"upfhxsddew6*<0<+;*0itt68t66*6te60<5uauf9dddaaseeftqsduuudd98u72u",
"pfhfdsgssi7taj0q6><0rt4euqst0eaw2qiasgddduguddedd5eaqu7;ddaa9auy",
"dvfcfcfdsiqut5ttet=2r44eatstssueu6saudjsdssddeudpaat266uday69ddd",
"dddgxdglcdldeedsu0400re2qetuzdqtqisidu0edsigiuddpa89tduupsupdhud",
"g7ixldedcxllsudgp<4r24eqqeudswqw5iiue72<q6idusgsua9eausadauuppya",
"deugduuxcslxdeicdi501>ijaede50wq=5=*250:;t8aauddppdduq6tt7duaguu",
"7tgyudsslpiepdiseee022rst6dclasa6$*6;===;etaiuulapdadu6;dssghuud",
"6q2qusg7esruue2sequ65qawqeupweed95q75;*%56atqugdgahpupi2sduuuuuw",
"26%0di6q67eipe2teww0sauqew5iqqtat86%6e;:8tas7sdcdddudhd52uuu;et;",
"qeeuei60tslls3*<tei6tae0ii1twaauaqw16q66;6tsadgcfhupdggu2*qtqet6",
"qteueei1<ssu=&&&>rtuess66a0waatesii;;te0%$6wsuchhsdhaute6;;qq5w8",
"><y0qwqr<r66<<r2=0ssuidiwe656qaaiteo+;%q<%6ad7sueu9uu=6eeiq0u60t",
"12d2ieuu<%itr10eeudsddpseeiuutttet0#;$+1>>*6qse0u77777ueeiq60;eq",
"2uatesiu02euu60uqegddudsuedduit6tae6w0=*$*++6ewqi6wusssu62qi6;ae",
"eu0rtspeqe6jrueiddddureiquipstisddsda<:$+$+;ae566q9uadsq5%6sdqqa",
"pursi0upjieiwqeudsesu6wtuduuet6qudxci:$*$+<6tq66=$9euiuqs6wpyeas",
"splis00ppieuiiwiastdu%0aiwiiisuiuxfci*;0=<w5w0*;6=tes6uuuupyuuuu",
"iiuuyewsu72ilsisues06<rqi0tduauisffdd92quuu266*1q5=+2eiduus7ldsi",
"xelpueqde26eeidt201o<st1=3ssq67scxduuuuuduet5.+1<$.=%62rdeqeu0eg",
"pieu426uq<e67sseqe<<650=&4157sddulduisgdpsiaq<%2&=0eese0st56ajud",
"du0s1e52u0r66wiwe24st:*>06+8qtiuddeqytglues66w>=2;6eiuu6epyugssd",
"xdee=wt;ur;4equi00t02<+eqqqtiiedsiusuupllzpe61+*r0q;qe70iiudslgx",
"duidtut2ipee70w0<ru2&22<;;6tdde6ucgipsrplppi*-X ;;24&2<qpagvfgdd",
"duusqe7ediqe26q04uer2==**.=2udy27uddpduugi2e0*$+;r76=1$<upuhattt",
"us0ie7pccup0<02=0244=&4w0=e67duduupudllpldq0=+2q7q66qe0qiuud7qwa"
};
