/* XPM */
static char *_9d8ff3a60bc49e4ffe777d5ca866018[] = {
/* columns rows colors chars-per-pixel */
"64 64 131 2 ",
"   c #424D5F",
".  c #46515F",
"X  c #4D5967",
"o  c #42526A",
"O  c #4E5768",
"+  c #4C5A6C",
"@  c #525C6B",
"#  c #4C5C72",
"$  c #535F75",
"%  c #56616F",
"&  c #58626E",
"*  c #4D6179",
"=  c #546274",
"-  c #5A6675",
";  c #5D6977",
":  c #55667B",
">  c #59677A",
",  c #5C6B7D",
"<  c #616D7D",
"1  c #566981",
"2  c #5C6D83",
"3  c #576A88",
"4  c #5E6F89",
"5  c #5D7085",
"6  c #5D728A",
"7  c #626F83",
"8  c #647384",
"9  c #6A7585",
"0  c #63748B",
"q  c #697789",
"w  c #67788D",
"e  c #6B7A8D",
"r  c #717D8D",
"t  c #647791",
"y  c #657A93",
"u  c #6B7C93",
"i  c #657D98",
"p  c #6A7E99",
"a  c #717F92",
"s  c #75818F",
"d  c #6E8095",
"f  c #66819D",
"g  c #6D829B",
"h  c #738295",
"j  c #798596",
"k  c #73859C",
"l  c #79879C",
"z  c #76889E",
"x  c #7B8A9D",
"c  c #6C85A2",
"v  c #6E89A5",
"b  c #6E8AA8",
"n  c #7286A1",
"m  c #758AA3",
"M  c #7B8DA4",
"N  c #758EAB",
"B  c #7A8EA9",
"V  c #7E90A6",
"C  c #7691AD",
"Z  c #7C92AC",
"A  c #7692B0",
"S  c #7C95B2",
"D  c #7E99B5",
"F  c #7E9BBA",
"G  c #808C9A",
"H  c #818EA2",
"J  c #8292A5",
"K  c #8895A6",
"L  c #8394AC",
"P  c #8996AA",
"I  c #8798AE",
"U  c #8999AD",
"Y  c #919DAE",
"T  c #8296B1",
"R  c #849AB4",
"E  c #8B9CB4",
"W  c #849DBA",
"Q  c #8A9EB9",
"!  c #909FB4",
"~  c #8EA0B6",
"^  c #86A0BD",
"/  c #8CA2BC",
"(  c #92A2B5",
")  c #92A4BC",
"_  c #98A7BB",
"`  c #96A8BD",
"'  c #9AA9BD",
"]  c #86A3C1",
"[  c #8CA5C2",
"{  c #8EA9C5",
"}  c #8EACC8",
"|  c #92A6C1",
" . c #94AAC4",
".. c #9AADC4",
"X. c #94ADCA",
"o. c #9AAEC9",
"O. c #9DB0C6",
"+. c #96B1CC",
"@. c #9CB2CC",
"#. c #95B2D0",
"$. c #9CB5D2",
"%. c #9EB9D5",
"&. c #9DBAD8",
"*. c #A1AFC5",
"=. c #A1B1C6",
"-. c #A2B4CC",
";. c #A4B9CD",
":. c #AABBCE",
">. c #A1B6D1",
",. c #A4BAD4",
"<. c #AABCD4",
"1. c #A4BDDA",
"2. c #AABED9",
"3. c #B0BFD2",
"4. c #AEC1D7",
"5. c #A5C0DC",
"6. c #ACC2DB",
"7. c #B4C3D5",
"8. c #B2C4DC",
"9. c #B4CADF",
"0. c #B9CBDF",
"q. c #ADC5E1",
"w. c #AFCAE7",
"e. c #B0C3E1",
"r. c #B5CBE4",
"t. c #BBCDE4",
"y. c #B4CCEA",
"u. c #BCD2EB",
"i. c #C1D5EC",
"p. c #C2D8F0",
"a. c #CEDEF6",
/* pixels */
"{ ^ W ^ %.+.W X.[ 1.$.f m N D { X./ ^ W R S Z k y u y j m V N m J ) I L ) e.2.:...T n T ..-...*.( 7 7 ; < 8 z w Z L C T [ R D W ",
"F W X.&.$.2.2.>.$.6.Z v / D W  .;.W S ^ W Q Q R l y p g m m B Q L ..*. .Q ..-.,.-.) I E ) <.2.3.| 7 a 9 , > V ) ~ / E  .[ v W [ ",
"W { X.5.@. .Q  .<.;.^ S D [ [ | / m T R T C n k V z z B M m o...z l *.-.) Q m R -.@.) 2.-...| E l r H G l M H H ( ;. .) S N D [ ",
"{ { W {  . .B n ) ,.{ X.S Z S m L Q c Z D v i y t e k B n | 2.R 0 w T L  . .Q  .=.-.>.<.2.<.| P H H ! a j M E L z T  .W C W N A ",
"T S S W Q 1.| J -. .{ W R Q S p g Q @.Q [ T B p 5 0 S / ~ ../ V J h k R / -.+.2.@.O...<.;.O.m V P P L z L E J p k W 5.@./ { W C ",
"m D ] $.W $. .Q ..n T R [ W R B S | X.X.F S A A T Q ..-.,.) M T g M H ....k Z | ) ..| L J d d j *.-.L E Q E Q E R / ,.%.X.D C C ",
"[ [ [ A W R $.Q B y o.Q R W W W D Q ^ R N C R R  ./ { R / B k ~ g M ` ..@./ Q Q T T E 7 h l h M 3.4. .Q  ..... .} ) 6.,.C C C / ",
"{ X.^ F ] X.X.#.B o.E B W R F W ^ W [ A T [ } X.{ ) L z ) Q R M g ) ../ / o...| R L z u M P h J 2.-.^ S Z { |  .^ { ) 1.^ W [ { ",
"{ X.{ $.&.$.+.,.u./ Z S k S A S { A 2.X.^ ^ W {  .+./ Z ;.+./ 6 y ~ R E T ~  . .;.~ e , j ) J ' ;.o.W ^ R F [ ^ B S W 1.+.} ^ ] ",
"X.&.+.+.$.&.5.@./ u k { / ^ / C T W ,.#.+.1.{ [ $.+.) ` ~ ~ Z , T Q R  .o.o.5.;.) E w 8 H ! ( 7.1.R C S [ R { S Z W X.1.#.] F F ",
"#.&.W { [ 5.$.y C A W [ o.{ D S b [ +.[ {  .[ X.5.X.W O. .@.E Z -.O.>.-.@.X.o.@.` z k V e x _ =.) D W b [ S +.%.^ [ ^ { +.X.[ } ",
"X.[ ^ / 5.} ^ C D [ S / / W C A A { { D Z R Q { @.W m / Z Z Z ..) p T | @.../ ~ -.9.:.h K U _ E T v D S F F X.&.} $.} ^ [ $.&.&.",
"[ { } { 1.{ +.R A ^ ^ ^ ^ C D [ X.X.+.+.X. .^ ^ +.^ f Z ` W R  .n Z m B | W R I -.i.:.E _ E L L V R R F C W +.X.} #.[ ^ R W W { ",
"[ +.{ ;.Q S C ^ A S [ D 5.] [ ^ ^ %.{ X.%./  .#.+.~ Z R +. .+...M V h L { O. . ...( ` ` U U V h V T { X.^ W X.D S Z ^ ^ / m Z W ",
"[ C T ,.E y A A F S W W 1.X.#.$.^ #.#.} +.S / O.$.f d N } / / / R Z ) ) ..@.O.Z k m a 8 8 k g 0 k N Z R #.@.+./ Z / +.` d 6 y Z ",
"C N g N [ c C A S D Z { #.{ +.X.^ +.$./ ^ D W 5.Z g F / @.@.I z T @.E B L  .J h y 6 0 8 u h 0 g V V S / o.5.,./ W 8.@.` S ^ S Z ",
"B g g v } X.{ } $.X./ { / R W | X.#.$.[ +.X.,.,.m ~ X./ C d d k v T 4 0 B n a M p p l 4 > 7 a 3 d Z I @.>. .E | R <.Q T { X.^ Q ",
"R m g S / { X.1.X.[ >.X.$.X.X.+.+.X.X.{ W Q X.$.$...+.+.^ m N V T V m n B M a a t n B B k 3 a L d z Z  . . .C m Q ,.) R W R W W ",
"m ~ R / @.1.q.%.{ R B [ @.N / / X.m A B S  .) X.R  .@.m R ` / N t u m B R M u t t k M B M B B _ ~ D / ^ W ,.) m ..O.| | S D Z i ",
"f M X.X.t.$.^ X.{ m B m T Q +.X. .B c S { X.Q ) / R k L +./ m Z i y u L Q T H a p k B n B | L | ;...W $.F ,.X.R =.T W S [ / R m ",
"S W X.w.,.#.[ } X.S X.$.{ +.X.@.) S W / o.Q m B R R g v ` N T  .B m m f p p H l l M B B >.o.n a ) o.[ ^ [ W @.Q R 0 Q ) W D W Q ",
"{ #.} 5.5.^ F C W +.y.y.,.$.2.X.T ..{ W E ) E y I ^ / / { c k m m M 6 : t p 4 4 l L n | >.E t q V B ) C R ^  .O.M E  .T / / W R ",
"{ [ ] &.5.X.W ^ ] #.1.e.W b R g [ ..T R R W L V R I ..O./ X.T M d Z 2 0 l n q t L Q | o.T B B l k ~ E  .2.,.>...;.-.Z Z k Z C S ",
"S | X.&.&.W C C A R [ ^ W b C m ) { R T B B z V ) / ..R I 5.,./ d R z M M l H L Q T o.Q E E H B R  .T ..8.L T y / n k ) W W W C ",
"B Z W / [ S [ ] W D { [ q.c R C N N E Z L B R L ~ | _ U E m Q ) m W R ~ Z V E ~ l l o.| ) T B H E ) *...p u $ 4 a h L T  .Q ^ R ",
"Q S W o.2.+.,.{ X.[ { X.,.Z N B t 1 t M H M I E T ~ ( a w a z T d ) ) ..) / Z R L Q ..T t u l ! -.>.Q L q 7 q a p 0 L <.8.) Q W ",
"i g R / @.| L Z  .u.T R X.>.Q L 1 # p k ~  ...I E ) P j 7 9 x L +. .O.o.4.) Q @.| Q M k P l P E <.| M p 2 q l u p w p E M V R T ",
"k 0 g g p g Q 2...L / [ | X.@.=.L H a ! <.*.*.~ ) ) r < 9 9 M a V  .8.0.p.W R >.Q B E | P E P ! 2...) L : a M p m g u a g v T m ",
"B c y c Q Q L z k m | |  .p ) n o # q ~ ! 3.:.H | E M w 8 w u 0 p E t.8.8.) $.R p p n | -.! L ) _ E L ! a q u l M n l u B B R A ",
"N N i i d f 4 y M l T L ..-.-...w 1 w P r < G *...P P ~ =...M M T ) _ u @...@.B p 3 t W L l L 3.~ L | E H q q u u l n B Q T C m ",
"R Z v y p g p u n p L T Q |  .~ Q M a j ; . O 9 P E u l E z 7 u V I M 1 ! Q p g p p T L n l *.e._ E ) 3.L 0 H t 3 H M p T W / W ",
"R W m g Z m y p u L R Q | Q  .E I M j j < 9 <   # l a t L k 7 1 a t P $ k u 4 4 p Q Q T a p *.) l p ) *.! q u ! t u B i N [ X./ ",
"X.] Q ] [ R S B k Z O.t.O.Q l 0 E ) ! 7 O & r q Y T ~ R | n a | z 2 a P l 4 p a L T n M M J *.L E _ ) l q H E _ | E p 3 T | X.o.",
"X.F W [ W [ X...f 2 M h p L t $ u H G 7 % O 7 j ..T L *.-.p ) @.: : > P :.a ~ Q H t l ! Q Q -.E _ <.Q l t p ) :.<.-.E p T Q ^ o.",
"1.} A Q [ +.1.{ m z T T m L L L a > r _ Y r @ a H p M -.) ) 8.) z u 8 : J _ H T t H ~ *.| *...P M ! E H L H H l >.-.*.T A A W | ",
">.$.W D %.1.5.q.$.T O.[ B T I Q P l a _ *._ 9 7 q H P | E <.=.V J k 2 o 1 E *.) ..U H a ! -.E a H ) ! T n T p l 2.>.| L T T Q >.",
"%.X.[ $.5.q.5.$.>.@.e.o.T S n z *...! _ H H Y $ $ a *.P K ! U L M p t 4 n p ! <.P P H r a P ~ H l l T M l l H l E | T Q Q A W X.",
"S A [ >.X./ 8.4.@.,.6.{ W | L O.*._ E x I P u - < G *.! h *.! n m z y Z Q M p ! u u 9 u u P U a a a l n n u l P E |  .$.$.{ { W ",
"c A X.[ ;.%.} ..O.1.<.^ W X./ O.) E E J E J l q q H ( =.( _ Z L Z m M L B L L ! J a 7 9 q _ Y T E L *.| T ! L l P 0.T +.W i c c ",
"b A T [ { X...B k / 1... .R C Z m L ) M U _ I l J ( =.=.-.R h Q W B B M n E T P Y a K G K ' ( M L M M n l p t 0 a -.n N A Q F N ",
"[ X.W A Q T %.| Z ) @./ { D D / n p M J P M M M E ( ) ( O.` T R ) R V L M Z ` E ( P Y _ P Y P _ R g 6 , * : k h ( *.t 6 v A F { ",
"[ #.X.A $.W X.$.I @.Z R S / / R R J V E j q e q V ~ U U =.) ..) m M L V Q R ..P ` =._ H l P Y *. .Z m d 0 m C y ....6 ^ A f c b ",
"A X.$.F R ^ W $.~ R 6 / ` W R / Q Z T Q ; < - < r x U J ..` ) ) d z ` I ../ ) x ( ( K x _ _ _ *.~ Z m f N R W k E  .S Q ^ b A A ",
"[ | { T A W { [ %.M / ..C ^ W I L T E E a & @ r s q V I U =.=. .h K ` Q / ..V q G P J G _ *.<.3.-.V Z Z B B R S T X.[ { 5.} ] F ",
"^ $.@.W #.&.&.X.#.8.;.M R p B T ) V E ~ j & @ < 9 < h Y E ` ..-.d r ;.U ' V x x x x h x U ..~ ! 7.0.7.m ~ g C S N ^ [ S 5.^ ] [ ",
"] X.X.$.#.&.%.%.1.,.c g ) | M  .@.z ) h a G ; < 8 s P ( I ;.@.M e q ( J V 8 8 d w h z V ( O.L ! 7.3.m d T X.S { D N W / 1.#.&.&.",
"] +.X.R { { $.e.v c N S Q O. .*.B I ( 9 9 ; & 9 q x P J d ` ,.V d 8 V s < , 5 d 0 z T V T Q ) J M V Z Z ^ .. .W S C C { [ W / [ ",
"Q { [ ^ Q %.#.Q N D [ D Q X. .O.! .._ H @ ; r < < k k U E L E ) J < s < s , ; , I ) ~ ) R Q E E V R ` R W ) @.R b R W { { W T R ",
"Q [ / X.{ 5.} X.^ A F ] D +.O.;.~ J P 8 . q V z ~ T R I ) R k d - > a r H a l a H H _ >.) [ -. ./ ) / W N B W / R [ @.>.o.o.@. .",
"X.%.@.X.D / R B ^ A C { D +...` 0 h Y ; ; s M  .M W S ~ @.O.8 : q 7 l u l l a J E L H |  .T o.@.O.@.W R B B M ) Q $.@. .{ X.o.E ",
",.| { Q R W C N C F A ^ D | { ;.V x U 9 ; z ) / B ~ / R ` O.z I a l ! P M l J L M p p T >.X.[ e.) Z { | T B J M B X.$.A { >.Q N ",
"| C R R / ^ S S S S D S ^ >.8.;.k J 2 a w ) / m S /  .o...~ ~ z d l ....M E E ! T L T X.5.>.$.2.E h B Z B L B E / $.1.X.W >.| W ",
"x y ..W W R R R ^ } +.S / } ) M n E 8 z | =...S T ~ R ~ ~ 5 j s d M 2.2.) ) o.| *.| | | <.r.2./ h t @.V y V T  .$.1.W W Q ^ @.T ",
"M O.~ S ~ W W R m S ^ #.X.+.{ Z L B Z _ ../ ..=.../ Z Z z d x H d K 8.=.W L L  .[ | 2.2.4.p.u.+.y )  .T M n E [ O.$./ S ] [ +.X.",
"9.W T m g Z S W D { ] ^ $.} $.O.Q 3 i ) E E T )  . .;.I e 5 x ( G E <.:.Q -.Q ~ o.) <.2.e.t.t.=...*.Q Q W W { [ o.2.+.@.&.$.+.1.",
" .u z ..W ^ W D [ F D [ $.@./ / V 1 T R L |  . .;.$.) E q 2 J _ ( 4.<...H | a.-.o...) <.8.<.t.2.=.E R T W +.X.X.1.-.o.@.&.%.,.&.",
"b N W { +.[ T D S S { { } ,.} @.J n @.O.>.O.@.o.>.$.Q z u H a H _ <...E L z 0.0.| ,.-.o.O.2.t.,./ z D N D / / ;.2.,.@.o./ 5.#.y ",
"W ^ R [ { W N A A S [ } #.@.S ~ T o.| M Q o.-.{ ) ) O.O...j H P _ ! ..4.) L P ~ -.2.<.o.;.,.2.2.5.^ / ^ N D } W  . .{  .,.+.R C ",
"A [ F ^ D N S [ } +.$.$.+.W / B T X.m n v T | / R R <.a.:.H ) Y P J U O.| T I -.=.V O.<.e.=.) D I ;.~ S S N C I | o.,.o.,.{ +.Z ",
"N W [ W 1.Q { ^ / 5./ ) ) W | +.$.R T R V T |  .) ) O._ ..*.~ ~ V z P E H M ! 8.,.W Q ;.2.Q Q T I  .) C Z R I ` ..) / -.) S D W ",
"F b A } #.{ F [ Q {  .Q M f ) W W R X.^ R Q o.-.@.Q Z P z a u x j 0 g V P P E 2.$.T Q -.z Z o.` ~ M T ` ) E V ( U x V O.Z f N S ",
"F c b N +.X.A C W / $./ k ) ) R W [ W [ | / / O.Z u 0 6 4 7 u p t p L P P Q ..2.,.S B B g W i.) Z k M O.( d d K K V x ~ ~ f D Z ",
"{ ] F F [ ] F #.$.+.+.+.;./ Z m B S A A C n z V x M y g z 4 2 u w 5 p J T -.@.o. .Q L R Z / t.4.R L ` V d V s x j j V V O.S D { ",
"D ] ] ] { &.#.&.&.1.$.y.4.w R ~ B W S ) R u m m a d y n M z w : p h y J P -.@.|  .T M ) ..E -.4.) V k r - d d s j x Z I I / N N "
};
